<svg version="1.1" viewBox="0.0 0.0 826.9816272965879 200.3779527559055" fill="none" stroke="none" stroke-linecap="square" stroke-miterlimit="10" xmlns:xlink="http://www.w3.org/1999/xlink" xmlns="http://www.w3.org/2000/svg"><clipPath id="p.0"><path d="m0 0l826.9816 0l0 200.37796l-826.9816 0l0 -200.37796z" clip-rule="nonzero"/></clipPath><g clip-path="url(#p.0)"><path fill="#000000" fill-opacity="0.0" d="m0 0l826.9816 0l0 200.37796l-826.9816 0z" fill-rule="evenodd"/><path fill="#000000" fill-opacity="0.0" d="m142.76378 103.98688l70.708664 0" fill-rule="evenodd"/><path stroke="#000000" stroke-width="1.0" stroke-linejoin="round" stroke-linecap="butt" d="m142.76378 103.98688l67.281586 0" fill-rule="evenodd"/><path fill="#000000" stroke="#000000" stroke-width="1.0" stroke-linecap="butt" d="m210.04535 103.98688l-1.1245728 1.1245804l3.0897675 -1.1245804l-3.0897675 -1.124588z" fill-rule="evenodd"/><path fill="#cfe2f3" d="m21.5958 50.942257l304.09448 0l0 112.913376l-304.09448 0zm4.032137 4.032139l0 104.849106l296.0302 0l0 -104.849106z" fill-rule="evenodd"/><path stroke="#ffffff" stroke-width="1.0" stroke-linejoin="round" stroke-linecap="butt" d="m21.5958 50.942257l304.09448 0l0 112.913376l-304.09448 0zm4.032137 4.032139l0 104.849106l296.0302 0l0 -104.849106z" fill-rule="evenodd"/><path fill="#cfe2f3" d="m44.68504 73.845146l98.078735 0l0 60.28347l-98.078735 0z" fill-rule="evenodd"/><path stroke="#ffffff" stroke-width="1.0" stroke-linejoin="round" stroke-linecap="butt" d="m44.68504 73.845146l98.078735 0l0 60.28347l-98.078735 0z" fill-rule="evenodd"/><path fill="#000000" d="m77.055374 109.84688l0 -0.53125q0.609375 -0.03125 0.828125 -0.28125q0.234375 -0.25 0.25 -0.6875q0.03125 -0.4375 0.03125 -1.0l0 -6.90625q0 -0.328125 0.015625 -0.609375q0.015625 -0.296875 0.03125 -0.546875q-0.28125 0.015625 -0.578125 0.03125q-0.28125 0.015625 -0.578125 0.03125l0 -0.703125l3.609375 0l0 0.53125q-0.59375 0.015625 -0.828125 0.28125q-0.234375 0.25 -0.265625 0.6875q-0.015625 0.421875 -0.015625 1.0l0 2.65625l5.734375 0l0 -3.359375q0 -0.328125 0.015625 -0.609375q0.015625 -0.296875 0.03125 -0.546875q-0.296875 0.015625 -0.59375 0.03125q-0.28125 0.015625 -0.5625 0.03125l0 -0.703125l3.59375 0l0 0.53125q-0.578125 0.015625 -0.8125 0.28125q-0.234375 0.25 -0.265625 0.6875q-0.015625 0.421875 -0.015625 1.0l0 6.796875q0 0.4375 -0.015625 0.75q0 0.3125 -0.03125 0.515625q0.28125 -0.015625 0.5625 -0.03125q0.296875 -0.015625 0.578125 -0.03125l0 0.703125l-3.59375 0l0 -0.53125q0.609375 -0.03125 0.828125 -0.28125q0.234375 -0.25 0.25 -0.6875q0.03125 -0.4375 0.03125 -1.0l0 -2.90625l-5.734375 0.0625l0 3.4375q0 0.4375 -0.015625 0.75q0 0.3125 -0.03125 0.515625q0.28125 -0.015625 0.5625 -0.03125q0.296875 -0.015625 0.59375 -0.03125l0 0.703125l-3.609375 0zm15.924896 0.25q-1.125 0 -2.03125 -0.515625q-0.90625 -0.515625 -1.453125 -1.4375q-0.53125 -0.921875 -0.53125 -2.109375q0 -1.265625 0.53125 -2.265625q0.53125 -1.015625 1.4375 -1.59375q0.90625 -0.578125 2.046875 -0.578125q1.125 0 2.03125 0.53125q0.90625 0.53125 1.453125 1.453125q0.546875 0.90625 0.546875 2.078125q0 1.234375 -0.546875 2.25q-0.53125 1.015625 -1.4375 1.609375q-0.90625 0.578125 -2.046875 0.578125zm0.125 -0.640625q0.84375 0 1.34375 -0.46875q0.5 -0.484375 0.71875 -1.25q0.21875 -0.765625 0.21875 -1.625q0 -0.71875 -0.140625 -1.40625q-0.140625 -0.703125 -0.4375 -1.265625q-0.28125 -0.5625 -0.734375 -0.890625q-0.453125 -0.34375 -1.09375 -0.34375q-0.828125 0 -1.359375 0.484375q-0.53125 0.46875 -0.78125 1.234375q-0.25 0.765625 -0.25 1.65625q0 0.984375 0.265625 1.875q0.28125 0.890625 0.84375 1.453125q0.5625 0.546875 1.40625 0.546875zm8.547516 0.640625q-0.796875 0 -1.421875 -0.21875q-0.625 -0.203125 -1.03125 -0.484375l0.0625 0.5625l-0.671875 0l-0.09375 -2.75l0.5 0q0.03125 0.65625 0.359375 1.1875q0.34375 0.515625 0.875 0.796875q0.53125 0.28125 1.140625 0.28125q0.40625 0 0.796875 -0.125q0.40625 -0.140625 0.671875 -0.421875q0.28125 -0.28125 0.28125 -0.703125q0 -0.453125 -0.265625 -0.75q-0.265625 -0.296875 -0.703125 -0.515625q-0.421875 -0.234375 -0.921875 -0.421875q-0.46875 -0.1875 -0.953125 -0.390625q-0.484375 -0.21875 -0.890625 -0.5q-0.40625 -0.296875 -0.65625 -0.703125q-0.234375 -0.421875 -0.234375 -1.03125q0 -0.328125 0.125 -0.734375q0.140625 -0.40625 0.4375 -0.765625q0.3125 -0.359375 0.828125 -0.578125q0.53125 -0.234375 1.34375 -0.234375q0.4375 0 0.96875 0.140625q0.53125 0.140625 1.015625 0.546875l-0.03125 -0.609375l0.671875 0l0 2.796875l-0.5 0q-0.046875 -0.5625 -0.265625 -1.078125q-0.21875 -0.515625 -0.65625 -0.859375q-0.421875 -0.34375 -1.125 -0.34375q-0.734375 0 -1.15625 0.375q-0.40625 0.359375 -0.40625 0.828125q0 0.5 0.3125 0.828125q0.3125 0.328125 0.8125 0.578125q0.5 0.234375 1.046875 0.453125q0.609375 0.25 1.1875 0.5625q0.578125 0.296875 0.9375 0.765625q0.375 0.453125 0.375 1.171875q0 0.796875 -0.40625 1.328125q-0.40625 0.53125 -1.046875 0.765625q-0.625 0.25 -1.3125 0.25zm7.1423874 0q-0.37499237 0 -0.7656174 -0.109375q-0.375 -0.09375 -0.703125 -0.390625q-0.328125 -0.3125 -0.53125 -0.890625q-0.1875 -0.59375 -0.1875 -1.546875l0.03125 -4.640625l-1.21875 0.015625l0 -0.6875q0.40625 -0.015625 0.828125 -0.3125q0.4375 -0.296875 0.78125 -0.796875q0.34375 -0.515625 0.484375 -1.125l0.53125 0l0 2.234375l2.6874924 0l0 0.625l-2.6874924 0.03125l-0.03125 4.453125q0 0.71875 0.125 1.21875q0.125 0.5 0.390625 0.765625q0.28124237 0.25 0.7031174 0.25q0.453125 0 0.84375 -0.25q0.390625 -0.265625 0.703125 -0.703125l0.421875 0.34375q-0.34375 0.53125 -0.6875 0.84375q-0.34375 0.296875 -0.671875 0.4375q-0.3125 0.15625 -0.59375 0.1875q-0.265625 0.046875 -0.453125 0.046875z" fill-rule="nonzero"/><path fill="#cfe2f3" d="m213.4672 73.845146l89.13385 0l0 60.28347l-89.13385 0z" fill-rule="evenodd"/><path stroke="#ffffff" stroke-width="1.0" stroke-linejoin="round" stroke-linecap="butt" d="m213.4672 73.845146l89.13385 0l0 60.28347l-89.13385 0z" fill-rule="evenodd"/><path fill="#000000" d="m233.81308 109.31563q0.609375 -0.03125 0.828125 -0.28125q0.234375 -0.25 0.25 -0.6875q0.03125 -0.4375 0.03125 -1.0l0 -6.90625q0 -0.328125 0.015625 -0.609375q0.015625 -0.296875 0.03125 -0.546875q-0.28125 0.015625 -0.578125 0.03125q-0.28125 0.015625 -0.578125 0.03125l0 -0.703125l3.78125 -0.015625q1.4375 0 2.640625 0.34375q1.203125 0.328125 2.0625 1.03125q0.875 0.6875 1.34375 1.75q0.484375 1.0625 0.484375 2.515625q0 1.09375 -0.390625 2.109375q-0.375 1.0 -1.15625 1.78125q-0.765625 0.78125 -1.90625 1.234375q-1.140625 0.453125 -2.640625 0.453125l-4.21875 0l0 -0.53125zm2.5 -1.359375q0 0.4375 -0.015625 0.75q0 0.296875 -0.03125 0.5q0.4375 0.015625 0.796875 0.03125q0.359375 0 0.59375 0q0.25 0 0.328125 0q1.03125 0 1.875 -0.375q0.84375 -0.390625 1.4375 -1.0625q0.59375 -0.6875 0.921875 -1.609375q0.328125 -0.921875 0.328125 -1.984375q0 -1.53125 -0.546875 -2.640625q-0.546875 -1.109375 -1.6875 -1.71875q-1.140625 -0.625 -2.890625 -0.625q-0.59375 0 -0.828125 0.25q-0.234375 0.234375 -0.265625 0.671875q-0.015625 0.421875 -0.015625 1.0l0 6.8125zm13.123154 2.140625q-1.109375 0 -2.0 -0.515625q-0.875 -0.515625 -1.390625 -1.46875q-0.515625 -0.953125 -0.515625 -2.25q0 -1.125 0.5 -2.09375q0.515625 -0.984375 1.421875 -1.578125q0.90625 -0.59375 2.109375 -0.59375q0.671875 0 1.25 0.21875q0.59375 0.203125 1.03125 0.65625q0.453125 0.4375 0.703125 1.109375q0.265625 0.65625 0.265625 1.546875l-5.640625 0.09375q0 1.21875 0.265625 2.140625q0.265625 0.921875 0.859375 1.421875q0.59375 0.5 1.515625 0.5q0.5 0 1.015625 -0.171875q0.53125 -0.171875 0.96875 -0.46875q0.453125 -0.3125 0.71875 -0.6875l0.390625 0.328125q-0.4375 0.671875 -1.046875 1.078125q-0.59375 0.390625 -1.234375 0.5625q-0.640625 0.171875 -1.1875 0.171875zm-2.203125 -5.546875l4.078125 0q0 -0.578125 -0.171875 -1.109375q-0.171875 -0.53125 -0.5625 -0.875q-0.375 -0.34375 -1.0 -0.34375q-0.921875 0 -1.546875 0.546875q-0.609375 0.546875 -0.796875 1.78125zm9.966995 5.34375l-2.2968597 -5.21875q-0.25 -0.609375 -0.40625 -1.03125q-0.140625 -0.4375 -0.203125 -0.71875q-0.046875 -0.296875 -0.0625 -0.46875l-0.6875 0.046875l0 -0.65625l2.9531097 0l0 0.484375q-0.484375 0 -0.62498474 0.25q-0.140625 0.234375 -0.046875 0.65625q0.109375 0.40625 0.29685974 0.859375l1.234375 2.828125q0.125 0.265625 0.234375 0.5625q0.125 0.296875 0.25 0.609375l0.015625 0q0.078125 -0.234375 0.171875 -0.5q0.109375 -0.28125 0.1875 -0.53125l1.28125 -3.5q0.125 -0.390625 0.265625 -0.671875q0.15625 -0.296875 0.21875 -0.4375l-1.03125 0.046875l0 -0.65625l2.53125 0l0 0.484375q-0.34375 0 -0.59375 0.234375q-0.234375 0.234375 -0.453125 0.71875q-0.21875 0.484375 -0.5 1.203125l-2.09375 5.40625l-0.640625 0zm5.033142 -0.53125q0.5 0 0.6875 -0.234375q0.1875 -0.25 0.21875 -0.6875q0.03125 -0.453125 0.03125 -1.03125l0 -3.640625q0 -0.265625 0.015625 -0.484375q0.03125 -0.234375 0.0625 -0.5625q-0.296875 0.015625 -0.578125 0.03125q-0.28125 0.015625 -0.5625 0.03125l0 -0.671875q0.703125 0 1.078125 -0.0625q0.390625 -0.0625 0.59375 -0.15625q0.203125 -0.09375 0.3125 -0.203125l0.46875 0l0 6.453125q0 0.328125 -0.015625 0.578125q0 0.25 -0.0625 0.515625q0.265625 -0.015625 0.515625 -0.015625q0.25 -0.015625 0.5 -0.03125l0 0.65625l-3.265625 0l0 -0.484375zm1.53125 -9.265625q-0.328125 0 -0.59375 -0.265625q-0.25 -0.265625 -0.25 -0.671875q0 -0.40625 0.265625 -0.671875q0.265625 -0.28125 0.59375 -0.28125q0.375 0 0.625 0.28125q0.25 0.265625 0.25 0.671875q0 0.40625 -0.265625 0.671875q-0.265625 0.265625 -0.625 0.265625zm6.871002 10.0q-1.078125 0 -1.984375 -0.484375q-0.890625 -0.484375 -1.4375 -1.40625q-0.53125 -0.921875 -0.53125 -2.21875q0 -0.828125 0.296875 -1.609375q0.3125 -0.78125 0.859375 -1.40625q0.5625 -0.640625 1.328125 -1.0q0.765625 -0.375 1.6875 -0.375q0.90625 0 1.5625 0.265625q0.671875 0.265625 1.03125 0.71875q0.375 0.453125 0.375 0.984375q0 0.34375 -0.203125 0.59375q-0.1875 0.25 -0.546875 0.25q-0.40625 0.015625 -0.578125 -0.25q-0.171875 -0.265625 -0.171875 -0.46875q0 -0.15625 0.046875 -0.328125q0.0625 -0.171875 0.203125 -0.3125q-0.125 -0.390625 -0.453125 -0.5625q-0.3125 -0.1875 -0.65625 -0.234375q-0.34375 -0.0625 -0.578125 -0.0625q-1.078125 0 -1.828125 0.875q-0.75 0.859375 -0.75 2.53125q0 1.0625 0.34375 1.90625q0.34375 0.828125 0.96875 1.296875q0.625 0.46875 1.453125 0.46875q0.75 0 1.4375 -0.390625q0.6875 -0.40625 1.0625 -0.984375l0.421875 0.328125q-0.421875 0.671875 -1.0 1.09375q-0.578125 0.40625 -1.203125 0.59375q-0.609375 0.1875 -1.15625 0.1875zm8.400787 0q-1.109375 0 -2.0 -0.515625q-0.875 -0.515625 -1.390625 -1.46875q-0.515625 -0.953125 -0.515625 -2.25q0 -1.125 0.5 -2.09375q0.515625 -0.984375 1.421875 -1.578125q0.90625 -0.59375 2.109375 -0.59375q0.671875 0 1.25 0.21875q0.59375 0.203125 1.03125 0.65625q0.453125 0.4375 0.703125 1.109375q0.265625 0.65625 0.265625 1.546875l-5.640625 0.09375q0 1.21875 0.265625 2.140625q0.265625 0.921875 0.859375 1.421875q0.59375 0.5 1.515625 0.5q0.5 0 1.015625 -0.171875q0.53125 -0.171875 0.96875 -0.46875q0.453125 -0.3125 0.71875 -0.6875l0.390625 0.328125q-0.4375 0.671875 -1.046875 1.078125q-0.59375 0.390625 -1.234375 0.5625q-0.640625 0.171875 -1.1875 0.171875zm-2.203125 -5.546875l4.078125 0q0 -0.578125 -0.171875 -1.109375q-0.171875 -0.53125 -0.5625 -0.875q-0.375 -0.34375 -1.0 -0.34375q-0.921875 0 -1.546875 0.546875q-0.609375 0.546875 -0.796875 1.78125z" fill-rule="nonzero"/><path fill="#000000" fill-opacity="0.0" d="m21.5958 17.918634l112.91338 0l0 35.55906l-112.91338 0z" fill-rule="evenodd"/><path fill="#000000" d="m40.022717 39.718636l0 -0.4375q0.390625 0 0.609375 -0.203125q0.21875 -0.21875 0.359375 -0.59375q0.140625 -0.375 0.328125 -0.875l2.734375 -7.468752l0.328125 0l2.96875 7.578127q0.109375 0.28125 0.234375 0.71875q0.140625 0.4375 0.109375 0.75q0.234375 -0.015625 0.453125 -0.03125q0.234375 -0.015625 0.453125 -0.03125l0 0.59375l-3.046875 0l0 -0.4375q0.5 -0.015625 0.65625 -0.21875q0.171875 -0.21875 0.125 -0.515625q-0.03125 -0.296875 -0.125 -0.53125l-0.46875 -1.25l-3.46875 0.078125l-0.46875 1.421875q-0.09375 0.3125 -0.171875 0.5q-0.0625 0.1875 -0.15625 0.421875q0.265625 -0.015625 0.515625 -0.03125q0.265625 -0.015625 0.515625 -0.03125l0 0.59375l-2.484375 0zm2.453125 -3.453125l3.078125 0l-0.953125 -2.546875q-0.140625 -0.40625 -0.296875 -0.8125q-0.15625 -0.40625 -0.296875 -0.828125l-0.03125 0q-0.125 0.375 -0.265625 0.75q-0.140625 0.375 -0.296875 0.765625l-0.9375 2.671875zm6.4371185 6.859375l0 -0.40625q0.40625 0 0.5625 -0.21875q0.171875 -0.203125 0.1875 -0.5625q0.03125 -0.359375 0.03125 -0.84375l0.03125 -6.4375q0 -0.21875 0 -0.421875q0.015625 -0.21875 0.046875 -0.453125q-0.234375 0.015625 -0.46875 0.03125q-0.234375 0.015625 -0.46875 0.03125l0 -0.5625q0.578125 0 0.875 -0.046875q0.3125 -0.0625 0.453125 -0.140625q0.140625 -0.078125 0.234375 -0.171875l0.390625 0q0.015625 0.140625 0.03125 0.328125q0.015625 0.171875 0.03125 0.390625q0.390625 -0.359375 0.9375 -0.578125q0.5625 -0.21875 1.125 -0.21875q0.765625 0 1.4375 0.40625q0.671875 0.390625 1.078125 1.140625q0.40625 0.734375 0.40625 1.75q0 1.140625 -0.46875 2.0q-0.46875 0.84375 -1.25 1.328125q-0.765625 0.46875 -1.671875 0.46875q-0.46875 0 -0.859375 -0.125q-0.390625 -0.109375 -0.734375 -0.328125l0 2.21875q0 0.265625 -0.015625 0.46875q0 0.21875 -0.046875 0.4375q0.21875 -0.015625 0.421875 -0.03125q0.203125 0 0.421875 0l0 0.546875l-2.71875 0zm3.5 -3.71875q0.640625 0 1.09375 -0.390625q0.46875 -0.40625 0.71875 -1.09375q0.25 -0.6875 0.25 -1.5625q0 -0.71875 -0.21875 -1.375q-0.203125 -0.65625 -0.65625 -1.0625q-0.4375 -0.421875 -1.171875 -0.421875q-0.453125 0 -0.875 0.21875q-0.421875 0.21875 -0.703125 0.515625q0 0.0625 0 0.171875q0.015625 0.09375 0.015625 0.34375q0 0.234375 0 0.71875q0 0.484375 -0.015625 1.3125q0 0.828125 0 2.09375q0.34375 0.25 0.734375 0.390625q0.390625 0.140625 0.828125 0.140625zm4.4568634 3.71875l0 -0.40625q0.40625 0 0.5625 -0.21875q0.171875 -0.203125 0.1875 -0.5625q0.03125 -0.359375 0.03125 -0.84375l0.03125 -6.4375q0 -0.21875 0 -0.421875q0.015625 -0.21875 0.046875 -0.453125q-0.234375 0.015625 -0.46875 0.03125q-0.234375 0.015625 -0.46875 0.03125l0 -0.5625q0.578125 0 0.875 -0.046875q0.3125 -0.0625 0.453125 -0.140625q0.140625 -0.078125 0.234375 -0.171875l0.390625 0q0.015625 0.140625 0.03125 0.328125q0.015625 0.171875 0.03125 0.390625q0.390625 -0.359375 0.9375 -0.578125q0.5625 -0.21875 1.125 -0.21875q0.765625 0 1.4375 0.40625q0.671875 0.390625 1.078125 1.140625q0.40625 0.734375 0.40625 1.75q0 1.140625 -0.46875 2.0q-0.46875 0.84375 -1.25 1.328125q-0.765625 0.46875 -1.671875 0.46875q-0.46875 0 -0.859375 -0.125q-0.390625 -0.109375 -0.734375 -0.328125l0 2.21875q0 0.265625 -0.015625 0.46875q0 0.21875 -0.046875 0.4375q0.21875 -0.015625 0.421875 -0.03125q0.203125 0 0.421875 0l0 0.546875l-2.71875 0zm3.5 -3.71875q0.640625 0 1.09375 -0.390625q0.46875 -0.40625 0.71875 -1.09375q0.25 -0.6875 0.25 -1.5625q0 -0.71875 -0.21875 -1.375q-0.203125 -0.65625 -0.65625 -1.0625q-0.4375 -0.421875 -1.171875 -0.421875q-0.453125 0 -0.875 0.21875q-0.421875 0.21875 -0.703125 0.515625q0 0.0625 0 0.171875q0.015625 0.09375 0.015625 0.34375q0 0.234375 0 0.71875q0 0.484375 -0.015625 1.3125q0 0.828125 0 2.09375q0.34375 0.25 0.734375 0.390625q0.390625 0.140625 0.828125 0.140625zm8.227764 -0.125q0.5 -0.03125 0.6875 -0.234375q0.1875 -0.203125 0.203125 -0.5625q0.03125 -0.375 0.03125 -0.84375l0 -5.765627q0 -0.265625 0 -0.5q0.015625 -0.25 0.03125 -0.453125q-0.234375 0.015625 -0.484375 0.03125q-0.234375 0.015625 -0.46875 0.015625l0 -0.578125q0.703125 -0.015625 1.453125 -0.015625q0.75 -0.015625 1.515625 -0.015625q1.296875 0 2.171875 0.296875q0.875 0.296875 1.34375 0.875q0.46875 0.5625019 0.515625 1.4218769q0.015625 0.515625 -0.171875 1.078125q-0.171875 0.5625 -0.65625 1.0625q-0.484375 0.5 -1.359375 0.8125q-0.875 0.3125 -2.25 0.3125q-0.0625 0 -0.203125 0q-0.140625 0 -0.28125 -0.015625l0 1.921875q0 0.375 -0.015625 0.640625q0 0.25 -0.03125 0.421875q0.21875 -0.015625 0.421875 -0.03125q0.203125 -0.015625 0.40625 -0.015625q0.203125 -0.015625 0.40625 -0.015625l0 0.59375l-3.265625 0l0 -0.4375zm2.078125 -3.625q0.25 0.03125 0.421875 0.03125q0.1875 0 0.4375 0q0.765625 0 1.390625 -0.296875q0.625 -0.296875 1.0 -0.859375q0.375 -0.5625 0.375 -1.328125q0 -0.625 -0.203125 -1.0625q-0.203125 -0.4531269 -0.578125 -0.7187519q-0.359375 -0.28125 -0.859375 -0.40625q-0.5 -0.140625 -1.125 -0.140625q-0.453125 0 -0.640625 0.203125q-0.171875 0.203125 -0.203125 0.5625q-0.015625 0.34375 -0.015625 0.8281269l0 3.1875zm5.8580627 3.65625q0.40625 0 0.5625 -0.203125q0.15625 -0.203125 0.1875 -0.5625q0.03125 -0.375 0.03125 -0.859375l0 -3.03125q0 -0.21875 0 -0.421875q0.015625 -0.21875 0.046875 -0.453125q-0.234375 0.015625 -0.46875 0.03125q-0.234375 0 -0.46875 0.015625l0 -0.546875l0.40625 0q0.578125 0 0.796875 -0.109375q0.21875 -0.109375 0.359375 -0.25l0.390625 0q0.03125 0.21875 0.046875 0.53125q0.015625 0.3125 0.015625 0.78125q0.203125 -0.328125 0.546875 -0.640625q0.359375 -0.328125 0.78125 -0.53125q0.4375 -0.21875 0.921875 -0.21875q0.375 0 0.640625 0.203125q0.28125 0.1875 0.28125 0.640625q0 0.09375 -0.0625 0.25q-0.0625 0.15625 -0.21875 0.28125q-0.140625 0.109375 -0.375 0.109375q-0.296875 -0.015625 -0.46875 -0.234375q-0.171875 -0.21875 -0.140625 -0.515625q-0.328125 -0.015625 -0.6875 0.171875q-0.34375 0.1875 -0.65625 0.515625q-0.296875 0.328125 -0.546875 0.765625l0.015625 3.28125q0 0.265625 -0.015625 0.46875q0 0.203125 -0.03125 0.4375q0.203125 -0.015625 0.40625 -0.015625q0.21875 -0.015625 0.421875 -0.03125l0 0.546875l-2.71875 0l0 -0.40625zm8.974594 0.625q-0.9375 0 -1.703125 -0.4375q-0.75 -0.4375 -1.203125 -1.203125q-0.4375 -0.765625 -0.4375 -1.75q0 -1.046875 0.4375 -1.890625q0.4375 -0.84375 1.203125 -1.328125q0.765625 -0.484375 1.703125 -0.484375q0.9375 0 1.6875 0.453125q0.765625 0.4375 1.21875 1.203125q0.453125 0.75 0.453125 1.734375q0 1.015625 -0.453125 1.875q-0.4375 0.84375 -1.203125 1.34375q-0.75 0.484375 -1.703125 0.484375zm0.109375 -0.53125q0.703125 0 1.109375 -0.40625q0.421875 -0.40625 0.59375 -1.046875q0.1875 -0.640625 0.1875 -1.34375q0 -0.59375 -0.109375 -1.171875q-0.109375 -0.578125 -0.359375 -1.046875q-0.234375 -0.484375 -0.625 -0.765625q-0.375 -0.28125 -0.90625 -0.28125q-0.6875 0 -1.140625 0.40625q-0.4375 0.390625 -0.640625 1.03125q-0.203125 0.640625 -0.203125 1.375q0 0.828125 0.21875 1.578125q0.234375 0.734375 0.703125 1.203125q0.46875 0.46875 1.171875 0.46875zm7.640671 0.53125q-0.890625 0 -1.65625 -0.40625q-0.75 -0.40625 -1.203125 -1.171875q-0.4375 -0.765625 -0.4375 -1.859375q0 -0.6875 0.25 -1.34375q0.25 -0.65625 0.703125 -1.171875q0.46875 -0.53125 1.109375 -0.828125q0.640625 -0.3125 1.421875 -0.3125q0.734375 0 1.28125 0.234375q0.5625 0.21875 0.859375 0.59375q0.3125 0.375 0.3125 0.8125q0 0.296875 -0.15625 0.5q-0.15625 0.203125 -0.46875 0.203125q-0.328125 0.015625 -0.46875 -0.203125q-0.140625 -0.21875 -0.140625 -0.390625q0 -0.140625 0.03125 -0.28125q0.046875 -0.140625 0.171875 -0.265625q-0.109375 -0.3125 -0.375 -0.46875q-0.265625 -0.15625 -0.5625 -0.203125q-0.28125 -0.046875 -0.46875 -0.046875q-0.90625 0 -1.53125 0.734375q-0.609375 0.71875 -0.609375 2.109375q0 0.890625 0.28125 1.59375q0.296875 0.6875 0.8125 1.078125q0.515625 0.390625 1.203125 0.390625q0.625 0 1.1875 -0.328125q0.578125 -0.328125 0.90625 -0.8125l0.34375 0.265625q-0.34375 0.5625 -0.84375 0.90625q-0.484375 0.34375 -1.0 0.5q-0.5 0.171875 -0.953125 0.171875zm6.9926147 0q-0.921875 0 -1.671875 -0.4375q-0.734375 -0.4375 -1.15625 -1.21875q-0.421875 -0.796875 -0.421875 -1.875q0 -0.9375 0.421875 -1.75q0.421875 -0.8125 1.171875 -1.3125q0.765625 -0.5 1.765625 -0.5q0.5625 0 1.046875 0.1875q0.484375 0.171875 0.859375 0.546875q0.375 0.359375 0.578125 0.921875q0.21875 0.546875 0.21875 1.28125l-4.6875 0.078125q0 1.015625 0.21875 1.78125q0.21875 0.765625 0.703125 1.1875q0.5 0.421875 1.265625 0.421875q0.421875 0 0.84375 -0.140625q0.4375 -0.15625 0.8125 -0.40625q0.375 -0.25 0.609375 -0.5625l0.3125 0.265625q-0.359375 0.5625 -0.875 0.90625q-0.5 0.328125 -1.03125 0.46875q-0.53125 0.15625 -0.984375 0.15625zm-1.84375 -4.625l3.40625 0q0 -0.484375 -0.140625 -0.921875q-0.140625 -0.453125 -0.46875 -0.734375q-0.3125 -0.296875 -0.828125 -0.296875q-0.78125 0 -1.296875 0.46875q-0.515625 0.453125 -0.671875 1.484375zm8.567566 4.625q-0.65625 0 -1.1875 -0.1875q-0.515625 -0.171875 -0.84375 -0.40625l0.046875 0.46875l-0.5625 0l-0.078125 -2.296875l0.421875 0q0.03125 0.546875 0.296875 0.984375q0.28125 0.4375 0.71875 0.671875q0.453125 0.234375 0.953125 0.234375q0.34375 0 0.671875 -0.109375q0.34375 -0.109375 0.5625 -0.34375q0.234375 -0.234375 0.234375 -0.59375q0 -0.375 -0.21875 -0.609375q-0.21875 -0.25 -0.578125 -0.4375q-0.359375 -0.1875 -0.78125 -0.359375q-0.390625 -0.15625 -0.796875 -0.328125q-0.40625 -0.171875 -0.75 -0.40625q-0.328125 -0.25 -0.53125 -0.59375q-0.203125 -0.34375 -0.203125 -0.84375q0 -0.28125 0.109375 -0.609375q0.109375 -0.34375 0.359375 -0.640625q0.25 -0.296875 0.6875 -0.484375q0.453125 -0.203125 1.125 -0.203125q0.359375 0 0.796875 0.125q0.453125 0.109375 0.859375 0.453125l-0.03125 -0.515625l0.5625 0l0 2.328125l-0.421875 0q-0.03125 -0.453125 -0.21875 -0.890625q-0.1875 -0.4375 -0.546875 -0.71875q-0.359375 -0.296875 -0.9375 -0.296875q-0.609375 0 -0.953125 0.3125q-0.34375 0.3125 -0.34375 0.703125q0 0.421875 0.25 0.703125q0.265625 0.265625 0.671875 0.46875q0.421875 0.1875 0.890625 0.375q0.5 0.21875 0.984375 0.46875q0.484375 0.25 0.78125 0.640625q0.3125 0.375 0.3125 0.96875q0 0.671875 -0.34375 1.109375q-0.34375 0.4375 -0.875 0.640625q-0.515625 0.21875 -1.09375 0.21875zm6.1708984 0q-0.65625 0 -1.1875 -0.1875q-0.515625 -0.171875 -0.84375 -0.40625l0.046875 0.46875l-0.5625 0l-0.078125 -2.296875l0.421875 0q0.03125 0.546875 0.296875 0.984375q0.28125 0.4375 0.71875 0.671875q0.453125 0.234375 0.953125 0.234375q0.34375 0 0.671875 -0.109375q0.34375 -0.109375 0.5625 -0.34375q0.234375 -0.234375 0.234375 -0.59375q0 -0.375 -0.21875 -0.609375q-0.21875 -0.25 -0.578125 -0.4375q-0.359375 -0.1875 -0.78125 -0.359375q-0.390625 -0.15625 -0.796875 -0.328125q-0.40625 -0.171875 -0.75 -0.40625q-0.328125 -0.25 -0.53125 -0.59375q-0.203125 -0.34375 -0.203125 -0.84375q0 -0.28125 0.109375 -0.609375q0.109375 -0.34375 0.359375 -0.640625q0.25 -0.296875 0.6875 -0.484375q0.453125 -0.203125 1.125 -0.203125q0.359375 0 0.796875 0.125q0.453125 0.109375 0.859375 0.453125l-0.03125 -0.515625l0.5625 0l0 2.328125l-0.421875 0q-0.03125 -0.453125 -0.21875 -0.890625q-0.1875 -0.4375 -0.546875 -0.71875q-0.359375 -0.296875 -0.9375 -0.296875q-0.609375 0 -0.953125 0.3125q-0.34375 0.3125 -0.34375 0.703125q0 0.421875 0.25 0.703125q0.265625 0.265625 0.671875 0.46875q0.421875 0.1875 0.890625 0.375q0.5 0.21875 0.984375 0.46875q0.484375 0.25 0.78125 0.640625q0.3125 0.375 0.3125 0.96875q0 0.671875 -0.34375 1.109375q-0.34375 0.4375 -0.875 0.640625q-0.515625 0.21875 -1.09375 0.21875z" fill-rule="nonzero"/><path fill="#000000" fill-opacity="0.0" d="m154.25722 161.3202l0 -107.842514l38.771652 0l0 107.842514z" fill-rule="evenodd"/><path fill="#000000" d="m179.40305 139.10002l-0.53125 0q-0.03125 -0.609375 -0.28125 -0.828125q-0.25 -0.234375 -0.6875 -0.25q-0.4375 -0.03125 -1.0 -0.03125l-6.90625 0q-0.328125 0 -0.609375 -0.015625q-0.296875 -0.015625 -0.546875 -0.03125q0.015625 0.28125 0.03125 0.578125q0.015625 0.28125 0.03125 0.578125l-0.703125 0l0 -3.609375l0.53125 0q0.015625 0.59375 0.28125 0.828125q0.25 0.234375 0.6875 0.265625q0.421875 0.015625 1.0 0.015625l2.65625 0l0 -5.734375l-3.359375 0q-0.328125 0 -0.609375 -0.015625q-0.296875 -0.015625 -0.546875 -0.03125q0.015625 0.296875 0.03125 0.59375q0.015625 0.28125 0.03125 0.5625l-0.703125 0l0 -3.59375l0.53125 0q0.015625 0.578125 0.28125 0.8125q0.25 0.234375 0.6875 0.265625q0.421875 0.015625 1.0 0.015625l6.796875 0q0.4375 0 0.75 0.015625q0.3125 0 0.515625 0.03125q-0.015625 -0.28125 -0.03125 -0.5625q-0.015625 -0.296875 -0.03125 -0.578125l0.703125 0l0 3.59375l-0.53125 0q-0.03125 -0.609375 -0.28125 -0.828125q-0.25 -0.234375 -0.6875 -0.25q-0.4375 -0.03125 -1.0 -0.03125l-2.90625 0l0.0625 5.734375l3.4375 0q0.4375 0 0.75 0.015625q0.3125 0 0.515625 0.03125q-0.015625 -0.28125 -0.03125 -0.5625q-0.015625 -0.296875 -0.03125 -0.59375l0.703125 0l0 3.609375zm0 -11.511284l-0.53125 0q0 -0.484375 -0.25 -0.734375q-0.265625 -0.25 -0.703125 -0.421875q-0.453125 -0.171875 -1.046875 -0.390625l-8.96875 -3.296875l0 -0.390625l9.09375 -3.5625q0.34375 -0.125 0.875 -0.28125q0.515625 -0.171875 0.890625 -0.140625q-0.015625 -0.265625 -0.03125 -0.53125q-0.015625 -0.28125 -0.03125 -0.546875l0.703125 0l0 3.65625l-0.53125 0q-0.015625 -0.609375 -0.265625 -0.796875q-0.265625 -0.1875 -0.609375 -0.140625q-0.359375 0.046875 -0.640625 0.15625l-1.5 0.5625l0.09375 4.15625l1.703125 0.5625q0.390625 0.109375 0.625 0.203125q0.21875 0.078125 0.484375 0.203125q-0.015625 -0.328125 -0.03125 -0.640625q-0.015625 -0.3125 -0.03125 -0.609375l0.703125 0l0 2.984375zm-4.140625 -2.9375l0 -3.703125l-3.0625 1.140625q-0.5 0.171875 -0.984375 0.359375q-0.484375 0.1875 -0.984375 0.359375l0 0.03125q0.453125 0.15625 0.90625 0.328125q0.4375 0.171875 0.90625 0.34375l3.21875 1.140625zm4.140625 -8.047272l-0.53125 0q-0.03125 -0.609375 -0.28125 -0.828125q-0.25 -0.234375 -0.6875 -0.25q-0.4375 -0.03125 -1.0 -0.03125l-6.90625 0q-0.328125 0 -0.609375 -0.015625q-0.296875 -0.015625 -0.546875 -0.03125q0.015625 0.28125 0.03125 0.578125q0.015625 0.28125 0.03125 0.578125l-0.703125 0l0 -3.609375l0.53125 0q0.015625 0.59375 0.28125 0.828125q0.25 0.234375 0.6875 0.265625q0.421875 0.015625 1.0 0.015625l6.859375 0q0.4375 0 0.75 0.015625q0.296875 0 0.5 0.03125l-0.046875 -2.984375q-0.015625 -1.015625 -0.640625 -1.53125q-0.625 -0.53125 -2.03125 -0.53125l0 -0.53125l3.3125 0.09375l0 7.9375zm0 -16.695282l-0.53125 0q0 -0.484375 -0.25 -0.734375q-0.265625 -0.25 -0.703125 -0.421875q-0.453125 -0.171875 -1.046875 -0.390625l-8.96875 -3.296875l0 -0.390625l9.09375 -3.5625q0.34375 -0.125 0.875 -0.28125q0.515625 -0.171875 0.890625 -0.140625q-0.015625 -0.265625 -0.03125 -0.53125q-0.015625 -0.28125 -0.03125 -0.546875l0.703125 0l0 3.65625l-0.53125 0q-0.015625 -0.609375 -0.265625 -0.796875q-0.265625 -0.1875 -0.609375 -0.140625q-0.359375 0.046875 -0.640625 0.15625l-1.5 0.5625l0.09375 4.15625l1.703125 0.5625q0.390625 0.109375 0.625 0.203125q0.21875 0.078125 0.484375 0.203125q-0.015625 -0.328125 -0.03125 -0.640625q-0.015625 -0.3125 -0.03125 -0.609375l0.703125 0l0 2.984375zm-4.140625 -2.9375l0 -3.703125l-3.0625 1.140625q-0.5 0.171875 -0.984375 0.359375q-0.484375 0.1875 -0.984375 0.359375l0 0.03125q0.453125 0.15625 0.90625 0.328125q0.4375 0.171875 0.90625 0.34375l3.21875 1.140625zm3.609375 -8.047272q-0.03125 -0.609375 -0.28125 -0.828125q-0.25 -0.234375 -0.6875 -0.25q-0.4375 -0.03125 -1.0 -0.03125l-6.90625 0q-0.328125 0 -0.609375 -0.015625q-0.296875 -0.015625 -0.546875 -0.03125q0.015625 0.28125 0.03125 0.578125q0.015625 0.28125 0.03125 0.578125l-0.703125 0q-0.015625 -0.859375 -0.015625 -1.75q-0.015625 -0.890625 -0.015625 -1.828125q0 -1.546875 0.359375 -2.59375q0.34375 -1.0625 1.03125 -1.625q0.6875 -0.5625 1.71875 -0.609375q0.625 -0.03125 1.3125 0.1875q0.671875 0.21875 1.28125 0.796875q0.59375 0.578125 0.96875 1.640625q0.359375 1.0625 0.359375 2.703125q0 0.0625 0 0.25q0 0.171875 -0.015625 0.328125l2.3125 0q0.4375 0 0.75 0.015625q0.3125 0 0.515625 0.03125q-0.015625 -0.25 -0.03125 -0.484375q-0.015625 -0.25 -0.015625 -0.5q-0.015625 -0.25 -0.03125 -0.484375l0.71875 0l0 3.921875l-0.53125 0zm-4.34375 -2.5q0.03125 -0.3125 0.046875 -0.515625q0 -0.21875 0 -0.53125q0 -0.90625 -0.359375 -1.65625q-0.359375 -0.75 -1.03125 -1.203125q-0.671875 -0.453125 -1.609375 -0.453125q-0.75 0 -1.28125 0.25q-0.53125 0.234375 -0.859375 0.671875q-0.328125 0.4375 -0.484375 1.046875q-0.15625 0.609375 -0.15625 1.34375q0 0.5625 0.25 0.78125q0.234375 0.21875 0.65625 0.25q0.421875 0.015625 1.0 0.015625l3.828125 0zm-5.796875 -10.725388q0.015625 0.59375 0.28125 0.828125q0.25 0.234375 0.6875 0.265625q0.421875 0.015625 1.0 0.015625l6.796875 0q0.4375 0 0.75 0.015625q0.3125 0 0.515625 0.03125q-0.015625 -0.28125 -0.03125 -0.5625q-0.015625 -0.296875 -0.03125 -0.59375l0.703125 0l0 3.609375l-0.53125 0q-0.03125 -0.609375 -0.28125 -0.828125q-0.25 -0.234375 -0.6875 -0.25q-0.4375 -0.03125 -1.0 -0.03125l-6.90625 0q-0.328125 0 -0.609375 -0.015625q-0.296875 -0.015625 -0.546875 -0.03125q0.015625 0.28125 0.03125 0.578125q0.015625 0.28125 0.03125 0.578125l-0.703125 0l0 -3.609375l0.53125 0z" fill-rule="nonzero"/><path fill="#000000" fill-opacity="0.0" d="m557.83856 103.98688l123.40161 0" fill-rule="evenodd"/><path stroke="#000000" stroke-width="1.0" stroke-linejoin="round" stroke-linecap="butt" d="m557.83856 103.98688l119.97449 0" fill-rule="evenodd"/><path fill="#000000" stroke="#000000" stroke-width="1.0" stroke-linecap="butt" d="m677.81305 103.98688l-1.1245728 1.1245804l3.0897827 -1.1245804l-3.0897827 -1.124588z" fill-rule="evenodd"/><path fill="#cfe2f3" d="m432.5013 50.942257l152.59842 0l0 112.913376l-152.59842 0zm4.032135 4.032139l0 104.849106l144.53418 0l0 -104.849106z" fill-rule="evenodd"/><path stroke="#ffffff" stroke-width="1.0" stroke-linejoin="round" stroke-linecap="butt" d="m432.5013 50.942257l152.59842 0l0 112.913376l-152.59842 0zm4.032135 4.032139l0 104.849106l144.53418 0l0 -104.849106z" fill-rule="evenodd"/><path fill="#cfe2f3" d="m459.75986 73.845146l98.078705 0l0 60.28347l-98.078705 0z" fill-rule="evenodd"/><path stroke="#ffffff" stroke-width="1.0" stroke-linejoin="round" stroke-linecap="butt" d="m459.75986 73.845146l98.078705 0l0 60.28347l-98.078705 0z" fill-rule="evenodd"/><path fill="#000000" d="m492.1302 109.84688l0 -0.53125q0.609375 -0.03125 0.828125 -0.28125q0.234375 -0.25 0.25 -0.6875q0.03125 -0.4375 0.03125 -1.0l0 -6.90625q0 -0.328125 0.015625 -0.609375q0.015625 -0.296875 0.03125 -0.546875q-0.28125 0.015625 -0.578125 0.03125q-0.28125 0.015625 -0.578125 0.03125l0 -0.703125l3.609375 0l0 0.53125q-0.59375 0.015625 -0.828125 0.28125q-0.234375 0.25 -0.265625 0.6875q-0.015625 0.421875 -0.015625 1.0l0 2.65625l5.734375 0l0 -3.359375q0 -0.328125 0.015625 -0.609375q0.015625 -0.296875 0.03125 -0.546875q-0.296875 0.015625 -0.59375 0.03125q-0.28125 0.015625 -0.5625 0.03125l0 -0.703125l3.59375 0l0 0.53125q-0.578125 0.015625 -0.8125 0.28125q-0.234375 0.25 -0.265625 0.6875q-0.015625 0.421875 -0.015625 1.0l0 6.796875q0 0.4375 -0.015625 0.75q0 0.3125 -0.03125 0.515625q0.28125 -0.015625 0.5625 -0.03125q0.296875 -0.015625 0.578125 -0.03125l0 0.703125l-3.59375 0l0 -0.53125q0.609375 -0.03125 0.828125 -0.28125q0.234375 -0.25 0.25 -0.6875q0.03125 -0.4375 0.03125 -1.0l0 -2.90625l-5.734375 0.0625l0 3.4375q0 0.4375 -0.015625 0.75q0 0.3125 -0.03125 0.515625q0.28125 -0.015625 0.5625 -0.03125q0.296875 -0.015625 0.59375 -0.03125l0 0.703125l-3.609375 0zm15.924896 0.25q-1.125 0 -2.03125 -0.515625q-0.90625 -0.515625 -1.453125 -1.4375q-0.53125 -0.921875 -0.53125 -2.109375q0 -1.265625 0.53125 -2.265625q0.53125 -1.015625 1.4375 -1.59375q0.90625 -0.578125 2.046875 -0.578125q1.125 0 2.03125 0.53125q0.90625 0.53125 1.453125 1.453125q0.5468445 0.90625 0.5468445 2.078125q0 1.234375 -0.5468445 2.25q-0.53125 1.015625 -1.4375 1.609375q-0.90625 0.578125 -2.046875 0.578125zm0.125 -0.640625q0.84375 0 1.34375 -0.46875q0.5 -0.484375 0.71875 -1.25q0.21875 -0.765625 0.21875 -1.625q0 -0.71875 -0.140625 -1.40625q-0.140625 -0.703125 -0.4375 -1.265625q-0.28125 -0.5625 -0.734375 -0.890625q-0.453125 -0.34375 -1.09375 -0.34375q-0.828125 0 -1.359375 0.484375q-0.53125 0.46875 -0.78125 1.234375q-0.25 0.765625 -0.25 1.65625q0 0.984375 0.265625 1.875q0.28125 0.890625 0.84375 1.453125q0.5625 0.546875 1.40625 0.546875zm8.547516 0.640625q-0.796875 0 -1.421875 -0.21875q-0.625 -0.203125 -1.03125 -0.484375l0.0625 0.5625l-0.671875 0l-0.09375 -2.75l0.5 0q0.03125 0.65625 0.359375 1.1875q0.34375 0.515625 0.875 0.796875q0.53125 0.28125 1.140625 0.28125q0.40625 0 0.796875 -0.125q0.40625 -0.140625 0.671875 -0.421875q0.28125 -0.28125 0.28125 -0.703125q0 -0.453125 -0.265625 -0.75q-0.265625 -0.296875 -0.703125 -0.515625q-0.421875 -0.234375 -0.921875 -0.421875q-0.46875 -0.1875 -0.953125 -0.390625q-0.484375 -0.21875 -0.890625 -0.5q-0.40625 -0.296875 -0.65625 -0.703125q-0.234375 -0.421875 -0.234375 -1.03125q0 -0.328125 0.125 -0.734375q0.140625 -0.40625 0.4375 -0.765625q0.3125 -0.359375 0.828125 -0.578125q0.53125 -0.234375 1.34375 -0.234375q0.4375 0 0.96875 0.140625q0.53125 0.140625 1.015625 0.546875l-0.03125 -0.609375l0.671875 0l0 2.796875l-0.5 0q-0.046875 -0.5625 -0.265625 -1.078125q-0.21875 -0.515625 -0.65625 -0.859375q-0.421875 -0.34375 -1.125 -0.34375q-0.734375 0 -1.15625 0.375q-0.40625 0.359375 -0.40625 0.828125q0 0.5 0.3125 0.828125q0.3125 0.328125 0.8125 0.578125q0.5 0.234375 1.046875 0.453125q0.609375 0.25 1.1875 0.5625q0.578125 0.296875 0.9375 0.765625q0.375 0.453125 0.375 1.171875q0 0.796875 -0.40625 1.328125q-0.40625 0.53125 -1.046875 0.765625q-0.625 0.25 -1.3125 0.25zm7.142395 0q-0.375 0 -0.765625 -0.109375q-0.375 -0.09375 -0.703125 -0.390625q-0.328125 -0.3125 -0.53125 -0.890625q-0.1875 -0.59375 -0.1875 -1.546875l0.03125 -4.640625l-1.21875 0.015625l0 -0.6875q0.40625 -0.015625 0.828125 -0.3125q0.4375 -0.296875 0.78125 -0.796875q0.34375 -0.515625 0.484375 -1.125l0.53125 0l0 2.234375l2.6875 0l0 0.625l-2.6875 0.03125l-0.03125 4.453125q0 0.71875 0.125 1.21875q0.125 0.5 0.390625 0.765625q0.28125 0.25 0.703125 0.25q0.453125 0 0.84375 -0.25q0.390625 -0.265625 0.703125 -0.703125l0.421875 0.34375q-0.34375 0.53125 -0.6875 0.84375q-0.34375 0.296875 -0.671875 0.4375q-0.3125 0.15625 -0.59375 0.1875q-0.265625 0.046875 -0.453125 0.046875z" fill-rule="nonzero"/><path fill="#cfe2f3" d="m681.2441 73.845146l89.13385 0l0 60.28347l-89.13385 0z" fill-rule="evenodd"/><path stroke="#ffffff" stroke-width="1.0" stroke-linejoin="round" stroke-linecap="butt" d="m681.2441 73.845146l89.13385 0l0 60.28347l-89.13385 0z" fill-rule="evenodd"/><path fill="#000000" d="m701.58997 109.31563q0.609375 -0.03125 0.828125 -0.28125q0.234375 -0.25 0.25 -0.6875q0.03125 -0.4375 0.03125 -1.0l0 -6.90625q0 -0.328125 0.015625 -0.609375q0.015625 -0.296875 0.03125 -0.546875q-0.28125 0.015625 -0.578125 0.03125q-0.28125 0.015625 -0.578125 0.03125l0 -0.703125l3.78125 -0.015625q1.4375 0 2.640625 0.34375q1.203125 0.328125 2.0625 1.03125q0.875 0.6875 1.34375 1.75q0.484375 1.0625 0.484375 2.515625q0 1.09375 -0.390625 2.109375q-0.375 1.0 -1.15625 1.78125q-0.765625 0.78125 -1.90625 1.234375q-1.140625 0.453125 -2.640625 0.453125l-4.21875 0l0 -0.53125zm2.5 -1.359375q0 0.4375 -0.015625 0.75q0 0.296875 -0.03125 0.5q0.4375 0.015625 0.796875 0.03125q0.359375 0 0.59375 0q0.25 0 0.328125 0q1.03125 0 1.875 -0.375q0.84375 -0.390625 1.4375 -1.0625q0.59375 -0.6875 0.921875 -1.609375q0.328125 -0.921875 0.328125 -1.984375q0 -1.53125 -0.546875 -2.640625q-0.546875 -1.109375 -1.6875 -1.71875q-1.140625 -0.625 -2.890625 -0.625q-0.59375 0 -0.828125 0.25q-0.234375 0.234375 -0.265625 0.671875q-0.015625 0.421875 -0.015625 1.0l0 6.8125zm13.123169 2.140625q-1.109375 0 -2.0 -0.515625q-0.875 -0.515625 -1.390625 -1.46875q-0.515625 -0.953125 -0.515625 -2.25q0 -1.125 0.5 -2.09375q0.515625 -0.984375 1.421875 -1.578125q0.90625 -0.59375 2.109375 -0.59375q0.671875 0 1.25 0.21875q0.59375 0.203125 1.03125 0.65625q0.453125 0.4375 0.703125 1.109375q0.265625 0.65625 0.265625 1.546875l-5.640625 0.09375q0 1.21875 0.265625 2.140625q0.265625 0.921875 0.859375 1.421875q0.59375 0.5 1.515625 0.5q0.5 0 1.015625 -0.171875q0.53125 -0.171875 0.96875 -0.46875q0.453125 -0.3125 0.71875 -0.6875l0.390625 0.328125q-0.4375 0.671875 -1.046875 1.078125q-0.59375 0.390625 -1.234375 0.5625q-0.640625 0.171875 -1.1875 0.171875zm-2.203125 -5.546875l4.078125 0q0 -0.578125 -0.171875 -1.109375q-0.171875 -0.53125 -0.5625 -0.875q-0.375 -0.34375 -1.0 -0.34375q-0.921875 0 -1.546875 0.546875q-0.609375 0.546875 -0.796875 1.78125zm9.96698 5.34375l-2.296875 -5.21875q-0.25 -0.609375 -0.40625 -1.03125q-0.140625 -0.4375 -0.203125 -0.71875q-0.046875 -0.296875 -0.0625 -0.46875l-0.6875 0.046875l0 -0.65625l2.953125 0l0 0.484375q-0.484375 0 -0.625 0.25q-0.140625 0.234375 -0.046875 0.65625q0.109375 0.40625 0.296875 0.859375l1.234375 2.828125q0.125 0.265625 0.234375 0.5625q0.125 0.296875 0.25 0.609375l0.015625 0q0.078125 -0.234375 0.171875 -0.5q0.109375 -0.28125 0.1875 -0.53125l1.28125 -3.5q0.125 -0.390625 0.265625 -0.671875q0.15625 -0.296875 0.21875 -0.4375l-1.03125 0.046875l0 -0.65625l2.53125 0l0 0.484375q-0.34375 0 -0.59375 0.234375q-0.234375 0.234375 -0.453125 0.71875q-0.21875 0.484375 -0.5 1.203125l-2.09375 5.40625l-0.640625 0zm5.033142 -0.53125q0.5 0 0.6875 -0.234375q0.1875 -0.25 0.21875 -0.6875q0.03125 -0.453125 0.03125 -1.03125l0 -3.640625q0 -0.265625 0.015625 -0.484375q0.03125 -0.234375 0.0625 -0.5625q-0.296875 0.015625 -0.578125 0.03125q-0.28125 0.015625 -0.5625 0.03125l0 -0.671875q0.703125 0 1.078125 -0.0625q0.390625 -0.0625 0.59375 -0.15625q0.203125 -0.09375 0.3125 -0.203125l0.46875 0l0 6.453125q0 0.328125 -0.015625 0.578125q0 0.25 -0.0625 0.515625q0.265625 -0.015625 0.515625 -0.015625q0.25 -0.015625 0.5 -0.03125l0 0.65625l-3.265625 0l0 -0.484375zm1.53125 -9.265625q-0.328125 0 -0.59375 -0.265625q-0.25 -0.265625 -0.25 -0.671875q0 -0.40625 0.265625 -0.671875q0.265625 -0.28125 0.59375 -0.28125q0.375 0 0.625 0.28125q0.25 0.265625 0.25 0.671875q0 0.40625 -0.265625 0.671875q-0.265625 0.265625 -0.625 0.265625zm6.8710327 10.0q-1.078125 0 -1.984375 -0.484375q-0.890625 -0.484375 -1.4375 -1.40625q-0.53125 -0.921875 -0.53125 -2.21875q0 -0.828125 0.296875 -1.609375q0.3125 -0.78125 0.859375 -1.40625q0.5625 -0.640625 1.328125 -1.0q0.765625 -0.375 1.6875 -0.375q0.90625 0 1.5625 0.265625q0.671875 0.265625 1.03125 0.71875q0.375 0.453125 0.375 0.984375q0 0.34375 -0.203125 0.59375q-0.1875 0.25 -0.546875 0.25q-0.40625 0.015625 -0.578125 -0.25q-0.171875 -0.265625 -0.171875 -0.46875q0 -0.15625 0.046875 -0.328125q0.0625 -0.171875 0.203125 -0.3125q-0.125 -0.390625 -0.453125 -0.5625q-0.3125 -0.1875 -0.65625 -0.234375q-0.34375 -0.0625 -0.578125 -0.0625q-1.078125 0 -1.828125 0.875q-0.75 0.859375 -0.75 2.53125q0 1.0625 0.34375 1.90625q0.34375 0.828125 0.96875 1.296875q0.625 0.46875 1.453125 0.46875q0.75 0 1.4375 -0.390625q0.6875 -0.40625 1.0625 -0.984375l0.421875 0.328125q-0.421875 0.671875 -1.0 1.09375q-0.578125 0.40625 -1.203125 0.59375q-0.609375 0.1875 -1.15625 0.1875zm8.400757 0q-1.109375 0 -2.0 -0.515625q-0.875 -0.515625 -1.390625 -1.46875q-0.515625 -0.953125 -0.515625 -2.25q0 -1.125 0.5 -2.09375q0.515625 -0.984375 1.421875 -1.578125q0.90625 -0.59375 2.109375 -0.59375q0.671875 0 1.25 0.21875q0.59375 0.203125 1.03125 0.65625q0.453125 0.4375 0.703125 1.109375q0.265625 0.65625 0.265625 1.546875l-5.640625 0.09375q0 1.21875 0.265625 2.140625q0.265625 0.921875 0.859375 1.421875q0.59375 0.5 1.515625 0.5q0.5 0 1.015625 -0.171875q0.53125 -0.171875 0.96875 -0.46875q0.453125 -0.3125 0.71875 -0.6875l0.390625 0.328125q-0.4375 0.671875 -1.046875 1.078125q-0.59375 0.390625 -1.234375 0.5625q-0.640625 0.171875 -1.1875 0.171875zm-2.203125 -5.546875l4.078125 0q0 -0.578125 -0.171875 -1.109375q-0.171875 -0.53125 -0.5625 -0.875q-0.375 -0.34375 -1.0 -0.34375q-0.921875 0 -1.546875 0.546875q-0.609375 0.546875 -0.796875 1.78125z" fill-rule="nonzero"/><path fill="#000000" fill-opacity="0.0" d="m595.9554 161.3202l0 -107.842514l38.771667 0l0 107.842514z" fill-rule="evenodd"/><path fill="#000000" d="m621.1012 141.12402l-0.53125 0q-0.03125 -0.609375 -0.28125 -0.828125q-0.25 -0.234375 -0.6875 -0.25q-0.4375 -0.03125 -1.0 -0.03125l-6.90625 0q-0.328125 0 -0.609375 -0.015625q-0.296875 -0.015625 -0.546875 -0.03125q0.015625 0.28125 0.03125 0.578125q0.015625 0.28125 0.03125 0.578125l-0.703125 0l0 -3.609375l0.53125 0q0.015625 0.59375 0.28125 0.828125q0.25 0.234375 0.6875 0.265625q0.421875 0.015625 1.0 0.015625l2.65625 0l0 -5.734375l-3.359375 0q-0.328125 0 -0.609375 -0.015625q-0.296875 -0.015625 -0.546875 -0.03125q0.015625 0.296875 0.03125 0.59375q0.015625 0.28125 0.03125 0.5625l-0.703125 0l0 -3.59375l0.53125 0q0.015625 0.578125 0.28125 0.8125q0.25 0.234375 0.6875 0.265625q0.421875 0.015625 1.0 0.015625l6.796875 0q0.4375 0 0.75 0.015625q0.3125 0 0.515625 0.03125q-0.015625 -0.28125 -0.03125 -0.5625q-0.015625 -0.296875 -0.03125 -0.578125l0.703125 0l0 3.59375l-0.53125 0q-0.03125 -0.609375 -0.28125 -0.828125q-0.25 -0.234375 -0.6875 -0.25q-0.4375 -0.03125 -1.0 -0.03125l-2.90625 0l0.0625 5.734375l3.4375 0q0.4375 0 0.75 0.015625q0.3125 0 0.515625 0.03125q-0.015625 -0.28125 -0.03125 -0.5625q-0.015625 -0.296875 -0.03125 -0.59375l0.703125 0l0 3.609375zm0 -11.511276l-0.53125 0q0 -0.484375 -0.25 -0.734375q-0.265625 -0.25 -0.703125 -0.421875q-0.453125 -0.171875 -1.046875 -0.390625l-8.96875 -3.2968826l0 -0.390625l9.09375 -3.5625q0.34375 -0.125 0.875 -0.28125q0.515625 -0.171875 0.890625 -0.140625q-0.015625 -0.265625 -0.03125 -0.53125q-0.015625 -0.28125 -0.03125 -0.546875l0.703125 0l0 3.65625l-0.53125 0q-0.015625 -0.609375 -0.265625 -0.796875q-0.265625 -0.1875 -0.609375 -0.140625q-0.359375 0.046875 -0.640625 0.15625l-1.5 0.5625l0.09375 4.15625l1.703125 0.5625q0.390625 0.109375 0.625 0.203125q0.21875 0.078125 0.484375 0.203125q-0.015625 -0.328125 -0.03125 -0.640625q-0.015625 -0.3125 -0.03125 -0.609375l0.703125 0l0 2.9843826zm-4.140625 -2.9375076l0 -3.703125l-3.0625 1.140625q-0.5 0.171875 -0.984375 0.359375q-0.484375 0.1875 -0.984375 0.359375l0 0.03125q0.453125 0.15625 0.90625 0.328125q0.4375 0.171875 0.90625 0.34375l3.21875 1.140625zm4.140625 -8.047272l-0.53125 0q-0.03125 -0.609375 -0.28125 -0.828125q-0.25 -0.234375 -0.6875 -0.25q-0.4375 -0.03125 -1.0 -0.03125l-6.90625 0q-0.328125 0 -0.609375 -0.015625q-0.296875 -0.015625 -0.546875 -0.03125q0.015625 0.28125 0.03125 0.578125q0.015625 0.28125 0.03125 0.578125l-0.703125 0l0 -3.609375l0.53125 0q0.015625 0.59375 0.28125 0.828125q0.25 0.234375 0.6875 0.265625q0.421875 0.015625 1.0 0.015625l6.859375 0q0.4375 0 0.75 0.015625q0.296875 0 0.5 0.03125l-0.046875 -2.984375q-0.015625 -1.015625 -0.640625 -1.53125q-0.625 -0.53125 -2.03125 -0.53125l0 -0.53125l3.3125 0.09375l0 7.9375zm-7.8125 -23.960907q-0.765625 0.046875 -1.453125 0.375q-0.6875 0.3125 -1.109375 0.921875q-0.4375 0.609375 -0.4375 1.5625q0 0.984375 0.5625 1.515625q0.546875 0.53125 1.3125 0.53125q0.671875 0 1.125 -0.390625q0.453125 -0.390625 0.796875 -1.0q0.34375 -0.609375 0.65625 -1.296875q0.28125 -0.609375 0.59375 -1.21875q0.3125 -0.609375 0.71875 -1.109375q0.390625 -0.5 0.953125 -0.796875q0.546875 -0.296875 1.3125 -0.296875q0.875 0 1.5625 0.453125q0.6875 0.4375 1.078125 1.265625q0.390625 0.828125 0.390625 2.03125q0 0.71875 -0.203125 1.484375q-0.203125 0.765625 -0.609375 1.359375l0.6875 -0.078125l0 0.828125l-3.40625 0.109375l0 -0.625q1.40625 -0.078125 2.140625 -0.96875q0.71875 -0.90625 0.71875 -2.171875q0 -0.625 -0.21875 -1.15625q-0.234375 -0.53125 -0.6875 -0.828125q-0.453125 -0.3125 -1.09375 -0.3125q-0.71875 0 -1.1875 0.390625q-0.484375 0.375 -0.828125 0.984375q-0.359375 0.59375 -0.6875 1.296875q-0.265625 0.59375 -0.5625 1.1875q-0.3125 0.59375 -0.703125 1.09375q-0.390625 0.484375 -0.9375 0.78125q-0.546875 0.296875 -1.3125 0.296875q-0.421875 0 -0.890625 -0.140625q-0.484375 -0.15625 -0.921875 -0.515625q-0.4375 -0.359375 -0.71875 -0.984375q-0.28125 -0.640625 -0.28125 -1.609375q0 -0.609375 0.171875 -1.375q0.15625 -0.765625 0.640625 -1.40625l-0.6875 0.0625l0 -0.828125l3.515625 0l0 0.578125zm7.328125 -7.7438965q0 -0.5 -0.234375 -0.6875q-0.25 -0.1875 -0.6875 -0.21875q-0.453125 -0.03125 -1.03125 -0.03125l-2.234375 0q-1.375 0 -2.0625 0.4375q-0.6875 0.4375 -0.671875 1.390625q0.015625 0.578125 0.296875 1.15625q0.265625 0.5625 0.6875 0.921875l4.71875 0q0.328125 0 0.578125 0.015625q0.25 0.015625 0.515625 0.0625q-0.015625 -0.265625 -0.015625 -0.5q-0.015625 -0.25 -0.03125 -0.515625l0.65625 0l0 3.265625l-0.484375 0q0 -0.5 -0.234375 -0.6875q-0.25 -0.1875 -0.6875 -0.21875q-0.453125 -0.046875 -1.03125 -0.046875l-7.5625 0q-0.25 0 -0.484375 0q-0.234375 -0.015625 -0.5625 -0.046875q0.015625 0.28125 0.046875 0.5625q0.015625 0.28125 0.03125 0.5625l-0.671875 0q0 -0.703125 -0.0625 -1.09375q-0.078125 -0.390625 -0.171875 -0.578125q-0.09375 -0.203125 -0.203125 -0.328125l0 -0.453125l4.875 0q-0.296875 -0.359375 -0.53125 -0.796875q-0.234375 -0.4375 -0.375 -0.90625q-0.140625 -0.484375 -0.140625 -0.921875q0 -1.390625 0.875 -2.0q0.859375 -0.625 2.703125 -0.640625l2.96875 -0.015625q0.328125 0 0.578125 0.015625q0.25 0 0.515625 0.046875q-0.015625 -0.265625 -0.015625 -0.5q-0.015625 -0.25 -0.03125 -0.515625l0.65625 0l0 3.265625l-0.484375 0zm0 -4.44339q0 -0.5 -0.234375 -0.6875q-0.25 -0.1875 -0.6875 -0.21875q-0.453125 -0.03125 -1.03125 -0.03125l-3.640625 0q-0.265625 0 -0.484375 -0.015625q-0.234375 -0.03125 -0.5625 -0.0625q0.015625 0.296875 0.03125 0.578125q0.015625 0.28125 0.03125 0.5625l-0.671875 0q0 -0.703125 -0.0625 -1.078125q-0.0625 -0.390625 -0.15625 -0.59375q-0.09375 -0.203125 -0.203125 -0.3125l0 -0.46875l6.453125 0q0.328125 0 0.578125 0.015625q0.25 0 0.515625 0.0625q-0.015625 -0.265625 -0.015625 -0.515625q-0.015625 -0.25 -0.03125 -0.5l0.65625 0l0 3.265625l-0.484375 0zm-9.265625 -1.53125q0 0.328125 -0.265625 0.59375q-0.265625 0.25 -0.671875 0.25q-0.40625 0 -0.671875 -0.265625q-0.28125 -0.265625 -0.28125 -0.59375q0 -0.375 0.28125 -0.625q0.265625 -0.25 0.671875 -0.25q0.40625 0 0.671875 0.265625q0.265625 0.265625 0.265625 0.625zm9.75 -2.9647522l-0.484375 0q0 -0.5 -0.234375 -0.6875q-0.25 -0.1875 -0.6875 -0.21875q-0.453125 -0.03125 -1.03125 -0.03125l-3.640625 0q-0.265625 0 -0.515625 0q-0.25 -0.015625 -0.53125 -0.078125q0.015625 0.296875 0.03125 0.578125q0.015625 0.28125 0.03125 0.5625l-0.671875 0q0 -0.703125 -0.0625 -1.0625q-0.0625 -0.359375 -0.15625 -0.53125q-0.09375 -0.1875 -0.203125 -0.296875l0 -0.453125q0.15625 -0.03125 0.375 -0.03125q0.203125 -0.015625 0.46875 -0.03125q-0.421875 -0.484375 -0.671875 -1.109375q-0.265625 -0.625 -0.265625 -1.25q0 -0.796875 0.28125 -1.34375q0.28125 -0.546875 0.78125 -0.84375q-0.4375 -0.546875 -0.75 -1.25q-0.3125 -0.71875 -0.3125 -1.40625q0 -1.390625 0.84375 -2.046875q0.828125 -0.65625 2.734375 -0.625l2.96875 0.015625q0.328125 0 0.578125 0.015625q0.25 0 0.515625 0.046875q-0.015625 -0.265625 -0.015625 -0.5q-0.015625 -0.25 -0.03125 -0.515625l0.65625 0l0 3.265625l-0.484375 0q0 -0.5 -0.234375 -0.6875q-0.25 -0.1875 -0.6875 -0.21875q-0.453125 -0.03125 -1.03125 -0.03125l-2.234375 0q-1.375 0 -2.0625 0.4375q-0.6875 0.4375 -0.671875 1.390625q0 0.484375 0.234375 0.984375q0.21875 0.5 0.546875 0.859375q0.25 -0.078125 0.546875 -0.109375q0.296875 -0.046875 0.625 -0.046875q0.921875 0.015625 1.875 0.015625q0.9375 0 1.875 0.015625q0.328125 0 0.578125 0.015625q0.25 0 0.515625 0.046875q-0.015625 -0.25 -0.015625 -0.5q-0.015625 -0.25 -0.03125 -0.5l0.65625 0l0 3.265625l-0.484375 0q0 -0.5 -0.234375 -0.6875q-0.25 -0.1875 -0.6875 -0.21875q-0.453125 -0.046875 -1.03125 -0.046875l-2.234375 -0.015625q-1.375 -0.015625 -2.078125 0.40625q-0.703125 0.40625 -0.6875 1.359375q0 0.5 0.21875 0.984375q0.203125 0.46875 0.546875 0.796875q0.1875 0 0.40625 0q0.21875 -0.015625 0.453125 -0.015625l4.109375 0q0.328125 0 0.578125 0.015625q0.25 0 0.515625 0.0625q-0.015625 -0.265625 -0.015625 -0.515625q-0.015625 -0.25 -0.03125 -0.5l0.65625 0l0 3.265625z" fill-rule="nonzero"/><path fill="#000000" fill-opacity="0.0" d="m213.4672 127.154854l89.13385 0l0 29.07087l-89.13385 0z" fill-rule="evenodd"/><path fill="#000000" d="m229.6119 137.75673l0.1875 0.1875q-0.234375 0.328125 -0.4375 0.6875q-0.203125 0.359375 -0.34375 0.75q-0.140625 0.390625 -0.234375 0.8125q-0.09375 0.40625 -0.140625 0.84375q-0.046875 0.4375 -0.046875 0.890625q0 0.4375 0.046875 0.875q0.046875 0.421875 0.140625 0.828125q0.09375 0.390625 0.234375 0.765625q0.140625 0.390625 0.34375 0.734375q0.203125 0.359375 0.4375 0.6875l-0.1875 0.1875q-0.296875 -0.28125 -0.625 -0.703125q-0.3125 -0.40625 -0.59375 -0.953125q-0.265625 -0.53125 -0.4375 -1.140625q-0.171875 -0.625 -0.171875 -1.28125q0 -0.671875 0.171875 -1.296875q0.171875 -0.640625 0.4375 -1.1875q0.28125 -0.546875 0.59375 -0.984375q0.328125 -0.4375 0.625 -0.703125zm4.9179688 2.265625q-0.078125 -0.75 -0.53125 -1.171875q-0.4375 -0.421875 -1.125 -0.421875q-0.421875 0 -0.796875 0.1875q-0.375 0.171875 -0.65625 0.515625q-0.28125 0.328125 -0.4375 0.8125q-0.15625 0.46875 -0.15625 1.0625q0 0.75 0.28125 1.328125q0.296875 0.578125 0.78125 0.90625q0.484375 0.3125 1.078125 0.3125q0.515625 0 1.015625 -0.234375q0.515625 -0.25 0.828125 -0.6875l0.21875 0.15625q-0.34375 0.484375 -0.75 0.734375q-0.40625 0.25 -0.796875 0.34375q-0.390625 0.09375 -0.71875 0.09375q-0.609375 0 -1.109375 -0.203125q-0.5 -0.21875 -0.859375 -0.609375q-0.359375 -0.390625 -0.5625 -0.90625q-0.1875 -0.515625 -0.1875 -1.125q0 -0.5625 0.171875 -1.09375q0.171875 -0.546875 0.515625 -0.96875q0.34375 -0.4375 0.859375 -0.6875q0.53125 -0.265625 1.21875 -0.265625q0.453125 0 0.84375 0.125q0.40625 0.125 0.78125 0.375l-0.046875 -0.4375l0.4375 0l0 1.859375l-0.296875 0zm1.1700592 3.546875q0.3125 -0.015625 0.421875 -0.140625q0.109375 -0.125 0.109375 -0.34375q0.015625 -0.21875 0.015625 -0.5l0 -3.453125q0 -0.15625 0.015625 -0.296875q0.015625 -0.15625 0.015625 -0.28125q-0.140625 0.015625 -0.296875 0.03125q-0.140625 0 -0.28125 0l0 -0.34375q0.421875 -0.015625 0.875 -0.015625q0.453125 0 0.90625 0q0.78125 0 1.3125 0.171875q0.53125 0.171875 0.796875 0.515625q0.28125 0.34375 0.3125 0.859375q0.015625 0.3125 -0.09375 0.65625q-0.109375 0.328125 -0.40625 0.640625q-0.28125 0.296875 -0.8125 0.484375q-0.53125 0.171875 -1.359375 0.171875q-0.03125 0 -0.125 0q-0.078125 0 -0.15625 0l0 1.15625q0 0.21875 0 0.375q0 0.15625 -0.03125 0.265625q0.140625 -0.015625 0.25 -0.015625q0.125 -0.015625 0.25 -0.015625q0.125 -0.015625 0.25 -0.015625l0 0.359375l-1.96875 0l0 -0.265625zm1.25 -2.171875q0.15625 0.015625 0.265625 0.015625q0.109375 0 0.25 0q0.453125 0 0.828125 -0.171875q0.390625 -0.1875 0.609375 -0.515625q0.21875 -0.34375 0.21875 -0.796875q0 -0.375 -0.125 -0.640625q-0.109375 -0.28125 -0.328125 -0.4375q-0.21875 -0.171875 -0.53125 -0.234375q-0.296875 -0.078125 -0.671875 -0.078125q-0.28125 0 -0.390625 0.125q-0.09375 0.109375 -0.109375 0.328125q-0.015625 0.203125 -0.015625 0.484375l0 1.921875zm5.207306 -2.890625q-0.265625 0 -0.390625 0.109375q-0.109375 0.109375 -0.140625 0.265625q-0.015625 0.140625 -0.015625 0.25l0 2.015625q0 0.453125 0.046875 0.875q0.0625 0.40625 0.234375 0.75q0.171875 0.328125 0.5 0.53125q0.328125 0.203125 0.875 0.203125q0.578125 0 0.9375 -0.265625q0.359375 -0.28125 0.53125 -0.75q0.171875 -0.484375 0.1875 -1.109375l0.015625 -2.25q0 -0.15625 0 -0.296875q0.015625 -0.15625 0.03125 -0.28125q-0.140625 0.015625 -0.28125 0.03125q-0.140625 0 -0.296875 0l0 -0.34375l1.5 0l0 0.265625q-0.3125 0 -0.421875 0.125q-0.109375 0.125 -0.125 0.34375q-0.015625 0.21875 -0.015625 0.5l-0.015625 1.859375q0 0.53125 -0.125 1.0q-0.109375 0.46875 -0.359375 0.84375q-0.25 0.359375 -0.671875 0.578125q-0.40625 0.203125 -1.0 0.203125q-0.640625 0 -1.078125 -0.15625q-0.4375 -0.171875 -0.703125 -0.515625q-0.25 -0.359375 -0.359375 -0.890625q-0.109375 -0.546875 -0.109375 -1.296875l0 -1.625q0 -0.203125 0 -0.484375q0.015625 -0.28125 0.03125 -0.4375q-0.140625 0.015625 -0.296875 0.015625q-0.140625 0 -0.28125 0.015625l0 -0.34375l1.796875 0l0 0.265625zm4.074051 7.5l-0.453125 -0.296875l4.671875 -7.953125l0.515625 0.328125l-4.734375 7.921875zm7.836685 -2.046875q-0.796875 0 -1.421875 -0.328125q-0.609375 -0.34375 -0.953125 -0.96875q-0.34375 -0.640625 -0.34375 -1.515625q0 -0.5625 0.171875 -1.09375q0.171875 -0.546875 0.515625 -0.984375q0.359375 -0.4375 0.875 -0.703125q0.53125 -0.265625 1.21875 -0.265625q0.296875 0 0.59375 0.0625q0.296875 0.046875 0.5625 0.15625q0.28125 0.09375 0.5 0.234375l-0.03125 -0.390625l0.4375 0l0 1.828125l-0.28125 0q-0.03125 -0.5 -0.265625 -0.84375q-0.234375 -0.359375 -0.609375 -0.53125q-0.375 -0.1875 -0.84375 -0.1875q-0.421875 0 -0.796875 0.1875q-0.375 0.1875 -0.65625 0.53125q-0.28125 0.328125 -0.453125 0.796875q-0.15625 0.46875 -0.15625 1.03125q0 0.75 0.265625 1.34375q0.28125 0.59375 0.765625 0.9375q0.484375 0.328125 1.109375 0.328125q0.21875 0 0.453125 -0.046875q0.234375 -0.046875 0.46875 -0.125q0.25 -0.09375 0.453125 -0.234375l0 -0.96875q0 -0.203125 0 -0.390625q0 -0.203125 0 -0.390625q-0.140625 0 -0.28125 0.015625q-0.140625 0 -0.28125 0.015625l0 -0.359375l1.8125 0l0 0.265625q-0.21875 0 -0.34375 0.125q-0.125 0.109375 -0.171875 0.28125q-0.046875 0.15625 -0.0625 0.3125q0 0.15625 0 0.234375l0 1.234375l-0.21875 0q-0.125 0 -0.359375 0.046875q-0.21875 0.046875 -0.5 0.15625q-0.25 0.09375 -0.578125 0.140625q-0.328125 0.0625 -0.59375 0.0625zm3.4316711 -0.390625q0.3125 -0.015625 0.421875 -0.140625q0.109375 -0.125 0.109375 -0.34375q0.015625 -0.21875 0.015625 -0.5l0 -3.453125q0 -0.15625 0.015625 -0.296875q0.015625 -0.15625 0.015625 -0.28125q-0.140625 0.015625 -0.296875 0.03125q-0.140625 0 -0.28125 0l0 -0.34375q0.421875 -0.015625 0.875 -0.015625q0.453125 0 0.90625 0q0.78125 0 1.3125 0.171875q0.53125 0.171875 0.796875 0.515625q0.28125 0.34375 0.3125 0.859375q0.015625 0.3125 -0.09375 0.65625q-0.109375 0.328125 -0.40625 0.640625q-0.28125 0.296875 -0.8125 0.484375q-0.53125 0.171875 -1.359375 0.171875q-0.03125 0 -0.125 0q-0.078125 0 -0.15625 0l0 1.15625q0 0.21875 0 0.375q0 0.15625 -0.03125 0.265625q0.140625 -0.015625 0.25 -0.015625q0.125 -0.015625 0.25 -0.015625q0.125 -0.015625 0.25 -0.015625l0 0.359375l-1.96875 0l0 -0.265625zm1.25 -2.171875q0.15625 0.015625 0.265625 0.015625q0.109375 0 0.25 0q0.453125 0 0.828125 -0.171875q0.390625 -0.1875 0.609375 -0.515625q0.21875 -0.34375 0.21875 -0.796875q0 -0.375 -0.125 -0.640625q-0.109375 -0.28125 -0.328125 -0.4375q-0.21875 -0.171875 -0.53125 -0.234375q-0.296875 -0.078125 -0.671875 -0.078125q-0.28125 0 -0.390625 0.125q-0.09375 0.109375 -0.109375 0.328125q-0.015625 0.203125 -0.015625 0.484375l0 1.921875zm5.207306 -2.890625q-0.265625 0 -0.390625 0.109375q-0.109375 0.109375 -0.140625 0.265625q-0.015625 0.140625 -0.015625 0.25l0 2.015625q0 0.453125 0.046875 0.875q0.0625 0.40625 0.234375 0.75q0.171875 0.328125 0.5 0.53125q0.328125 0.203125 0.875 0.203125q0.578125 0 0.9375 -0.265625q0.359375 -0.28125 0.53125 -0.75q0.171875 -0.484375 0.1875 -1.109375l0.015625 -2.25q0 -0.15625 0 -0.296875q0.015625 -0.15625 0.03125 -0.28125q-0.140625 0.015625 -0.28125 0.03125q-0.140625 0 -0.296875 0l0 -0.34375l1.5 0l0 0.265625q-0.3125 0 -0.421875 0.125q-0.109375 0.125 -0.125 0.34375q-0.015625 0.21875 -0.015625 0.5l-0.015625 1.859375q0 0.53125 -0.125 1.0q-0.109375 0.46875 -0.359375 0.84375q-0.25 0.359375 -0.671875 0.578125q-0.40625 0.203125 -1.0 0.203125q-0.640625 0 -1.078125 -0.15625q-0.4375 -0.171875 -0.703125 -0.515625q-0.25 -0.359375 -0.359375 -0.890625q-0.109375 -0.546875 -0.109375 -1.296875l0 -1.625q0 -0.203125 0 -0.484375q0.015625 -0.28125 0.03125 -0.4375q-0.140625 0.015625 -0.296875 0.015625q-0.140625 0 -0.28125 0.015625l0 -0.34375l1.796875 0l0 0.265625zm4.074066 7.5l-0.453125 -0.296875l4.671875 -7.953125l0.515625 0.328125l-4.734375 7.921875zm6.776184 -2.046875q-0.546875 0 -1.0 -0.25q-0.4375 -0.265625 -0.6875 -0.734375q-0.25 -0.484375 -0.25 -1.125q0 -0.5625 0.25 -1.046875q0.25 -0.5 0.703125 -0.796875q0.453125 -0.296875 1.0625 -0.296875q0.328125 0 0.609375 0.109375q0.296875 0.109375 0.515625 0.328125q0.234375 0.21875 0.359375 0.546875q0.125 0.328125 0.125 0.78125l-2.8125 0.046875q0 0.609375 0.125 1.078125q0.140625 0.453125 0.4375 0.703125q0.296875 0.25 0.765625 0.25q0.25 0 0.5 -0.078125q0.265625 -0.09375 0.484375 -0.25q0.234375 -0.15625 0.359375 -0.328125l0.203125 0.15625q-0.21875 0.328125 -0.53125 0.53125q-0.296875 0.203125 -0.625 0.28125q-0.3125 0.09375 -0.59375 0.09375zm-1.09375 -2.765625l2.03125 0q0 -0.296875 -0.078125 -0.5625q-0.078125 -0.265625 -0.28125 -0.4375q-0.1875 -0.171875 -0.5 -0.171875q-0.46875 0 -0.78125 0.28125q-0.296875 0.265625 -0.390625 0.890625zm4.951782 2.765625q-0.1875 0 -0.390625 -0.046875q-0.1875 -0.046875 -0.359375 -0.203125q-0.15625 -0.15625 -0.25 -0.4375q-0.09375 -0.296875 -0.09375 -0.78125l0.015625 -2.3125l-0.6093445 0l0 -0.34375q0.203125 -0.015625 0.421875 -0.15625q0.21871948 -0.140625 0.39059448 -0.390625q0.171875 -0.265625 0.234375 -0.578125l0.265625 0l0 1.125l1.34375 0l0 0.3125l-1.34375 0.015625l-0.015625 2.21875q0 0.359375 0.0625 0.625q0.0625 0.25 0.1875 0.375q0.140625 0.125 0.359375 0.125q0.21875 0 0.421875 -0.125q0.203125 -0.125 0.34375 -0.359375l0.21875 0.1875q-0.171875 0.25 -0.34375 0.40625q-0.171875 0.15625 -0.34375 0.234375q-0.15625 0.078125 -0.296875 0.09375q-0.125 0.015625 -0.21875 0.015625zm3.5334778 0q-0.53125 0 -0.984375 -0.234375q-0.453125 -0.25 -0.71875 -0.703125q-0.265625 -0.46875 -0.265625 -1.109375q0 -0.421875 0.140625 -0.8125q0.15625 -0.390625 0.4375 -0.703125q0.28125 -0.328125 0.65625 -0.5q0.390625 -0.1875 0.859375 -0.1875q0.4375 0 0.765625 0.140625q0.34375 0.125 0.515625 0.359375q0.1875 0.21875 0.1875 0.484375q0 0.171875 -0.09375 0.296875q-0.09375 0.125 -0.28125 0.125q-0.203125 0 -0.28125 -0.125q-0.078125 -0.125 -0.078125 -0.234375q0 -0.078125 0.015625 -0.15625q0.03125 -0.09375 0.09375 -0.171875q-0.0625 -0.1875 -0.21875 -0.28125q-0.15625 -0.09375 -0.328125 -0.109375q-0.171875 -0.03125 -0.28125 -0.03125q-0.546875 0 -0.921875 0.4375q-0.375 0.4375 -0.375 1.265625q0 0.53125 0.171875 0.953125q0.171875 0.40625 0.484375 0.65625q0.3125 0.234375 0.71875 0.234375q0.375 0 0.71875 -0.203125q0.34375 -0.203125 0.546875 -0.484375l0.203125 0.15625q-0.203125 0.328125 -0.5 0.546875q-0.296875 0.203125 -0.609375 0.296875q-0.296875 0.09375 -0.578125 0.09375zm2.927826 0q-0.171875 0 -0.3125 -0.140625q-0.140625 -0.15625 -0.140625 -0.375q0 -0.203125 0.140625 -0.359375q0.140625 -0.15625 0.328125 -0.15625q0.203125 0 0.328125 0.15625q0.140625 0.15625 0.140625 0.359375q0 0.21875 -0.15625 0.375q-0.140625 0.140625 -0.328125 0.140625zm1.3429565 2.046875l-0.203125 -0.1875q0.25 -0.328125 0.4375 -0.703125q0.203125 -0.359375 0.34375 -0.75q0.15625 -0.375 0.234375 -0.796875q0.09375 -0.421875 0.140625 -0.84375q0.0625 -0.4375 0.0625 -0.890625q0 -0.453125 -0.0625 -0.875q-0.046875 -0.421875 -0.140625 -0.828125q-0.078125 -0.40625 -0.234375 -0.78125q-0.140625 -0.375 -0.34375 -0.71875q-0.1875 -0.359375 -0.4375 -0.6875l0.203125 -0.1875q0.296875 0.265625 0.609375 0.6875q0.328125 0.421875 0.59375 0.96875q0.28125 0.53125 0.4375 1.15625q0.171875 0.609375 0.171875 1.265625q0 0.65625 -0.171875 1.296875q-0.15625 0.625 -0.4375 1.171875q-0.265625 0.5625 -0.59375 0.984375q-0.3125 0.4375 -0.609375 0.71875z" fill-rule="nonzero"/><path fill="#000000" fill-opacity="0.0" d="m655.16534 127.154854l89.13385 0l0 29.07087l-89.13385 0z" fill-rule="evenodd"/><path fill="#000000" d="m671.31006 137.75673l0.1875 0.1875q-0.234375 0.328125 -0.4375 0.6875q-0.203125 0.359375 -0.34375 0.75q-0.140625 0.390625 -0.234375 0.8125q-0.09375 0.40625 -0.140625 0.84375q-0.046875 0.4375 -0.046875 0.890625q0 0.4375 0.046875 0.875q0.046875 0.421875 0.140625 0.828125q0.09375 0.390625 0.234375 0.765625q0.140625 0.390625 0.34375 0.734375q0.203125 0.359375 0.4375 0.6875l-0.1875 0.1875q-0.296875 -0.28125 -0.625 -0.703125q-0.3125 -0.40625 -0.59375 -0.953125q-0.265625 -0.53125 -0.4375 -1.140625q-0.171875 -0.625 -0.171875 -1.28125q0 -0.671875 0.171875 -1.296875q0.171875 -0.640625 0.4375 -1.1875q0.28125 -0.546875 0.59375 -0.984375q0.328125 -0.4375 0.625 -0.703125zm4.9179688 2.265625q-0.078125 -0.75 -0.53125 -1.171875q-0.4375 -0.421875 -1.125 -0.421875q-0.421875 0 -0.796875 0.1875q-0.375 0.171875 -0.65625 0.515625q-0.28125 0.328125 -0.4375 0.8125q-0.15625 0.46875 -0.15625 1.0625q0 0.75 0.28125 1.328125q0.296875 0.578125 0.78125 0.90625q0.484375 0.3125 1.078125 0.3125q0.515625 0 1.015625 -0.234375q0.515625 -0.25 0.828125 -0.6875l0.21875 0.15625q-0.34375 0.484375 -0.75 0.734375q-0.40625 0.25 -0.796875 0.34375q-0.390625 0.09375 -0.71875 0.09375q-0.609375 0 -1.109375 -0.203125q-0.5 -0.21875 -0.859375 -0.609375q-0.359375 -0.390625 -0.5625 -0.90625q-0.1875 -0.515625 -0.1875 -1.125q0 -0.5625 0.171875 -1.09375q0.171875 -0.546875 0.515625 -0.96875q0.34375 -0.4375 0.859375 -0.6875q0.53125 -0.265625 1.21875 -0.265625q0.453125 0 0.84375 0.125q0.40625 0.125 0.78125 0.375l-0.046875 -0.4375l0.4375 0l0 1.859375l-0.296875 0zm1.170044 3.546875q0.3125 -0.015625 0.421875 -0.140625q0.109375 -0.125 0.109375 -0.34375q0.015625 -0.21875 0.015625 -0.5l0 -3.453125q0 -0.15625 0.015625 -0.296875q0.015625 -0.15625 0.015625 -0.28125q-0.140625 0.015625 -0.296875 0.03125q-0.140625 0 -0.28125 0l0 -0.34375q0.421875 -0.015625 0.875 -0.015625q0.453125 0 0.90625 0q0.78125 0 1.3125 0.171875q0.53125 0.171875 0.796875 0.515625q0.28125 0.34375 0.3125 0.859375q0.015625 0.3125 -0.09375 0.65625q-0.109375 0.328125 -0.40625 0.640625q-0.28125 0.296875 -0.8125 0.484375q-0.53125 0.171875 -1.359375 0.171875q-0.03125 0 -0.125 0q-0.078125 0 -0.15625 0l0 1.15625q0 0.21875 0 0.375q0 0.15625 -0.03125 0.265625q0.140625 -0.015625 0.25 -0.015625q0.125 -0.015625 0.25 -0.015625q0.125 -0.015625 0.25 -0.015625l0 0.359375l-1.96875 0l0 -0.265625zm1.25 -2.171875q0.15625 0.015625 0.265625 0.015625q0.109375 0 0.25 0q0.453125 0 0.828125 -0.171875q0.390625 -0.1875 0.609375 -0.515625q0.21875 -0.34375 0.21875 -0.796875q0 -0.375 -0.125 -0.640625q-0.109375 -0.28125 -0.328125 -0.4375q-0.21875 -0.171875 -0.53125 -0.234375q-0.296875 -0.078125 -0.671875 -0.078125q-0.28125 0 -0.390625 0.125q-0.09375 0.109375 -0.109375 0.328125q-0.015625 0.203125 -0.015625 0.484375l0 1.921875zm5.2073364 -2.890625q-0.265625 0 -0.390625 0.109375q-0.109375 0.109375 -0.140625 0.265625q-0.015625 0.140625 -0.015625 0.25l0 2.015625q0 0.453125 0.046875 0.875q0.0625 0.40625 0.234375 0.75q0.171875 0.328125 0.5 0.53125q0.328125 0.203125 0.875 0.203125q0.578125 0 0.9375 -0.265625q0.359375 -0.28125 0.53125 -0.75q0.171875 -0.484375 0.1875 -1.109375l0.015625 -2.25q0 -0.15625 0 -0.296875q0.015625 -0.15625 0.03125 -0.28125q-0.140625 0.015625 -0.28125 0.03125q-0.140625 0 -0.296875 0l0 -0.34375l1.5 0l0 0.265625q-0.3125 0 -0.421875 0.125q-0.109375 0.125 -0.125 0.34375q-0.015625 0.21875 -0.015625 0.5l-0.015625 1.859375q0 0.53125 -0.125 1.0q-0.109375 0.46875 -0.359375 0.84375q-0.25 0.359375 -0.671875 0.578125q-0.40625 0.203125 -1.0 0.203125q-0.640625 0 -1.078125 -0.15625q-0.4375 -0.171875 -0.703125 -0.515625q-0.25 -0.359375 -0.359375 -0.890625q-0.109375 -0.546875 -0.109375 -1.296875l0 -1.625q0 -0.203125 0 -0.484375q0.015625 -0.28125 0.03125 -0.4375q-0.140625 0.015625 -0.296875 0.015625q-0.140625 0 -0.28125 0.015625l0 -0.34375l1.796875 0l0 0.265625zm4.0740356 7.5l-0.453125 -0.296875l4.671875 -7.953125l0.515625 0.328125l-4.734375 7.921875zm7.83667 -2.046875q-0.796875 0 -1.421875 -0.328125q-0.609375 -0.34375 -0.953125 -0.96875q-0.34375 -0.640625 -0.34375 -1.515625q0 -0.5625 0.171875 -1.09375q0.171875 -0.546875 0.515625 -0.984375q0.359375 -0.4375 0.875 -0.703125q0.53125 -0.265625 1.21875 -0.265625q0.296875 0 0.59375 0.0625q0.296875 0.046875 0.5625 0.15625q0.28125 0.09375 0.5 0.234375l-0.03125 -0.390625l0.4375 0l0 1.828125l-0.28125 0q-0.03125 -0.5 -0.265625 -0.84375q-0.234375 -0.359375 -0.609375 -0.53125q-0.375 -0.1875 -0.84375 -0.1875q-0.421875 0 -0.796875 0.1875q-0.375 0.1875 -0.65625 0.53125q-0.28125 0.328125 -0.453125 0.796875q-0.15625 0.46875 -0.15625 1.03125q0 0.75 0.265625 1.34375q0.28125 0.59375 0.765625 0.9375q0.484375 0.328125 1.109375 0.328125q0.21875 0 0.453125 -0.046875q0.234375 -0.046875 0.46875 -0.125q0.25 -0.09375 0.453125 -0.234375l0 -0.96875q0 -0.203125 0 -0.390625q0 -0.203125 0 -0.390625q-0.140625 0 -0.28125 0.015625q-0.140625 0 -0.28125 0.015625l0 -0.359375l1.8125 0l0 0.265625q-0.21875 0 -0.34375 0.125q-0.125 0.109375 -0.171875 0.28125q-0.046875 0.15625 -0.0625 0.3125q0 0.15625 0 0.234375l0 1.234375l-0.21875 0q-0.125 0 -0.359375 0.046875q-0.21875 0.046875 -0.5 0.15625q-0.25 0.09375 -0.578125 0.140625q-0.328125 0.0625 -0.59375 0.0625zm3.4317017 -0.390625q0.3125 -0.015625 0.421875 -0.140625q0.109375 -0.125 0.109375 -0.34375q0.015625 -0.21875 0.015625 -0.5l0 -3.453125q0 -0.15625 0.015625 -0.296875q0.015625 -0.15625 0.015625 -0.28125q-0.140625 0.015625 -0.296875 0.03125q-0.140625 0 -0.28125 0l0 -0.34375q0.421875 -0.015625 0.875 -0.015625q0.453125 0 0.90625 0q0.78125 0 1.3125 0.171875q0.53125 0.171875 0.796875 0.515625q0.28125 0.34375 0.3125 0.859375q0.015625 0.3125 -0.09375 0.65625q-0.109375 0.328125 -0.40625 0.640625q-0.28125 0.296875 -0.8125 0.484375q-0.53125 0.171875 -1.359375 0.171875q-0.03125 0 -0.125 0q-0.078125 0 -0.15625 0l0 1.15625q0 0.21875 0 0.375q0 0.15625 -0.03125 0.265625q0.140625 -0.015625 0.25 -0.015625q0.125 -0.015625 0.25 -0.015625q0.125 -0.015625 0.25 -0.015625l0 0.359375l-1.96875 0l0 -0.265625zm1.25 -2.171875q0.15625 0.015625 0.265625 0.015625q0.109375 0 0.25 0q0.453125 0 0.828125 -0.171875q0.390625 -0.1875 0.609375 -0.515625q0.21875 -0.34375 0.21875 -0.796875q0 -0.375 -0.125 -0.640625q-0.109375 -0.28125 -0.328125 -0.4375q-0.21875 -0.171875 -0.53125 -0.234375q-0.296875 -0.078125 -0.671875 -0.078125q-0.28125 0 -0.390625 0.125q-0.09375 0.109375 -0.109375 0.328125q-0.015625 0.203125 -0.015625 0.484375l0 1.921875zm5.2072754 -2.890625q-0.265625 0 -0.390625 0.109375q-0.109375 0.109375 -0.140625 0.265625q-0.015625 0.140625 -0.015625 0.25l0 2.015625q0 0.453125 0.046875 0.875q0.0625 0.40625 0.234375 0.75q0.171875 0.328125 0.5 0.53125q0.328125 0.203125 0.875 0.203125q0.578125 0 0.9375 -0.265625q0.359375 -0.28125 0.53125 -0.75q0.171875 -0.484375 0.1875 -1.109375l0.015625 -2.25q0 -0.15625 0 -0.296875q0.015625 -0.15625 0.03125 -0.28125q-0.140625 0.015625 -0.28125 0.03125q-0.140625 0 -0.296875 0l0 -0.34375l1.5 0l0 0.265625q-0.3125 0 -0.421875 0.125q-0.109375 0.125 -0.125 0.34375q-0.015625 0.21875 -0.015625 0.5l-0.015625 1.859375q0 0.53125 -0.125 1.0q-0.109375 0.46875 -0.359375 0.84375q-0.25 0.359375 -0.671875 0.578125q-0.40625 0.203125 -1.0 0.203125q-0.640625 0 -1.078125 -0.15625q-0.4375 -0.171875 -0.703125 -0.515625q-0.25 -0.359375 -0.359375 -0.890625q-0.109375 -0.546875 -0.109375 -1.296875l0 -1.625q0 -0.203125 0 -0.484375q0.015625 -0.28125 0.03125 -0.4375q-0.140625 0.015625 -0.296875 0.015625q-0.140625 0 -0.28125 0.015625l0 -0.34375l1.796875 0l0 0.265625zm4.0740356 7.5l-0.453125 -0.296875l4.671875 -7.953125l0.515625 0.328125l-4.734375 7.921875zm6.776184 -2.046875q-0.546875 0 -1.0 -0.25q-0.4375 -0.265625 -0.6875 -0.734375q-0.25 -0.484375 -0.25 -1.125q0 -0.5625 0.25 -1.046875q0.25 -0.5 0.703125 -0.796875q0.453125 -0.296875 1.0625 -0.296875q0.328125 0 0.609375 0.109375q0.296875 0.109375 0.515625 0.328125q0.234375 0.21875 0.359375 0.546875q0.125 0.328125 0.125 0.78125l-2.8125 0.046875q0 0.609375 0.125 1.078125q0.140625 0.453125 0.4375 0.703125q0.296875 0.25 0.765625 0.25q0.25 0 0.5 -0.078125q0.265625 -0.09375 0.484375 -0.25q0.234375 -0.15625 0.359375 -0.328125l0.203125 0.15625q-0.21875 0.328125 -0.53125 0.53125q-0.296875 0.203125 -0.625 0.28125q-0.3125 0.09375 -0.59375 0.09375zm-1.09375 -2.765625l2.03125 0q0 -0.296875 -0.078125 -0.5625q-0.078125 -0.265625 -0.28125 -0.4375q-0.1875 -0.171875 -0.5 -0.171875q-0.46875 0 -0.78125 0.28125q-0.296875 0.265625 -0.390625 0.890625zm4.9518433 2.765625q-0.1875 0 -0.390625 -0.046875q-0.1875 -0.046875 -0.359375 -0.203125q-0.15625 -0.15625 -0.25 -0.4375q-0.09375 -0.296875 -0.09375 -0.78125l0.015625 -2.3125l-0.609375 0l0 -0.34375q0.203125 -0.015625 0.421875 -0.15625q0.21875 -0.140625 0.390625 -0.390625q0.171875 -0.265625 0.234375 -0.578125l0.265625 0l0 1.125l1.34375 0l0 0.3125l-1.34375 0.015625l-0.015625 2.21875q0 0.359375 0.0625 0.625q0.0625 0.25 0.1875 0.375q0.140625 0.125 0.359375 0.125q0.21875 0 0.421875 -0.125q0.203125 -0.125 0.34375 -0.359375l0.21875 0.1875q-0.171875 0.25 -0.34375 0.40625q-0.171875 0.15625 -0.34375 0.234375q-0.15625 0.078125 -0.296875 0.09375q-0.125 0.015625 -0.21875 0.015625zm3.5334473 0q-0.53125 0 -0.984375 -0.234375q-0.453125 -0.25 -0.71875 -0.703125q-0.265625 -0.46875 -0.265625 -1.109375q0 -0.421875 0.140625 -0.8125q0.15625 -0.390625 0.4375 -0.703125q0.28125 -0.328125 0.65625 -0.5q0.390625 -0.1875 0.859375 -0.1875q0.4375 0 0.765625 0.140625q0.34375 0.125 0.515625 0.359375q0.1875 0.21875 0.1875 0.484375q0 0.171875 -0.09375 0.296875q-0.09375 0.125 -0.28125 0.125q-0.203125 0 -0.28125 -0.125q-0.078125 -0.125 -0.078125 -0.234375q0 -0.078125 0.015625 -0.15625q0.03125 -0.09375 0.09375 -0.171875q-0.0625 -0.1875 -0.21875 -0.28125q-0.15625 -0.09375 -0.328125 -0.109375q-0.171875 -0.03125 -0.28125 -0.03125q-0.546875 0 -0.921875 0.4375q-0.375 0.4375 -0.375 1.265625q0 0.53125 0.171875 0.953125q0.171875 0.40625 0.484375 0.65625q0.3125 0.234375 0.71875 0.234375q0.375 0 0.71875 -0.203125q0.34375 -0.203125 0.546875 -0.484375l0.203125 0.15625q-0.203125 0.328125 -0.5 0.546875q-0.296875 0.203125 -0.609375 0.296875q-0.296875 0.09375 -0.578125 0.09375zm2.9278564 0q-0.171875 0 -0.3125 -0.140625q-0.140625 -0.15625 -0.140625 -0.375q0 -0.203125 0.140625 -0.359375q0.140625 -0.15625 0.328125 -0.15625q0.203125 0 0.328125 0.15625q0.140625 0.15625 0.140625 0.359375q0 0.21875 -0.15625 0.375q-0.140625 0.140625 -0.328125 0.140625zm1.3429565 2.046875l-0.203125 -0.1875q0.25 -0.328125 0.4375 -0.703125q0.203125 -0.359375 0.34375 -0.75q0.15625 -0.375 0.234375 -0.796875q0.09375 -0.421875 0.140625 -0.84375q0.0625 -0.4375 0.0625 -0.890625q0 -0.453125 -0.0625 -0.875q-0.046875 -0.421875 -0.140625 -0.828125q-0.078125 -0.40625 -0.234375 -0.78125q-0.140625 -0.375 -0.34375 -0.71875q-0.1875 -0.359375 -0.4375 -0.6875l0.203125 -0.1875q0.296875 0.265625 0.609375 0.6875q0.328125 0.421875 0.59375 0.96875q0.28125 0.53125 0.4375 1.15625q0.171875 0.609375 0.171875 1.265625q0 0.65625 -0.171875 1.296875q-0.15625 0.625 -0.4375 1.171875q-0.265625 0.5625 -0.59375 0.984375q-0.3125 0.4375 -0.609375 0.71875z" fill-rule="nonzero"/><path fill="#cfe2f3" d="m649.51184 50.942257l152.59839 0l0 112.913376l-152.59839 0zm4.0321045 4.032139l0 104.849106l144.53418 0l0 -104.849106z" fill-rule="evenodd"/><path stroke="#ffffff" stroke-width="1.0" stroke-linejoin="round" stroke-linecap="butt" d="m649.51184 50.942257l152.59839 0l0 112.913376l-152.59839 0zm4.0321045 4.032139l0 104.849106l144.53418 0l0 -104.849106z" fill-rule="evenodd"/><path fill="#000000" fill-opacity="0.0" d="m443.30185 17.918634l112.91336 0l0 35.55906l-112.91336 0z" fill-rule="evenodd"/><path fill="#000000" d="m452.22372 39.718636l0 -0.4375q0.390625 0 0.609375 -0.203125q0.21875 -0.21875 0.359375 -0.59375q0.140625 -0.375 0.328125 -0.875l2.734375 -7.468752l0.328125 0l2.96875 7.578127q0.109375 0.28125 0.234375 0.71875q0.140625 0.4375 0.109375 0.75q0.234375 -0.015625 0.453125 -0.03125q0.234375 -0.015625 0.453125 -0.03125l0 0.59375l-3.046875 0l0 -0.4375q0.5 -0.015625 0.65625 -0.21875q0.171875 -0.21875 0.125 -0.515625q-0.03125 -0.296875 -0.125 -0.53125l-0.46875 -1.25l-3.46875 0.078125l-0.46875 1.421875q-0.09375 0.3125 -0.171875 0.5q-0.0625 0.1875 -0.15625 0.421875q0.265625 -0.015625 0.515625 -0.03125q0.265625 -0.015625 0.515625 -0.03125l0 0.59375l-2.484375 0zm2.453125 -3.453125l3.078125 0l-0.953125 -2.546875q-0.140625 -0.40625 -0.296875 -0.8125q-0.15625 -0.40625 -0.296875 -0.828125l-0.03125 0q-0.125 0.375 -0.265625 0.75q-0.140625 0.375 -0.296875 0.765625l-0.9375 2.671875zm6.4371033 6.859375l0 -0.40625q0.40625 0 0.5625 -0.21875q0.171875 -0.203125 0.1875 -0.5625q0.03125 -0.359375 0.03125 -0.84375l0.03125 -6.4375q0 -0.21875 0 -0.421875q0.015625 -0.21875 0.046875 -0.453125q-0.234375 0.015625 -0.46875 0.03125q-0.234375 0.015625 -0.46875 0.03125l0 -0.5625q0.578125 0 0.875 -0.046875q0.3125 -0.0625 0.453125 -0.140625q0.140625 -0.078125 0.234375 -0.171875l0.390625 0q0.015625 0.140625 0.03125 0.328125q0.015625 0.171875 0.03125 0.390625q0.390625 -0.359375 0.9375 -0.578125q0.5625 -0.21875 1.125 -0.21875q0.765625 0 1.4375 0.40625q0.671875 0.390625 1.078125 1.140625q0.40625 0.734375 0.40625 1.75q0 1.140625 -0.46875 2.0q-0.46875 0.84375 -1.25 1.328125q-0.765625 0.46875 -1.671875 0.46875q-0.46875 0 -0.859375 -0.125q-0.390625 -0.109375 -0.734375 -0.328125l0 2.21875q0 0.265625 -0.015625 0.46875q0 0.21875 -0.046875 0.4375q0.21875 -0.015625 0.421875 -0.03125q0.203125 0 0.421875 0l0 0.546875l-2.71875 0zm3.5 -3.71875q0.640625 0 1.09375 -0.390625q0.46875 -0.40625 0.71875 -1.09375q0.25 -0.6875 0.25 -1.5625q0 -0.71875 -0.21875 -1.375q-0.203125 -0.65625 -0.65625 -1.0625q-0.4375 -0.421875 -1.171875 -0.421875q-0.453125 0 -0.875 0.21875q-0.421875 0.21875 -0.703125 0.515625q0 0.0625 0 0.171875q0.015625 0.09375 0.015625 0.34375q0 0.234375 0 0.71875q0 0.484375 -0.015625 1.3125q0 0.828125 0 2.09375q0.34375 0.25 0.734375 0.390625q0.390625 0.140625 0.828125 0.140625zm4.4568787 3.71875l0 -0.40625q0.40625 0 0.5625 -0.21875q0.171875 -0.203125 0.1875 -0.5625q0.03125 -0.359375 0.03125 -0.84375l0.03125 -6.4375q0 -0.21875 0 -0.421875q0.015625 -0.21875 0.046875 -0.453125q-0.234375 0.015625 -0.46875 0.03125q-0.234375 0.015625 -0.46875 0.03125l0 -0.5625q0.578125 0 0.875 -0.046875q0.3125 -0.0625 0.453125 -0.140625q0.140625 -0.078125 0.234375 -0.171875l0.390625 0q0.015625 0.140625 0.03125 0.328125q0.015625 0.171875 0.03125 0.390625q0.390625 -0.359375 0.9375 -0.578125q0.5625 -0.21875 1.125 -0.21875q0.765625 0 1.4375 0.40625q0.671875 0.390625 1.078125 1.140625q0.40625 0.734375 0.40625 1.75q0 1.140625 -0.46875 2.0q-0.46875 0.84375 -1.25 1.328125q-0.765625 0.46875 -1.671875 0.46875q-0.46875 0 -0.859375 -0.125q-0.390625 -0.109375 -0.734375 -0.328125l0 2.21875q0 0.265625 -0.015625 0.46875q0 0.21875 -0.046875 0.4375q0.21875 -0.015625 0.421875 -0.03125q0.203125 0 0.421875 0l0 0.546875l-2.71875 0zm3.5 -3.71875q0.640625 0 1.09375 -0.390625q0.46875 -0.40625 0.71875 -1.09375q0.25 -0.6875 0.25 -1.5625q0 -0.71875 -0.21875 -1.375q-0.203125 -0.65625 -0.65625 -1.0625q-0.4375 -0.421875 -1.171875 -0.421875q-0.453125 0 -0.875 0.21875q-0.421875 0.21875 -0.703125 0.515625q0 0.0625 0 0.171875q0.015625 0.09375 0.015625 0.34375q0 0.234375 0 0.71875q0 0.484375 -0.015625 1.3125q0 0.828125 0 2.09375q0.34375 0.25 0.734375 0.390625q0.390625 0.140625 0.828125 0.140625zm8.227753 -0.125q0.5 -0.03125 0.6875 -0.234375q0.1875 -0.203125 0.203125 -0.5625q0.03125 -0.375 0.03125 -0.84375l0 -5.765627q0 -0.265625 0 -0.5q0.015625 -0.25 0.03125 -0.453125q-0.234375 0.015625 -0.484375 0.03125q-0.234375 0.015625 -0.46875 0.015625l0 -0.578125q0.703125 -0.015625 1.453125 -0.015625q0.75 -0.015625 1.515625 -0.015625q1.296875 0 2.171875 0.296875q0.875 0.296875 1.34375 0.875q0.46875 0.5625019 0.515625 1.4218769q0.015625 0.515625 -0.171875 1.078125q-0.171875 0.5625 -0.65625 1.0625q-0.484375 0.5 -1.359375 0.8125q-0.875 0.3125 -2.25 0.3125q-0.0625 0 -0.203125 0q-0.140625 0 -0.28125 -0.015625l0 1.921875q0 0.375 -0.015625 0.640625q0 0.25 -0.03125 0.421875q0.21875 -0.015625 0.421875 -0.03125q0.203125 -0.015625 0.40625 -0.015625q0.203125 -0.015625 0.40625 -0.015625l0 0.59375l-3.265625 0l0 -0.4375zm2.078125 -3.625q0.25 0.03125 0.421875 0.03125q0.1875 0 0.4375 0q0.765625 0 1.390625 -0.296875q0.625 -0.296875 1.0 -0.859375q0.375 -0.5625 0.375 -1.328125q0 -0.625 -0.203125 -1.0625q-0.203125 -0.4531269 -0.578125 -0.7187519q-0.359375 -0.28125 -0.859375 -0.40625q-0.5 -0.140625 -1.125 -0.140625q-0.453125 0 -0.640625 0.203125q-0.171875 0.203125 -0.203125 0.5625q-0.015625 0.34375 -0.015625 0.8281269l0 3.1875zm5.8580627 3.65625q0.40625 0 0.5625 -0.203125q0.15625 -0.203125 0.1875 -0.5625q0.03125 -0.375 0.03125 -0.859375l0 -3.03125q0 -0.21875 0 -0.421875q0.015625 -0.21875 0.046875 -0.453125q-0.234375 0.015625 -0.46875 0.03125q-0.234375 0 -0.46875 0.015625l0 -0.546875l0.40625 0q0.578125 0 0.796875 -0.109375q0.21875 -0.109375 0.359375 -0.25l0.390625 0q0.03125 0.21875 0.046875 0.53125q0.015625 0.3125 0.015625 0.78125q0.203125 -0.328125 0.546875 -0.640625q0.359375 -0.328125 0.78125 -0.53125q0.4375 -0.21875 0.921875 -0.21875q0.375 0 0.640625 0.203125q0.28125 0.1875 0.28125 0.640625q0 0.09375 -0.0625 0.25q-0.0625 0.15625 -0.21875 0.28125q-0.140625 0.109375 -0.375 0.109375q-0.296875 -0.015625 -0.46875 -0.234375q-0.171875 -0.21875 -0.140625 -0.515625q-0.328125 -0.015625 -0.6875 0.171875q-0.34375 0.1875 -0.65625 0.515625q-0.296875 0.328125 -0.546875 0.765625l0.015625 3.28125q0 0.265625 -0.015625 0.46875q0 0.203125 -0.03125 0.4375q0.203125 -0.015625 0.40625 -0.015625q0.21875 -0.015625 0.421875 -0.03125l0 0.546875l-2.71875 0l0 -0.40625zm8.974609 0.625q-0.9375 0 -1.703125 -0.4375q-0.75 -0.4375 -1.203125 -1.203125q-0.4375 -0.765625 -0.4375 -1.75q0 -1.046875 0.4375 -1.890625q0.4375 -0.84375 1.203125 -1.328125q0.765625 -0.484375 1.703125 -0.484375q0.9375 0 1.6875 0.453125q0.765625 0.4375 1.21875 1.203125q0.453125 0.75 0.453125 1.734375q0 1.015625 -0.453125 1.875q-0.4375 0.84375 -1.203125 1.34375q-0.75 0.484375 -1.703125 0.484375zm0.109375 -0.53125q0.703125 0 1.109375 -0.40625q0.421875 -0.40625 0.59375 -1.046875q0.1875 -0.640625 0.1875 -1.34375q0 -0.59375 -0.109375 -1.171875q-0.109375 -0.578125 -0.359375 -1.046875q-0.234375 -0.484375 -0.625 -0.765625q-0.375 -0.28125 -0.90625 -0.28125q-0.6875 0 -1.140625 0.40625q-0.4375 0.390625 -0.640625 1.03125q-0.203125 0.640625 -0.203125 1.375q0 0.828125 0.21875 1.578125q0.234375 0.734375 0.703125 1.203125q0.46875 0.46875 1.171875 0.46875zm7.6406555 0.53125q-0.890625 0 -1.65625 -0.40625q-0.75 -0.40625 -1.203125 -1.171875q-0.4375 -0.765625 -0.4375 -1.859375q0 -0.6875 0.25 -1.34375q0.25 -0.65625 0.703125 -1.171875q0.46875 -0.53125 1.109375 -0.828125q0.640625 -0.3125 1.421875 -0.3125q0.734375 0 1.28125 0.234375q0.5625 0.21875 0.859375 0.59375q0.3125 0.375 0.3125 0.8125q0 0.296875 -0.15625 0.5q-0.15625 0.203125 -0.46875 0.203125q-0.328125 0.015625 -0.46875 -0.203125q-0.140625 -0.21875 -0.140625 -0.390625q0 -0.140625 0.03125 -0.28125q0.046875 -0.140625 0.171875 -0.265625q-0.109375 -0.3125 -0.375 -0.46875q-0.265625 -0.15625 -0.5625 -0.203125q-0.28125 -0.046875 -0.46875 -0.046875q-0.90625 0 -1.53125 0.734375q-0.609375 0.71875 -0.609375 2.109375q0 0.890625 0.28125 1.59375q0.296875 0.6875 0.8125 1.078125q0.515625 0.390625 1.203125 0.390625q0.625 0 1.1875 -0.328125q0.578125 -0.328125 0.90625 -0.8125l0.34375 0.265625q-0.34375 0.5625 -0.84375 0.90625q-0.484375 0.34375 -1.0 0.5q-0.5 0.171875 -0.953125 0.171875zm6.9926147 0q-0.921875 0 -1.671875 -0.4375q-0.734375 -0.4375 -1.15625 -1.21875q-0.421875 -0.796875 -0.421875 -1.875q0 -0.9375 0.421875 -1.75q0.421875 -0.8125 1.171875 -1.3125q0.765625 -0.5 1.765625 -0.5q0.5625 0 1.046875 0.1875q0.484375 0.171875 0.859375 0.546875q0.375 0.359375 0.578125 0.921875q0.21875 0.546875 0.21875 1.28125l-4.6875 0.078125q0 1.015625 0.21875 1.78125q0.21875 0.765625 0.703125 1.1875q0.5 0.421875 1.265625 0.421875q0.421875 0 0.84375 -0.140625q0.4375 -0.15625 0.8125 -0.40625q0.375 -0.25 0.609375 -0.5625l0.3125 0.265625q-0.359375 0.5625 -0.875 0.90625q-0.5 0.328125 -1.03125 0.46875q-0.53125 0.15625 -0.984375 0.15625zm-1.84375 -4.625l3.40625 0q0 -0.484375 -0.140625 -0.921875q-0.140625 -0.453125 -0.46875 -0.734375q-0.3125 -0.296875 -0.828125 -0.296875q-0.78125 0 -1.296875 0.46875q-0.515625 0.453125 -0.671875 1.484375zm8.567566 4.625q-0.65625 0 -1.1875 -0.1875q-0.515625 -0.171875 -0.84375 -0.40625l0.046875 0.46875l-0.5625 0l-0.078125 -2.296875l0.421875 0q0.03125 0.546875 0.296875 0.984375q0.28125 0.4375 0.71875 0.671875q0.453125 0.234375 0.953125 0.234375q0.34375 0 0.671875 -0.109375q0.34375 -0.109375 0.5625 -0.34375q0.234375 -0.234375 0.234375 -0.59375q0 -0.375 -0.21875 -0.609375q-0.21875 -0.25 -0.578125 -0.4375q-0.359375 -0.1875 -0.78125 -0.359375q-0.390625 -0.15625 -0.796875 -0.328125q-0.40625 -0.171875 -0.75 -0.40625q-0.328125 -0.25 -0.53125 -0.59375q-0.203125 -0.34375 -0.203125 -0.84375q0 -0.28125 0.109375 -0.609375q0.109375 -0.34375 0.359375 -0.640625q0.25 -0.296875 0.6875 -0.484375q0.453125 -0.203125 1.125 -0.203125q0.359375 0 0.796875 0.125q0.453125 0.109375 0.859375 0.453125l-0.03125 -0.515625l0.5625 0l0 2.328125l-0.421875 0q-0.03125 -0.453125 -0.21875 -0.890625q-0.1875 -0.4375 -0.546875 -0.71875q-0.359375 -0.296875 -0.9375 -0.296875q-0.609375 0 -0.953125 0.3125q-0.34375 0.3125 -0.34375 0.703125q0 0.421875 0.25 0.703125q0.265625 0.265625 0.671875 0.46875q0.421875 0.1875 0.890625 0.375q0.5 0.21875 0.984375 0.46875q0.484375 0.25 0.78125 0.640625q0.3125 0.375 0.3125 0.96875q0 0.671875 -0.34375 1.109375q-0.34375 0.4375 -0.875 0.640625q-0.515625 0.21875 -1.09375 0.21875zm6.1708984 0q-0.65625 0 -1.1875 -0.1875q-0.515625 -0.171875 -0.84375 -0.40625l0.046875 0.46875l-0.5625 0l-0.078125 -2.296875l0.421875 0q0.03125 0.546875 0.296875 0.984375q0.28125 0.4375 0.71875 0.671875q0.453125 0.234375 0.953125 0.234375q0.34375 0 0.671875 -0.109375q0.34375 -0.109375 0.5625 -0.34375q0.234375 -0.234375 0.234375 -0.59375q0 -0.375 -0.21875 -0.609375q-0.21875 -0.25 -0.578125 -0.4375q-0.359375 -0.1875 -0.78125 -0.359375q-0.390625 -0.15625 -0.796875 -0.328125q-0.40625 -0.171875 -0.75 -0.40625q-0.328125 -0.25 -0.53125 -0.59375q-0.203125 -0.34375 -0.203125 -0.84375q0 -0.28125 0.109375 -0.609375q0.109375 -0.34375 0.359375 -0.640625q0.25 -0.296875 0.6875 -0.484375q0.453125 -0.203125 1.125 -0.203125q0.359375 0 0.796875 0.125q0.453125 0.109375 0.859375 0.453125l-0.03125 -0.515625l0.5625 0l0 2.328125l-0.421875 0q-0.03125 -0.453125 -0.21875 -0.890625q-0.1875 -0.4375 -0.546875 -0.71875q-0.359375 -0.296875 -0.9375 -0.296875q-0.609375 0 -0.953125 0.3125q-0.34375 0.3125 -0.34375 0.703125q0 0.421875 0.25 0.703125q0.265625 0.265625 0.671875 0.46875q0.421875 0.1875 0.890625 0.375q0.5 0.21875 0.984375 0.46875q0.484375 0.25 0.78125 0.640625q0.3125 0.375 0.3125 0.96875q0 0.671875 -0.34375 1.109375q-0.34375 0.4375 -0.875 0.640625q-0.515625 0.21875 -1.09375 0.21875z" fill-rule="nonzero"/><path fill="#000000" fill-opacity="0.0" d="m656.8189 17.918634l125.13385 0l0 35.55906l-125.13385 0z" fill-rule="evenodd"/><path fill="#000000" d="m678.9916 39.937386q-1.265625 0 -2.171875 -0.421875q-0.90625 -0.4375 -1.484375 -1.140625q-0.5625 -0.71875 -0.828125 -1.578125q-0.265625 -0.875 -0.265625 -1.75q0 -0.828125 0.28125 -1.6875q0.28125 -0.859375 0.859375 -1.5781269q0.578125 -0.71875 1.453125 -1.15625q0.875 -0.453125 2.046875 -0.453125q1.234375 0 2.125 0.453125q0.890625 0.4375 1.46875 1.171875q0.578125 0.7187519 0.859375 1.5781269q0.296875 0.84375 0.296875 1.671875q0 0.828125 -0.28125 1.6875q-0.28125 0.859375 -0.859375 1.59375q-0.578125 0.71875 -1.453125 1.171875q-0.859375 0.4375 -2.046875 0.4375zm0.03125 -0.546875q0.8125 0 1.421875 -0.359375q0.625 -0.359375 1.03125 -0.9375q0.40625 -0.59375 0.609375 -1.3125q0.203125 -0.734375 0.203125 -1.46875q0 -0.828125 -0.234375 -1.640625q-0.21875 -0.8125 -0.65625 -1.484375q-0.4375 -0.6718769 -1.09375 -1.0781269q-0.640625 -0.40625 -1.453125 -0.40625q-0.828125 0 -1.453125 0.359375q-0.625 0.359375 -1.03125 0.9531269q-0.40625 0.59375 -0.609375 1.328125q-0.203125 0.71875 -0.203125 1.46875q0 0.734375 0.203125 1.53125q0.203125 0.796875 0.625 1.5q0.4375 0.6875 1.078125 1.125q0.65625 0.421875 1.5625 0.421875zm8.2855835 0.546875q-0.3125 0 -0.640625 -0.09375q-0.3125 -0.078125 -0.59375 -0.328125q-0.265625 -0.265625 -0.421875 -0.75q-0.15625 -0.484375 -0.15625 -1.28125l0.03125 -3.875l-1.03125 0.015625l0 -0.5625q0.34375 -0.015625 0.703125 -0.265625q0.359375 -0.25 0.640625 -0.671875q0.296875 -0.4375019 0.40625 -0.9375019l0.453125 0l0 1.8750019l2.234375 0l0 0.515625l-2.234375 0.015625l-0.03125 3.71875q0 0.59375 0.09375 1.015625q0.109375 0.421875 0.328125 0.640625q0.234375 0.203125 0.59375 0.203125q0.375 0 0.6875 -0.203125q0.328125 -0.21875 0.59375 -0.59375l0.359375 0.296875q-0.296875 0.4375 -0.59375 0.6875q-0.28125 0.25 -0.546875 0.375q-0.265625 0.125 -0.5 0.15625q-0.21875 0.046875 -0.375 0.046875zm6.923584 -0.625q0.421875 0 0.578125 -0.203125q0.15625 -0.203125 0.1875 -0.5625q0.03125 -0.375 0.03125 -0.859375l0 -1.859375q0 -1.140625 -0.375 -1.71875q-0.359375 -0.578125 -1.15625 -0.5625q-0.484375 0.015625 -0.96875 0.25q-0.46875 0.21875 -0.75 0.578125l0 3.9375q0 0.265625 -0.015625 0.46875q-0.015625 0.203125 -0.0625 0.4375q0.21875 -0.015625 0.421875 -0.015625q0.203125 -0.015625 0.421875 -0.03125l0 0.546875l-2.71875 0l0 -0.40625q0.40625 0 0.5625 -0.203125q0.171875 -0.203125 0.203125 -0.5625q0.03125 -0.375 0.03125 -0.859375l0 -6.296877q0 -0.21875 0 -0.40625q0.015625 -0.203125 0.046875 -0.46875q-0.25 0.015625 -0.484375 0.03125q-0.21875 0.015625 -0.46875 0.03125l0 -0.5625q0.59375 0 0.921875 -0.046875q0.328125 -0.0625 0.484375 -0.140625q0.171875 -0.078125 0.265625 -0.171875l0.390625 0l0 4.062502q0.28125 -0.25 0.640625 -0.4375q0.375 -0.203125 0.765625 -0.3125q0.40625 -0.125 0.765625 -0.125q1.171875 0 1.671875 0.734375q0.515625 0.71875 0.53125 2.25l0.015625 2.484375q0 0.265625 -0.015625 0.46875q0 0.203125 -0.03125 0.4375q0.203125 -0.015625 0.40625 -0.015625q0.21875 -0.015625 0.421875 -0.03125l0 0.546875l-2.71875 0l0 -0.40625zm6.9366455 0.625q-0.921875 0 -1.671875 -0.4375q-0.734375 -0.4375 -1.15625 -1.21875q-0.421875 -0.796875 -0.421875 -1.875q0 -0.9375 0.421875 -1.75q0.421875 -0.8125 1.171875 -1.3125q0.765625 -0.5 1.765625 -0.5q0.5625 0 1.046875 0.1875q0.484375 0.171875 0.859375 0.546875q0.375 0.359375 0.578125 0.921875q0.21875 0.546875 0.21875 1.28125l-4.6875 0.078125q0 1.015625 0.21875 1.78125q0.21875 0.765625 0.703125 1.1875q0.5 0.421875 1.265625 0.421875q0.421875 0 0.84375 -0.140625q0.4375 -0.15625 0.8125 -0.40625q0.375 -0.25 0.609375 -0.5625l0.3125 0.265625q-0.359375 0.5625 -0.875 0.90625q-0.5 0.328125 -1.03125 0.46875q-0.53125 0.15625 -0.984375 0.15625zm-1.84375 -4.625l3.40625 0q0 -0.484375 -0.140625 -0.921875q-0.140625 -0.453125 -0.46875 -0.734375q-0.3125 -0.296875 -0.828125 -0.296875q-0.78125 0 -1.296875 0.46875q-0.515625 0.453125 -0.671875 1.484375zm5.848816 4.0q0.40625 0 0.5625 -0.203125q0.15625 -0.203125 0.1875 -0.5625q0.03125 -0.375 0.03125 -0.859375l0 -3.03125q0 -0.21875 0 -0.421875q0.015625 -0.21875 0.046875 -0.453125q-0.234375 0.015625 -0.46875 0.03125q-0.234375 0 -0.46875 0.015625l0 -0.546875l0.40625 0q0.578125 0 0.796875 -0.109375q0.21875 -0.109375 0.359375 -0.25l0.390625 0q0.03125 0.21875 0.046875 0.53125q0.015625 0.3125 0.015625 0.78125q0.203125 -0.328125 0.546875 -0.640625q0.359375 -0.328125 0.78125 -0.53125q0.4375 -0.21875 0.921875 -0.21875q0.375 0 0.640625 0.203125q0.28125 0.1875 0.28125 0.640625q0 0.09375 -0.0625 0.25q-0.0625 0.15625 -0.21875 0.28125q-0.140625 0.109375 -0.375 0.109375q-0.296875 -0.015625 -0.46875 -0.234375q-0.171875 -0.21875 -0.140625 -0.515625q-0.328125 -0.015625 -0.6875 0.171875q-0.34375 0.1875 -0.65625 0.515625q-0.296875 0.328125 -0.546875 0.765625l0.015625 3.28125q0 0.265625 -0.015625 0.46875q0 0.203125 -0.03125 0.4375q0.203125 -0.015625 0.40625 -0.015625q0.21875 -0.015625 0.421875 -0.03125l0 0.546875l-2.71875 0l0 -0.40625zm8.489807 0.625q-0.65625 0 -1.1875 -0.1875q-0.515625 -0.171875 -0.84375 -0.40625l0.046875 0.46875l-0.5625 0l-0.078125 -2.296875l0.421875 0q0.03125 0.546875 0.296875 0.984375q0.28125 0.4375 0.71875 0.671875q0.453125 0.234375 0.953125 0.234375q0.34375 0 0.671875 -0.109375q0.34375 -0.109375 0.5625 -0.34375q0.234375 -0.234375 0.234375 -0.59375q0 -0.375 -0.21875 -0.609375q-0.21875 -0.25 -0.578125 -0.4375q-0.359375 -0.1875 -0.78125 -0.359375q-0.390625 -0.15625 -0.796875 -0.328125q-0.40625 -0.171875 -0.75 -0.40625q-0.328125 -0.25 -0.53125 -0.59375q-0.203125 -0.34375 -0.203125 -0.84375q0 -0.28125 0.109375 -0.609375q0.109375 -0.34375 0.359375 -0.640625q0.25 -0.296875 0.6875 -0.484375q0.453125 -0.203125 1.125 -0.203125q0.359375 0 0.796875 0.125q0.453125 0.109375 0.859375 0.453125l-0.03125 -0.515625l0.5625 0l0 2.328125l-0.421875 0q-0.03125 -0.453125 -0.21875 -0.890625q-0.1875 -0.4375 -0.546875 -0.71875q-0.359375 -0.296875 -0.9375 -0.296875q-0.609375 0 -0.953125 0.3125q-0.34375 0.3125 -0.34375 0.703125q0 0.421875 0.25 0.703125q0.265625 0.265625 0.671875 0.46875q0.421875 0.1875 0.890625 0.375q0.5 0.21875 0.984375 0.46875q0.484375 0.25 0.78125 0.640625q0.3125 0.375 0.3125 0.96875q0 0.671875 -0.34375 1.109375q-0.34375 0.4375 -0.875 0.640625q-0.515625 0.21875 -1.09375 0.21875zm3.4386597 3.390625l-0.765625 -0.484375l7.78125 -13.250002l0.875 0.546875l-7.890625 13.187502zm13.524475 -7.0625q0 -0.578125 -0.171875 -0.828125q-0.15625 -0.265625 -0.5 -0.3125q-0.34375 -0.0625 -0.921875 -0.03125l-0.96875 0.046875l0 3.046875q0 0.359375 -0.015625 0.609375q0 0.25 -0.03125 0.421875l2.546875 -0.03125q0.59375 -0.015625 1.015625 -0.1875q0.421875 -0.1875 0.65625 -0.640625q0.25 -0.453125 0.25 -1.234375l0.453125 0l-0.078125 2.59375l-6.875 0l0 -0.4375q0.5 -0.03125 0.6875 -0.234375q0.1875 -0.203125 0.203125 -0.5625q0.03125 -0.375 0.03125 -0.84375l0 -5.765627q0 -0.265625 0 -0.5q0.015625 -0.25 0.03125 -0.453125q-0.234375 0.015625 -0.484375 0.03125q-0.234375 0.015625 -0.46875 0.015625l0 -0.578125l6.40625 0l0.0625 2.328127l-0.4375 0q0 -0.7812519 -0.234375 -1.1875019q-0.234375 -0.40625 -0.640625 -0.546875q-0.40625 -0.140625 -0.921875 -0.125l-1.140625 0.015625q-0.5 0.015625 -0.71875 0.1875q-0.203125 0.171875 -0.25 0.515625q-0.046875 0.34375 -0.046875 0.8906269l0 2.125l2.5 0.015625l-0.09375 -1.140625l0.59375 0l0 2.796875l-0.4375 0zm3.508789 3.453125l0 -0.40625q0.40625 0 0.5625 -0.203125q0.15625 -0.203125 0.1875 -0.5625q0.03125 -0.375 0.03125 -0.859375l0.015625 -3.03125q0 -0.21875 0 -0.421875q0.015625 -0.21875 0.046875 -0.453125q-0.234375 0.015625 -0.46875 0.03125q-0.234375 0.015625 -0.46875 0.03125l0 -0.5625q0.578125 0 0.875 -0.046875q0.296875 -0.0625 0.4375 -0.140625q0.15625 -0.078125 0.25 -0.171875l0.390625 0q0.015625 0.09375 0.015625 0.21875q0.015625 0.109375 0.015625 0.265625q0.015625 0.140625 0.015625 0.328125q0.296875 -0.25 0.640625 -0.453125q0.359375 -0.203125 0.75 -0.3125q0.40625 -0.125 0.78125 -0.125q1.171875 0 1.703125 0.734375q0.53125 0.71875 0.53125 2.25l0 2.484375q0 0.265625 -0.015625 0.46875q0 0.203125 -0.046875 0.4375q0.21875 -0.015625 0.421875 -0.015625q0.21875 -0.015625 0.421875 -0.03125l0 0.546875l-2.71875 0l0 -0.40625q0.421875 0 0.578125 -0.203125q0.15625 -0.203125 0.171875 -0.5625q0.03125 -0.375 0.03125 -0.859375l0 -1.859375q0 -1.140625 -0.375 -1.71875q-0.359375 -0.59375 -1.15625 -0.59375q-0.46875 0.015625 -0.9375 0.265625q-0.453125 0.234375 -0.765625 0.609375q0.015625 0.109375 0.015625 0.25q0 0.125 0 0.265625l-0.015625 3.40625q0 0.265625 -0.015625 0.46875q0 0.203125 -0.03125 0.4375q0.203125 -0.015625 0.40625 -0.015625q0.21875 -0.015625 0.4375 -0.03125l0 0.546875l-2.71875 0zm11.340149 0.21875q-0.890625 0 -1.65625 -0.40625q-0.75 -0.40625 -1.203125 -1.171875q-0.4375 -0.765625 -0.4375 -1.859375q0 -0.6875 0.25 -1.34375q0.25 -0.65625 0.703125 -1.171875q0.46875 -0.53125 1.109375 -0.828125q0.640625 -0.3125 1.421875 -0.3125q0.734375 0 1.28125 0.234375q0.5625 0.21875 0.859375 0.59375q0.3125 0.375 0.3125 0.8125q0 0.296875 -0.15625 0.5q-0.15625 0.203125 -0.46875 0.203125q-0.328125 0.015625 -0.46875 -0.203125q-0.140625 -0.21875 -0.140625 -0.390625q0 -0.140625 0.03125 -0.28125q0.046875 -0.140625 0.171875 -0.265625q-0.109375 -0.3125 -0.375 -0.46875q-0.265625 -0.15625 -0.5625 -0.203125q-0.28125 -0.046875 -0.46875 -0.046875q-0.90625 0 -1.53125 0.734375q-0.609375 0.71875 -0.609375 2.109375q0 0.890625 0.28125 1.59375q0.296875 0.6875 0.8125 1.078125q0.515625 0.390625 1.203125 0.390625q0.625 0 1.1875 -0.328125q0.578125 -0.328125 0.90625 -0.8125l0.34375 0.265625q-0.34375 0.5625 -0.84375 0.90625q-0.484375 0.34375 -1.0 0.5q-0.5 0.171875 -0.953125 0.171875zm3.6999512 -0.625q0.40625 0 0.5625 -0.203125q0.171875 -0.203125 0.1875 -0.5625q0.03125 -0.375 0.03125 -0.859375l0 -6.296877q0 -0.21875 0 -0.40625q0.015625 -0.203125 0.046875 -0.46875q-0.234375 0.015625 -0.46875 0.03125q-0.234375 0.015625 -0.484375 0.03125l0 -0.5625q0.59375 0 0.921875 -0.046875q0.328125 -0.0625 0.484375 -0.140625q0.171875 -0.078125 0.265625 -0.171875l0.390625 0l0.015625 8.656252q0 0.265625 -0.015625 0.46875q-0.015625 0.203125 -0.0625 0.4375q0.21875 -0.015625 0.421875 -0.015625q0.203125 -0.015625 0.421875 -0.03125l0 0.546875l-2.71875 0l0 -0.40625zm7.812744 0.40625q-0.046875 -0.234375 -0.0625 -0.40625q0 -0.171875 -0.03125 -0.359375q-0.453125 0.453125 -0.984375 0.71875q-0.53125 0.265625 -1.109375 0.265625q-1.015625 0 -1.515625 -0.453125q-0.484375 -0.46875 -0.484375 -1.140625q0 -0.609375 0.375 -1.046875q0.390625 -0.453125 0.984375 -0.734375q0.609375 -0.296875 1.328125 -0.4375q0.71875 -0.140625 1.375 -0.125l0 -0.828125q0 -0.46875 -0.078125 -0.875q-0.078125 -0.421875 -0.34375 -0.6875q-0.265625 -0.265625 -0.859375 -0.28125q-0.375 0 -0.78125 0.15625q-0.40625 0.15625 -0.59375 0.546875q0.09375 0.109375 0.125 0.25q0.046875 0.140625 0.046875 0.25q0 0.15625 -0.140625 0.375q-0.125 0.203125 -0.46875 0.1875q-0.28125 0 -0.421875 -0.1875q-0.140625 -0.203125 -0.140625 -0.46875q0 -0.453125 0.328125 -0.8125q0.34375 -0.359375 0.9375 -0.5625q0.609375 -0.21875 1.359375 -0.21875q1.125 0 1.65625 0.59375q0.53125 0.59375 0.53125 1.875q0 0.484375 0 0.984375q0 0.5 -0.015625 1.0q0 0.5 0 1.015625q0 0.203125 -0.015625 0.421875q-0.015625 0.21875 -0.046875 0.484375q0.25 -0.015625 0.46875 -0.03125q0.234375 -0.015625 0.484375 -0.03125l0 0.5625l-1.90625 0zm-0.125 -3.265625q-0.453125 0.015625 -0.953125 0.125q-0.5 0.09375 -0.921875 0.296875q-0.421875 0.1875 -0.6875 0.515625q-0.25 0.328125 -0.234375 0.796875q0.03125 0.484375 0.328125 0.734375q0.296875 0.25 0.71875 0.25q0.546875 0 0.953125 -0.203125q0.40625 -0.203125 0.796875 -0.578125q-0.015625 -0.15625 -0.015625 -0.328125q0 -0.171875 0 -0.359375q0 -0.0625 0 -0.421875q0.015625 -0.359375 0.015625 -0.828125zm5.32666 3.3125l-1.90625 -4.359375q-0.21875 -0.5 -0.34375 -0.859375q-0.109375 -0.359375 -0.15625 -0.59375q-0.046875 -0.25 -0.0625 -0.390625l-0.578125 0.03125l0 -0.53125l2.453125 0l0 0.390625q-0.40625 0 -0.515625 0.21875q-0.109375 0.203125 -0.03125 0.546875q0.078125 0.328125 0.234375 0.71875l1.03125 2.34375q0.109375 0.21875 0.203125 0.46875q0.109375 0.25 0.203125 0.515625l0.015625 0q0.0625 -0.203125 0.140625 -0.421875q0.09375 -0.234375 0.15625 -0.4375l1.0625 -2.921875q0.109375 -0.328125 0.234375 -0.5625q0.125 -0.234375 0.171875 -0.359375l-0.859375 0.03125l0 -0.53125l2.109375 0l0 0.390625q-0.296875 0 -0.5 0.203125q-0.1875 0.203125 -0.375 0.609375q-0.171875 0.390625 -0.421875 0.984375l-1.734375 4.515625l-0.53125 0zm7.3515015 0.171875q-0.921875 0 -1.671875 -0.4375q-0.734375 -0.4375 -1.15625 -1.21875q-0.421875 -0.796875 -0.421875 -1.875q0 -0.9375 0.421875 -1.75q0.421875 -0.8125 1.171875 -1.3125q0.765625 -0.5 1.765625 -0.5q0.5625 0 1.046875 0.1875q0.484375 0.171875 0.859375 0.546875q0.375 0.359375 0.578125 0.921875q0.21875 0.546875 0.21875 1.28125l-4.6875 0.078125q0 1.015625 0.21875 1.78125q0.21875 0.765625 0.703125 1.1875q0.5 0.421875 1.265625 0.421875q0.421875 0 0.84375 -0.140625q0.4375 -0.15625 0.8125 -0.40625q0.375 -0.25 0.609375 -0.5625l0.3125 0.265625q-0.359375 0.5625 -0.875 0.90625q-0.5 0.328125 -1.03125 0.46875q-0.53125 0.15625 -0.984375 0.15625zm-1.84375 -4.625l3.40625 0q0 -0.484375 -0.140625 -0.921875q-0.140625 -0.453125 -0.46875 -0.734375q-0.3125 -0.296875 -0.828125 -0.296875q-0.78125 0 -1.296875 0.46875q-0.515625 0.453125 -0.671875 1.484375z" fill-rule="nonzero"/><path fill="#000000" fill-opacity="0.0" d="m373.5853 34.811024l1.7008057 118.86615" fill-rule="evenodd"/><path stroke="#666666" stroke-width="1.0" stroke-linejoin="round" stroke-linecap="butt" stroke-dasharray="4.0,3.0,1.0,3.0" d="m373.5853 34.811024l1.7008057 118.86615" fill-rule="evenodd"/></g></svg>