<svg version="1.1" viewBox="0.0 0.0 638.8608923884515 312.4724409448819" fill="none" stroke="none" stroke-linecap="square" stroke-miterlimit="10" xmlns:xlink="http://www.w3.org/1999/xlink" xmlns="http://www.w3.org/2000/svg"><clipPath id="p.0"><path d="m0 0l638.8609 0l0 312.47244l-638.8609 0l0 -312.47244z" clip-rule="nonzero"/></clipPath><g clip-path="url(#p.0)"><path fill="#000000" fill-opacity="0.0" d="m0 0l638.8609 0l0 312.47244l-638.8609 0z" fill-rule="evenodd"/><path fill="#9fc5e8" d="m98.59318 8.745407l385.10236 0l0 294.11023l-385.10236 0z" fill-rule="evenodd"/><path stroke="#ffffff" stroke-width="1.0" stroke-linejoin="round" stroke-linecap="butt" d="m98.59318 8.745407l385.10236 0l0 294.11023l-385.10236 0z" fill-rule="evenodd"/><path fill="#000000" d="m248.87451 33.105408l0 -0.53125q0.484375 0 0.734375 -0.25q0.25 -0.265625 0.421875 -0.703125q0.171875 -0.453125 0.390625 -1.046875l3.296875 -8.96875l0.390625 0l3.5625 9.09375q0.125 0.34375 0.28125 0.875q0.171875 0.515625 0.140625 0.890625q0.265625 -0.015625 0.53125 -0.03125q0.28125 -0.015625 0.546875 -0.03125l0 0.703125l-3.65625 0l0 -0.53125q0.609375 -0.015625 0.796875 -0.265625q0.1875 -0.265625 0.140625 -0.609375q-0.046875 -0.359375 -0.15625 -0.640625l-0.5625 -1.5l-4.15625 0.09375l-0.5625 1.703125q-0.109375 0.390625 -0.203125 0.625q-0.078125 0.21875 -0.203125 0.484375q0.328125 -0.015625 0.640625 -0.03125q0.3125 -0.015625 0.609375 -0.03125l0 0.703125l-2.984375 0zm2.9375 -4.140625l3.703125 0l-1.140625 -3.0625q-0.171875 -0.5 -0.359375 -0.984375q-0.1875 -0.484375 -0.359375 -0.984375l-0.03125 0q-0.15625 0.453125 -0.328125 0.90625q-0.171875 0.4375 -0.34375 0.90625l-1.140625 3.21875zm7.7347717 8.21875l0 -0.484375q0.5 0 0.6875 -0.25q0.1875 -0.234375 0.21875 -0.6875q0.03125 -0.4375 0.03125 -1.015625l0.03125 -7.71875q0 -0.265625 0 -0.515625q0.015625 -0.25 0.0625 -0.53125q-0.28125 0.015625 -0.5625 0.03125q-0.28125 0.015625 -0.5625 0.03125l0 -0.671875q0.703125 0 1.0625 -0.0625q0.359375 -0.0625 0.515625 -0.15625q0.171875 -0.09375 0.296875 -0.203125l0.46875 0q0.015625 0.15625 0.03125 0.375q0.015625 0.21875 0.03125 0.484375q0.484375 -0.4375 1.140625 -0.6875q0.671875 -0.265625 1.34375 -0.265625q0.921875 0 1.71875 0.484375q0.8125 0.46875 1.296875 1.359375q0.5 0.890625 0.5 2.125q0 1.359375 -0.5625 2.390625q-0.5625 1.015625 -1.5 1.578125q-0.921875 0.5625 -2.015625 0.5625q-0.5625 0 -1.03125 -0.140625q-0.46875 -0.125 -0.890625 -0.375l0 2.65625q0 0.3125 -0.015625 0.5625q0 0.25 -0.046875 0.515625q0.265625 -0.015625 0.5 -0.03125q0.25 0 0.515625 -0.015625l0 0.65625l-3.265625 0zm4.203125 -4.46875q0.765625 0 1.3125 -0.46875q0.5625 -0.46875 0.859375 -1.28125q0.296875 -0.828125 0.296875 -1.890625q0 -0.859375 -0.25 -1.65625q-0.25 -0.796875 -0.796875 -1.28125q-0.53125 -0.5 -1.40625 -0.5q-0.546875 0 -1.046875 0.265625q-0.5 0.265625 -0.84375 0.625q0 0.0625 0 0.1875q0.015625 0.125 0.015625 0.421875q0 0.28125 0 0.875q0 0.578125 -0.015625 1.578125q0 0.984375 0 2.5q0.40625 0.3125 0.875 0.46875q0.46875 0.15625 1.0 0.15625zm5.3489075 4.46875l0 -0.484375q0.5 0 0.6875 -0.25q0.1875 -0.234375 0.21875 -0.6875q0.03125 -0.4375 0.03125 -1.015625l0.03125 -7.71875q0 -0.265625 0 -0.515625q0.015625 -0.25 0.0625 -0.53125q-0.28125 0.015625 -0.5625 0.03125q-0.28125 0.015625 -0.5625 0.03125l0 -0.671875q0.703125 0 1.0625 -0.0625q0.359375 -0.0625 0.515625 -0.15625q0.171875 -0.09375 0.296875 -0.203125l0.46875 0q0.015625 0.15625 0.03125 0.375q0.015625 0.21875 0.03125 0.484375q0.484375 -0.4375 1.140625 -0.6875q0.671875 -0.265625 1.34375 -0.265625q0.921875 0 1.71875 0.484375q0.8125 0.46875 1.296875 1.359375q0.5 0.890625 0.5 2.125q0 1.359375 -0.5625 2.390625q-0.5625 1.015625 -1.5 1.578125q-0.921875 0.5625 -2.015625 0.5625q-0.5625 0 -1.03125 -0.140625q-0.46875 -0.125 -0.890625 -0.375l0 2.65625q0 0.3125 -0.015625 0.5625q0 0.25 -0.046875 0.515625q0.265625 -0.015625 0.5 -0.03125q0.25 0 0.515625 -0.015625l0 0.65625l-3.265625 0zm4.203125 -4.46875q0.765625 0 1.3125 -0.46875q0.5625 -0.46875 0.859375 -1.28125q0.296875 -0.828125 0.296875 -1.890625q0 -0.859375 -0.25 -1.65625q-0.25 -0.796875 -0.796875 -1.28125q-0.53125 -0.5 -1.40625 -0.5q-0.546875 0 -1.046875 0.265625q-0.5 0.265625 -0.84375 0.625q0 0.0625 0 0.1875q0.015625 0.125 0.015625 0.421875q0 0.28125 0 0.875q0 0.578125 -0.015625 1.578125q0 0.984375 0 2.5q0.40625 0.3125 0.875 0.46875q0.46875 0.15625 1.0 0.15625zm5.333252 -0.09375q0.5 0 0.6875 -0.234375q0.1875 -0.25 0.21875 -0.6875q0.03125 -0.453125 0.03125 -1.03125l0 -7.5625q0 -0.25 0 -0.484375q0.015625 -0.234375 0.046875 -0.5625q-0.28125 0.015625 -0.5625 0.046875q-0.28125 0.015625 -0.5625 0.03125l0 -0.671875q0.703125 0 1.09375 -0.0625q0.390625 -0.078125 0.578125 -0.171875q0.203125 -0.09375 0.328125 -0.203125l0.453125 0l0.015625 10.375q0 0.328125 -0.015625 0.578125q-0.015625 0.25 -0.0625 0.515625q0.265625 -0.015625 0.5 -0.015625q0.25 -0.015625 0.515625 -0.03125l0 0.65625l-3.265625 0l0 -0.484375zm4.5082703 0q0.5 0 0.6875 -0.234375q0.1875 -0.25 0.21875 -0.6875q0.03125 -0.453125 0.03125 -1.03125l0 -3.640625q0 -0.265625 0.015625 -0.484375q0.03125 -0.234375 0.0625 -0.5625q-0.296875 0.015625 -0.578125 0.03125q-0.28125 0.015625 -0.5625 0.03125l0 -0.671875q0.703125 0 1.078125 -0.0625q0.390625 -0.0625 0.59375 -0.15625q0.203125 -0.09375 0.3125 -0.203125l0.46875 0l0 6.453125q0 0.328125 -0.015625 0.578125q0 0.25 -0.0625 0.515625q0.265625 -0.015625 0.515625 -0.015625q0.25 -0.015625 0.5 -0.03125l0 0.65625l-3.265625 0l0 -0.484375zm1.53125 -9.265625q-0.328125 0 -0.59375 -0.265625q-0.25 -0.265625 -0.25 -0.671875q0 -0.40625 0.265625 -0.671875q0.265625 -0.28125 0.59375 -0.28125q0.375 0 0.625 0.28125q0.25 0.265625 0.25 0.671875q0 0.40625 -0.265625 0.671875q-0.265625 0.265625 -0.625 0.265625zm6.871002 10.0q-1.078125 0 -1.984375 -0.484375q-0.890625 -0.484375 -1.4375 -1.40625q-0.53125 -0.921875 -0.53125 -2.21875q0 -0.828125 0.296875 -1.609375q0.3125 -0.78125 0.859375 -1.40625q0.5625 -0.640625 1.328125 -1.0q0.765625 -0.375 1.6875 -0.375q0.90625 0 1.5625 0.265625q0.671875 0.265625 1.03125 0.71875q0.375 0.453125 0.375 0.984375q0 0.34375 -0.203125 0.59375q-0.1875 0.25 -0.546875 0.25q-0.40625 0.015625 -0.578125 -0.25q-0.171875 -0.265625 -0.171875 -0.46875q0 -0.15625 0.046875 -0.328125q0.0625 -0.171875 0.203125 -0.3125q-0.125 -0.390625 -0.453125 -0.5625q-0.3125 -0.1875 -0.65625 -0.234375q-0.34375 -0.0625 -0.578125 -0.0625q-1.078125 0 -1.828125 0.875q-0.75 0.859375 -0.75 2.53125q0 1.0625 0.34375 1.90625q0.34375 0.828125 0.96875 1.296875q0.625 0.46875 1.453125 0.46875q0.75 0 1.4375 -0.390625q0.6875 -0.40625 1.0625 -0.984375l0.421875 0.328125q-0.421875 0.671875 -1.0 1.09375q-0.578125 0.40625 -1.203125 0.59375q-0.609375 0.1875 -1.15625 0.1875zm9.433136 -0.25q-0.046875 -0.265625 -0.0625 -0.46875q-0.015625 -0.21875 -0.046875 -0.4375q-0.546875 0.53125 -1.1875 0.84375q-0.625 0.3125 -1.328125 0.3125q-1.203125 0 -1.796875 -0.546875q-0.59375 -0.546875 -0.59375 -1.34375q0 -0.75 0.453125 -1.28125q0.453125 -0.53125 1.171875 -0.875q0.734375 -0.34375 1.59375 -0.515625q0.859375 -0.171875 1.65625 -0.15625l0 -0.984375q0 -0.5625 -0.09375 -1.0625q-0.09375 -0.5 -0.421875 -0.8125q-0.3125 -0.3125 -1.015625 -0.328125q-0.46875 -0.03125 -0.953125 0.171875q-0.484375 0.1875 -0.71875 0.65625q0.140625 0.125 0.171875 0.296875q0.046875 0.15625 0.046875 0.3125q0 0.1875 -0.171875 0.4375q-0.15625 0.25 -0.546875 0.234375q-0.34375 0 -0.515625 -0.234375q-0.171875 -0.234375 -0.171875 -0.5625q0 -0.53125 0.40625 -0.96875q0.40625 -0.4375 1.125 -0.6875q0.71875 -0.25 1.625 -0.25q1.34375 0 1.984375 0.71875q0.640625 0.703125 0.625 2.234375q0 0.59375 0 1.203125q0 0.59375 -0.015625 1.203125q0 0.59375 0 1.1875q0 0.265625 -0.015625 0.53125q-0.015625 0.25 -0.046875 0.5625q0.296875 -0.015625 0.5625 -0.03125q0.28125 -0.015625 0.578125 -0.03125l0 0.671875l-2.296875 0zm-0.140625 -3.921875q-0.546875 0.015625 -1.140625 0.140625q-0.59375 0.125 -1.109375 0.359375q-0.5 0.234375 -0.8125 0.625q-0.3125 0.390625 -0.296875 0.953125q0.03125 0.59375 0.390625 0.890625q0.359375 0.296875 0.859375 0.296875q0.65625 0 1.140625 -0.25q0.484375 -0.25 0.96875 -0.6875q-0.015625 -0.1875 -0.015625 -0.390625q0 -0.203125 0 -0.4375q0 -0.078125 0 -0.5q0.015625 -0.4375 0.015625 -1.0zm6.4408875 4.171875q-0.375 0 -0.765625 -0.109375q-0.375 -0.09375 -0.703125 -0.390625q-0.328125 -0.3125 -0.53125 -0.890625q-0.1875 -0.59375 -0.1875 -1.546875l0.03125 -4.640625l-1.21875 0.015625l0 -0.6875q0.40625 -0.015625 0.828125 -0.3125q0.4375 -0.296875 0.78125 -0.796875q0.34375 -0.515625 0.484375 -1.125l0.53125 0l0 2.234375l2.6875 0l0 0.625l-2.6875 0.03125l-0.03125 4.453125q0 0.71875 0.125 1.21875q0.125 0.5 0.390625 0.765625q0.28125 0.25 0.703125 0.25q0.453125 0 0.84375 -0.25q0.390625 -0.265625 0.703125 -0.703125l0.421875 0.34375q-0.34375 0.53125 -0.6875 0.84375q-0.34375 0.296875 -0.671875 0.4375q-0.3125 0.15625 -0.59375 0.1875q-0.265625 0.046875 -0.453125 0.046875zm3.1763916 -0.734375q0.5 0 0.6875 -0.234375q0.1875 -0.25 0.21875 -0.6875q0.03125 -0.453125 0.03125 -1.03125l0 -3.640625q0 -0.265625 0.015625 -0.484375q0.03125 -0.234375 0.0625 -0.5625q-0.296875 0.015625 -0.578125 0.03125q-0.28125 0.015625 -0.5625 0.03125l0 -0.671875q0.703125 0 1.078125 -0.0625q0.390625 -0.0625 0.59375 -0.15625q0.203125 -0.09375 0.3125 -0.203125l0.46875 0l0 6.453125q0 0.328125 -0.015625 0.578125q0 0.25 -0.0625 0.515625q0.265625 -0.015625 0.515625 -0.015625q0.25 -0.015625 0.5 -0.03125l0 0.65625l-3.265625 0l0 -0.484375zm1.53125 -9.265625q-0.328125 0 -0.59375 -0.265625q-0.25 -0.265625 -0.25 -0.671875q0 -0.40625 0.265625 -0.671875q0.265625 -0.28125 0.59375 -0.28125q0.375 0 0.625 0.28125q0.25 0.265625 0.25 0.671875q0 0.40625 -0.265625 0.671875q-0.265625 0.265625 -0.625 0.265625zm6.933502 10.0q-1.125 0 -2.03125 -0.515625q-0.90625 -0.515625 -1.453125 -1.4375q-0.53125 -0.921875 -0.53125 -2.109375q0 -1.265625 0.53125 -2.265625q0.53125 -1.015625 1.4375 -1.59375q0.90625 -0.578125 2.046875 -0.578125q1.125 0 2.03125 0.53125q0.90625 0.53125 1.453125 1.453125q0.546875 0.90625 0.546875 2.078125q0 1.234375 -0.546875 2.25q-0.53125 1.015625 -1.4375 1.609375q-0.90625 0.578125 -2.046875 0.578125zm0.125 -0.640625q0.84375 0 1.34375 -0.46875q0.5 -0.484375 0.71875 -1.25q0.21875 -0.765625 0.21875 -1.625q0 -0.71875 -0.140625 -1.40625q-0.140625 -0.703125 -0.4375 -1.265625q-0.28125 -0.5625 -0.734375 -0.890625q-0.453125 -0.34375 -1.09375 -0.34375q-0.828125 0 -1.359375 0.484375q-0.53125 0.46875 -0.78125 1.234375q-0.25 0.765625 -0.25 1.65625q0 0.984375 0.265625 1.875q0.28125 0.890625 0.84375 1.453125q0.5625 0.546875 1.40625 0.546875zm5.266266 0.390625l0 -0.484375q0.5 0 0.6875 -0.234375q0.1875 -0.25 0.21875 -0.6875q0.03125 -0.453125 0.03125 -1.03125l0.015625 -3.640625q0 -0.265625 0.015625 -0.515625q0.015625 -0.25 0.0625 -0.53125q-0.296875 0.015625 -0.578125 0.03125q-0.28125 0.015625 -0.5625 0.03125l0 -0.671875q0.703125 0 1.0625 -0.0625q0.359375 -0.0625 0.53125 -0.15625q0.1875 -0.09375 0.296875 -0.203125l0.453125 0q0.015625 0.109375 0.015625 0.25q0.015625 0.140625 0.03125 0.328125q0.03125 0.171875 0.03125 0.390625q0.34375 -0.296875 0.765625 -0.53125q0.421875 -0.25 0.890625 -0.390625q0.484375 -0.140625 0.9375 -0.140625q1.40625 0 2.03125 0.875q0.640625 0.859375 0.640625 2.703125l0 2.96875q0 0.328125 -0.015625 0.578125q0 0.25 -0.046875 0.515625q0.265625 -0.015625 0.5 -0.015625q0.25 -0.015625 0.515625 -0.03125l0 0.65625l-3.265625 0l0 -0.484375q0.5 0 0.6875 -0.234375q0.1875 -0.25 0.21875 -0.6875q0.03125 -0.453125 0.03125 -1.03125l0 -2.234375q-0.015625 -1.375 -0.453125 -2.078125q-0.4375 -0.703125 -1.375 -0.6875q-0.578125 0.015625 -1.140625 0.3125q-0.546875 0.28125 -0.90625 0.71875q0.015625 0.140625 0.015625 0.296875q0 0.15625 0 0.328125l-0.015625 4.078125q0 0.328125 -0.015625 0.578125q0 0.25 -0.0625 0.515625q0.265625 -0.015625 0.515625 -0.015625q0.25 -0.015625 0.5 -0.03125l0 0.65625l-3.265625 0z" fill-rule="nonzero"/><path fill="#a4c2f4" d="m249.44641 56.6288l234.21097 0l0 246.20473l-234.21097 0z" fill-rule="evenodd"/><path stroke="#ffffff" stroke-width="1.0" stroke-linejoin="round" stroke-linecap="butt" d="m249.44641 56.6288l234.21097 0l0 246.20473l-234.21097 0z" fill-rule="evenodd"/><path fill="#000000" d="m335.21082 80.9888l0 -0.53125q0.609375 -0.03125 0.828125 -0.28125q0.234375 -0.25 0.25 -0.6875q0.03125 -0.4375 0.03125 -1.0l0 -6.90625q0 -0.328125 0.015625 -0.609375q0.015625 -0.296875 0.03125 -0.546875q-0.28125 0.015625 -0.578125 0.03125q-0.28125 0.015625 -0.578125 0.03125l0 -0.703125l3.609375 0l0 0.53125q-0.59375 0.015625 -0.828125 0.28125q-0.234375 0.25 -0.265625 0.6875q-0.015625 0.421875 -0.015625 1.0l0 2.65625l5.734375 0l0 -3.359375q0 -0.328125 0.015625 -0.609375q0.015625 -0.296875 0.03125 -0.546875q-0.296875 0.015625 -0.59375 0.03125q-0.28125 0.015625 -0.5625 0.03125l0 -0.703125l3.59375 0l0 0.53125q-0.578125 0.015625 -0.8125 0.28125q-0.234375 0.25 -0.265625 0.6875q-0.015625 0.421875 -0.015625 1.0l0 6.796875q0 0.4375 -0.015625 0.75q0 0.3125 -0.03125 0.515625q0.28125 -0.015625 0.5625 -0.03125q0.296875 -0.015625 0.578125 -0.03125l0 0.703125l-3.59375 0l0 -0.53125q0.609375 -0.03125 0.828125 -0.28125q0.234375 -0.25 0.25 -0.6875q0.03125 -0.4375 0.03125 -1.0l0 -2.90625l-5.734375 0.0625l0 3.4375q0 0.4375 -0.015625 0.75q0 0.3125 -0.03125 0.515625q0.28125 -0.015625 0.5625 -0.03125q0.296875 -0.015625 0.59375 -0.03125l0 0.703125l-3.609375 0zm15.924896 0.25q-1.125 0 -2.03125 -0.515625q-0.90625 -0.515625 -1.453125 -1.4375q-0.53125 -0.921875 -0.53125 -2.109375q0 -1.265625 0.53125 -2.265625q0.53125 -1.015625 1.4375 -1.59375q0.90625 -0.578125 2.046875 -0.578125q1.125 0 2.03125 0.53125q0.90625 0.53125 1.453125 1.453125q0.546875 0.90625 0.546875 2.078125q0 1.234375 -0.546875 2.25q-0.53125 1.015625 -1.4375 1.609375q-0.90625 0.578125 -2.046875 0.578125zm0.125 -0.640625q0.84375 0 1.34375 -0.46875q0.5 -0.484375 0.71875 -1.25q0.21875 -0.765625 0.21875 -1.625q0 -0.71875 -0.140625 -1.40625q-0.140625 -0.703125 -0.4375 -1.265625q-0.28125 -0.5625 -0.734375 -0.890625q-0.453125 -0.34375 -1.09375 -0.34375q-0.828125 0 -1.359375 0.484375q-0.53125 0.46875 -0.78125 1.234375q-0.25 0.765625 -0.25 1.65625q0 0.984375 0.265625 1.875q0.28125 0.890625 0.84375 1.453125q0.5625 0.546875 1.40625 0.546875zm8.547516 0.640625q-0.796875 0 -1.421875 -0.21875q-0.625 -0.203125 -1.03125 -0.484375l0.0625 0.5625l-0.671875 0l-0.09375 -2.75l0.5 0q0.03125 0.65625 0.359375 1.1875q0.34375 0.515625 0.875 0.796875q0.53125 0.28125 1.140625 0.28125q0.40625 0 0.796875 -0.125q0.40625 -0.140625 0.671875 -0.421875q0.28125 -0.28125 0.28125 -0.703125q0 -0.453125 -0.265625 -0.75q-0.265625 -0.296875 -0.703125 -0.515625q-0.421875 -0.234375 -0.921875 -0.421875q-0.46875 -0.1875 -0.953125 -0.390625q-0.484375 -0.21875 -0.890625 -0.5q-0.40625 -0.296875 -0.65625 -0.703125q-0.234375 -0.421875 -0.234375 -1.03125q0 -0.328125 0.125 -0.734375q0.140625 -0.40625 0.4375 -0.765625q0.3125 -0.359375 0.828125 -0.578125q0.53125 -0.234375 1.34375 -0.234375q0.4375 0 0.96875 0.140625q0.53125 0.140625 1.015625 0.546875l-0.03125 -0.609375l0.671875 0l0 2.796875l-0.5 0q-0.046875 -0.5625 -0.265625 -1.078125q-0.21875 -0.515625 -0.65625 -0.859375q-0.421875 -0.34375 -1.125 -0.34375q-0.734375 0 -1.15625 0.375q-0.40625 0.359375 -0.40625 0.828125q0 0.5 0.3125 0.828125q0.3125 0.328125 0.8125 0.578125q0.5 0.234375 1.046875 0.453125q0.609375 0.25 1.1875 0.5625q0.578125 0.296875 0.9375 0.765625q0.375 0.453125 0.375 1.171875q0 0.796875 -0.40625 1.328125q-0.40625 0.53125 -1.046875 0.765625q-0.625 0.25 -1.3125 0.25zm7.142395 0q-0.375 0 -0.765625 -0.109375q-0.375 -0.09375 -0.703125 -0.390625q-0.328125 -0.3125 -0.53125 -0.890625q-0.1875 -0.59375 -0.1875 -1.546875l0.03125 -4.640625l-1.21875 0.015625l0 -0.6875q0.40625 -0.015625 0.828125 -0.3125q0.4375 -0.296875 0.78125 -0.796875q0.34375 -0.515625 0.484375 -1.125l0.53125 0l0 2.234375l2.6875 0l0 0.625l-2.6875 0.03125l-0.03125 4.453125q0 0.71875 0.125 1.21875q0.125 0.5 0.390625 0.765625q0.28125 0.25 0.703125 0.25q0.453125 0 0.84375 -0.25q0.390625 -0.265625 0.703125 -0.703125l0.421875 0.34375q-0.34375 0.53125 -0.6875 0.84375q-0.34375 0.296875 -0.671875 0.4375q-0.3125 0.15625 -0.59375 0.1875q-0.265625 0.046875 -0.453125 0.046875zm11.837524 -0.09375l-3.640625 -8.515625q-0.34375 -0.8125 -0.5 -1.3125q-0.140625 -0.5 -0.1875 -0.859375q-0.21875 0.015625 -0.453125 0.015625q-0.21875 0 -0.4375 0.015625l0 -0.703125l3.703125 0l-0.015625 0.546875q-0.796875 0.046875 -0.953125 0.484375q-0.15625 0.4375 0.15625 1.25q0.390625 0.9375 0.734375 1.828125q0.359375 0.875 0.796875 1.890625q0.375 0.90625 0.734375 1.734375q0.359375 0.8125 0.546875 1.359375l0.046875 0q0.171875 -0.5625 0.34375 -1.078125q0.1875 -0.515625 0.453125 -1.21875q0.46875 -1.34375 0.796875 -2.265625q0.328125 -0.921875 0.5625 -1.578125q0.25 -0.65625 0.40625 -1.125q0.15625 -0.421875 0.265625 -0.703125q0.109375 -0.296875 0.203125 -0.484375q-0.296875 0.015625 -0.609375 0.03125q-0.296875 0.015625 -0.625 0.03125l0 -0.703125l3.25 0l0 0.53125q-0.703125 0.03125 -1.078125 0.375q-0.375 0.328125 -0.6875 1.1875q-0.03125 0.078125 -0.078125 0.21875q-0.046875 0.140625 -0.15625 0.453125q-0.109375 0.296875 -0.328125 0.890625q-0.203125 0.578125 -0.5625 1.578125q-0.359375 0.984375 -0.90625 2.484375q-0.546875 1.5 -1.34375 3.640625l-0.4375 0zm12.198029 0q-0.703125 -1.59375 -1.421875 -3.1875q-0.71875 -1.59375 -1.40625 -3.21875q-0.21875 -0.515625 -0.4375 -1.03125q-0.21875 -0.53125 -0.421875 -1.046875q-0.1875 -0.53125 -0.40625 -1.0625q0 0.171875 -0.015625 0.359375q0 0.171875 0 0.34375q-0.015625 0.578125 -0.046875 1.390625q-0.015625 0.796875 -0.046875 1.71875q-0.03125 0.921875 -0.046875 1.84375q-0.015625 0.921875 -0.03125 1.734375q-0.015625 0.359375 -0.03125 0.71875q0 0.34375 -0.03125 0.640625q0.296875 -0.015625 0.59375 -0.03125q0.296875 -0.015625 0.609375 -0.03125l0 0.703125l-3.0625 0l0 -0.53125q0.5 -0.015625 0.71875 -0.203125q0.234375 -0.203125 0.296875 -0.53125q0.078125 -0.34375 0.09375 -0.734375l0.296875 -7.296875q0.015625 -0.3125 0.015625 -0.625q0.015625 -0.328125 0.03125 -0.640625q-0.28125 0.015625 -0.578125 0.03125q-0.28125 0 -0.5625 0.015625l0 -0.6875l2.4375 0l2.75 6.359375q0.21875 0.46875 0.40625 0.953125q0.203125 0.484375 0.421875 0.96875q0.21875 0.46875 0.421875 0.96875l0.03125 0q0.171875 -0.4375 0.40625 -1.03125q0.25 -0.59375 0.40625 -1.03125q0.71875 -1.765625 1.46875 -3.53125q0.765625 -1.765625 1.5 -3.65625l2.359375 0l0 0.53125q-0.390625 -0.015625 -0.65625 0.15625q-0.25 0.15625 -0.359375 0.546875q-0.109375 0.390625 -0.078125 1.046875l0.40625 7.28125q0.03125 0.265625 0.03125 0.53125q0 0.25 0 0.453125q0.296875 -0.015625 0.59375 -0.015625q0.296875 -0.015625 0.578125 -0.03125l0 0.703125l-3.578125 0l0 -0.53125q0.5 -0.015625 0.734375 -0.234375q0.234375 -0.21875 0.28125 -0.640625q0.0625 -0.421875 0.03125 -1.03125l-0.3125 -5.28125q-0.015625 -0.25 -0.03125 -0.5q-0.015625 -0.265625 -0.03125 -0.515625q-0.015625 -0.25 -0.03125 -0.515625q-0.046875 0.109375 -0.109375 0.25q-0.046875 0.125 -0.109375 0.265625l-3.59375 8.890625l-0.484375 0z" fill-rule="nonzero"/><path fill="#f6b26b" d="m133.1516 98.18785l292.14838 0l0 42.456696l-292.14838 0z" fill-rule="evenodd"/><path stroke="#ffffff" stroke-width="1.0" stroke-linejoin="round" stroke-linecap="butt" d="m133.1516 98.18785l292.14838 0l0 42.456696l-292.14838 0z" fill-rule="evenodd"/><path fill="#000000" d="m237.0287 124.74495q0.609375 -0.03125 0.828125 -0.28125q0.234375 -0.25 0.25 -0.6875q0.03125 -0.4375 0.03125 -1.0l0 -6.90625q0 -0.328125 0.015625 -0.609375q0.015625 -0.296875 0.03125 -0.546875q-0.28125 0.015625 -0.578125 0.03125q-0.28125 0.015625 -0.578125 0.03125l0 -0.703125l3.78125 -0.015625q1.4375 0 2.640625 0.34375q1.203125 0.328125 2.0625 1.03125q0.875 0.6875 1.34375 1.75q0.484375 1.0625 0.484375 2.515625q0 1.09375 -0.390625 2.109375q-0.375 1.0 -1.15625 1.78125q-0.765625 0.78125 -1.90625 1.234375q-1.140625 0.453125 -2.640625 0.453125l-4.21875 0l0 -0.53125zm2.5 -1.359375q0 0.4375 -0.015625 0.75q0 0.296875 -0.03125 0.5q0.4375 0.015625 0.796875 0.03125q0.359375 0 0.59375 0q0.25 0 0.328125 0q1.03125 0 1.875 -0.375q0.84375 -0.390625 1.4375 -1.0625q0.59375 -0.6875 0.921875 -1.609375q0.328125 -0.921875 0.328125 -1.984375q0 -1.53125 -0.546875 -2.640625q-0.546875 -1.109375 -1.6875 -1.71875q-1.140625 -0.625 -2.890625 -0.625q-0.59375 0 -0.828125 0.25q-0.234375 0.234375 -0.265625 0.671875q-0.015625 0.421875 -0.015625 1.0l0 6.8125zm13.123154 2.140625q-1.109375 0 -2.0 -0.515625q-0.875 -0.515625 -1.390625 -1.46875q-0.515625 -0.953125 -0.515625 -2.25q0 -1.125 0.5 -2.09375q0.515625 -0.984375 1.421875 -1.578125q0.90625 -0.59375 2.109375 -0.59375q0.671875 0 1.25 0.21875q0.59375 0.203125 1.03125 0.65625q0.453125 0.4375 0.703125 1.109375q0.265625 0.65625 0.265625 1.546875l-5.640625 0.09375q0 1.21875 0.265625 2.140625q0.265625 0.921875 0.859375 1.421875q0.59375 0.5 1.515625 0.5q0.5 0 1.015625 -0.171875q0.53125 -0.171875 0.96875 -0.46875q0.453125 -0.3125 0.71875 -0.6875l0.390625 0.328125q-0.4375 0.671875 -1.046875 1.078125q-0.59375 0.390625 -1.234375 0.5625q-0.640625 0.171875 -1.1875 0.171875zm-2.203125 -5.546875l4.078125 0q0 -0.578125 -0.171875 -1.109375q-0.171875 -0.53125 -0.5625 -0.875q-0.375 -0.34375 -1.0 -0.34375q-0.921875 0 -1.546875 0.546875q-0.609375 0.546875 -0.796875 1.78125zm9.9670105 5.34375l-2.296875 -5.21875q-0.25 -0.609375 -0.40625 -1.03125q-0.140625 -0.4375 -0.203125 -0.71875q-0.046875 -0.296875 -0.0625 -0.46875l-0.6875 0.046875l0 -0.65625l2.953125 0l0 0.484375q-0.484375 0 -0.625 0.25q-0.140625 0.234375 -0.046875 0.65625q0.109375 0.40625 0.296875 0.859375l1.234375 2.828125q0.125 0.265625 0.234375 0.5625q0.125 0.296875 0.25 0.609375l0.015625 0q0.078125 -0.234375 0.171875 -0.5q0.109375 -0.28125 0.1875 -0.53125l1.28125 -3.5q0.125 -0.390625 0.265625 -0.671875q0.15625 -0.296875 0.21875 -0.4375l-1.03125 0.046875l0 -0.65625l2.53125 0l0 0.484375q-0.34375 0 -0.59375 0.234375q-0.234375 0.234375 -0.453125 0.71875q-0.21875 0.484375 -0.5 1.203125l-2.09375 5.40625l-0.640625 0zm5.033142 -0.53125q0.5 0 0.6875 -0.234375q0.1875 -0.25 0.21875 -0.6875q0.03125 -0.453125 0.03125 -1.03125l0 -3.640625q0 -0.265625 0.015625 -0.484375q0.03125 -0.234375 0.0625 -0.5625q-0.296875 0.015625 -0.578125 0.03125q-0.28125 0.015625 -0.5625 0.03125l0 -0.671875q0.703125 0 1.078125 -0.0625q0.390625 -0.0625 0.59375 -0.15625q0.203125 -0.09375 0.3125 -0.203125l0.46875 0l0 6.453125q0 0.328125 -0.015625 0.578125q0 0.25 -0.0625 0.515625q0.265625 -0.015625 0.515625 -0.015625q0.25 -0.015625 0.5 -0.03125l0 0.65625l-3.265625 0l0 -0.484375zm1.53125 -9.265625q-0.328125 0 -0.59375 -0.265625q-0.25 -0.265625 -0.25 -0.671875q0 -0.40625 0.265625 -0.671875q0.265625 -0.28125 0.59375 -0.28125q0.375 0 0.625 0.28125q0.25 0.265625 0.25 0.671875q0 0.40625 -0.265625 0.671875q-0.265625 0.265625 -0.625 0.265625zm6.871002 10.0q-1.078125 0 -1.984375 -0.484375q-0.890625 -0.484375 -1.4375 -1.40625q-0.53125 -0.921875 -0.53125 -2.21875q0 -0.828125 0.296875 -1.609375q0.3125 -0.78125 0.859375 -1.40625q0.5625 -0.640625 1.328125 -1.0q0.765625 -0.375 1.6875 -0.375q0.90625 0 1.5625 0.265625q0.671875 0.265625 1.03125 0.71875q0.375 0.453125 0.375 0.984375q0 0.34375 -0.203125 0.59375q-0.1875 0.25 -0.546875 0.25q-0.40625 0.015625 -0.578125 -0.25q-0.171875 -0.265625 -0.171875 -0.46875q0 -0.15625 0.046875 -0.328125q0.0625 -0.171875 0.203125 -0.3125q-0.125 -0.390625 -0.453125 -0.5625q-0.3125 -0.1875 -0.65625 -0.234375q-0.34375 -0.0625 -0.578125 -0.0625q-1.078125 0 -1.828125 0.875q-0.75 0.859375 -0.75 2.53125q0 1.0625 0.34375 1.90625q0.34375 0.828125 0.96875 1.296875q0.625 0.46875 1.453125 0.46875q0.75 0 1.4375 -0.390625q0.6875 -0.40625 1.0625 -0.984375l0.421875 0.328125q-0.421875 0.671875 -1.0 1.09375q-0.578125 0.40625 -1.203125 0.59375q-0.609375 0.1875 -1.15625 0.1875zm8.400757 0q-1.109375 0 -2.0 -0.515625q-0.875 -0.515625 -1.390625 -1.46875q-0.515625 -0.953125 -0.515625 -2.25q0 -1.125 0.5 -2.09375q0.515625 -0.984375 1.421875 -1.578125q0.90625 -0.59375 2.109375 -0.59375q0.671875 0 1.25 0.21875q0.59375 0.203125 1.03125 0.65625q0.453125 0.4375 0.703125 1.109375q0.265625 0.65625 0.265625 1.546875l-5.640625 0.09375q0 1.21875 0.265625 2.140625q0.265625 0.921875 0.859375 1.421875q0.59375 0.5 1.515625 0.5q0.5 0 1.015625 -0.171875q0.53125 -0.171875 0.96875 -0.46875q0.453125 -0.3125 0.71875 -0.6875l0.390625 0.328125q-0.4375 0.671875 -1.046875 1.078125q-0.59375 0.390625 -1.234375 0.5625q-0.640625 0.171875 -1.1875 0.171875zm-2.203125 -5.546875l4.078125 0q0 -0.578125 -0.171875 -1.109375q-0.171875 -0.53125 -0.5625 -0.875q-0.375 -0.34375 -1.0 -0.34375q-0.921875 0 -1.546875 0.546875q-0.609375 0.546875 -0.796875 1.78125zm11.380035 5.296875l0 -0.53125q0.609375 -0.03125 0.828125 -0.28125q0.234375 -0.25 0.25 -0.6875q0.03125 -0.4375 0.03125 -1.0l0 -6.90625q0 -0.328125 0.015625 -0.609375q0.015625 -0.296875 0.03125 -0.546875q-0.28125 0.015625 -0.578125 0.03125q-0.28125 0.015625 -0.578125 0.03125l0 -0.703125l3.609375 0l0 0.53125q-0.59375 0.015625 -0.828125 0.28125q-0.234375 0.25 -0.265625 0.6875q-0.015625 0.421875 -0.015625 1.0l0 2.65625l5.734375 0l0 -3.359375q0 -0.328125 0.015625 -0.609375q0.015625 -0.296875 0.03125 -0.546875q-0.296875 0.015625 -0.59375 0.03125q-0.28125 0.015625 -0.5625 0.03125l0 -0.703125l3.59375 0l0 0.53125q-0.578125 0.015625 -0.8125 0.28125q-0.234375 0.25 -0.265625 0.6875q-0.015625 0.421875 -0.015625 1.0l0 6.796875q0 0.4375 -0.015625 0.75q0 0.3125 -0.03125 0.515625q0.28125 -0.015625 0.5625 -0.03125q0.296875 -0.015625 0.578125 -0.03125l0 0.703125l-3.59375 0l0 -0.53125q0.609375 -0.03125 0.828125 -0.28125q0.234375 -0.25 0.25 -0.6875q0.03125 -0.4375 0.03125 -1.0l0 -2.90625l-5.734375 0.0625l0 3.4375q0 0.4375 -0.015625 0.75q0 0.3125 -0.03125 0.515625q0.28125 -0.015625 0.5625 -0.03125q0.296875 -0.015625 0.59375 -0.03125l0 0.703125l-3.609375 0zm11.511261 0l0 -0.53125q0.484375 0 0.734375 -0.25q0.25 -0.265625 0.421875 -0.703125q0.171875 -0.453125 0.390625 -1.046875l3.296875 -8.96875l0.390625 0l3.5625 9.09375q0.125 0.34375 0.28125 0.875q0.171875 0.515625 0.140625 0.890625q0.265625 -0.015625 0.53125 -0.03125q0.28125 -0.015625 0.546875 -0.03125l0 0.703125l-3.65625 0l0 -0.53125q0.609375 -0.015625 0.796875 -0.265625q0.1875 -0.265625 0.140625 -0.609375q-0.046875 -0.359375 -0.15625 -0.640625l-0.5625 -1.5l-4.15625 0.09375l-0.5625 1.703125q-0.109375 0.390625 -0.203125 0.625q-0.078125 0.21875 -0.203125 0.484375q0.328125 -0.015625 0.640625 -0.03125q0.3125 -0.015625 0.609375 -0.03125l0 0.703125l-2.984375 0zm2.9375 -4.140625l3.703125 0l-1.140625 -3.0625q-0.171875 -0.5 -0.359375 -0.984375q-0.1875 -0.484375 -0.359375 -0.984375l-0.03125 0q-0.15625 0.453125 -0.328125 0.90625q-0.171875 0.4375 -0.34375 0.90625l-1.140625 3.21875zm8.047272 4.140625l0 -0.53125q0.609375 -0.03125 0.828125 -0.28125q0.234375 -0.25 0.25 -0.6875q0.03125 -0.4375 0.03125 -1.0l0 -6.90625q0 -0.328125 0.015625 -0.609375q0.015625 -0.296875 0.03125 -0.546875q-0.28125 0.015625 -0.578125 0.03125q-0.28125 0.015625 -0.578125 0.03125l0 -0.703125l3.609375 0l0 0.53125q-0.59375 0.015625 -0.828125 0.28125q-0.234375 0.25 -0.265625 0.6875q-0.015625 0.421875 -0.015625 1.0l0 6.859375q0 0.4375 -0.015625 0.75q0 0.296875 -0.03125 0.5l2.984375 -0.046875q1.015625 -0.015625 1.53125 -0.640625q0.53125 -0.625 0.53125 -2.03125l0.53125 0l-0.09375 3.3125l-7.9375 0z" fill-rule="nonzero"/><path fill="#f9cb9c" d="m133.1516 140.64455l58.367172 0l0 162.20473l-58.367172 0z" fill-rule="evenodd"/><path stroke="#ffffff" stroke-width="1.0" stroke-linejoin="round" stroke-linecap="butt" d="m133.1516 140.64455l58.367172 0l0 162.20473l-58.367172 0z" fill-rule="evenodd"/><path fill="#000000" fill-opacity="0.0" d="m141.32047 253.62111l0.03907776 -63.74803l38.794235 0l-0.0390625 63.74803z" fill-rule="evenodd"/><path fill="#000000" d="m158.07089 228.46875q-1.5157318 0.171875 -2.3444061 1.0625q-0.82865906 0.875 -0.82951355 2.265625q-5.340576E-4 0.859375 0.35838318 1.609375q0.3589325 0.734375 1.0304565 1.296875q0.6715393 0.5625 1.6244507 0.890625q0.9373169 0.3125 2.124817 0.3125q1.5 0 2.656601 -0.578125q1.140976 -0.578125 1.782196 -1.546875q0.64123535 -0.984375 0.6419678 -2.171875q6.2561035E-4 -1.03125 -0.46751404 -2.03125q-0.4681244 -1.015625 -1.3739777 -1.65625l0.3440094 -0.421875q0.93707275 0.6875 1.4522095 1.484375q0.5151367 0.796875 0.68652344 1.59375q0.18701172 0.796875 0.18661499 1.453125q-7.4768066E-4 1.203125 -0.42323303 2.203125q-0.43811035 1.0 -1.2041931 1.734375q-0.78167725 0.71875 -1.8131714 1.109375q-1.0314941 0.390625 -2.2346191 0.390625q-1.140625 0 -2.2029114 -0.34375q-1.0779114 -0.34375 -1.9368744 -1.03125q-0.87457275 -0.6875 -1.3739319 -1.734375q-0.51498413 -1.046875 -0.51412964 -2.4375q5.493164E-4 -0.90625 0.2510376 -1.703125q0.23486328 -0.796875 0.71969604 -1.53125l-0.8594208 0.078125l5.187988E-4 -0.859375l3.71875 0l-3.3569336E-4 0.5625zm7.095169 -2.324646q-0.03086853 -0.609375 -0.28074646 -0.828125q-0.24984741 -0.234375 -0.6873474 -0.25q-0.43746948 -0.03125 -0.9999695 -0.03125l-6.90625 0q-0.328125 0 -0.609375 -0.015625q-0.29685974 -0.015625 -0.54685974 -0.03125q0.015457153 0.28125 0.030899048 0.578125q0.015457153 0.28125 0.030899048 0.578125l-0.703125 0q-0.015106201 -0.859375 -0.014556885 -1.75q-0.015075684 -0.890625 -0.01449585 -1.828125q9.460449E-4 -1.546875 0.3609619 -2.59375q0.34440613 -1.0625 1.0322418 -1.625q0.68785095 -0.5625 1.7191315 -0.609375q0.62501526 -0.03125 1.3123779 0.1875q0.6717377 0.21875 1.2807617 0.796875q0.59339905 0.578125 0.9677429 1.640625q0.35873413 1.0625 0.35772705 2.703125q-4.5776367E-5 0.0625 -1.5258789E-4 0.25q-1.0681152E-4 0.171875 -0.015838623 0.328125l2.3125 0q0.4375 0 0.75 0.015625q0.3125 0 0.51560974 0.03125q-0.015472412 -0.25 -0.030960083 -0.484375q-0.015472412 -0.25 -0.015319824 -0.5q-0.015472412 -0.25 -0.030944824 -0.484375l0.71875 0l-0.0024108887 3.921875l-0.53125 0zm-4.342224 -2.5q0.031448364 -0.3125 0.047195435 -0.515625q1.373291E-4 -0.21875 3.2043457E-4 -0.53125q5.645752E-4 -0.90625 -0.35835266 -1.65625q-0.35891724 -0.75 -1.0305176 -1.203125q-0.6715851 -0.453125 -1.6091003 -0.453125q-0.75 0 -1.2814026 0.25q-0.5313873 0.234375 -0.859787 0.671875q-0.3283844 0.4375 -0.48501587 1.046875q-0.15661621 0.609375 -0.15707397 1.34375q-3.3569336E-4 0.5625 0.24952698 0.78125q0.23423767 0.21875 0.6560974 0.25q0.42185974 0.015625 0.99998474 0.015625l3.828125 0zm-5.790497 -10.399139q-3.2043457E-4 0.53125 0.23390198 0.765625q0.21862793 0.21875 0.51545715 0.28125q0.29684448 0.046875 0.5155945 0.046875l4.03125 0q0.890625 0 1.7344513 -0.125q0.8438263 -0.125 1.5158997 -0.453125q0.6720886 -0.34375 1.0787506 -1.0q0.391037 -0.671875 0.39167786 -1.734375q7.171631E-4 -1.15625 -0.54571533 -1.875q-0.5464325 -0.734375 -1.4993439 -1.078125q-0.9529114 -0.34375 -2.2029114 -0.359375l-4.4999695 -0.046875q-0.328125 0 -0.60935974 -0.015625q-0.29685974 -0.03125 -0.5468445 -0.046875q0.0154418945 0.296875 0.030883789 0.578125q0.015457153 0.28125 0.030914307 0.5625l-0.703125 0l0.0018157959 -2.96875l0.53125 0q0.015258789 0.609375 0.28074646 0.828125q0.24986267 0.21875 0.6873474 0.25q0.42185974 0.015625 0.9999695 0.03125l3.7187347 0.03125q1.03125 0 1.9842377 0.234375q0.9373627 0.21875 1.6714172 0.734375q0.7340698 0.5 1.1554413 1.328125q0.42137146 0.8125 0.42063904 2.015625q-7.7819824E-4 1.28125 -0.32943726 2.15625q-0.34428406 0.859375 -1.0477295 1.390625q-0.70344543 0.515625 -1.7660828 0.75q-1.0782623 0.21875 -2.5626373 0.21875l-3.25 0q-0.421875 0 -0.984375 -0.015625q-0.5624695 -0.03125 -0.8749695 -0.046875q0.015457153 0.28125 0.030899048 0.578125q-1.6784668E-4 0.28125 0.015274048 0.5625l-0.6875 0l0.0021972656 -3.578125l0.53125 0z" fill-rule="nonzero"/><path fill="#f9cb9c" d="m191.51877 140.64455l58.367157 0l0 162.20473l-58.367157 0z" fill-rule="evenodd"/><path stroke="#ffffff" stroke-width="1.0" stroke-linejoin="round" stroke-linecap="butt" d="m191.51877 140.64455l58.367157 0l0 162.20473l-58.367157 0z" fill-rule="evenodd"/><path fill="#000000" fill-opacity="0.0" d="m199.53278 259.13275l0.03907776 -74.77167l38.794235 0l-0.0390625 74.77167z" fill-rule="evenodd"/><path fill="#000000" d="m216.28067 234.46059q-1.5157166 0.171875 -2.3442993 1.0625q-0.82858276 0.875 -0.8293152 2.265625q-4.4250488E-4 0.859375 0.35853577 1.609375q0.35899353 0.734375 1.0305786 1.296875q0.6715851 0.5625 1.624527 0.890625q0.9373474 0.3125 2.1248474 0.3125q1.5 0 2.65654 -0.578125q1.1409302 -0.578125 1.7820587 -1.546875q0.6411438 -0.984375 0.6417694 -2.171875q5.340576E-4 -1.03125 -0.46769714 -2.03125q-0.46821594 -1.015625 -1.3741302 -1.65625l0.34397888 -0.421875q0.9371338 0.6875 1.4523468 1.484375q0.51519775 0.796875 0.68666077 1.59375q0.18708801 0.796875 0.18673706 1.453125q-6.2561035E-4 1.203125 -0.4230194 2.203125q-0.4380188 1.0 -1.2040253 1.734375q-0.78163147 0.71875 -1.8130798 1.109375q-1.0314636 0.390625 -2.2345886 0.390625q-1.140625 0 -2.202942 -0.34375q-1.0779419 -0.34375 -1.936966 -1.03125q-0.8746338 -0.6875 -1.3740845 -1.734375q-0.51509094 -1.046875 -0.5143585 -2.4375q4.7302246E-4 -0.90625 0.250885 -1.703125q0.23480225 -0.796875 0.7195587 -1.53125l-0.8594208 0.078125l4.5776367E-4 -0.859375l3.71875 0l-3.0517578E-4 0.5625zm-3.0439758 -5.527771q-2.89917E-4 0.53125 0.23396301 0.765625q0.21864319 0.21875 0.5154877 0.28125q0.29684448 0.046875 0.5155945 0.046875l4.03125 0q0.890625 0 1.734436 -0.125q0.8438263 -0.125 1.5158691 -0.453125q0.6720581 -0.34375 1.0786438 -1.0q0.39097595 -0.671875 0.39154053 -1.734375q5.950928E-4 -1.15625 -0.54589844 -1.875q-0.54649353 -0.734375 -1.4994354 -1.078125q-0.9529419 -0.34375 -2.202942 -0.359375l-4.4999695 -0.046875q-0.328125 0 -0.609375 -0.015625q-0.29685974 -0.03125 -0.5468445 -0.046875q0.015472412 0.296875 0.030944824 0.578125q0.015472412 0.28125 0.030960083 0.5625l-0.703125 0l0.0015411377 -2.96875l0.53125 0q0.015304565 0.609375 0.28082275 0.828125q0.24987793 0.21875 0.6873627 0.25q0.421875 0.015625 0.99998474 0.03125l3.7187347 0.03125q1.03125 0 1.9842529 0.234375q0.9373932 0.21875 1.6714935 0.734375q0.7341156 0.5 1.1555634 1.328125q0.42144775 0.8125 0.42082214 2.015625q-6.713867E-4 1.28125 -0.32925415 2.15625q-0.34420776 0.859375 -1.0476074 1.390625q-0.7033844 0.515625 -1.7660065 0.75q-1.0782471 0.21875 -2.562622 0.21875l-3.25 0q-0.421875 0 -0.98435974 -0.015625q-0.56248474 -0.03125 -0.87498474 -0.046875q0.015472412 0.28125 0.030944824 0.578125q-1.373291E-4 0.28125 0.015335083 0.5625l-0.6875 0l0.001876831 -3.578125l0.53125 0zm10.145233 -8.828903q-0.030929565 -0.609375 -0.28082275 -0.828125q-0.24987793 -0.234375 -0.6873627 -0.25q-0.43748474 -0.03125 -0.99998474 -0.03125l-6.90625 0q-0.328125 0 -0.609375 -0.015625q-0.29685974 -0.015625 -0.5468445 -0.03125q0.015472412 0.28125 0.030944824 0.578125q0.015472412 0.28125 0.030944824 0.578125l-0.703125 0l-0.013656616 -3.78125q7.6293945E-4 -1.4375 0.34513855 -2.640625q0.3287506 -1.203125 1.0323181 -2.0625q0.68795776 -0.875 1.7507019 -1.34375q1.0627594 -0.484375 2.5158844 -0.484375q1.09375 0 2.1091766 0.390625q0.99980164 0.375 1.7806396 1.15625q0.7808533 0.765625 1.2333832 1.90625q0.4525299 1.140625 0.45173645 2.640625l-0.0021972656 4.21875l-0.53125 0zm-1.3580627 -2.5q0.4375 0 0.74998474 0.015625q0.296875 0 0.49998474 0.03125q0.015853882 -0.4375 0.031661987 -0.796875q1.9836426E-4 -0.359375 3.2043457E-4 -0.59375q1.2207031E-4 -0.25 1.6784668E-4 -0.328125q5.340576E-4 -1.03125 -0.37402344 -1.875q-0.3901825 -0.84375 -1.0617523 -1.4375q-0.68717957 -0.59375 -1.6088867 -0.921875q-0.92170715 -0.328125 -1.9842072 -0.328125q-1.53125 0 -2.640915 0.546875q-1.1096497 0.546875 -1.719635 1.6875q-0.6255951 1.140625 -0.62649536 2.890625q-3.2043457E-4 0.59375 0.2495575 0.828125q0.23425293 0.234375 0.6717377 0.265625q0.421875 0.015625 1.0 0.015625l6.8125 0zm1.8948975 -8.195282l-0.53125 0q2.593994E-4 -0.484375 -0.24961853 -0.734375q-0.26548767 -0.25 -0.7028961 -0.421875q-0.45303345 -0.171875 -1.0466766 -0.390625l-8.967026 -3.296875l1.9836426E-4 -0.390625l9.095612 -3.5625q0.3438263 -0.125 0.8751526 -0.28125q0.51571655 -0.171875 0.8907013 -0.140625q-0.015487671 -0.265625 -0.030975342 -0.53125q-0.015472412 -0.28125 -0.030960083 -0.546875l0.703125 0l-0.0019073486 3.65625l-0.53125 0q-0.015319824 -0.609375 -0.265213 -0.796875q-0.26553345 -0.1875 -0.6092987 -0.140625q-0.35940552 0.046875 -0.64071655 0.15625l-1.5002899 0.5625l0.09158325 4.15625l1.7028351 0.5625q0.39056396 0.109375 0.6248932 0.203125q0.21870422 0.078125 0.4842682 0.203125q-0.015457153 -0.328125 -0.030914307 -0.640625q-0.015472412 -0.3125 -0.030944824 -0.609375l0.703125 0l-0.0015563965 2.984375zm-4.139084 -2.9375l0.0019378662 -3.703125l-3.063095 1.140625q-0.50009155 0.171875 -0.98457336 0.359375q-0.48446655 0.1875 -0.9845581 0.359375l-1.5258789E-5 0.03125q0.45303345 0.15625 0.90608215 0.328125q0.43740845 0.171875 0.9060669 0.34375l3.218155 1.140625z" fill-rule="nonzero"/><path fill="#f9cb9c" d="m249.58316 140.64455l58.367157 0l0 162.20473l-58.367157 0z" fill-rule="evenodd"/><path stroke="#ffffff" stroke-width="1.0" stroke-linejoin="round" stroke-linecap="butt" d="m249.58316 140.64455l58.367157 0l0 162.20473l-58.367157 0z" fill-rule="evenodd"/><path fill="#000000" fill-opacity="0.0" d="m258.05087 262.73904l0.0390625 -81.98427l38.79425 0l-0.0390625 81.98427z" fill-rule="evenodd"/><path fill="#000000" d="m282.57703 241.9267l-8.517334 3.640625q-0.8126831 0.34375 -1.3127441 0.5q-0.50006104 0.140625 -0.85946655 0.1875q0.01550293 0.21875 0.015411377 0.453125q-1.2207031E-4 0.21875 0.015411377 0.4375l-0.703125 0l0.0017700195 -3.703125l0.5468445 0.015625q0.04650879 0.796875 0.48394775 0.953125q0.43740845 0.15625 1.250061 -0.15625q0.9376831 -0.390625 1.8284912 -0.734375q0.8751526 -0.359375 1.8909912 -0.796875q0.9064331 -0.375 1.7347107 -0.734375q0.8126831 -0.359375 1.3596497 -0.546875l3.0517578E-5 -0.046875q-0.56243896 -0.171875 -1.0779724 -0.34375q-0.51553345 -0.1875 -1.2185364 -0.453125q-1.3435364 -0.46875 -2.2652283 -0.796875q-0.9217224 -0.328125 -1.5778809 -0.5625q-0.6561279 -0.25 -1.1247864 -0.40625q-0.42181396 -0.15625 -0.7030029 -0.265625q-0.29681396 -0.109375 -0.48428345 -0.203125q0.015472412 0.296875 0.030975342 0.609375q0.015472412 0.296875 0.030944824 0.625l-0.703125 0l0.0015258789 -3.25l0.53125 0q0.030944824 0.703125 0.37451172 1.078125q0.3279419 0.375 1.1871643 0.6875q0.07809448 0.03125 0.21871948 0.078125q0.14059448 0.046875 0.45303345 0.15625q0.29684448 0.109375 0.8904724 0.328125q0.57803345 0.203125 1.5778503 0.5625q0.9842224 0.359375 2.4839478 0.90625q1.4997559 0.546875 3.6399841 1.34375l-2.1362305E-4 0.4375zm0.09811401 -9.129898q-3.9672852E-4 0.859375 -0.3132019 1.453125q-0.32839966 0.578125 -1.0941467 0.875q-0.7657776 0.296875 -2.0782776 0.296875l-2.84375 0q-0.265625 0 -0.515625 0q-0.25 -0.015625 -0.5312195 -0.0625q0.01550293 0.265625 0.030975342 0.546875q-1.2207031E-4 0.28125 0.015380859 0.546875l-0.65625 0l2.1362305E-4 -0.484375q3.3569336E-4 -0.6875 -0.12451172 -1.0q-0.14047241 -0.3125 -0.29663086 -0.5l2.1362305E-4 -0.453125l4.875 0q1.375 0 2.062683 -0.390625q0.6720581 -0.390625 0.65689087 -1.34375q-0.015319824 -0.609375 -0.37445068 -1.15625q-0.35910034 -0.546875 -0.85894775 -0.890625l-4.109375 0q-0.375 0 -0.65625 -0.015625q-0.28125 -0.015625 -0.5624695 -0.0625q0.01550293 0.28125 0.030975342 0.578125q-1.2207031E-4 0.28125 0.015350342 0.578125l-0.65625 0l2.4414062E-4 -0.5q3.3569336E-4 -0.6875 -0.12451172 -1.0q-0.14050293 -0.3125 -0.29666138 -0.484375l2.1362305E-4 -0.46875l6.046875 0.015625q0.25 0 0.71875 0.015625q0.46875 0.015625 0.7812195 0.046875q-0.015472412 -0.28125 -0.030975342 -0.5625q-0.015472412 -0.296875 -0.030975342 -0.59375l0.671875 0l-0.0010986328 2.296875q-0.265625 0.046875 -0.5000305 0.078125q-0.25 0.015625 -0.453125 0.03125q0.48413086 0.5 0.84317017 1.203125q0.3590393 0.703125 0.3587036 1.40625zm-0.73150635 -6.020767q2.4414062E-4 -0.5 -0.2340393 -0.6875q-0.24990845 -0.1875 -0.68740845 -0.21875q-0.45309448 -0.03125 -1.0312195 -0.03125l-7.5625 0q-0.25 0 -0.484375 0q-0.234375 -0.015625 -0.5625 -0.046875q0.01550293 0.28125 0.04663086 0.5625q0.015472412 0.28125 0.030975342 0.5625l-0.671875 0q3.3569336E-4 -0.703125 -0.0619812 -1.09375q-0.077941895 -0.390625 -0.17160034 -0.578125q-0.09365845 -0.203125 -0.20297241 -0.328125l2.1362305E-4 -0.453125l10.375 -0.015625q0.328125 0 0.578125 0.015625q0.25 0.015625 0.5155945 0.0625q-0.01550293 -0.265625 -0.015380859 -0.5q-0.01550293 -0.25 -0.03100586 -0.515625l0.65625 0l-0.0015563965 3.265625l-0.484375 0zm0.4864502 -4.36763l-0.484375 0q2.4414062E-4 -0.5 -0.2340393 -0.671875q-0.24990845 -0.1875 -0.68740845 -0.21875q-0.45309448 -0.03125 -1.0312195 -0.03125l-7.5625 -0.015625q-0.25 0 -0.484375 0q-0.234375 -0.015625 -0.5624695 -0.046875q0.015472412 0.28125 0.04660034 0.5625q0.015472412 0.28125 0.030975342 0.5625l-0.671875 0q3.3569336E-4 -0.703125 -0.0619812 -1.078125q-0.077941895 -0.390625 -0.17160034 -0.578125q-0.09365845 -0.203125 -0.20297241 -0.328125l2.1362305E-4 -0.453125l7.5625 0l3.0517578E-4 -0.640625l-2.045929 -1.9531097q-0.26550293 -0.28125 -0.48416138 -0.5q-0.21862793 -0.21875 -0.35916138 -0.453125l0.0463562 1.09375l-0.640625 0l0.0014038086 -2.90625l0.484375 0q0.04660034 0.53125 0.34326172 1.015625q0.29666138 0.46875 0.67144775 0.859375q0.3591919 0.390625 0.6559448 0.6875l1.3118896 1.234375q0.14077759 -0.3125 0.37527466 -0.53125q0.21884155 -0.234375 0.5002136 -0.453125l1.4536743 -1.140625q0.09378052 -0.078125 0.37512207 -0.28125q0.26571655 -0.203125 0.5939636 -0.46875q0.3126526 -0.28125 0.5315552 -0.59375q0.21890259 -0.3125 0.21902466 -0.59375l0.484375 0l-7.019043E-4 1.453125q-2.1362305E-4 0.453125 -0.45352173 0.859375q-0.4689331 0.390625 -1.0472717 0.84375q-0.5783386 0.421875 -1.0472412 0.75q-0.4845276 0.328125 -0.82839966 0.59375q-0.35949707 0.24998474 -0.54711914 0.46873474l0.030944824 0.65625l2.1875 0q0.328125 0 0.578125 0.015625q0.25 0 0.5155945 0.046875q-0.01550293 -0.265625 -0.015380859 -0.515625q-0.01550293 -0.25 -0.03100586 -0.51560974l0.65625 0l-0.0015563965 3.2656097zm0.0064697266 -13.591995q-0.265625 0.046875 -0.46878052 0.0625q-0.21875 0.015625 -0.4375 0.046875q0.53097534 0.546875 0.84317017 1.1875q0.31219482 0.625 0.31185913 1.328125q-5.493164E-4 1.203125 -0.5477295 1.796875q-0.54714966 0.59375 -1.3440247 0.59375q-0.75 0 -1.2810364 -0.453125q-0.5310364 -0.453125 -0.8744507 -1.171875q-0.3433838 -0.734375 -0.51486206 -1.59375q-0.17144775 -0.859375 -0.15545654 -1.65625l-0.984375 0q-0.5625 0 -1.0625305 0.09375q-0.50006104 0.09375 -0.8127136 0.421875q-0.3126526 0.3125 -0.32861328 1.015625q-0.031463623 0.46875 0.17141724 0.953125q0.18728638 0.484375 0.6559143 0.71875q0.12506104 -0.140625 0.29696655 -0.171875q0.15628052 -0.046875 0.31253052 -0.046875q0.1875 0 0.43740845 0.171875q0.24993896 0.15625 0.23410034 0.546875q-1.5258789E-4 0.34375 -0.23461914 0.515625q-0.23443604 0.171875 -0.56256104 0.171875q-0.53125 0 -0.9685669 -0.40625q-0.4373169 -0.40625 -0.6869507 -1.125q-0.2496643 -0.71875 -0.24923706 -1.625q6.4086914E-4 -1.34375 0.71969604 -1.984375q0.7034302 -0.640625 2.2346802 -0.625q0.59375 0 1.203125 0q0.59375 0 1.2030945 0.015625q0.59375 0 1.1875 0q0.265625 0 0.53125 0.015625q0.25 0.015625 0.5624695 0.046875q-0.015472412 -0.296875 -0.030975342 -0.5625q-0.015472412 -0.28125 -0.030975342 -0.578125l0.671875 0l-0.0010986328 2.296875zm-3.921936 0.140625q0.015380859 0.546875 0.14007568 1.140625q0.12472534 0.59375 0.3588562 1.109375q0.23413086 0.5 0.6246033 0.8125q0.39050293 0.3125 0.9530029 0.296875q0.59375 -0.03125 0.8908081 -0.390625q0.2970276 -0.359375 0.29727173 -0.859375q3.3569336E-4 -0.65625 -0.24945068 -1.140625q-0.24975586 -0.484375 -0.68704224 -0.96875q-0.1875 0.015625 -0.390625 0.015625q-0.203125 0 -0.4375 0q-0.078125 0 -0.5 0q-0.4375 -0.015625 -1.0 -0.015625zm3.9235535 -3.537262l-0.484375 0q2.4414062E-4 -0.5 -0.2340393 -0.6875q-0.24990845 -0.1875 -0.6873779 -0.21875q-0.453125 -0.03125 -1.03125 -0.03125l-3.640625 -0.015625q-0.265625 0 -0.5155945 -0.015625q-0.25 -0.015625 -0.5312195 -0.0625q0.015472412 0.296875 0.030975342 0.578125q0.015472412 0.28125 0.030975342 0.5625l-0.671875 0q3.3569336E-4 -0.703125 -0.06201172 -1.0625q-0.062316895 -0.359375 -0.15597534 -0.53125q-0.09365845 -0.1875 -0.20300293 -0.296875l2.1362305E-4 -0.453125q0.10940552 -0.015625 0.25003052 -0.015625q0.140625 -0.015625 0.328125 -0.03125q0.17190552 -0.03125 0.39065552 -0.03125q-0.2967224 -0.34375 -0.5308838 -0.765625q-0.2498169 -0.421875 -0.39022827 -0.890625q-0.14038086 -0.484375 -0.14016724 -0.9375q6.713867E-4 -1.40625 0.87597656 -2.03125q0.8596802 -0.640625 2.7034302 -0.640625l2.96875 0q0.328125 0 0.578125 0.015625q0.25 0 0.5155945 0.046875q-0.01550293 -0.265625 -0.015380859 -0.5q-0.01550293 -0.25 -0.03100586 -0.515625l0.65625 0l-0.0015563965 3.265625l-0.484375 0q2.4414062E-4 -0.5 -0.23406982 -0.6875q-0.24990845 -0.1875 -0.6873779 -0.21875q-0.453125 -0.03125 -1.03125 -0.03125l-2.234375 0q-1.375 0.015625 -2.0783386 0.453125q-0.7033386 0.4375 -0.68814087 1.375q0.015350342 0.578125 0.31195068 1.140625q0.28097534 0.546875 0.71832275 0.90625q0.140625 -0.015625 0.296875 -0.015625q0.15625 0 0.328125 0l4.078125 0.015625q0.328125 0 0.578125 0.015625q0.25 0 0.5155945 0.0625q-0.01550293 -0.265625 -0.015380859 -0.515625q-0.01550293 -0.25 -0.031036377 -0.5l0.65625 0l-0.0015563965 3.265625z" fill-rule="nonzero"/><path fill="#f9cb9c" d="m308.2531 140.64455l58.367157 0l0 162.20473l-58.367157 0z" fill-rule="evenodd"/><path stroke="#ffffff" stroke-width="1.0" stroke-linejoin="round" stroke-linecap="butt" d="m308.2531 140.64455l58.367157 0l0 162.20473l-58.367157 0z" fill-rule="evenodd"/><path fill="#000000" fill-opacity="0.0" d="m316.4188 262.73904l0.0390625 -81.98427l38.79425 0l-0.0390625 81.98427z" fill-rule="evenodd"/><path fill="#000000" d="m340.94788 235.8087q-1.5940857 0.703125 -3.1881714 1.421875q-1.5941162 0.71875 -3.2194214 1.40625q-0.5157471 0.21875 -1.0314636 0.4375q-0.5313721 0.21875 -1.0470886 0.421875q-0.53134155 0.1875 -1.0626831 0.40625q0.171875 0 0.359375 0.015625q0.171875 0 0.34375 0q0.5780945 0.015625 1.3905945 0.046875q0.796875 0.015625 1.7187195 0.046875q0.921875 0.03125 1.84375 0.046875q0.9218445 0.015625 1.7343445 0.03125q0.359375 0.015625 0.71875 0.03125q0.34375 0 0.6405945 0.03125q-0.015472412 -0.296875 -0.030975342 -0.59375q-0.015472412 -0.296875 -0.030944824 -0.609375l0.703125 0l-0.0014648438 3.0625l-0.53125 0q-0.015380859 -0.5 -0.2027893 -0.71875q-0.20300293 -0.234375 -0.5310974 -0.296875q-0.34371948 -0.078125 -0.7343445 -0.09375l-7.2967224 -0.296875q-0.3125 -0.015625 -0.625 -0.015625q-0.328125 -0.015625 -0.6405945 -0.03125q0.015472412 0.28125 0.030975342 0.578125q-1.5258789E-4 0.28125 0.015350342 0.5625l-0.6875 0l0.001159668 -2.4375l6.3606873 -2.75q0.46884155 -0.21875 0.9533081 -0.40625q0.48446655 -0.203125 0.9689636 -0.421875q0.46884155 -0.21875 0.9689331 -0.421875l3.0517578E-5 -0.03125q-0.43740845 -0.171875 -1.0310669 -0.40625q-0.5936279 -0.25 -1.0310364 -0.40625q-1.7652893 -0.71875 -3.530548 -1.46875q-1.7652893 -0.765625 -3.655548 -1.5l0.0011291504 -2.359375l0.53125 0q-0.015808105 0.390625 0.15594482 0.65625q0.15612793 0.25 0.5466919 0.359375q0.39056396 0.109375 1.0468445 0.078125l7.281433 -0.40625q0.26565552 -0.03125 0.5312805 -0.03125q0.25 0 0.453125 0q-0.01550293 -0.296875 -0.015350342 -0.59375q-0.01550293 -0.296875 -0.030975342 -0.578125l0.703125 0l-0.0017089844 3.578125l-0.53125 0q-0.015380859 -0.5 -0.2340393 -0.734375q-0.21862793 -0.234375 -0.6404724 -0.28125q-0.42184448 -0.0625 -1.03125 -0.03125l-5.2814026 0.3125q-0.25 0.015625 -0.5 0.03125q-0.265625 0.015625 -0.5156555 0.03125q-0.25 0.015625 -0.515625 0.03125q0.10934448 0.046875 0.24993896 0.109375q0.125 0.046875 0.26559448 0.109375l8.8888855 3.59375l-2.1362305E-4 0.484375zm0.09957886 -12.24791q-5.187988E-4 1.109375 -0.51657104 2.0q-0.51605225 0.875 -1.4694214 1.390625q-0.95336914 0.515625 -2.2502441 0.515625q-1.125 0 -2.0935059 -0.5q-0.98413086 -0.515625 -1.5774536 -1.421875q-0.59332275 -0.90625 -0.5927429 -2.109375q3.3569336E-4 -0.671875 0.21936035 -1.25q0.20339966 -0.59375 0.6567383 -1.03125q0.43771362 -0.453125 1.1097107 -0.703125q0.6563721 -0.265625 1.5469971 -0.265625l0.09106445 5.640625q1.21875 0 2.140747 -0.265625q0.9219971 -0.265625 1.4222717 -0.859375q0.5003052 -0.59375 0.5007324 -1.515625q2.4414062E-4 -0.5 -0.17138672 -1.015625q-0.17163086 -0.53125 -0.46829224 -0.96875q-0.31228638 -0.453125 -0.6871643 -0.71875l0.3283081 -0.390625q0.6716614 0.4375 1.0776367 1.046875q0.39035034 0.59375 0.56192017 1.234375q0.17156982 0.640625 0.17129517 1.1875zm-5.5479126 2.203125l0.0019226074 -4.078125q-0.578125 0 -1.109436 0.171875q-0.53134155 0.171875 -0.87527466 0.5625q-0.3439331 0.375 -0.34423828 1.0q-4.272461E-4 0.921875 0.5461426 1.546875q0.54660034 0.609375 1.7808838 0.796875zm5.5515747 -9.903763q-1.5258789E-4 0.375 -0.10974121 0.765625q-0.09390259 0.375 -0.3909607 0.703125q-0.3126526 0.328125 -0.89086914 0.53125q-0.59384155 0.1875 -1.5469666 0.1875l-4.6405945 -0.03125l0.015045166 1.21875l-0.6875 0q-0.0154418945 -0.40625 -0.31210327 -0.828125q-0.2966919 -0.4375 -0.7965088 -0.78125q-0.5154724 -0.34375 -1.1247864 -0.484375l2.746582E-4 -0.53125l2.234375 0l0.0012817383 -2.6875l0.625 0l0.029968262 2.6875l4.4530945 0.03125q0.71875 0 1.218811 -0.125q0.50006104 -0.125 0.7658081 -0.390625q0.2501526 -0.28125 0.2503357 -0.703125q2.1362305E-4 -0.453125 -0.24960327 -0.84375q-0.26541138 -0.390625 -0.7027893 -0.703125l0.34396362 -0.421875q0.5310974 0.34375 0.8434143 0.6875q0.2967224 0.34375 0.43719482 0.671875q0.15609741 0.3125 0.18719482 0.59375q0.04675293 0.265625 0.046661377 0.453125zm-0.24615479 -8.035767q-0.26565552 0.046875 -0.46878052 0.0625q-0.21875 0.015625 -0.43753052 0.046875q0.53100586 0.546875 0.8432007 1.1875q0.31219482 0.625 0.31185913 1.328125q-5.79834E-4 1.203125 -0.5477295 1.796875q-0.54714966 0.59375 -1.3440247 0.59375q-0.75 0 -1.2810364 -0.453125q-0.5310364 -0.453125 -0.8744507 -1.171875q-0.3434143 -0.734375 -0.51486206 -1.59375q-0.17147827 -0.859375 -0.15545654 -1.65625l-0.984375 0q-0.5625 0 -1.062561 0.09375q-0.5000305 0.09375 -0.8126831 0.421875q-0.3126526 0.3125 -0.32861328 1.015625q-0.03149414 0.46875 0.17141724 0.953125q0.18725586 0.484375 0.6559143 0.71875q0.12506104 -0.140625 0.29693604 -0.171875q0.15628052 -0.046875 0.31253052 -0.046875q0.1875 0 0.43740845 0.171875q0.24993896 0.15625 0.23413086 0.546875q-1.8310547E-4 0.34375 -0.23461914 0.515625q-0.23446655 0.171875 -0.56259155 0.171875q-0.53125 0 -0.9685669 -0.40625q-0.43728638 -0.40625 -0.6869507 -1.125q-0.2496643 -0.71875 -0.24923706 -1.625q6.4086914E-4 -1.34375 0.71969604 -1.984375q0.7034302 -0.640625 2.2346802 -0.625q0.59375 0 1.203125 0q0.59375 0 1.203125 0.015625q0.59375 0 1.1875 0q0.265625 0 0.53125 0.015625q0.24996948 0.015625 0.5624695 0.046875q-0.015472412 -0.296875 -0.030975342 -0.5625q-0.01550293 -0.28125 -0.030975342 -0.578125l0.671875 0l-0.0010986328 2.296875zm-3.921936 0.140625q0.015350342 0.546875 0.14007568 1.140625q0.12472534 0.59375 0.3588562 1.109375q0.23413086 0.5 0.6246033 0.8125q0.3904724 0.3125 0.9529724 0.296875q0.5937805 -0.03125 0.8908081 -0.390625q0.2970581 -0.359375 0.29730225 -0.859375q3.0517578E-4 -0.65625 -0.24945068 -1.140625q-0.24978638 -0.484375 -0.68704224 -0.96875q-0.18753052 0.015625 -0.39065552 0.015625q-0.203125 0 -0.4375 0q-0.078125 0 -0.5 0q-0.43746948 -0.015625 -0.9999695 -0.015625zm3.439087 -3.381012q2.4414062E-4 -0.5 -0.2340393 -0.6875q-0.24990845 -0.1875 -0.6873779 -0.21875q-0.453125 -0.03125 -1.03125 -0.03125l-7.5625 0q-0.25 0 -0.484375 0q-0.234375 -0.015625 -0.5624695 -0.046875q0.015472412 0.28125 0.04660034 0.5625q0.01550293 0.28125 0.030975342 0.5625l-0.671875 0q3.3569336E-4 -0.703125 -0.0619812 -1.09375q-0.077941895 -0.390625 -0.17160034 -0.578125q-0.09362793 -0.203125 -0.20297241 -0.328125l2.4414062E-4 -0.453125l10.375 -0.015625q0.328125 0 0.578125 0.015625q0.24996948 0.015625 0.5155945 0.0625q-0.01550293 -0.265625 -0.015411377 -0.5q-0.01550293 -0.25 -0.03100586 -0.515625l0.65625 0l-0.0015563965 3.265625l-0.484375 0z" fill-rule="nonzero"/><path fill="#f9cb9c" d="m366.92303 140.64455l58.367188 0l0 162.20473l-58.367188 0z" fill-rule="evenodd"/><path stroke="#ffffff" stroke-width="1.0" stroke-linejoin="round" stroke-linecap="butt" d="m366.92303 140.64455l58.367188 0l0 162.20473l-58.367188 0z" fill-rule="evenodd"/><path fill="#000000" fill-opacity="0.0" d="m370.86002 262.73904l0.0390625 -81.98427l41.997803 0l-0.0390625 81.98427z" fill-rule="evenodd"/><path fill="#000000" d="m398.09402 226.79756q-2.1362305E-4 0.4375 -0.3441162 0.765625q-0.3439331 0.328125 -0.8439331 0.328125q-0.515625 0 -0.8591919 -0.328125q-0.3592224 -0.34375 -0.3590088 -0.78125q2.1362305E-4 -0.46875 0.3597412 -0.765625q0.3439026 -0.3125 0.8595276 -0.3125q0.5 0 0.8435669 0.34375q0.3435974 0.328125 0.3434143 0.75zm0.002380371 -5.03125q-2.1362305E-4 0.4375 -0.3441162 0.765625q-0.3439026 0.328125 -0.8439026 0.328125q-0.515625 0 -0.8592224 -0.328125q-0.3591919 -0.34375 -0.3590088 -0.78125q2.4414062E-4 -0.46875 0.3597412 -0.765625q0.3439026 -0.3125 0.8595276 -0.3125q0.5 0 0.8435974 0.34375q0.3435974 0.328125 0.3433838 0.75zm0.0024108887 -5.0468597q-2.1362305E-4 0.4375 -0.3441162 0.765625q-0.3439026 0.328125 -0.8439026 0.328125q-0.515625 0 -0.8592224 -0.328125q-0.3592224 -0.34375 -0.3590088 -0.78125q2.4414062E-4 -0.46875 0.3597412 -0.765625q0.3439026 -0.3125 0.8595276 -0.3125q0.5 0 0.8435974 0.34375q0.3435974 0.328125 0.3433838 0.75z" fill-rule="nonzero"/><path fill="#6d9eeb" d="m425.3 98.18785l58.367157 0l0 204.66142l-58.367157 0z" fill-rule="evenodd"/><path stroke="#ffffff" stroke-width="1.0" stroke-linejoin="round" stroke-linecap="butt" d="m425.3 98.18785l58.367157 0l0 204.66142l-58.367157 0z" fill-rule="evenodd"/><path fill="#000000" fill-opacity="0.0" d="m433.75757 245.8309l0.0390625 -100.81889l38.79425 0l-0.0390625 100.81889z" fill-rule="evenodd"/><path fill="#000000" d="m458.2839 219.76926l-8.517029 3.640625q-0.8126221 0.34375 -1.3126831 0.5q-0.50006104 0.140625 -0.85946655 0.1875q0.015563965 0.21875 0.015472412 0.453125q-9.1552734E-5 0.21875 0.0154418945 0.4375l-0.703125 0l0.0014343262 -3.703125l0.546875 0.015625q0.046569824 0.796875 0.4840088 0.953125q0.43743896 0.15625 1.250061 -0.15625q0.9376526 -0.390625 1.8283997 -0.734375q0.8751526 -0.359375 1.8909302 -0.796875q0.9064026 -0.375 1.7346802 -0.734375q0.8126221 -0.359375 1.3595886 -0.546875l0 -0.046875q-0.56243896 -0.171875 -1.0779724 -0.34375q-0.51556396 -0.1875 -1.2185974 -0.453125q-1.3435669 -0.46875 -2.2653198 -0.796875q-0.9217224 -0.328125 -1.5778809 -0.5625q-0.65615845 -0.25 -1.1248474 -0.40625q-0.42181396 -0.15625 -0.70303345 -0.265625q-0.29684448 -0.109375 -0.48428345 -0.203125q0.01550293 0.296875 0.03100586 0.609375q0.01550293 0.296875 0.03100586 0.625l-0.703125 0l0.0012512207 -3.25l0.53125 0q0.030975342 0.703125 0.37460327 1.078125q0.3279724 0.375 1.1872253 0.6875q0.07809448 0.03125 0.21871948 0.078125q0.14059448 0.046875 0.45306396 0.15625q0.29681396 0.109375 0.8905029 0.328125q0.57803345 0.203125 1.5779114 0.5625q0.9842224 0.359375 2.4840088 0.90625q1.4997864 0.546875 3.6401062 1.34375l-1.8310547E-4 0.4375zm0.0047302246 -12.198029q-1.5940247 0.703125 -3.1880493 1.421875q-1.5940247 0.71875 -3.2192993 1.40625q-0.51568604 0.21875 -1.0314026 0.4375q-0.53134155 0.21875 -1.0470581 0.421875q-0.53131104 0.1875 -1.0626526 0.40625q0.171875 0 0.359375 0.015625q0.171875 0 0.34375 0q0.578125 0.015625 1.390625 0.046875q0.7968445 0.015625 1.7187195 0.046875q0.921875 0.03125 1.8437195 0.046875q0.921875 0.015625 1.734375 0.03125q0.359375 0.015625 0.71875 0.03125q0.34375 0 0.6405945 0.03125q-0.01550293 -0.296875 -0.03100586 -0.59375q-0.015533447 -0.296875 -0.031036377 -0.609375l0.703125 0l-0.001159668 3.0625l-0.53125 0q-0.0154418945 -0.5 -0.20285034 -0.71875q-0.20303345 -0.234375 -0.53115845 -0.296875q-0.34371948 -0.078125 -0.73431396 -0.09375l-7.2967834 -0.296875q-0.31246948 -0.015625 -0.6249695 -0.015625q-0.328125 -0.015625 -0.640625 -0.03125q0.01550293 0.28125 0.031036377 0.578125q-1.2207031E-4 0.28125 0.015380859 0.5625l-0.6875 0l9.460449E-4 -2.4375l6.360443 -2.75q0.46884155 -0.21875 0.9533081 -0.40625q0.48443604 -0.203125 0.9689026 -0.421875q0.46884155 -0.21875 0.9689026 -0.421875l3.0517578E-5 -0.03125q-0.43743896 -0.171875 -1.0310974 -0.40625q-0.59365845 -0.25 -1.0310974 -0.40625q-1.7653503 -0.71875 -3.5306702 -1.46875q-1.7653503 -0.765625 -3.6556702 -1.4999847l9.1552734E-4 -2.359375l0.53125 0q-0.015777588 0.390625 0.15597534 0.65625q0.15615845 0.25 0.5467529 0.359375q0.39056396 0.109375 1.0468445 0.078125l7.2814026 -0.40625q0.265625 -0.03125 0.53125 -0.03125q0.25 0 0.453125 0q-0.01550293 -0.296875 -0.015380859 -0.59375q-0.01550293 -0.296875 -0.031036377 -0.578125l0.703125 0l-0.001373291 3.5781097l-0.53125 0q-0.0154418945 -0.49998474 -0.23410034 -0.73435974q-0.21865845 -0.234375 -0.6405029 -0.28125q-0.421875 -0.0625 -1.03125 -0.03125l-5.281372 0.3125q-0.25 0.015625 -0.5 0.03125q-0.26565552 0.015625 -0.5156555 0.03125q-0.25 0.015625 -0.515625 0.03125q0.10934448 0.046875 0.24993896 0.109375q0.125 0.046875 0.26559448 0.109375l8.889221 3.5937347l-1.8310547E-4 0.484375zm0.10089111 -18.427277q-5.79834E-4 1.53125 -0.5010071 2.625q-0.51605225 1.078125 -1.3756714 1.765625q-0.85964966 0.671875 -1.8910217 1.0q-1.0469971 0.3125 -2.078247 0.3125q-1.015625 0 -2.046753 -0.328125q-1.0311279 -0.34375 -1.8902283 -1.03125q-0.87472534 -0.703125 -1.3899536 -1.75q-0.53082275 -1.046875 -0.53030396 -2.453125q5.79834E-4 -1.484375 0.5322571 -2.546875q0.51605225 -1.078125 1.3912964 -1.765625q0.87527466 -0.703125 1.9066772 -1.046875q1.0157471 -0.34375 2.031372 -0.34375q0.984375 0 2.015503 0.34375q1.0310974 0.328125 1.9058228 1.03125q0.87475586 0.6875 1.4055786 1.734375q0.5152283 1.03125 0.51467896 2.453125zm-0.6562195 -0.03125q3.6621094E-4 -0.984375 -0.4212036 -1.71875q-0.42160034 -0.734375 -1.1245422 -1.21875q-0.7185669 -0.5 -1.5934448 -0.75q-0.87490845 -0.25 -1.7499084 -0.25q-0.984375 0 -1.9532471 0.28125q-0.98446655 0.265625 -1.7815552 0.796875q-0.8127136 0.53125 -1.2973938 1.3125q-0.48464966 0.765625 -0.4850464 1.765625q-3.9672852E-4 0.984375 0.4368286 1.734375q0.42160034 0.734375 1.1401367 1.234375q0.7029419 0.484375 1.5778503 0.734375q0.87490845 0.25 1.7655334 0.25q0.875 0 1.8438416 -0.25q0.95321655 -0.25 1.7971802 -0.765625q0.8283081 -0.515625 1.3442383 -1.296875q0.5003052 -0.78125 0.5007324 -1.859375zm4.4869995 -6.7977753l-0.484375 0q1.8310547E-4 -0.5 -0.24972534 -0.6875q-0.23431396 -0.1875 -0.68740845 -0.21875q-0.4375 -0.03125 -1.015625 -0.03125l-7.71875 -0.03125q-0.265625 0 -0.515625 0q-0.25 -0.015625 -0.5312195 -0.0625q0.015533447 0.28125 0.031036377 0.5625q0.01550293 0.28125 0.031036377 0.5625l-0.671875 0q2.746582E-4 -0.703125 -0.06210327 -1.0625q-0.062347412 -0.359375 -0.15603638 -0.515625q-0.093688965 -0.171875 -0.20300293 -0.296875l1.8310547E-4 -0.46875q0.15625 -0.015625 0.375 -0.03125q0.21875 -0.015625 0.484375 -0.03125q-0.43728638 -0.484375 -0.68704224 -1.140625q-0.26538086 -0.671875 -0.2651062 -1.34375q3.6621094E-4 -0.921875 0.4850464 -1.71875q0.46905518 -0.8125 1.3598633 -1.296875q0.8908386 -0.5 2.1252136 -0.5q1.359375 0 2.3903809 0.5625q1.0154114 0.5625 1.5775452 1.5q0.5621643 0.921875 0.56173706 2.015625q-2.1362305E-4 0.5625 -0.14102173 1.03125q-0.1251831 0.46875 -0.3753662 0.890625l2.65625 0q0.3125 0 0.5625 0.015625q0.25 0 0.515625 0.046875q-0.015533447 -0.265625 -0.031066895 -0.5q9.1552734E-5 -0.25 -0.0154418945 -0.515625l0.65625 0l-0.0012512207 3.265625zm-4.4671326 -4.203125q3.0517578E-4 -0.765625 -0.4682312 -1.3125q-0.46853638 -0.5625 -1.2809143 -0.859375q-0.8280029 -0.296875 -1.8905029 -0.296875q-0.859375 0 -1.6563416 0.25q-0.7969971 0.25 -1.2815857 0.796875q-0.5001831 0.53125 -0.5005188 1.40625q-2.1362305E-4 0.546875 0.26519775 1.046875q0.2654419 0.5 0.6246948 0.84375q0.0625 0 0.1875 0q0.125 -0.015625 0.421875 -0.015625q0.28125 0 0.875 0q0.578125 0 1.578125 0.015625q0.984375 0 2.5 0q0.3126526 -0.40625 0.4690857 -0.875q0.1564331 -0.46875 0.15661621 -1.0zm0.64404297 -8.770767q-3.0517578E-4 0.796875 -0.21929932 1.421875q-0.20336914 0.625 -0.48477173 1.03125l0.5625 -0.0625l-2.4414062E-4 0.671875l-2.7500305 0.09375l1.8310547E-4 -0.5q0.65625 -0.03125 1.1876526 -0.359375q0.5157471 -0.34375 0.7972107 -0.875q0.2814331 -0.53125 0.28167725 -1.140625q1.5258789E-4 -0.40625 -0.124694824 -0.796875q-0.14047241 -0.40625 -0.42160034 -0.671875q-0.28115845 -0.28125 -0.70303345 -0.28125q-0.453125 0 -0.75009155 0.265625q-0.29696655 0.265625 -0.51589966 0.703125q-0.23452759 0.421875 -0.4222412 0.921875q-0.1876831 0.46875 -0.3909912 0.953125q-0.2189331 0.484375 -0.5003357 0.890625q-0.2970276 0.40625 -0.70336914 0.65625q-0.42196655 0.234375 -1.0313416 0.234375q-0.328125 0 -0.7343445 -0.125q-0.40618896 -0.140625 -0.7654419 -0.4375q-0.35925293 -0.3125 -0.5778198 -0.828125q-0.23416138 -0.53125 -0.2338562 -1.34375q1.8310547E-4 -0.4375 0.14102173 -0.96875q0.1408081 -0.53125 0.5472717 -1.015625l-0.6094055 0.03125l2.746582E-4 -0.671875l2.796875 0l-2.1362305E-4 0.5q-0.5625 0.046875 -1.0782166 0.265625q-0.51571655 0.21875 -0.85961914 0.65625q-0.3439331 0.421875 -0.34420776 1.125q-2.746582E-4 0.734375 0.37457275 1.15625q0.3592224 0.40625 0.8279724 0.40625q0.5 0 0.8282471 -0.3125q0.32821655 -0.3125 0.5784302 -0.8125q0.2345581 -0.5 0.45352173 -1.046875q0.25024414 -0.609375 0.56295776 -1.1875q0.29711914 -0.578125 0.7659912 -0.9375q0.4532776 -0.375 1.1720276 -0.375q0.796875 0 1.3279724 0.40625q0.5310974 0.40625 0.76519775 1.046875q0.24975586 0.625 0.24951172 1.3125z" fill-rule="nonzero"/><path fill="#000000" fill-opacity="0.0" d="m-1.1312336 98.698166l88.72441 0l0 40.755905l-88.72441 0z" fill-rule="evenodd"/><path fill="#666666" d="m26.615166 116.094864q-1.265625 0 -2.171875 -0.421875q-0.90625 -0.4375 -1.484375 -1.140625q-0.5625 -0.71875 -0.828125 -1.578125q-0.265625 -0.875 -0.265625 -1.75q0 -0.828125 0.28125 -1.6875q0.28125 -0.859375 0.859375 -1.578125q0.578125 -0.71875 1.453125 -1.15625q0.875 -0.453125 2.046875 -0.453125q1.234375 0 2.125 0.453125q0.890625 0.4375 1.46875 1.171875q0.578125 0.71875 0.859375 1.578125q0.296875 0.84375 0.296875 1.671875q0 0.828125 -0.28125 1.6875q-0.28125 0.859375 -0.859375 1.59375q-0.578125 0.71875 -1.453125 1.171875q-0.859375 0.4375 -2.046875 0.4375zm0.03125 -0.546875q0.8125 0 1.421875 -0.359375q0.625 -0.359375 1.03125 -0.9375q0.40625 -0.59375 0.609375 -1.3125q0.203125 -0.734375 0.203125 -1.46875q0 -0.828125 -0.234375 -1.640625q-0.21875 -0.8125 -0.65625 -1.484375q-0.4375 -0.671875 -1.09375 -1.078125q-0.640625 -0.40625 -1.453125 -0.40625q-0.828125 0 -1.453125 0.359375q-0.625 0.359375 -1.03125 0.953125q-0.40625 0.59375 -0.609375 1.328125q-0.203125 0.71875 -0.203125 1.46875q0 0.734375 0.203125 1.53125q0.203125 0.796875 0.625 1.5q0.4375 0.6875 1.078125 1.125q0.65625 0.421875 1.5625 0.421875zm5.660614 3.734375l0 -0.40625q0.40625 0 0.5625 -0.21875q0.171875 -0.203125 0.1875 -0.5625q0.03125 -0.359375 0.03125 -0.84375l0.03125 -6.4375q0 -0.21875 0 -0.421875q0.015625 -0.21875 0.046875 -0.453125q-0.234375 0.015625 -0.46875 0.03125q-0.234375 0.015625 -0.46875 0.03125l0 -0.5625q0.578125 0 0.875 -0.046875q0.3125 -0.0625 0.453125 -0.140625q0.140625 -0.078125 0.234375 -0.171875l0.390625 0q0.015625 0.140625 0.03125 0.328125q0.015625 0.171875 0.03125 0.390625q0.390625 -0.359375 0.9375 -0.578125q0.5625 -0.21875 1.125 -0.21875q0.765625 0 1.4375 0.40625q0.671875 0.390625 1.078125 1.140625q0.40625 0.734375 0.40625 1.75q0 1.140625 -0.46875 2.0q-0.46875 0.84375 -1.25 1.328125q-0.765625 0.46875 -1.671875 0.46875q-0.46875 0 -0.859375 -0.125q-0.390625 -0.109375 -0.734375 -0.328125l0 2.21875q0 0.265625 -0.015625 0.46875q0 0.21875 -0.046875 0.4375q0.21875 -0.015625 0.421875 -0.03125q0.203125 0 0.421875 0l0 0.546875l-2.71875 0zm3.5 -3.71875q0.640625 0 1.09375 -0.390625q0.46875 -0.40625 0.71875 -1.09375q0.25 -0.6875 0.25 -1.5625q0 -0.71875 -0.21875 -1.375q-0.203125 -0.65625 -0.65625 -1.0625q-0.4375 -0.421875 -1.171875 -0.421875q-0.453125 0 -0.875 0.21875q-0.421875 0.21875 -0.703125 0.515625q0 0.0625 0 0.171875q0.015625 0.09375 0.015625 0.34375q0 0.234375 0 0.71875q0 0.484375 -0.015625 1.3125q0 0.828125 0 2.09375q0.34375 0.25 0.734375 0.390625q0.390625 0.140625 0.828125 0.140625zm7.0818634 0.53125q-0.3125 0 -0.640625 -0.09375q-0.3125 -0.078125 -0.59375 -0.328125q-0.265625 -0.265625 -0.421875 -0.75q-0.15625 -0.484375 -0.15625 -1.28125l0.03125 -3.875l-1.03125 0.015625l0 -0.5625q0.34375 -0.015625 0.703125 -0.265625q0.359375 -0.25 0.640625 -0.671875q0.296875 -0.4375 0.40625 -0.9375l0.453125 0l0 1.875l2.234375 0l0 0.515625l-2.234375 0.015625l-0.03125 3.71875q0 0.59375 0.09375 1.015625q0.109375 0.421875 0.328125 0.640625q0.234375 0.203125 0.59375 0.203125q0.375 0 0.6875 -0.203125q0.328125 -0.21875 0.59375 -0.59375l0.359375 0.296875q-0.296875 0.4375 -0.59375 0.6875q-0.28125 0.25 -0.546875 0.375q-0.265625 0.125 -0.5 0.15625q-0.21875 0.046875 -0.375 0.046875zm2.657959 -0.625q0.40625 0 0.5625 -0.203125q0.15625 -0.203125 0.1875 -0.5625q0.03125 -0.375 0.03125 -0.859375l0 -3.03125q0 -0.21875 0.015625 -0.40625q0.015625 -0.203125 0.03125 -0.46875q-0.234375 0.015625 -0.46875 0.03125q-0.234375 0.015625 -0.46875 0.03125l0 -0.5625q0.578125 0 0.890625 -0.046875q0.328125 -0.0625 0.5 -0.140625q0.171875 -0.078125 0.25 -0.171875l0.390625 0l0 5.390625q0 0.265625 -0.015625 0.46875q0 0.203125 -0.03125 0.4375q0.203125 -0.015625 0.40625 -0.015625q0.21875 -0.015625 0.4375 -0.03125l0 0.546875l-2.71875 0l0 -0.40625zm1.265625 -7.703125q-0.265625 0 -0.484375 -0.21875q-0.21875 -0.234375 -0.21875 -0.578125q0 -0.328125 0.21875 -0.5625q0.21875 -0.234375 0.5 -0.234375q0.3125 0 0.515625 0.234375q0.203125 0.234375 0.203125 0.5625q0 0.34375 -0.21875 0.578125q-0.21875 0.21875 -0.515625 0.21875zm5.7764435 8.328125q-0.9375 0 -1.703125 -0.4375q-0.75 -0.4375 -1.203125 -1.203125q-0.4375 -0.765625 -0.4375 -1.75q0 -1.046875 0.4375 -1.890625q0.4375 -0.84375 1.203125 -1.328125q0.765625 -0.484375 1.703125 -0.484375q0.9375 0 1.6875 0.453125q0.765625 0.4375 1.21875 1.203125q0.453125 0.75 0.453125 1.734375q0 1.015625 -0.453125 1.875q-0.4375 0.84375 -1.203125 1.34375q-0.75 0.484375 -1.703125 0.484375zm0.109375 -0.53125q0.703125 0 1.109375 -0.40625q0.421875 -0.40625 0.59375 -1.046875q0.1875 -0.640625 0.1875 -1.34375q0 -0.59375 -0.109375 -1.171875q-0.109375 -0.578125 -0.359375 -1.046875q-0.234375 -0.484375 -0.625 -0.765625q-0.375 -0.28125 -0.90625 -0.28125q-0.6875 0 -1.140625 0.40625q-0.4375 0.390625 -0.640625 1.03125q-0.203125 0.640625 -0.203125 1.375q0 0.828125 0.21875 1.578125q0.234375 0.734375 0.703125 1.203125q0.46875 0.46875 1.171875 0.46875zm4.390671 0.3125l0 -0.40625q0.40625 0 0.5625 -0.203125q0.15625 -0.203125 0.1875 -0.5625q0.03125 -0.375 0.03125 -0.859375l0.015625 -3.03125q0 -0.21875 0 -0.421875q0.015625 -0.21875 0.046875 -0.453125q-0.234375 0.015625 -0.46875 0.03125q-0.234375 0.015625 -0.46875 0.03125l0 -0.5625q0.578125 0 0.875 -0.046875q0.296875 -0.0625 0.4375 -0.140625q0.15625 -0.078125 0.25 -0.171875l0.390625 0q0.015625 0.09375 0.015625 0.21875q0.015625 0.109375 0.015625 0.265625q0.015625 0.140625 0.015625 0.328125q0.296875 -0.25 0.640625 -0.453125q0.359375 -0.203125 0.75 -0.3125q0.40625 -0.125 0.78125 -0.125q1.171875 0 1.703125 0.734375q0.53125 0.71875 0.53125 2.25l0 2.484375q0 0.265625 -0.015625 0.46875q0 0.203125 -0.046875 0.4375q0.21875 -0.015625 0.421875 -0.015625q0.21875 -0.015625 0.421875 -0.03125l0 0.546875l-2.71875 0l0 -0.40625q0.421875 0 0.578125 -0.203125q0.15625 -0.203125 0.171875 -0.5625q0.03125 -0.375 0.03125 -0.859375l0 -1.859375q0 -1.140625 -0.375 -1.71875q-0.359375 -0.59375 -1.15625 -0.59375q-0.46875 0.015625 -0.9375 0.265625q-0.453125 0.234375 -0.765625 0.609375q0.015625 0.109375 0.015625 0.25q0 0.125 0 0.265625l-0.015625 3.40625q0 0.265625 -0.015625 0.46875q0 0.203125 -0.03125 0.4375q0.203125 -0.015625 0.40625 -0.015625q0.21875 -0.015625 0.4375 -0.03125l0 0.546875l-2.71875 0zm12.137024 0q-0.046875 -0.234375 -0.0625 -0.40625q0 -0.171875 -0.03125 -0.359375q-0.453125 0.453125 -0.984375 0.71875q-0.53125 0.265625 -1.109375 0.265625q-1.015625 0 -1.515625 -0.453125q-0.484375 -0.46875 -0.484375 -1.140625q0 -0.609375 0.375 -1.046875q0.390625 -0.453125 0.984375 -0.734375q0.609375 -0.296875 1.328125 -0.4375q0.71875 -0.140625 1.375 -0.125l0 -0.828125q0 -0.46875 -0.078125 -0.875q-0.078125 -0.421875 -0.34375 -0.6875q-0.265625 -0.265625 -0.859375 -0.28125q-0.375 0 -0.78125 0.15625q-0.40625 0.15625 -0.59375 0.546875q0.09375 0.109375 0.125 0.25q0.046875 0.140625 0.046875 0.25q0 0.15625 -0.140625 0.375q-0.125 0.203125 -0.46875 0.1875q-0.28125 0 -0.421875 -0.1875q-0.140625 -0.203125 -0.140625 -0.46875q0 -0.453125 0.328125 -0.8125q0.34375 -0.359375 0.9375 -0.5625q0.609375 -0.21875 1.359375 -0.21875q1.125 0 1.65625 0.59375q0.53125 0.59375 0.53125 1.875q0 0.484375 0 0.984375q0 0.5 -0.015625 1.0q0 0.5 0 1.015625q0 0.203125 -0.015625 0.421875q-0.015625 0.21875 -0.046875 0.484375q0.25 -0.015625 0.46875 -0.03125q0.234375 -0.015625 0.484375 -0.03125l0 0.5625l-1.90625 0zm-0.125 -3.265625q-0.453125 0.015625 -0.953125 0.125q-0.5 0.09375 -0.921875 0.296875q-0.421875 0.1875 -0.6875 0.515625q-0.25 0.328125 -0.234375 0.796875q0.03125 0.484375 0.328125 0.734375q0.296875 0.25 0.71875 0.25q0.546875 0 0.953125 -0.203125q0.40625 -0.203125 0.796875 -0.578125q-0.015625 -0.15625 -0.015625 -0.328125q0 -0.171875 0 -0.359375q0 -0.0625 0 -0.421875q0.015625 -0.359375 0.015625 -0.828125zm2.8147888 2.859375q0.40625 0 0.5625 -0.203125q0.171875 -0.203125 0.1875 -0.5625q0.03125 -0.375 0.03125 -0.859375l0 -6.296875q0 -0.21875 0 -0.40625q0.015625 -0.203125 0.046875 -0.46875q-0.234375 0.015625 -0.46875 0.03125q-0.234375 0.015625 -0.484375 0.03125l0 -0.5625q0.59375 0 0.921875 -0.046875q0.328125 -0.0625 0.484375 -0.140625q0.171875 -0.078125 0.265625 -0.171875l0.390625 0l0.015625 8.65625q0 0.265625 -0.015625 0.46875q-0.015625 0.203125 -0.0625 0.4375q0.21875 -0.015625 0.421875 -0.015625q0.203125 -0.015625 0.421875 -0.03125l0 0.546875l-2.71875 0l0 -0.40625zm4.797119 2.796875l-0.359375 -0.265625q0.140625 -0.1875 0.296875 -0.546875q0.15625 -0.34375 0.25 -0.765625q0.109375 -0.40625 0.0625 -0.8125q-0.09375 0.046875 -0.171875 0.0625q-0.078125 0.015625 -0.15625 0.015625q-0.265625 0 -0.453125 -0.1875q-0.171875 -0.1875 -0.171875 -0.46875q0 -0.375 0.21875 -0.5625q0.21875 -0.203125 0.515625 -0.203125q0.46875 0 0.703125 0.359375q0.25 0.34375 0.25 0.84375q0 0.34375 -0.125 0.8125q-0.125 0.484375 -0.359375 0.9375q-0.21875 0.46875 -0.5 0.78125zm0.078125 -7.546875q-0.3125 0 -0.546875 -0.25q-0.21875 -0.25 -0.21875 -0.609375q0 -0.359375 0.234375 -0.609375q0.234375 -0.25 0.546875 -0.25q0.328125 0 0.546875 0.25q0.21875 0.25 0.21875 0.609375q0 0.359375 -0.234375 0.609375q-0.234375 0.25 -0.546875 0.25z" fill-rule="nonzero"/><path fill="#666666" d="m20.353249 128.42299q0 -0.578125 -0.171875 -0.828125q-0.15625 -0.265625 -0.5 -0.3125q-0.34375 -0.0625 -0.921875 -0.03125l-0.96875 0.046875l0 3.046875q0 0.359375 -0.015625 0.609375q0 0.25 -0.03125 0.421875l2.546875 -0.03125q0.59375 -0.015625 1.015625 -0.1875q0.421875 -0.1875 0.65625 -0.640625q0.25 -0.453125 0.25 -1.234375l0.453125 0l-0.078125 2.59375l-6.875 0l0 -0.4375q0.5 -0.03125 0.6875 -0.234375q0.1875 -0.203125 0.203125 -0.5625q0.03125 -0.375 0.03125 -0.84375l0 -5.765625q0 -0.265625 0 -0.5q0.015625 -0.25 0.03125 -0.453125q-0.234375 0.015625 -0.484375 0.03125q-0.234375 0.015625 -0.46875 0.015625l0 -0.578125l6.40625 0l0.0625 2.328125l-0.4375 0q0 -0.78125 -0.234375 -1.1875q-0.234375 -0.40625 -0.640625 -0.546875q-0.40625 -0.140625 -0.921875 -0.125l-1.140625 0.015625q-0.5 0.015625 -0.71875 0.1875q-0.203125 0.171875 -0.25 0.515625q-0.046875 0.34375 -0.046875 0.890625l0 2.125l2.5 0.015625l-0.09375 -1.140625l0.59375 0l0 2.796875l-0.4375 0zm4.5400696 3.671875q-0.3125 0 -0.546875 -0.25q-0.21875 -0.25 -0.21875 -0.609375q0 -0.359375 0.234375 -0.609375q0.234375 -0.25 0.546875 -0.25q0.328125 0 0.546875 0.25q0.21875 0.25 0.21875 0.609375q0 0.359375 -0.234375 0.609375q-0.234375 0.25 -0.546875 0.25zm5.450577 3.390625q-1.203125 0 -1.9375 -0.265625q-0.71875 -0.265625 -1.0625 -0.6875q-0.328125 -0.40625 -0.328125 -0.84375q0 -0.40625 0.1875 -0.734375q0.203125 -0.3125 0.484375 -0.546875q0.28125 -0.21875 0.546875 -0.3125q-0.421875 -0.15625 -0.671875 -0.390625q-0.25 -0.25 -0.25 -0.671875q0 -0.46875 0.375 -0.875q0.375 -0.40625 0.96875 -0.5q-0.609375 -0.28125 -0.984375 -0.796875q-0.359375 -0.53125 -0.359375 -1.21875q0 -0.796875 0.40625 -1.390625q0.421875 -0.59375 1.0625 -0.921875q0.640625 -0.328125 1.34375 -0.328125q0.4375 0 0.875 0.125q0.4375 0.125 0.8125 0.359375q0.125 -0.359375 0.375 -0.65625q0.25 -0.296875 0.5625 -0.453125q0.328125 -0.171875 0.671875 -0.171875q0.34375 0 0.515625 0.1875q0.1875 0.171875 0.1875 0.46875q0 0.09375 -0.046875 0.234375q-0.046875 0.125 -0.1875 0.21875q-0.125 0.09375 -0.328125 0.09375q-0.234375 0 -0.390625 -0.125q-0.140625 -0.140625 -0.171875 -0.34375q-0.328125 0.0625 -0.515625 0.328125q-0.1875 0.25 -0.265625 0.5625q0.328125 0.296875 0.515625 0.703125q0.203125 0.40625 0.203125 0.875q0 0.75 -0.40625 1.34375q-0.390625 0.578125 -1.03125 0.90625q-0.640625 0.328125 -1.375 0.328125q-0.265625 0 -0.453125 -0.03125q-0.171875 -0.03125 -0.453125 -0.03125q-0.484375 0 -0.796875 0.234375q-0.296875 0.234375 -0.203125 0.578125q0.09375 0.3125 0.640625 0.40625q0.546875 0.078125 1.46875 0.125q1.03125 0.03125 1.765625 0.234375q0.734375 0.203125 1.125 0.625q0.390625 0.421875 0.390625 1.140625q0 0.53125 -0.296875 0.953125q-0.28125 0.421875 -0.75 0.6875q-0.46875 0.28125 -1.046875 0.421875q-0.578125 0.15625 -1.171875 0.15625zm-0.015625 -0.515625q1.15625 0 1.78125 -0.4375q0.640625 -0.421875 0.640625 -0.984375q0 -0.5 -0.328125 -0.765625q-0.328125 -0.25 -0.90625 -0.359375q-0.578125 -0.09375 -1.3125 -0.109375q-0.359375 -0.015625 -0.71875 -0.03125q-0.34375 -0.015625 -0.65625 -0.078125q-0.359375 0.25 -0.5625 0.59375q-0.203125 0.34375 -0.203125 0.734375q0 0.65625 0.625 1.046875q0.625 0.390625 1.640625 0.390625zm-0.171875 -5.46875q0.5 0 0.828125 -0.234375q0.328125 -0.25 0.484375 -0.65625q0.171875 -0.40625 0.171875 -0.9375q0 -0.578125 -0.171875 -1.078125q-0.171875 -0.515625 -0.515625 -0.8125q-0.34375 -0.3125 -0.859375 -0.3125q-0.71875 0 -1.109375 0.546875q-0.390625 0.53125 -0.390625 1.328125q0 0.640625 0.171875 1.125q0.1875 0.484375 0.546875 0.765625q0.359375 0.265625 0.84375 0.265625zm5.3860474 2.59375q-0.3125 0 -0.546875 -0.25q-0.21875 -0.25 -0.21875 -0.609375q0 -0.359375 0.234375 -0.609375q0.234375 -0.25 0.546875 -0.25q0.328125 0 0.546875 0.25q0.21875 0.25 0.21875 0.609375q0 0.359375 -0.234375 0.609375q-0.234375 0.25 -0.546875 0.25zm3.2318268 2.171875l-0.359375 -0.265625q0.140625 -0.1875 0.296875 -0.546875q0.15625 -0.34375 0.25 -0.765625q0.109375 -0.40625 0.0625 -0.8125q-0.09375 0.046875 -0.171875 0.0625q-0.078125 0.015625 -0.15625 0.015625q-0.265625 0 -0.453125 -0.1875q-0.171875 -0.1875 -0.171875 -0.46875q0 -0.375 0.21875 -0.5625q0.21875 -0.203125 0.515625 -0.203125q0.46875 0 0.703125 0.359375q0.25 0.34375 0.25 0.84375q0 0.34375 -0.125 0.8125q-0.125 0.484375 -0.359375 0.9375q-0.21875 0.46875 -0.5 0.78125zm5.892914 -2.796875q0.40625 0 0.5625 -0.203125q0.15625 -0.203125 0.1875 -0.5625q0.03125 -0.375 0.03125 -0.859375l0 -3.03125q0 -0.21875 0.015625 -0.40625q0.015625 -0.203125 0.03125 -0.46875q-0.234375 0.015625 -0.46875 0.03125q-0.234375 0.015625 -0.46875 0.03125l0 -0.5625q0.578125 0 0.890625 -0.046875q0.328125 -0.0625 0.5 -0.140625q0.171875 -0.078125 0.25 -0.171875l0.390625 0l0 5.390625q0 0.265625 -0.015625 0.46875q0 0.203125 -0.03125 0.4375q0.203125 -0.015625 0.40625 -0.015625q0.21875 -0.015625 0.4375 -0.03125l0 0.546875l-2.71875 0l0 -0.40625zm1.265625 -7.703125q-0.265625 0 -0.484375 -0.21875q-0.21875 -0.234375 -0.21875 -0.578125q0 -0.328125 0.21875 -0.5625q0.21875 -0.234375 0.5 -0.234375q0.3125 0 0.515625 0.234375q0.203125 0.234375 0.203125 0.5625q0 0.34375 -0.21875 0.578125q-0.21875 0.21875 -0.515625 0.21875zm2.4795685 8.109375l0 -0.40625q0.40625 0 0.5625 -0.203125q0.15625 -0.203125 0.1875 -0.5625q0.03125 -0.375 0.03125 -0.859375l0.015625 -3.03125q0 -0.21875 0 -0.421875q0.015625 -0.21875 0.046875 -0.453125q-0.234375 0.015625 -0.46875 0.03125q-0.234375 0.015625 -0.46875 0.03125l0 -0.5625q0.578125 0 0.875 -0.046875q0.296875 -0.0625 0.4375 -0.140625q0.15625 -0.078125 0.25 -0.171875l0.390625 0q0.015625 0.09375 0.015625 0.21875q0.015625 0.109375 0.015625 0.265625q0.015625 0.140625 0.015625 0.328125q0.296875 -0.25 0.640625 -0.453125q0.359375 -0.203125 0.75 -0.3125q0.40625 -0.125 0.78125 -0.125q1.171875 0 1.703125 0.734375q0.53125 0.71875 0.53125 2.25l0 2.484375q0 0.265625 -0.015625 0.46875q0 0.203125 -0.046875 0.4375q0.21875 -0.015625 0.421875 -0.015625q0.21875 -0.015625 0.421875 -0.03125l0 0.546875l-2.71875 0l0 -0.40625q0.421875 0 0.578125 -0.203125q0.15625 -0.203125 0.171875 -0.5625q0.03125 -0.375 0.03125 -0.859375l0 -1.859375q0 -1.140625 -0.375 -1.71875q-0.359375 -0.59375 -1.15625 -0.59375q-0.46875 0.015625 -0.9375 0.265625q-0.453125 0.234375 -0.765625 0.609375q0.015625 0.109375 0.015625 0.25q0 0.125 0 0.265625l-0.015625 3.40625q0 0.265625 -0.015625 0.46875q0 0.203125 -0.03125 0.4375q0.203125 -0.015625 0.40625 -0.015625q0.21875 -0.015625 0.4375 -0.03125l0 0.546875l-2.71875 0zm7.949524 -0.40625q0.40625 0 0.5625 -0.203125q0.171875 -0.203125 0.1875 -0.5625q0.03125 -0.375 0.03125 -0.859375l0 -6.296875q0 -0.21875 0 -0.40625q0.015625 -0.203125 0.046875 -0.46875q-0.234375 0.015625 -0.46875 0.03125q-0.234375 0.015625 -0.484375 0.03125l0 -0.5625q0.59375 0 0.921875 -0.046875q0.328125 -0.0625 0.484375 -0.140625q0.171875 -0.078125 0.265625 -0.171875l0.390625 0l0.015625 8.65625q0 0.265625 -0.015625 0.46875q-0.015625 0.203125 -0.0625 0.4375q0.21875 -0.015625 0.421875 -0.015625q0.203125 -0.015625 0.421875 -0.03125l0 0.546875l-2.71875 0l0 -0.40625zm3.7658691 0q0.40625 0 0.5625 -0.203125q0.15625 -0.203125 0.1875 -0.5625q0.03125 -0.375 0.03125 -0.859375l0 -3.03125q0 -0.21875 0.015625 -0.40625q0.015625 -0.203125 0.03125 -0.46875q-0.234375 0.015625 -0.46875 0.03125q-0.234375 0.015625 -0.46875 0.03125l0 -0.5625q0.578125 0 0.890625 -0.046875q0.328125 -0.0625 0.5 -0.140625q0.171875 -0.078125 0.25 -0.171875l0.390625 0l0 5.390625q0 0.265625 -0.015625 0.46875q0 0.203125 -0.03125 0.4375q0.203125 -0.015625 0.40625 -0.015625q0.21875 -0.015625 0.4375 -0.03125l0 0.546875l-2.71875 0l0 -0.40625zm1.265625 -7.703125q-0.265625 0 -0.484375 -0.21875q-0.21875 -0.234375 -0.21875 -0.578125q0 -0.328125 0.21875 -0.5625q0.21875 -0.234375 0.5 -0.234375q0.3125 0 0.515625 0.234375q0.203125 0.234375 0.203125 0.5625q0 0.34375 -0.21875 0.578125q-0.21875 0.21875 -0.515625 0.21875zm2.4795685 8.109375l0 -0.40625q0.40625 0 0.5625 -0.203125q0.15625 -0.203125 0.1875 -0.5625q0.03125 -0.375 0.03125 -0.859375l0.015625 -3.03125q0 -0.21875 0 -0.421875q0.015625 -0.21875 0.046875 -0.453125q-0.234375 0.015625 -0.46875 0.03125q-0.234375 0.015625 -0.46875 0.03125l0 -0.5625q0.578125 0 0.875 -0.046875q0.296875 -0.0625 0.4375 -0.140625q0.15625 -0.078125 0.25 -0.171875l0.390625 0q0.015625 0.09375 0.015625 0.21875q0.015625 0.109375 0.015625 0.265625q0.015625 0.140625 0.015625 0.328125q0.296875 -0.25 0.640625 -0.453125q0.359375 -0.203125 0.75 -0.3125q0.40625 -0.125 0.78125 -0.125q1.171875 0 1.703125 0.734375q0.53125 0.71875 0.53125 2.25l0 2.484375q0 0.265625 -0.015625 0.46875q0 0.203125 -0.046875 0.4375q0.21875 -0.015625 0.421875 -0.015625q0.21875 -0.015625 0.421875 -0.03125l0 0.546875l-2.71875 0l0 -0.40625q0.421875 0 0.578125 -0.203125q0.15625 -0.203125 0.171875 -0.5625q0.03125 -0.375 0.03125 -0.859375l0 -1.859375q0 -1.140625 -0.375 -1.71875q-0.359375 -0.59375 -1.15625 -0.59375q-0.46875 0.015625 -0.9375 0.265625q-0.453125 0.234375 -0.765625 0.609375q0.015625 0.109375 0.015625 0.25q0 0.125 0 0.265625l-0.015625 3.40625q0 0.265625 -0.015625 0.46875q0 0.203125 -0.03125 0.4375q0.203125 -0.015625 0.40625 -0.015625q0.21875 -0.015625 0.4375 -0.03125l0 0.546875l-2.71875 0zm11.308899 0.21875q-0.921875 0 -1.671875 -0.4375q-0.734375 -0.4375 -1.15625 -1.21875q-0.421875 -0.796875 -0.421875 -1.875q0 -0.9375 0.421875 -1.75q0.421875 -0.8125 1.171875 -1.3125q0.765625 -0.5 1.765625 -0.5q0.5625 0 1.046875 0.1875q0.484375 0.171875 0.859375 0.546875q0.375 0.359375 0.578125 0.921875q0.21875 0.546875 0.21875 1.28125l-4.6875 0.078125q0 1.015625 0.21875 1.78125q0.21875 0.765625 0.703125 1.1875q0.5 0.421875 1.265625 0.421875q0.421875 0 0.84375 -0.140625q0.4375 -0.15625 0.8125 -0.40625q0.375 -0.25 0.609375 -0.5625l0.3125 0.265625q-0.359375 0.5625 -0.875 0.90625q-0.5 0.328125 -1.03125 0.46875q-0.53125 0.15625 -0.984375 0.15625zm-1.84375 -4.625l3.40625 0q0 -0.484375 -0.140625 -0.921875q-0.140625 -0.453125 -0.46875 -0.734375q-0.3125 -0.296875 -0.828125 -0.296875q-0.78125 0 -1.296875 0.46875q-0.515625 0.453125 -0.671875 1.484375z" fill-rule="nonzero"/><path fill="#000000" fill-opacity="0.0" d="m87.59318 119.07612l43.244087 -0.4409485" fill-rule="evenodd"/><path stroke="#666666" stroke-width="1.0" stroke-linejoin="round" stroke-linecap="butt" d="m87.59318 119.07612l37.2444 -0.37976837" fill-rule="evenodd"/><path fill="#666666" stroke="#666666" stroke-width="1.0" stroke-linecap="butt" d="m124.85442 120.34799l4.521019 -1.6979141l-4.5547028 -1.6053772z" fill-rule="evenodd"/><path fill="#000000" fill-opacity="0.0" d="m529.48553 57.03937l104.566956 0l0 40.7559l-104.566956 0z" fill-rule="evenodd"/><path fill="#666666" d="m543.8449 74.43607q-1.265625 0 -2.171875 -0.421875q-0.90625 -0.4375 -1.484375 -1.140625q-0.5625 -0.71875 -0.828125 -1.578125q-0.265625 -0.875 -0.265625 -1.75q0 -0.828125 0.28125 -1.6875q0.28125 -0.859375 0.859375 -1.578125q0.578125 -0.71875 1.453125 -1.15625q0.875 -0.453125 2.046875 -0.453125q1.234375 0 2.125 0.453125q0.890625 0.4375 1.46875 1.171875q0.578125 0.71875 0.859375 1.578125q0.296875 0.84375 0.296875 1.671875q0 0.828125 -0.28125 1.6875q-0.28125 0.859375 -0.859375 1.59375q-0.578125 0.71875 -1.453125 1.171875q-0.859375 0.4375 -2.046875 0.4375zm0.03125 -0.546875q0.8125 0 1.421875 -0.359375q0.625 -0.359375 1.03125 -0.9375q0.40625 -0.59375 0.609375 -1.3125q0.203125 -0.734375 0.203125 -1.46875q0 -0.828125 -0.234375 -1.640625q-0.21875 -0.8125 -0.65625 -1.484375q-0.4375 -0.671875 -1.09375 -1.078125q-0.640625 -0.40625 -1.453125 -0.40625q-0.828125 0 -1.453125 0.359375q-0.625 0.359375 -1.03125 0.953125q-0.40625 0.59375 -0.609375 1.328125q-0.203125 0.71875 -0.203125 1.46875q0 0.734375 0.203125 1.53125q0.203125 0.796875 0.625 1.5q0.4375 0.6875 1.078125 1.125q0.65625 0.421875 1.5625 0.421875zm5.6606445 3.734375l0 -0.40625q0.40625 0 0.5625 -0.21875q0.171875 -0.203125 0.1875 -0.5625q0.03125 -0.359375 0.03125 -0.84375l0.03125 -6.4375q0 -0.21875 0 -0.421875q0.015625 -0.21875 0.046875 -0.453125q-0.234375 0.015625 -0.46875 0.03125q-0.234375 0.015625 -0.46875 0.03125l0 -0.5625q0.578125 0 0.875 -0.046875q0.3125 -0.0625 0.453125 -0.140625q0.140625 -0.078125 0.234375 -0.171875l0.390625 0q0.015625 0.140625 0.03125 0.328125q0.015625 0.171875 0.03125 0.390625q0.390625 -0.359375 0.9375 -0.578125q0.5625 -0.21875 1.125 -0.21875q0.765625 0 1.4375 0.40625q0.671875 0.390625 1.078125 1.140625q0.40625 0.734375 0.40625 1.75q0 1.140625 -0.46875 2.0q-0.46875 0.84375 -1.25 1.328125q-0.765625 0.46875 -1.671875 0.46875q-0.46875 0 -0.859375 -0.125q-0.390625 -0.109375 -0.734375 -0.328125l0 2.21875q0 0.265625 -0.015625 0.46875q0 0.21875 -0.046875 0.4375q0.21875 -0.015625 0.421875 -0.03125q0.203125 0 0.421875 0l0 0.546875l-2.71875 0zm3.5 -3.71875q0.640625 0 1.09375 -0.390625q0.46875 -0.40625 0.71875 -1.09375q0.25 -0.6875 0.25 -1.5625q0 -0.71875 -0.21875 -1.375q-0.203125 -0.65625 -0.65625 -1.0625q-0.4375 -0.421875 -1.171875 -0.421875q-0.453125 0 -0.875 0.21875q-0.421875 0.21875 -0.703125 0.515625q0 0.0625 0 0.171875q0.015625 0.09375 0.015625 0.34375q0 0.234375 0 0.71875q0 0.484375 -0.015625 1.3125q0 0.828125 0 2.09375q0.34375 0.25 0.734375 0.390625q0.390625 0.140625 0.828125 0.140625zm7.081848 0.53125q-0.3125 0 -0.640625 -0.09375q-0.3125 -0.078125 -0.59375 -0.328125q-0.265625 -0.265625 -0.421875 -0.75q-0.15625 -0.484375 -0.15625 -1.28125l0.03125 -3.875l-1.03125 0.015625l0 -0.5625q0.34375 -0.015625 0.703125 -0.265625q0.359375 -0.25 0.640625 -0.671875q0.296875 -0.4375 0.40625 -0.9375l0.453125 0l0 1.875l2.234375 0l0 0.515625l-2.234375 0.015625l-0.03125 3.71875q0 0.59375 0.09375 1.015625q0.109375 0.421875 0.328125 0.640625q0.234375 0.203125 0.59375 0.203125q0.375 0 0.6875 -0.203125q0.328125 -0.21875 0.59375 -0.59375l0.359375 0.296875q-0.296875 0.4375 -0.59375 0.6875q-0.28125 0.25 -0.546875 0.375q-0.265625 0.125 -0.5 0.15625q-0.21875 0.046875 -0.375 0.046875zm2.657959 -0.625q0.40625 0 0.5625 -0.203125q0.15625 -0.203125 0.1875 -0.5625q0.03125 -0.375 0.03125 -0.859375l0 -3.03125q0 -0.21875 0.015625 -0.40625q0.015625 -0.203125 0.03125 -0.46875q-0.234375 0.015625 -0.46875 0.03125q-0.234375 0.015625 -0.46875 0.03125l0 -0.5625q0.578125 0 0.890625 -0.046875q0.328125 -0.0625 0.5 -0.140625q0.171875 -0.078125 0.25 -0.171875l0.390625 0l0 5.390625q0 0.265625 -0.015625 0.46875q0 0.203125 -0.03125 0.4375q0.203125 -0.015625 0.40625 -0.015625q0.21875 -0.015625 0.4375 -0.03125l0 0.546875l-2.71875 0l0 -0.40625zm1.265625 -7.703125q-0.265625 0 -0.484375 -0.21875q-0.21875 -0.234375 -0.21875 -0.578125q0 -0.328125 0.21875 -0.5625q0.21875 -0.234375 0.5 -0.234375q0.3125 0 0.515625 0.234375q0.203125 0.234375 0.203125 0.5625q0 0.34375 -0.21875 0.578125q-0.21875 0.21875 -0.515625 0.21875zm5.776428 8.328125q-0.9375 0 -1.703125 -0.4375q-0.75 -0.4375 -1.203125 -1.203125q-0.4375 -0.765625 -0.4375 -1.75q0 -1.046875 0.4375 -1.890625q0.4375 -0.84375 1.203125 -1.328125q0.765625 -0.484375 1.703125 -0.484375q0.9375 0 1.6875 0.453125q0.765625 0.4375 1.21875 1.203125q0.453125 0.75 0.453125 1.734375q0 1.015625 -0.453125 1.875q-0.4375 0.84375 -1.203125 1.34375q-0.75 0.484375 -1.703125 0.484375zm0.109375 -0.53125q0.703125 0 1.109375 -0.40625q0.421875 -0.40625 0.59375 -1.046875q0.1875 -0.640625 0.1875 -1.34375q0 -0.59375 -0.109375 -1.171875q-0.109375 -0.578125 -0.359375 -1.046875q-0.234375 -0.484375 -0.625 -0.765625q-0.375 -0.28125 -0.90625 -0.28125q-0.6875 0 -1.140625 0.40625q-0.4375 0.390625 -0.640625 1.03125q-0.203125 0.640625 -0.203125 1.375q0 0.828125 0.21875 1.578125q0.234375 0.734375 0.703125 1.203125q0.46875 0.46875 1.171875 0.46875zm4.390686 0.3125l0 -0.40625q0.40625 0 0.5625 -0.203125q0.15625 -0.203125 0.1875 -0.5625q0.03125 -0.375 0.03125 -0.859375l0.015625 -3.03125q0 -0.21875 0 -0.421875q0.015625 -0.21875 0.046875 -0.453125q-0.234375 0.015625 -0.46875 0.03125q-0.234375 0.015625 -0.46875 0.03125l0 -0.5625q0.578125 0 0.875 -0.046875q0.296875 -0.0625 0.4375 -0.140625q0.15625 -0.078125 0.25 -0.171875l0.390625 0q0.015625 0.09375 0.015625 0.21875q0.015625 0.109375 0.015625 0.265625q0.015625 0.140625 0.015625 0.328125q0.296875 -0.25 0.640625 -0.453125q0.359375 -0.203125 0.75 -0.3125q0.40625 -0.125 0.78125 -0.125q1.171875 0 1.703125 0.734375q0.53125 0.71875 0.53125 2.25l0 2.484375q0 0.265625 -0.015625 0.46875q0 0.203125 -0.046875 0.4375q0.21875 -0.015625 0.421875 -0.015625q0.21875 -0.015625 0.421875 -0.03125l0 0.546875l-2.71875 0l0 -0.40625q0.421875 0 0.578125 -0.203125q0.15625 -0.203125 0.171875 -0.5625q0.03125 -0.375 0.03125 -0.859375l0 -1.859375q0 -1.140625 -0.375 -1.71875q-0.359375 -0.59375 -1.15625 -0.59375q-0.46875 0.015625 -0.9375 0.265625q-0.453125 0.234375 -0.765625 0.609375q0.015625 0.109375 0.015625 0.25q0 0.125 0 0.265625l-0.015625 3.40625q0 0.265625 -0.015625 0.46875q0 0.203125 -0.03125 0.4375q0.203125 -0.015625 0.40625 -0.015625q0.21875 -0.015625 0.4375 -0.03125l0 0.546875l-2.71875 0zm12.137024 0q-0.046875 -0.234375 -0.0625 -0.40625q0 -0.171875 -0.03125 -0.359375q-0.453125 0.453125 -0.984375 0.71875q-0.53125 0.265625 -1.109375 0.265625q-1.015625 0 -1.515625 -0.453125q-0.484375 -0.46875 -0.484375 -1.140625q0 -0.609375 0.375 -1.046875q0.390625 -0.453125 0.984375 -0.734375q0.609375 -0.296875 1.328125 -0.4375q0.71875 -0.140625 1.375 -0.125l0 -0.828125q0 -0.46875 -0.078125 -0.875q-0.078125 -0.421875 -0.34375 -0.6875q-0.265625 -0.265625 -0.859375 -0.28125q-0.375 0 -0.78125 0.15625q-0.40625 0.15625 -0.59375 0.546875q0.09375 0.109375 0.125 0.25q0.046875 0.140625 0.046875 0.25q0 0.15625 -0.140625 0.375q-0.125 0.203125 -0.46875 0.1875q-0.28125 0 -0.421875 -0.1875q-0.140625 -0.203125 -0.140625 -0.46875q0 -0.453125 0.328125 -0.8125q0.34375 -0.359375 0.9375 -0.5625q0.609375 -0.21875 1.359375 -0.21875q1.125 0 1.65625 0.59375q0.53125 0.59375 0.53125 1.875q0 0.484375 0 0.984375q0 0.5 -0.015625 1.0q0 0.5 0 1.015625q0 0.203125 -0.015625 0.421875q-0.015625 0.21875 -0.046875 0.484375q0.25 -0.015625 0.46875 -0.03125q0.234375 -0.015625 0.484375 -0.03125l0 0.5625l-1.90625 0zm-0.125 -3.265625q-0.453125 0.015625 -0.953125 0.125q-0.5 0.09375 -0.921875 0.296875q-0.421875 0.1875 -0.6875 0.515625q-0.25 0.328125 -0.234375 0.796875q0.03125 0.484375 0.328125 0.734375q0.296875 0.25 0.71875 0.25q0.546875 0 0.953125 -0.203125q0.40625 -0.203125 0.796875 -0.578125q-0.015625 -0.15625 -0.015625 -0.328125q0 -0.171875 0 -0.359375q0 -0.0625 0 -0.421875q0.015625 -0.359375 0.015625 -0.828125zm2.8148193 2.859375q0.40625 0 0.5625 -0.203125q0.171875 -0.203125 0.1875 -0.5625q0.03125 -0.375 0.03125 -0.859375l0 -6.296875q0 -0.21875 0 -0.40625q0.015625 -0.203125 0.046875 -0.46875q-0.234375 0.015625 -0.46875 0.03125q-0.234375 0.015625 -0.484375 0.03125l0 -0.5625q0.59375 0 0.921875 -0.046875q0.328125 -0.0625 0.484375 -0.140625q0.171875 -0.078125 0.265625 -0.171875l0.390625 0l0.015625 8.65625q0 0.265625 -0.015625 0.46875q-0.015625 0.203125 -0.0625 0.4375q0.21875 -0.015625 0.421875 -0.015625q0.203125 -0.015625 0.421875 -0.03125l0 0.546875l-2.71875 0l0 -0.40625zm4.797119 2.796875l-0.359375 -0.265625q0.140625 -0.1875 0.296875 -0.546875q0.15625 -0.34375 0.25 -0.765625q0.109375 -0.40625 0.0625 -0.8125q-0.09375 0.046875 -0.171875 0.0625q-0.078125 0.015625 -0.15625 0.015625q-0.265625 0 -0.453125 -0.1875q-0.171875 -0.1875 -0.171875 -0.46875q0 -0.375 0.21875 -0.5625q0.21875 -0.203125 0.515625 -0.203125q0.46875 0 0.703125 0.359375q0.25 0.34375 0.25 0.84375q0 0.34375 -0.125 0.8125q-0.125 0.484375 -0.359375 0.9375q-0.21875 0.46875 -0.5 0.78125zm0.078125 -7.546875q-0.3125 0 -0.546875 -0.25q-0.21875 -0.25 -0.21875 -0.609375q0 -0.359375 0.234375 -0.609375q0.234375 -0.25 0.546875 -0.25q0.328125 0 0.546875 0.25q0.21875 0.25 0.21875 0.609375q0 0.359375 -0.234375 0.609375q-0.234375 0.25 -0.546875 0.25zm10.682434 1.703125q0 -0.578125 -0.171875 -0.828125q-0.15625 -0.265625 -0.5 -0.3125q-0.34375 -0.0625 -0.921875 -0.03125l-0.96875 0.046875l0 3.046875q0 0.359375 -0.015625 0.609375q0 0.25 -0.03125 0.421875l2.546875 -0.03125q0.59375 -0.015625 1.015625 -0.1875q0.421875 -0.1875 0.65625 -0.640625q0.25 -0.453125 0.25 -1.234375l0.453125 0l-0.078125 2.59375l-6.875 0l0 -0.4375q0.5 -0.03125 0.6875 -0.234375q0.1875 -0.203125 0.203125 -0.5625q0.03125 -0.375 0.03125 -0.84375l0 -5.765625q0 -0.265625 0 -0.5q0.015625 -0.25 0.03125 -0.453125q-0.234375 0.015625 -0.484375 0.03125q-0.234375 0.015625 -0.46875 0.015625l0 -0.578125l6.40625 0l0.0625 2.328125l-0.4375 0q0 -0.78125 -0.234375 -1.1875q-0.234375 -0.40625 -0.640625 -0.546875q-0.40625 -0.140625 -0.921875 -0.125l-1.140625 0.015625q-0.5 0.015625 -0.71875 0.1875q-0.203125 0.171875 -0.25 0.515625q-0.046875 0.34375 -0.046875 0.890625l0 2.125l2.5 0.015625l-0.09375 -1.140625l0.59375 0l0 2.796875l-0.4375 0zm4.540039 3.671875q-0.3125 0 -0.546875 -0.25q-0.21875 -0.25 -0.21875 -0.609375q0 -0.359375 0.234375 -0.609375q0.234375 -0.25 0.546875 -0.25q0.328125 0 0.546875 0.25q0.21875 0.25 0.21875 0.609375q0 0.359375 -0.234375 0.609375q-0.234375 0.25 -0.546875 0.25zm5.4505615 3.390625q-1.203125 0 -1.9375 -0.265625q-0.71875 -0.265625 -1.0625 -0.6875q-0.328125 -0.40625 -0.328125 -0.84375q0 -0.40625 0.1875 -0.734375q0.203125 -0.3125 0.484375 -0.546875q0.28125 -0.21875 0.546875 -0.3125q-0.421875 -0.15625 -0.671875 -0.390625q-0.25 -0.25 -0.25 -0.671875q0 -0.46875 0.375 -0.875q0.375 -0.40625 0.96875 -0.5q-0.609375 -0.28125 -0.984375 -0.796875q-0.359375 -0.53125 -0.359375 -1.21875q0 -0.796875 0.40625 -1.390625q0.421875 -0.59375 1.0625 -0.921875q0.640625 -0.328125 1.34375 -0.328125q0.4375 0 0.875 0.125q0.4375 0.125 0.8125 0.359375q0.125 -0.359375 0.375 -0.65625q0.25 -0.296875 0.5625 -0.453125q0.328125 -0.171875 0.671875 -0.171875q0.34375 0 0.515625 0.1875q0.1875 0.171875 0.1875 0.46875q0 0.09375 -0.046875 0.234375q-0.046875 0.125 -0.1875 0.21875q-0.125 0.09375 -0.328125 0.09375q-0.234375 0 -0.390625 -0.125q-0.140625 -0.140625 -0.171875 -0.34375q-0.328125 0.0625 -0.515625 0.328125q-0.1875 0.25 -0.265625 0.5625q0.328125 0.296875 0.515625 0.703125q0.203125 0.40625 0.203125 0.875q0 0.75 -0.40625 1.34375q-0.390625 0.578125 -1.03125 0.90625q-0.640625 0.328125 -1.375 0.328125q-0.265625 0 -0.453125 -0.03125q-0.171875 -0.03125 -0.453125 -0.03125q-0.484375 0 -0.796875 0.234375q-0.296875 0.234375 -0.203125 0.578125q0.09375 0.3125 0.640625 0.40625q0.546875 0.078125 1.46875 0.125q1.03125 0.03125 1.765625 0.234375q0.734375 0.203125 1.125 0.625q0.390625 0.421875 0.390625 1.140625q0 0.53125 -0.296875 0.953125q-0.28125 0.421875 -0.75 0.6875q-0.46875 0.28125 -1.046875 0.421875q-0.578125 0.15625 -1.171875 0.15625zm-0.015625 -0.515625q1.15625 0 1.78125 -0.4375q0.640625 -0.421875 0.640625 -0.984375q0 -0.5 -0.328125 -0.765625q-0.328125 -0.25 -0.90625 -0.359375q-0.578125 -0.09375 -1.3125 -0.109375q-0.359375 -0.015625 -0.71875 -0.03125q-0.34375 -0.015625 -0.65625 -0.078125q-0.359375 0.25 -0.5625 0.59375q-0.203125 0.34375 -0.203125 0.734375q0 0.65625 0.625 1.046875q0.625 0.390625 1.640625 0.390625zm-0.171875 -5.46875q0.5 0 0.828125 -0.234375q0.328125 -0.25 0.484375 -0.65625q0.171875 -0.40625 0.171875 -0.9375q0 -0.578125 -0.171875 -1.078125q-0.171875 -0.515625 -0.515625 -0.8125q-0.34375 -0.3125 -0.859375 -0.3125q-0.71875 0 -1.109375 0.546875q-0.390625 0.53125 -0.390625 1.328125q0 0.640625 0.171875 1.125q0.1875 0.484375 0.546875 0.765625q0.359375 0.265625 0.84375 0.265625zm5.3860474 2.59375q-0.3125 0 -0.546875 -0.25q-0.21875 -0.25 -0.21875 -0.609375q0 -0.359375 0.234375 -0.609375q0.234375 -0.25 0.546875 -0.25q0.328125 0 0.546875 0.25q0.21875 0.25 0.21875 0.609375q0 0.359375 -0.234375 0.609375q-0.234375 0.25 -0.546875 0.25zm3.2318726 2.171875l-0.359375 -0.265625q0.140625 -0.1875 0.296875 -0.546875q0.15625 -0.34375 0.25 -0.765625q0.109375 -0.40625 0.0625 -0.8125q-0.09375 0.046875 -0.171875 0.0625q-0.078125 0.015625 -0.15625 0.015625q-0.265625 0 -0.453125 -0.1875q-0.171875 -0.1875 -0.171875 -0.46875q0 -0.375 0.21875 -0.5625q0.21875 -0.203125 0.515625 -0.203125q0.46875 0 0.703125 0.359375q0.25 0.34375 0.25 0.84375q0 0.34375 -0.125 0.8125q-0.125 0.484375 -0.359375 0.9375q-0.21875 0.46875 -0.5 0.78125z" fill-rule="nonzero"/><path fill="#666666" d="m541.5793 90.43607q-0.3125 0 -0.640625 -0.09375q-0.3125 -0.078125 -0.59375 -0.328125q-0.265625 -0.265625 -0.421875 -0.75q-0.15625 -0.484375 -0.15625 -1.28125l0.03125 -3.875l-1.03125 0.015625l0 -0.5625q0.34375 -0.015625 0.703125 -0.265625q0.359375 -0.25 0.640625 -0.671875q0.296875 -0.4375 0.40625 -0.9375l0.453125 0l0 1.875l2.234375 0l0 0.515625l-2.234375 0.015625l-0.03125 3.71875q0 0.59375 0.09375 1.015625q0.109375 0.421875 0.328125 0.640625q0.234375 0.203125 0.59375 0.203125q0.375 0 0.6875 -0.203125q0.328125 -0.21875 0.59375 -0.59375l0.359375 0.296875q-0.296875 0.4375 -0.59375 0.6875q-0.28125 0.25 -0.546875 0.375q-0.265625 0.125 -0.5 0.15625q-0.21875 0.046875 -0.375 0.046875zm5.954834 0q-0.9375 0 -1.703125 -0.4375q-0.75 -0.4375 -1.203125 -1.203125q-0.4375 -0.765625 -0.4375 -1.75q0 -1.046875 0.4375 -1.890625q0.4375 -0.84375 1.203125 -1.328125q0.765625 -0.484375 1.703125 -0.484375q0.9375 0 1.6875 0.453125q0.765625 0.4375 1.21875 1.203125q0.453125 0.75 0.453125 1.734375q0 1.015625 -0.453125 1.875q-0.4375 0.84375 -1.203125 1.34375q-0.75 0.484375 -1.703125 0.484375zm0.109375 -0.53125q0.703125 0 1.109375 -0.40625q0.421875 -0.40625 0.59375 -1.046875q0.1875 -0.640625 0.1875 -1.34375q0 -0.59375 -0.109375 -1.171875q-0.109375 -0.578125 -0.359375 -1.046875q-0.234375 -0.484375 -0.625 -0.765625q-0.375 -0.28125 -0.90625 -0.28125q-0.6875 0 -1.140625 0.40625q-0.4375 0.390625 -0.640625 1.03125q-0.203125 0.640625 -0.203125 1.375q0 0.828125 0.21875 1.578125q0.234375 0.734375 0.703125 1.203125q0.46875 0.46875 1.171875 0.46875zm15.411621 -6.046875q-0.140625 -1.25 -0.890625 -1.9375q-0.734375 -0.703125 -1.890625 -0.703125q-0.703125 0 -1.328125 0.3125q-0.609375 0.296875 -1.078125 0.859375q-0.46875 0.546875 -0.734375 1.34375q-0.265625 0.78125 -0.265625 1.765625q0 1.25 0.46875 2.21875q0.484375 0.953125 1.296875 1.484375q0.8125 0.53125 1.796875 0.53125q0.875 0 1.703125 -0.390625q0.84375 -0.390625 1.375 -1.140625l0.359375 0.28125q-0.578125 0.78125 -1.25 1.21875q-0.65625 0.421875 -1.328125 0.578125q-0.65625 0.15625 -1.203125 0.15625q-1.0 0 -1.828125 -0.359375q-0.828125 -0.359375 -1.4375 -1.0q-0.609375 -0.65625 -0.9375 -1.515625q-0.328125 -0.859375 -0.328125 -1.859375q0 -0.953125 0.28125 -1.84375q0.296875 -0.890625 0.859375 -1.609375q0.578125 -0.71875 1.453125 -1.140625q0.875 -0.4375 2.03125 -0.4375q0.75 0 1.40625 0.203125q0.671875 0.203125 1.296875 0.609375l-0.078125 -0.71875l0.71875 0l0 3.09375l-0.46875 0zm1.7871704 9.96875l-0.765625 -0.484375l7.78125 -13.25l0.875 0.546875l-7.890625 13.1875zm11.88385 -12.5q-0.5 0.015625 -0.6875 0.234375q-0.1875 0.203125 -0.21875 0.5625q-0.015625 0.359375 -0.015625 0.84375l0 5.65625q0 0.375 -0.015625 0.640625q0 0.25 -0.03125 0.421875q0.25 -0.015625 0.484375 -0.03125q0.234375 -0.015625 0.484375 -0.03125l0 0.59375l-3.0 0l0 -0.4375q0.5 -0.03125 0.6875 -0.234375q0.1875 -0.203125 0.203125 -0.5625q0.03125 -0.375 0.03125 -0.84375l0 -5.765625q0 -0.265625 0 -0.5q0.015625 -0.25 0.03125 -0.453125q-0.234375 0.015625 -0.484375 0.03125q-0.234375 0.015625 -0.46875 0.015625l0 -0.578125l3.0 0l0 0.4375zm6.69928 2.390625q-0.03125 -0.640625 -0.3125 -1.21875q-0.265625 -0.578125 -0.765625 -0.9375q-0.5 -0.359375 -1.296875 -0.359375q-0.828125 0 -1.265625 0.46875q-0.4375 0.46875 -0.4375 1.09375q0 0.5625 0.3125 0.953125q0.328125 0.375 0.84375 0.65625q0.515625 0.28125 1.078125 0.546875q0.515625 0.234375 1.015625 0.5q0.515625 0.25 0.921875 0.59375q0.421875 0.328125 0.65625 0.796875q0.25 0.453125 0.25 1.09375q0 0.71875 -0.375 1.296875q-0.359375 0.578125 -1.0625 0.90625q-0.6875 0.328125 -1.671875 0.328125q-0.609375 0 -1.25 -0.1875q-0.640625 -0.171875 -1.125 -0.5l0.0625 0.578125l-0.6875 0l-0.09375 -2.84375l0.53125 0q0.0625 1.171875 0.8125 1.78125q0.75 0.609375 1.796875 0.609375q0.515625 0 0.953125 -0.1875q0.4375 -0.203125 0.703125 -0.578125q0.265625 -0.375 0.265625 -0.90625q0 -0.59375 -0.328125 -0.984375q-0.3125 -0.40625 -0.828125 -0.703125q-0.5 -0.296875 -1.078125 -0.5625q-0.5 -0.21875 -1.0 -0.46875q-0.484375 -0.265625 -0.890625 -0.59375q-0.40625 -0.328125 -0.65625 -0.78125q-0.25 -0.453125 -0.25 -1.09375q0 -0.34375 0.125 -0.734375q0.125 -0.40625 0.421875 -0.765625q0.296875 -0.375 0.8125 -0.609375q0.53125 -0.234375 1.34375 -0.234375q0.515625 0 1.140625 0.140625q0.640625 0.140625 1.1875 0.546875l-0.0625 -0.578125l0.6875 0l0 2.9375l-0.484375 0zm1.5101318 6.5l0 -0.4375q0.390625 0 0.609375 -0.203125q0.21875 -0.21875 0.359375 -0.59375q0.140625 -0.375 0.328125 -0.875l2.734375 -7.46875l0.328125 0l2.96875 7.578125q0.109375 0.28125 0.234375 0.71875q0.140625 0.4375 0.109375 0.75q0.234375 -0.015625 0.453125 -0.03125q0.234375 -0.015625 0.453125 -0.03125l0 0.59375l-3.046875 0l0 -0.4375q0.5 -0.015625 0.65625 -0.21875q0.171875 -0.21875 0.125 -0.515625q-0.03125 -0.296875 -0.125 -0.53125l-0.46875 -1.25l-3.46875 0.078125l-0.46875 1.421875q-0.09375 0.3125 -0.171875 0.5q-0.0625 0.1875 -0.15625 0.421875q0.265625 -0.015625 0.515625 -0.03125q0.265625 -0.015625 0.515625 -0.03125l0 0.59375l-2.484375 0zm2.453125 -3.453125l3.078125 0l-0.953125 -2.546875q-0.140625 -0.40625 -0.296875 -0.8125q-0.15625 -0.40625 -0.296875 -0.828125l-0.03125 0q-0.125 0.375 -0.265625 0.75q-0.140625 0.375 -0.296875 0.765625l-0.9375 2.671875z" fill-rule="nonzero"/><path fill="#000000" fill-opacity="0.0" d="m529.48553 77.41732l-44.881866 0.9133911" fill-rule="evenodd"/><path stroke="#666666" stroke-width="1.0" stroke-linejoin="round" stroke-linecap="butt" d="m529.48553 77.41732l-38.883087 0.7913132" fill-rule="evenodd"/><path fill="#666666" stroke="#666666" stroke-width="1.0" stroke-linecap="butt" d="m490.56882 76.557236l-4.50354 1.7437286l4.5707703 1.5590515z" fill-rule="evenodd"/></g></svg>