<svg version="1.1" viewBox="0.0 0.0 1055.3070866141732 100.0" fill="none" stroke="none" stroke-linecap="square" stroke-miterlimit="10" xmlns:xlink="http://www.w3.org/1999/xlink" xmlns="http://www.w3.org/2000/svg"><clipPath id="p.0"><path d="m0 0l1055.3071 0l0 100.0l-1055.3071 0l0 -100.0z" clip-rule="nonzero"/></clipPath><g clip-path="url(#p.0)"><path fill="#000000" fill-opacity="0.0" d="m0 0l1055.3071 0l0 100.0l-1055.3071 0z" fill-rule="evenodd"/><path fill="#ea9999" d="m5.734908 20.087927l48.94488 0l0 59.02362l-48.94488 0z" fill-rule="evenodd"/><path stroke="#ffffff" stroke-width="1.0" stroke-linejoin="round" stroke-linecap="butt" d="m5.734908 20.087927l48.94488 0l0 59.02362l-48.94488 0z" fill-rule="evenodd"/><path fill="#000000" d="m29.384954 38.13161q-0.015625 -0.9375 -0.203125 -1.5625q-0.171875 -0.625 -0.609375 -0.9375q-0.4375 -0.3125 -1.265625 -0.296875l-1.359375 0l-0.015625 8.71875q0 0.4375 -0.015625 0.75q0 0.3125 -0.03125 0.515625q0.328125 -0.015625 0.65625 -0.03125q0.328125 -0.015625 0.671875 -0.03125l0 0.703125l-3.765625 0l0 -0.53125q0.609375 -0.03125 0.828125 -0.28125q0.21875 -0.265625 0.234375 -0.703125q0.03125 -0.4375 0.03125 -0.984375l0.015625 -8.109375l-1.65625 0.015625q-1.0 0 -1.421875 0.671875q-0.421875 0.671875 -0.421875 2.09375l-0.578125 0l0.09375 -3.375l9.328125 0l0.09375 3.375l-0.609375 0zm5.943144 8.078125q-1.203125 0 -2.015625 -0.515625q-0.796875 -0.515625 -1.25 -1.375q-0.4374981 -0.859375 -0.6249981 -1.875q-0.1875 -1.03125 -0.1875 -2.03125q0 -1.015625 0.234375 -2.046875q0.234375 -1.046875 0.7343731 -1.921875q0.5 -0.875 1.28125 -1.40625q0.78125 -0.53125 1.90625 -0.53125q1.15625 0 1.9375 0.53125q0.7812538 0.515625 1.2343788 1.375q0.453125 0.859375 0.640625 1.890625q0.203125 1.015625 0.203125 2.03125q0 0.984375 -0.234375 2.03125q-0.21875 1.03125 -0.703125 1.90625q-0.484375 0.875 -1.2656288 1.40625q-0.765625 0.53125 -1.890625 0.53125zm0.109375 -0.625q0.6875 0 1.125 -0.421875q0.453125 -0.4375 0.71875 -1.15625q0.265625 -0.71875 0.375 -1.59375q0.109378815 -0.875 0.109378815 -1.75q0 -0.96875 -0.109378815 -1.9375q-0.109375 -0.984375 -0.390625 -1.796875q-0.265625 -0.828125 -0.734375 -1.3125q-0.453125 -0.5 -1.15625 -0.5q-0.703125 0 -1.171875 0.4375q-0.46875 0.421875 -0.765625 1.140625q-0.28125 0.71875 -0.40625 1.609375q-0.125 0.875 -0.125 1.765625q0 0.671875 0.0625 1.421875q0.0625 0.75 0.234375 1.484375q0.171875 0.734375 0.453125 1.328125q0.28125 0.578125 0.71875 0.9375q0.4375 0.34375 1.0625 0.34375z" fill-rule="nonzero"/><path fill="#000000" d="m21.09033 64.95974l0 -0.53125q0.609375 -0.03125 0.828125 -0.28125q0.234375 -0.2500038 0.25 -0.6875038q0.03125 -0.4375 0.03125 -1.0l0 -6.90625q0 -0.328125 0.015625 -0.609375q0.015625 -0.296875 0.03125 -0.546875q-0.28125 0.015625 -0.578125 0.03125q-0.28125 0.015625 -0.578125 0.03125l0 -0.703125q0.90625 -0.015625 1.8125 -0.03125q0.921875 -0.015625 1.859375 0.015625q1.546875 0.015625 2.5 0.359375q0.953125 0.34375 1.390625 0.984375q0.453125 0.625 0.453125 1.515625q0.015625 0.625 -0.234375 1.28125q-0.234375 0.640625 -0.890625 1.15625q-0.640625 0.515625 -1.859375 0.765625q0.3125 0.234375 0.546875 0.59375q0.25 0.34375 0.5625 0.796875l1.078125 1.71875q0.28125 0.4375 0.53125 0.78125q0.25 0.3437538 0.578125 0.5468788q0.34375 0.1875 0.84375 0.1875l0 0.53125l-2.015625 0q-0.46875 -0.421875 -0.78125 -0.828125q-0.3125 -0.4218788 -0.640625 -0.9531288l-1.078125 -1.703125q-0.203125 -0.34375 -0.46875 -0.78125q-0.265625 -0.4375 -0.59375 -0.75q-0.265625 0.03125 -0.546875 0.03125q-0.28125 0 -0.546875 -0.03125l0 3.109375q0 0.4375 -0.015625 0.75q0 0.3125038 -0.03125 0.5156288q0.1875 -0.015625 0.375 -0.015625q0.203125 -0.015625 0.390625 -0.03125q0.1875 -0.015625 0.390625 -0.015625l0 0.703125l-3.609375 0zm3.5 -5.593754q0.875 -0.03125 1.53125 -0.28125q0.671875 -0.265625 1.046875 -0.828125q0.390625 -0.5625 0.390625 -1.46875q0 -0.609375 -0.171875 -1.0625q-0.15625 -0.46875 -0.515625 -0.765625q-0.359375 -0.296875 -0.90625 -0.453125q-0.53125 -0.15625 -1.265625 -0.15625q-0.59375 0 -0.828125 0.25q-0.234375 0.234375 -0.265625 0.65625q-0.015625 0.421875 -0.015625 1.0l0 3.078125q0.25 0.015625 0.484375 0.03125q0.234375 0.015625 0.515625 0zm10.6417675 5.843754q-1.203125 0 -2.015625 -0.515625q-0.796875 -0.515625 -1.2499981 -1.3750038q-0.4375 -0.859375 -0.625 -1.875q-0.1875 -1.03125 -0.1875 -2.03125q0 -1.015625 0.234375 -2.046875q0.234375 -1.046875 0.7343731 -1.921875q0.5 -0.875 1.28125 -1.40625q0.78125 -0.53125 1.90625 -0.53125q1.15625 0 1.9375 0.53125q0.7812538 0.515625 1.2343788 1.375q0.453125 0.859375 0.640625 1.890625q0.203125 1.015625 0.203125 2.03125q0 0.984375 -0.234375 2.03125q-0.21875 1.03125 -0.703125 1.90625q-0.484375 0.8750038 -1.2656288 1.4062538q-0.765625 0.53125 -1.890625 0.53125zm0.109375 -0.625q0.6875 0 1.125 -0.421875q0.453125 -0.4375038 0.71875 -1.1562538q0.265625 -0.71875 0.375 -1.59375q0.109375 -0.875 0.109375 -1.75q0 -0.96875 -0.109375 -1.9375q-0.109375 -0.984375 -0.390625 -1.796875q-0.265625 -0.828125 -0.734375 -1.3125q-0.453125 -0.5 -1.15625 -0.5q-0.703125 0 -1.171875 0.4375q-0.46875 0.421875 -0.765625 1.140625q-0.28125 0.71875 -0.40625 1.609375q-0.125 0.875 -0.125 1.765625q0 0.671875 0.0625 1.421875q0.0625 0.75 0.234375 1.484375q0.171875 0.734375 0.453125 1.328125q0.28125 0.578125 0.71875 0.9375038q0.4375 0.34375 1.0625 0.34375z" fill-rule="nonzero"/><path fill="#ea9999" d="m54.67979 20.087927l48.94488 0l0 59.02362l-48.94488 0z" fill-rule="evenodd"/><path stroke="#ffffff" stroke-width="1.0" stroke-linejoin="round" stroke-linecap="butt" d="m54.67979 20.087927l48.94488 0l0 59.02362l-48.94488 0z" fill-rule="evenodd"/><path fill="#000000" d="m78.329834 38.13161q-0.015625 -0.9375 -0.203125 -1.5625q-0.171875 -0.625 -0.609375 -0.9375q-0.4375 -0.3125 -1.265625 -0.296875l-1.359375 0l-0.015625 8.71875q0 0.4375 -0.015625 0.75q0 0.3125 -0.03125 0.515625q0.328125 -0.015625 0.65625 -0.03125q0.328125 -0.015625 0.671875 -0.03125l0 0.703125l-3.765625 0l0 -0.53125q0.609375 -0.03125 0.828125 -0.28125q0.21875 -0.265625 0.234375 -0.703125q0.03125 -0.4375 0.03125 -0.984375l0.015625 -8.109375l-1.65625 0.015625q-1.0 0 -1.421875 0.671875q-0.421875 0.671875 -0.421875 2.09375l-0.578125 0l0.09375 -3.375l9.328125 0l0.09375 3.375l-0.609375 0zm5.9431458 8.078125q-1.203125 0 -2.015625 -0.515625q-0.796875 -0.515625 -1.25 -1.375q-0.4375 -0.859375 -0.625 -1.875q-0.1875 -1.03125 -0.1875 -2.03125q0 -1.015625 0.234375 -2.046875q0.234375 -1.046875 0.734375 -1.921875q0.5 -0.875 1.28125 -1.40625q0.78125 -0.53125 1.90625 -0.53125q1.15625 0 1.9375 0.53125q0.78125 0.515625 1.234375 1.375q0.453125 0.859375 0.640625 1.890625q0.203125 1.015625 0.203125 2.03125q0 0.984375 -0.234375 2.03125q-0.21875 1.03125 -0.703125 1.90625q-0.484375 0.875 -1.265625 1.40625q-0.765625 0.53125 -1.890625 0.53125zm0.109375 -0.625q0.6875 0 1.125 -0.421875q0.453125 -0.4375 0.71875 -1.15625q0.265625 -0.71875 0.375 -1.59375q0.109375 -0.875 0.109375 -1.75q0 -0.96875 -0.109375 -1.9375q-0.109375 -0.984375 -0.390625 -1.796875q-0.265625 -0.828125 -0.734375 -1.3125q-0.453125 -0.5 -1.15625 -0.5q-0.703125 0 -1.171875 0.4375q-0.46875 0.421875 -0.765625 1.140625q-0.28125 0.71875 -0.40625 1.609375q-0.125 0.875 -0.125 1.765625q0 0.671875 0.0625 1.421875q0.0625 0.75 0.234375 1.484375q0.171875 0.734375 0.453125 1.328125q0.28125 0.578125 0.71875 0.9375q0.4375 0.34375 1.0625 0.34375z" fill-rule="nonzero"/><path fill="#000000" d="m72.09122 64.95974l0 -0.53125q0.609375 -0.03125 0.828125 -0.28125q0.234375 -0.2500038 0.25 -0.6875038q0.03125 -0.4375 0.03125 -1.0l0 -6.90625q0 -0.328125 0.015625 -0.609375q0.015625 -0.296875 0.03125 -0.546875q-0.28125 0.015625 -0.578125 0.03125q-0.28125 0.015625 -0.578125 0.03125l0 -0.703125q0.90625 -0.015625 1.8125 -0.03125q0.921875 -0.015625 1.859375 0.015625q1.546875 0.015625 2.5 0.359375q0.953125 0.34375 1.390625 0.984375q0.453125 0.625 0.453125 1.515625q0.015625 0.625 -0.234375 1.28125q-0.234375 0.640625 -0.890625 1.15625q-0.640625 0.515625 -1.859375 0.765625q0.3125 0.234375 0.546875 0.59375q0.25 0.34375 0.5625 0.796875l1.078125 1.71875q0.28125 0.4375 0.53125 0.78125q0.25 0.3437538 0.578125 0.5468788q0.34375 0.1875 0.84375 0.1875l0 0.53125l-2.015625 0q-0.46875 -0.421875 -0.78125 -0.828125q-0.3125 -0.4218788 -0.640625 -0.9531288l-1.078125 -1.703125q-0.203125 -0.34375 -0.46875 -0.78125q-0.265625 -0.4375 -0.59375 -0.75q-0.265625 0.03125 -0.546875 0.03125q-0.28125 0 -0.546875 -0.03125l0 3.109375q0 0.4375 -0.015625 0.75q0 0.3125038 -0.03125 0.5156288q0.1875 -0.015625 0.375 -0.015625q0.203125 -0.015625 0.390625 -0.03125q0.1875 -0.015625 0.390625 -0.015625l0 0.703125l-3.609375 0zm3.5 -5.593754q0.875 -0.03125 1.53125 -0.28125q0.671875 -0.265625 1.046875 -0.828125q0.390625 -0.5625 0.390625 -1.46875q0 -0.609375 -0.171875 -1.0625q-0.15625 -0.46875 -0.515625 -0.765625q-0.359375 -0.296875 -0.90625 -0.453125q-0.53125 -0.15625 -1.265625 -0.15625q-0.59375 0 -0.828125 0.25q-0.234375 0.234375 -0.265625 0.65625q-0.015625 0.421875 -0.015625 1.0l0 3.078125q0.25 0.015625 0.484375 0.03125q0.234375 0.015625 0.515625 0zm6.8605194 5.593754l0 -0.53125q0.5625 -0.03125 0.859375 -0.25q0.296875 -0.23437881 0.40625 -0.6250038q0.125 -0.40625 0.125 -0.953125l-0.046875 -7.546875l-1.921875 1.234375l-0.328125 -0.46875l3.125 -2.3125l0.546875 0l0.015625 9.703125q0 0.3125 -0.015625 0.609375q0 0.2812538 -0.03125 0.5000038q0.328125 -0.015625 0.65625 -0.03125q0.34375 -0.015625 0.6875 -0.03125l0 0.703125l-4.078125 0z" fill-rule="nonzero"/><path fill="#ea9999" d="m103.62467 20.087927l48.944878 0l0 59.02362l-48.944878 0z" fill-rule="evenodd"/><path stroke="#ffffff" stroke-width="1.0" stroke-linejoin="round" stroke-linecap="butt" d="m103.62467 20.087927l48.944878 0l0 59.02362l-48.944878 0z" fill-rule="evenodd"/><path fill="#000000" d="m127.27472 38.13161q-0.015625 -0.9375 -0.203125 -1.5625q-0.171875 -0.625 -0.609375 -0.9375q-0.4375 -0.3125 -1.265625 -0.296875l-1.359375 0l-0.015625 8.71875q0 0.4375 -0.015625 0.75q0 0.3125 -0.03125 0.515625q0.328125 -0.015625 0.65625 -0.03125q0.328125 -0.015625 0.671875 -0.03125l0 0.703125l-3.765625 0l0 -0.53125q0.609375 -0.03125 0.828125 -0.28125q0.21875 -0.265625 0.234375 -0.703125q0.03125 -0.4375 0.03125 -0.984375l0.015625 -8.109375l-1.65625 0.015625q-1.0 0 -1.421875 0.671875q-0.421875 0.671875 -0.421875 2.09375l-0.578125 0l0.09375 -3.375l9.328125 0l0.09375 3.375l-0.609375 0zm5.9431458 8.078125q-1.203125 0 -2.015625 -0.515625q-0.796875 -0.515625 -1.25 -1.375q-0.4375 -0.859375 -0.625 -1.875q-0.1875 -1.03125 -0.1875 -2.03125q0 -1.015625 0.234375 -2.046875q0.234375 -1.046875 0.734375 -1.921875q0.5 -0.875 1.28125 -1.40625q0.78125 -0.53125 1.90625 -0.53125q1.15625 0 1.9375 0.53125q0.78125 0.515625 1.234375 1.375q0.453125 0.859375 0.640625 1.890625q0.203125 1.015625 0.203125 2.03125q0 0.984375 -0.234375 2.03125q-0.21875 1.03125 -0.703125 1.90625q-0.484375 0.875 -1.265625 1.40625q-0.765625 0.53125 -1.890625 0.53125zm0.109375 -0.625q0.6875 0 1.125 -0.421875q0.453125 -0.4375 0.71875 -1.15625q0.265625 -0.71875 0.375 -1.59375q0.109375 -0.875 0.109375 -1.75q0 -0.96875 -0.109375 -1.9375q-0.109375 -0.984375 -0.390625 -1.796875q-0.265625 -0.828125 -0.734375 -1.3125q-0.453125 -0.5 -1.15625 -0.5q-0.703125 0 -1.171875 0.4375q-0.46875 0.421875 -0.765625 1.140625q-0.28125 0.71875 -0.40625 1.609375q-0.125 0.875 -0.125 1.765625q0 0.671875 0.0625 1.421875q0.0625 0.75 0.234375 1.484375q0.171875 0.734375 0.453125 1.328125q0.28125 0.578125 0.71875 0.9375q0.4375 0.34375 1.0625 0.34375z" fill-rule="nonzero"/><path fill="#000000" d="m119.6521 64.95974l0 -0.53125q0.609375 -0.03125 0.828125 -0.28125q0.234375 -0.2500038 0.25 -0.6875038q0.03125 -0.4375 0.03125 -1.0l0 -6.90625q0 -0.328125 0.015625 -0.609375q0.015625 -0.296875 0.03125 -0.546875q-0.28125 0.015625 -0.578125 0.03125q-0.28125 0.015625 -0.578125 0.03125l0 -0.703125q0.90625 -0.015625 1.8125 -0.03125q0.921875 -0.015625 1.859375 0.015625q1.546875 0.015625 2.5 0.359375q0.953125 0.34375 1.390625 0.984375q0.453125 0.625 0.453125 1.515625q0.015625 0.625 -0.234375 1.28125q-0.234375 0.640625 -0.890625 1.15625q-0.640625 0.515625 -1.859375 0.765625q0.3125 0.234375 0.546875 0.59375q0.25 0.34375 0.5625 0.796875l1.078125 1.71875q0.28125 0.4375 0.53125 0.78125q0.25 0.3437538 0.578125 0.5468788q0.34375 0.1875 0.84375 0.1875l0 0.53125l-2.015625 0q-0.46875 -0.421875 -0.78125 -0.828125q-0.3125 -0.4218788 -0.640625 -0.9531288l-1.078125 -1.703125q-0.203125 -0.34375 -0.46875 -0.78125q-0.265625 -0.4375 -0.59375 -0.75q-0.265625 0.03125 -0.546875 0.03125q-0.28125 0 -0.546875 -0.03125l0 3.109375q0 0.4375 -0.015625 0.75q0 0.3125038 -0.03125 0.5156288q0.1875 -0.015625 0.375 -0.015625q0.203125 -0.015625 0.390625 -0.03125q0.1875 -0.015625 0.390625 -0.015625l0 0.703125l-3.609375 0zm3.5 -5.593754q0.875 -0.03125 1.53125 -0.28125q0.671875 -0.265625 1.046875 -0.828125q0.390625 -0.5625 0.390625 -1.46875q0 -0.609375 -0.171875 -1.0625q-0.15625 -0.46875 -0.515625 -0.765625q-0.359375 -0.296875 -0.90625 -0.453125q-0.53125 -0.15625 -1.265625 -0.15625q-0.59375 0 -0.828125 0.25q-0.234375 0.234375 -0.265625 0.65625q-0.015625 0.421875 -0.015625 1.0l0 3.078125q0.25 0.015625 0.484375 0.03125q0.234375 0.015625 0.515625 0zm6.4073944 5.593754q0 -0.84375 0.265625 -1.5000038q0.265625 -0.65625 0.703125 -1.203125q0.453125 -0.5625 1.015625 -1.078125q0.578125 -0.515625 1.171875 -1.09375q1.03125 -1.0 1.5 -1.84375q0.46875 -0.84375 0.46875 -1.640625q0 -0.59375 -0.171875 -1.15625q-0.171875 -0.578125 -0.609375 -0.9375q-0.421875 -0.375 -1.1875 -0.375q-0.65625 0 -1.171875 0.328125q-0.515625 0.328125 -0.6875 0.796875q0.15625 0.171875 0.21875 0.359375q0.0625 0.171875 0.0625 0.359375q0 0.140625 -0.078125 0.3125q-0.0625 0.171875 -0.234375 0.3125q-0.171875 0.125 -0.46875 0.125q-0.34375 -0.015625 -0.546875 -0.265625q-0.1875 -0.265625 -0.1875 -0.625q0 -0.328125 0.203125 -0.734375q0.21875 -0.40625 0.640625 -0.765625q0.421875 -0.359375 1.046875 -0.59375q0.625 -0.234375 1.453125 -0.234375q0.640625 0 1.234375 0.15625q0.609375 0.140625 1.078125 0.484375q0.484375 0.328125 0.765625 0.890625q0.28125 0.546875 0.28125 1.359375q0 0.40625 -0.171875 0.875q-0.15625 0.453125 -0.53125 1.0q-0.375 0.53125 -0.96875 1.140625q-0.59375 0.59375 -1.453125 1.296875q-1.09375 0.890625 -1.796875 1.6875q-0.6875 0.78125 -0.796875 1.34375l2.828125 0.078125q0.78125 0.015625 1.375 0q0.609375 -0.015625 0.953125 -0.234375q0.34375 -0.234375 0.34375 -0.859375l0.484375 0l-0.109375 2.2343788l-6.921875 0z" fill-rule="nonzero"/><path fill="#ea9999" d="m152.56955 20.087927l48.944885 0l0 59.02362l-48.944885 0z" fill-rule="evenodd"/><path stroke="#ffffff" stroke-width="1.0" stroke-linejoin="round" stroke-linecap="butt" d="m152.56955 20.087927l48.944885 0l0 59.02362l-48.944885 0z" fill-rule="evenodd"/><path fill="#000000" d="m176.2196 38.13161q-0.015625 -0.9375 -0.203125 -1.5625q-0.171875 -0.625 -0.609375 -0.9375q-0.4375 -0.3125 -1.265625 -0.296875l-1.359375 0l-0.015625 8.71875q0 0.4375 -0.015625 0.75q0 0.3125 -0.03125 0.515625q0.328125 -0.015625 0.65625 -0.03125q0.328125 -0.015625 0.671875 -0.03125l0 0.703125l-3.765625 0l0 -0.53125q0.609375 -0.03125 0.828125 -0.28125q0.21875 -0.265625 0.234375 -0.703125q0.03125 -0.4375 0.03125 -0.984375l0.015625 -8.109375l-1.65625 0.015625q-1.0 0 -1.421875 0.671875q-0.421875 0.671875 -0.421875 2.09375l-0.578125 0l0.09375 -3.375l9.328125 0l0.09375 3.375l-0.609375 0zm5.9431458 8.078125q-1.203125 0 -2.015625 -0.515625q-0.796875 -0.515625 -1.25 -1.375q-0.4375 -0.859375 -0.625 -1.875q-0.1875 -1.03125 -0.1875 -2.03125q0 -1.015625 0.234375 -2.046875q0.234375 -1.046875 0.734375 -1.921875q0.5 -0.875 1.28125 -1.40625q0.78125 -0.53125 1.90625 -0.53125q1.15625 0 1.9375 0.53125q0.78125 0.515625 1.234375 1.375q0.453125 0.859375 0.640625 1.890625q0.203125 1.015625 0.203125 2.03125q0 0.984375 -0.234375 2.03125q-0.21875 1.03125 -0.703125 1.90625q-0.484375 0.875 -1.265625 1.40625q-0.765625 0.53125 -1.890625 0.53125zm0.109375 -0.625q0.6875 0 1.125 -0.421875q0.453125 -0.4375 0.71875 -1.15625q0.265625 -0.71875 0.375 -1.59375q0.109375 -0.875 0.109375 -1.75q0 -0.96875 -0.109375 -1.9375q-0.109375 -0.984375 -0.390625 -1.796875q-0.265625 -0.828125 -0.734375 -1.3125q-0.453125 -0.5 -1.15625 -0.5q-0.703125 0 -1.171875 0.4375q-0.46875 0.421875 -0.765625 1.140625q-0.28125 0.71875 -0.40625 1.609375q-0.125 0.875 -0.125 1.765625q0 0.671875 0.0625 1.421875q0.0625 0.75 0.234375 1.484375q0.171875 0.734375 0.453125 1.328125q0.28125 0.578125 0.71875 0.9375q0.4375 0.34375 1.0625 0.34375z" fill-rule="nonzero"/><path fill="#000000" d="m168.43698 64.95974l0 -0.53125q0.609375 -0.03125 0.828125 -0.28125q0.234375 -0.2500038 0.25 -0.6875038q0.03125 -0.4375 0.03125 -1.0l0 -6.90625q0 -0.328125 0.015625 -0.609375q0.015625 -0.296875 0.03125 -0.546875q-0.28125 0.015625 -0.578125 0.03125q-0.28125 0.015625 -0.578125 0.03125l0 -0.703125q0.90625 -0.015625 1.8125 -0.03125q0.921875 -0.015625 1.859375 0.015625q1.546875 0.015625 2.5 0.359375q0.953125 0.34375 1.390625 0.984375q0.453125 0.625 0.453125 1.515625q0.015625 0.625 -0.234375 1.28125q-0.234375 0.640625 -0.890625 1.15625q-0.640625 0.515625 -1.859375 0.765625q0.3125 0.234375 0.546875 0.59375q0.25 0.34375 0.5625 0.796875l1.078125 1.71875q0.28125 0.4375 0.53125 0.78125q0.25 0.3437538 0.578125 0.5468788q0.34375 0.1875 0.84375 0.1875l0 0.53125l-2.015625 0q-0.46875 -0.421875 -0.78125 -0.828125q-0.3125 -0.4218788 -0.640625 -0.9531288l-1.078125 -1.703125q-0.203125 -0.34375 -0.46875 -0.78125q-0.265625 -0.4375 -0.59375 -0.75q-0.265625 0.03125 -0.546875 0.03125q-0.28125 0 -0.546875 -0.03125l0 3.109375q0 0.4375 -0.015625 0.75q0 0.3125038 -0.03125 0.5156288q0.1875 -0.015625 0.375 -0.015625q0.203125 -0.015625 0.390625 -0.03125q0.1875 -0.015625 0.390625 -0.015625l0 0.703125l-3.609375 0zm3.5 -5.593754q0.875 -0.03125 1.53125 -0.28125q0.671875 -0.265625 1.046875 -0.828125q0.390625 -0.5625 0.390625 -1.46875q0 -0.609375 -0.171875 -1.0625q-0.15625 -0.46875 -0.515625 -0.765625q-0.359375 -0.296875 -0.90625 -0.453125q-0.53125 -0.15625 -1.265625 -0.15625q-0.59375 0 -0.828125 0.25q-0.234375 0.234375 -0.265625 0.65625q-0.015625 0.421875 -0.015625 1.0l0 3.078125q0.25 0.015625 0.484375 0.03125q0.234375 0.015625 0.515625 0zm9.751144 5.843754q-1.15625 0 -1.90625 -0.34375q-0.75 -0.34375 -1.109375 -0.84375q-0.359375 -0.5156288 -0.359375 -0.9843788q0 -0.359375 0.1875 -0.609375q0.203125 -0.25 0.546875 -0.265625q0.296875 -0.015625 0.453125 0.109375q0.171875 0.109375 0.234375 0.296875q0.0625 0.171875 0.0625 0.3125q0 0.15625 -0.046875 0.328125q-0.046875 0.15625 -0.125 0.3125q0.15625 0.5468788 0.71875 0.7812538q0.578125 0.234375 1.234375 0.234375q1.140625 0 1.8125 -0.6093788q0.6875 -0.625 0.6875 -1.8125q0 -0.703125 -0.234375 -1.328125q-0.21875 -0.640625 -0.828125 -1.03125q-0.609375 -0.40625 -1.78125 -0.375q-0.125 0 -0.265625 0.015625q-0.140625 0 -0.3125 0.015625l0 -0.71875q0.171875 0 0.328125 0q0.15625 0 0.328125 0q0.84375 0 1.3125 -0.390625q0.484375 -0.390625 0.6875 -0.90625q0.21875 -0.53125 0.21875 -0.984375q0 -0.65625 -0.171875 -1.171875q-0.171875 -0.515625 -0.59375 -0.8125q-0.40625 -0.296875 -1.140625 -0.296875q-0.71875 0 -1.234375 0.375q-0.515625 0.375 -0.640625 0.765625q0.140625 0.171875 0.203125 0.328125q0.0625 0.15625 0.0625 0.328125q0 0.140625 -0.078125 0.3125q-0.078125 0.15625 -0.234375 0.265625q-0.15625 0.109375 -0.4375 0.109375q-0.328125 0 -0.515625 -0.234375q-0.171875 -0.234375 -0.171875 -0.578125q0 -0.4375 0.359375 -0.96875q0.359375 -0.546875 1.078125 -0.9375q0.734375 -0.390625 1.828125 -0.390625q0.875 0 1.609375 0.28125q0.734375 0.265625 1.171875 0.875q0.453125 0.609375 0.453125 1.625q0 0.5 -0.25 1.0q-0.25 0.5 -0.8125 0.9375q-0.5625 0.4375 -1.5625 0.734375q1.53125 0.15625 2.390625 0.984375q0.875 0.8125 0.875 2.0625q0 1.078125 -0.578125 1.796875q-0.5625 0.7031288 -1.484375 1.0625038q-0.90625 0.34375 -1.96875 0.34375z" fill-rule="nonzero"/><path fill="#b6d7a8" d="m201.51443 20.087927l48.944885 0l0 59.02362l-48.944885 0z" fill-rule="evenodd"/><path stroke="#ffffff" stroke-width="1.0" stroke-linejoin="round" stroke-linecap="butt" d="m201.51443 20.087927l48.944885 0l0 59.02362l-48.944885 0z" fill-rule="evenodd"/><path fill="#000000" d="m227.22049 38.13161q-0.015625 -0.9375 -0.203125 -1.5625q-0.171875 -0.625 -0.609375 -0.9375q-0.4375 -0.3125 -1.265625 -0.296875l-1.359375 0l-0.015625 8.71875q0 0.4375 -0.015625 0.75q0 0.3125 -0.03125 0.515625q0.328125 -0.015625 0.65625 -0.03125q0.328125 -0.015625 0.671875 -0.03125l0 0.703125l-3.765625 0l0 -0.53125q0.609375 -0.03125 0.828125 -0.28125q0.21875 -0.265625 0.234375 -0.703125q0.03125 -0.4375 0.03125 -0.984375l0.015625 -8.109375l-1.65625 0.015625q-1.0 0 -1.421875 0.671875q-0.421875 0.671875 -0.421875 2.09375l-0.578125 0l0.09375 -3.375l9.328125 0l0.09375 3.375l-0.609375 0zm2.1618958 7.828125l0 -0.53125q0.5625 -0.03125 0.859375 -0.25q0.296875 -0.234375 0.40625 -0.625q0.125 -0.40625 0.125 -0.953125l-0.046875 -7.546875l-1.921875 1.234375l-0.328125 -0.46875l3.125 -2.3125l0.546875 0l0.015625 9.703125q0 0.3125 -0.015625 0.609375q0 0.28125 -0.03125 0.5q0.328125 -0.015625 0.65625 -0.03125q0.34375 -0.015625 0.6875 -0.03125l0 0.703125l-4.078125 0z" fill-rule="nonzero"/><path fill="#000000" d="m216.86986 64.95974l0 -0.53125q0.609375 -0.03125 0.828125 -0.28125q0.234375 -0.2500038 0.25 -0.6875038q0.03125 -0.4375 0.03125 -1.0l0 -6.90625q0 -0.328125 0.015625 -0.609375q0.015625 -0.296875 0.03125 -0.546875q-0.28125 0.015625 -0.578125 0.03125q-0.28125 0.015625 -0.578125 0.03125l0 -0.703125q0.90625 -0.015625 1.8125 -0.03125q0.921875 -0.015625 1.859375 0.015625q1.546875 0.015625 2.5 0.359375q0.953125 0.34375 1.390625 0.984375q0.453125 0.625 0.453125 1.515625q0.015625 0.625 -0.234375 1.28125q-0.234375 0.640625 -0.890625 1.15625q-0.640625 0.515625 -1.859375 0.765625q0.3125 0.234375 0.546875 0.59375q0.25 0.34375 0.5625 0.796875l1.078125 1.71875q0.28125 0.4375 0.53125 0.78125q0.25 0.3437538 0.578125 0.5468788q0.34375 0.1875 0.84375 0.1875l0 0.53125l-2.015625 0q-0.46875 -0.421875 -0.78125 -0.828125q-0.3125 -0.4218788 -0.640625 -0.9531288l-1.078125 -1.703125q-0.203125 -0.34375 -0.46875 -0.78125q-0.265625 -0.4375 -0.59375 -0.75q-0.265625 0.03125 -0.546875 0.03125q-0.28125 0 -0.546875 -0.03125l0 3.109375q0 0.4375 -0.015625 0.75q0 0.3125038 -0.03125 0.5156288q0.1875 -0.015625 0.375 -0.015625q0.203125 -0.015625 0.390625 -0.03125q0.1875 -0.015625 0.390625 -0.015625l0 0.703125l-3.609375 0zm3.5 -5.593754q0.875 -0.03125 1.53125 -0.28125q0.671875 -0.265625 1.046875 -0.828125q0.390625 -0.5625 0.390625 -1.46875q0 -0.609375 -0.171875 -1.0625q-0.15625 -0.46875 -0.515625 -0.765625q-0.359375 -0.296875 -0.90625 -0.453125q-0.53125 -0.15625 -1.265625 -0.15625q-0.59375 0 -0.828125 0.25q-0.234375 0.234375 -0.265625 0.65625q-0.015625 0.421875 -0.015625 1.0l0 3.078125q0.25 0.015625 0.484375 0.03125q0.234375 0.015625 0.515625 0zm10.641769 5.843754q-1.203125 0 -2.015625 -0.515625q-0.796875 -0.515625 -1.25 -1.3750038q-0.4375 -0.859375 -0.625 -1.875q-0.1875 -1.03125 -0.1875 -2.03125q0 -1.015625 0.234375 -2.046875q0.234375 -1.046875 0.734375 -1.921875q0.5 -0.875 1.28125 -1.40625q0.78125 -0.53125 1.90625 -0.53125q1.15625 0 1.9375 0.53125q0.78125 0.515625 1.234375 1.375q0.453125 0.859375 0.640625 1.890625q0.203125 1.015625 0.203125 2.03125q0 0.984375 -0.234375 2.03125q-0.21875 1.03125 -0.703125 1.90625q-0.484375 0.8750038 -1.265625 1.4062538q-0.765625 0.53125 -1.890625 0.53125zm0.109375 -0.625q0.6875 0 1.125 -0.421875q0.453125 -0.4375038 0.71875 -1.1562538q0.265625 -0.71875 0.375 -1.59375q0.109375 -0.875 0.109375 -1.75q0 -0.96875 -0.109375 -1.9375q-0.109375 -0.984375 -0.390625 -1.796875q-0.265625 -0.828125 -0.734375 -1.3125q-0.453125 -0.5 -1.15625 -0.5q-0.703125 0 -1.171875 0.4375q-0.46875 0.421875 -0.765625 1.140625q-0.28125 0.71875 -0.40625 1.609375q-0.125 0.875 -0.125 1.765625q0 0.671875 0.0625 1.421875q0.0625 0.75 0.234375 1.484375q0.171875 0.734375 0.453125 1.328125q0.28125 0.578125 0.71875 0.9375038q0.4375 0.34375 1.0625 0.34375z" fill-rule="nonzero"/><path fill="#b6d7a8" d="m250.45932 20.087927l48.944885 0l0 59.02362l-48.944885 0z" fill-rule="evenodd"/><path stroke="#ffffff" stroke-width="1.0" stroke-linejoin="round" stroke-linecap="butt" d="m250.45932 20.087927l48.944885 0l0 59.02362l-48.944885 0z" fill-rule="evenodd"/><path fill="#000000" d="m276.16537 38.13161q-0.015625 -0.9375 -0.203125 -1.5625q-0.171875 -0.625 -0.609375 -0.9375q-0.4375 -0.3125 -1.265625 -0.296875l-1.359375 0l-0.015625 8.71875q0 0.4375 -0.015625 0.75q0 0.3125 -0.03125 0.515625q0.328125 -0.015625 0.65625 -0.03125q0.328125 -0.015625 0.671875 -0.03125l0 0.703125l-3.765625 0l0 -0.53125q0.609375 -0.03125 0.828125 -0.28125q0.21875 -0.265625 0.234375 -0.703125q0.03125 -0.4375 0.03125 -0.984375l0.015625 -8.109375l-1.65625 0.015625q-1.0 0 -1.421875 0.671875q-0.421875 0.671875 -0.421875 2.09375l-0.578125 0l0.09375 -3.375l9.328125 0l0.09375 3.375l-0.609375 0zm2.1618958 7.828125l0 -0.53125q0.5625 -0.03125 0.859375 -0.25q0.296875 -0.234375 0.40625 -0.625q0.125 -0.40625 0.125 -0.953125l-0.046875 -7.546875l-1.921875 1.234375l-0.328125 -0.46875l3.125 -2.3125l0.546875 0l0.015625 9.703125q0 0.3125 -0.015625 0.609375q0 0.28125 -0.03125 0.5q0.328125 -0.015625 0.65625 -0.03125q0.34375 -0.015625 0.6875 -0.03125l0 0.703125l-4.078125 0z" fill-rule="nonzero"/><path fill="#000000" d="m267.87076 64.95974l0 -0.53125q0.609375 -0.03125 0.828125 -0.28125q0.234375 -0.2500038 0.25 -0.6875038q0.03125 -0.4375 0.03125 -1.0l0 -6.90625q0 -0.328125 0.015625 -0.609375q0.015625 -0.296875 0.03125 -0.546875q-0.28125 0.015625 -0.578125 0.03125q-0.28125 0.015625 -0.578125 0.03125l0 -0.703125q0.90625 -0.015625 1.8125 -0.03125q0.921875 -0.015625 1.859375 0.015625q1.546875 0.015625 2.5 0.359375q0.953125 0.34375 1.390625 0.984375q0.453125 0.625 0.453125 1.515625q0.015625 0.625 -0.234375 1.28125q-0.234375 0.640625 -0.890625 1.15625q-0.640625 0.515625 -1.859375 0.765625q0.3125 0.234375 0.546875 0.59375q0.25 0.34375 0.5625 0.796875l1.078125 1.71875q0.28125 0.4375 0.53125 0.78125q0.25 0.3437538 0.578125 0.5468788q0.34375 0.1875 0.84375 0.1875l0 0.53125l-2.015625 0q-0.46875 -0.421875 -0.78125 -0.828125q-0.3125 -0.4218788 -0.640625 -0.9531288l-1.078125 -1.703125q-0.203125 -0.34375 -0.46875 -0.78125q-0.265625 -0.4375 -0.59375 -0.75q-0.265625 0.03125 -0.546875 0.03125q-0.28125 0 -0.546875 -0.03125l0 3.109375q0 0.4375 -0.015625 0.75q0 0.3125038 -0.03125 0.5156288q0.1875 -0.015625 0.375 -0.015625q0.203125 -0.015625 0.390625 -0.03125q0.1875 -0.015625 0.390625 -0.015625l0 0.703125l-3.609375 0zm3.5 -5.593754q0.875 -0.03125 1.53125 -0.28125q0.671875 -0.265625 1.046875 -0.828125q0.390625 -0.5625 0.390625 -1.46875q0 -0.609375 -0.171875 -1.0625q-0.15625 -0.46875 -0.515625 -0.765625q-0.359375 -0.296875 -0.90625 -0.453125q-0.53125 -0.15625 -1.265625 -0.15625q-0.59375 0 -0.828125 0.25q-0.234375 0.234375 -0.265625 0.65625q-0.015625 0.421875 -0.015625 1.0l0 3.078125q0.25 0.015625 0.484375 0.03125q0.234375 0.015625 0.515625 0zm6.860504 5.593754l0 -0.53125q0.5625 -0.03125 0.859375 -0.25q0.296875 -0.23437881 0.40625 -0.6250038q0.125 -0.40625 0.125 -0.953125l-0.046875 -7.546875l-1.921875 1.234375l-0.328125 -0.46875l3.125 -2.3125l0.546875 0l0.015625 9.703125q0 0.3125 -0.015625 0.609375q0 0.2812538 -0.03125 0.5000038q0.328125 -0.015625 0.65625 -0.03125q0.34375 -0.015625 0.6875 -0.03125l0 0.703125l-4.078125 0z" fill-rule="nonzero"/><path fill="#b6d7a8" d="m299.4042 20.087927l48.944885 0l0 59.02362l-48.944885 0z" fill-rule="evenodd"/><path stroke="#ffffff" stroke-width="1.0" stroke-linejoin="round" stroke-linecap="butt" d="m299.4042 20.087927l48.944885 0l0 59.02362l-48.944885 0z" fill-rule="evenodd"/><path fill="#000000" d="m325.11026 38.13161q-0.015625 -0.9375 -0.203125 -1.5625q-0.171875 -0.625 -0.609375 -0.9375q-0.4375 -0.3125 -1.265625 -0.296875l-1.359375 0l-0.015625 8.71875q0 0.4375 -0.015625 0.75q0 0.3125 -0.03125 0.515625q0.328125 -0.015625 0.65625 -0.03125q0.328125 -0.015625 0.671875 -0.03125l0 0.703125l-3.765625 0l0 -0.53125q0.609375 -0.03125 0.828125 -0.28125q0.21875 -0.265625 0.234375 -0.703125q0.03125 -0.4375 0.03125 -0.984375l0.015625 -8.109375l-1.65625 0.015625q-1.0 0 -1.421875 0.671875q-0.421875 0.671875 -0.421875 2.09375l-0.578125 0l0.09375 -3.375l9.328125 0l0.09375 3.375l-0.609375 0zm2.1618958 7.828125l0 -0.53125q0.5625 -0.03125 0.859375 -0.25q0.296875 -0.234375 0.40625 -0.625q0.125 -0.40625 0.125 -0.953125l-0.046875 -7.546875l-1.921875 1.234375l-0.328125 -0.46875l3.125 -2.3125l0.546875 0l0.015625 9.703125q0 0.3125 -0.015625 0.609375q0 0.28125 -0.03125 0.5q0.328125 -0.015625 0.65625 -0.03125q0.34375 -0.015625 0.6875 -0.03125l0 0.703125l-4.078125 0z" fill-rule="nonzero"/><path fill="#000000" d="m315.4316 64.95974l0 -0.53125q0.609375 -0.03125 0.828125 -0.28125q0.234375 -0.2500038 0.25 -0.6875038q0.03125 -0.4375 0.03125 -1.0l0 -6.90625q0 -0.328125 0.015625 -0.609375q0.015625 -0.296875 0.03125 -0.546875q-0.28125 0.015625 -0.578125 0.03125q-0.28125 0.015625 -0.578125 0.03125l0 -0.703125q0.90625 -0.015625 1.8125 -0.03125q0.921875 -0.015625 1.859375 0.015625q1.546875 0.015625 2.5 0.359375q0.953125 0.34375 1.390625 0.984375q0.453125 0.625 0.453125 1.515625q0.015625 0.625 -0.234375 1.28125q-0.234375 0.640625 -0.890625 1.15625q-0.640625 0.515625 -1.859375 0.765625q0.3125 0.234375 0.546875 0.59375q0.25 0.34375 0.5625 0.796875l1.078125 1.71875q0.28125 0.4375 0.53125 0.78125q0.25 0.3437538 0.578125 0.5468788q0.34375 0.1875 0.84375 0.1875l0 0.53125l-2.015625 0q-0.46875 -0.421875 -0.78125 -0.828125q-0.3125 -0.4218788 -0.640625 -0.9531288l-1.078125 -1.703125q-0.203125 -0.34375 -0.46875 -0.78125q-0.265625 -0.4375 -0.59375 -0.75q-0.265625 0.03125 -0.546875 0.03125q-0.28125 0 -0.546875 -0.03125l0 3.109375q0 0.4375 -0.015625 0.75q0 0.3125038 -0.03125 0.5156288q0.1875 -0.015625 0.375 -0.015625q0.203125 -0.015625 0.390625 -0.03125q0.1875 -0.015625 0.390625 -0.015625l0 0.703125l-3.609375 0zm3.5 -5.593754q0.875 -0.03125 1.53125 -0.28125q0.671875 -0.265625 1.046875 -0.828125q0.390625 -0.5625 0.390625 -1.46875q0 -0.609375 -0.171875 -1.0625q-0.15625 -0.46875 -0.515625 -0.765625q-0.359375 -0.296875 -0.90625 -0.453125q-0.53125 -0.15625 -1.265625 -0.15625q-0.59375 0 -0.828125 0.25q-0.234375 0.234375 -0.265625 0.65625q-0.015625 0.421875 -0.015625 1.0l0 3.078125q0.25 0.015625 0.484375 0.03125q0.234375 0.015625 0.515625 0zm6.4074097 5.593754q0 -0.84375 0.265625 -1.5000038q0.265625 -0.65625 0.703125 -1.203125q0.453125 -0.5625 1.015625 -1.078125q0.578125 -0.515625 1.171875 -1.09375q1.03125 -1.0 1.5 -1.84375q0.46875 -0.84375 0.46875 -1.640625q0 -0.59375 -0.171875 -1.15625q-0.171875 -0.578125 -0.609375 -0.9375q-0.421875 -0.375 -1.1875 -0.375q-0.65625 0 -1.171875 0.328125q-0.515625 0.328125 -0.6875 0.796875q0.15625 0.171875 0.21875 0.359375q0.0625 0.171875 0.0625 0.359375q0 0.140625 -0.078125 0.3125q-0.0625 0.171875 -0.234375 0.3125q-0.171875 0.125 -0.46875 0.125q-0.34375 -0.015625 -0.546875 -0.265625q-0.1875 -0.265625 -0.1875 -0.625q0 -0.328125 0.203125 -0.734375q0.21875 -0.40625 0.640625 -0.765625q0.421875 -0.359375 1.046875 -0.59375q0.625 -0.234375 1.453125 -0.234375q0.640625 0 1.234375 0.15625q0.609375 0.140625 1.078125 0.484375q0.484375 0.328125 0.765625 0.890625q0.28125 0.546875 0.28125 1.359375q0 0.40625 -0.171875 0.875q-0.15625 0.453125 -0.53125 1.0q-0.375 0.53125 -0.96875 1.140625q-0.59375 0.59375 -1.453125 1.296875q-1.09375 0.890625 -1.796875 1.6875q-0.6875 0.78125 -0.796875 1.34375l2.828125 0.078125q0.78125 0.015625 1.375 0q0.609375 -0.015625 0.953125 -0.234375q0.34375 -0.234375 0.34375 -0.859375l0.484375 0l-0.109375 2.2343788l-6.921875 0z" fill-rule="nonzero"/><path fill="#b6d7a8" d="m348.3491 20.087927l48.944885 0l0 59.02362l-48.944885 0z" fill-rule="evenodd"/><path stroke="#ffffff" stroke-width="1.0" stroke-linejoin="round" stroke-linecap="butt" d="m348.3491 20.087927l48.944885 0l0 59.02362l-48.944885 0z" fill-rule="evenodd"/><path fill="#000000" d="m374.05515 38.13161q-0.015625 -0.9375 -0.203125 -1.5625q-0.171875 -0.625 -0.609375 -0.9375q-0.4375 -0.3125 -1.265625 -0.296875l-1.359375 0l-0.015625 8.71875q0 0.4375 -0.015625 0.75q0 0.3125 -0.03125 0.515625q0.328125 -0.015625 0.65625 -0.03125q0.328125 -0.015625 0.671875 -0.03125l0 0.703125l-3.765625 0l0 -0.53125q0.609375 -0.03125 0.828125 -0.28125q0.21875 -0.265625 0.234375 -0.703125q0.03125 -0.4375 0.03125 -0.984375l0.015625 -8.109375l-1.65625 0.015625q-1.0 0 -1.421875 0.671875q-0.421875 0.671875 -0.421875 2.09375l-0.578125 0l0.09375 -3.375l9.328125 0l0.09375 3.375l-0.609375 0zm2.1618958 7.828125l0 -0.53125q0.5625 -0.03125 0.859375 -0.25q0.296875 -0.234375 0.40625 -0.625q0.125 -0.40625 0.125 -0.953125l-0.046875 -7.546875l-1.921875 1.234375l-0.328125 -0.46875l3.125 -2.3125l0.546875 0l0.015625 9.703125q0 0.3125 -0.015625 0.609375q0 0.28125 -0.03125 0.5q0.328125 -0.015625 0.65625 -0.03125q0.34375 -0.015625 0.6875 -0.03125l0 0.703125l-4.078125 0z" fill-rule="nonzero"/><path fill="#000000" d="m364.2165 64.95974l0 -0.53125q0.609375 -0.03125 0.828125 -0.28125q0.234375 -0.2500038 0.25 -0.6875038q0.03125 -0.4375 0.03125 -1.0l0 -6.90625q0 -0.328125 0.015625 -0.609375q0.015625 -0.296875 0.03125 -0.546875q-0.28125 0.015625 -0.578125 0.03125q-0.28125 0.015625 -0.578125 0.03125l0 -0.703125q0.90625 -0.015625 1.8125 -0.03125q0.921875 -0.015625 1.859375 0.015625q1.546875 0.015625 2.5 0.359375q0.953125 0.34375 1.390625 0.984375q0.453125 0.625 0.453125 1.515625q0.015625 0.625 -0.234375 1.28125q-0.234375 0.640625 -0.890625 1.15625q-0.640625 0.515625 -1.859375 0.765625q0.3125 0.234375 0.546875 0.59375q0.25 0.34375 0.5625 0.796875l1.078125 1.71875q0.28125 0.4375 0.53125 0.78125q0.25 0.3437538 0.578125 0.5468788q0.34375 0.1875 0.84375 0.1875l0 0.53125l-2.015625 0q-0.46875 -0.421875 -0.78125 -0.828125q-0.3125 -0.4218788 -0.640625 -0.9531288l-1.078125 -1.703125q-0.203125 -0.34375 -0.46875 -0.78125q-0.265625 -0.4375 -0.59375 -0.75q-0.265625 0.03125 -0.546875 0.03125q-0.28125 0 -0.546875 -0.03125l0 3.109375q0 0.4375 -0.015625 0.75q0 0.3125038 -0.03125 0.5156288q0.1875 -0.015625 0.375 -0.015625q0.203125 -0.015625 0.390625 -0.03125q0.1875 -0.015625 0.390625 -0.015625l0 0.703125l-3.609375 0zm3.5 -5.593754q0.875 -0.03125 1.53125 -0.28125q0.671875 -0.265625 1.046875 -0.828125q0.390625 -0.5625 0.390625 -1.46875q0 -0.609375 -0.171875 -1.0625q-0.15625 -0.46875 -0.515625 -0.765625q-0.359375 -0.296875 -0.90625 -0.453125q-0.53125 -0.15625 -1.265625 -0.15625q-0.59375 0 -0.828125 0.25q-0.234375 0.234375 -0.265625 0.65625q-0.015625 0.421875 -0.015625 1.0l0 3.078125q0.25 0.015625 0.484375 0.03125q0.234375 0.015625 0.515625 0zm9.75116 5.843754q-1.15625 0 -1.90625 -0.34375q-0.75 -0.34375 -1.109375 -0.84375q-0.359375 -0.5156288 -0.359375 -0.9843788q0 -0.359375 0.1875 -0.609375q0.203125 -0.25 0.546875 -0.265625q0.296875 -0.015625 0.453125 0.109375q0.171875 0.109375 0.234375 0.296875q0.0625 0.171875 0.0625 0.3125q0 0.15625 -0.046875 0.328125q-0.046875 0.15625 -0.125 0.3125q0.15625 0.5468788 0.71875 0.7812538q0.578125 0.234375 1.234375 0.234375q1.140625 0 1.8125 -0.6093788q0.6875 -0.625 0.6875 -1.8125q0 -0.703125 -0.234375 -1.328125q-0.21875 -0.640625 -0.828125 -1.03125q-0.609375 -0.40625 -1.78125 -0.375q-0.125 0 -0.265625 0.015625q-0.140625 0 -0.3125 0.015625l0 -0.71875q0.171875 0 0.328125 0q0.15625 0 0.328125 0q0.84375 0 1.3125 -0.390625q0.484375 -0.390625 0.6875 -0.90625q0.21875 -0.53125 0.21875 -0.984375q0 -0.65625 -0.171875 -1.171875q-0.171875 -0.515625 -0.59375 -0.8125q-0.40625 -0.296875 -1.140625 -0.296875q-0.71875 0 -1.234375 0.375q-0.515625 0.375 -0.640625 0.765625q0.140625 0.171875 0.203125 0.328125q0.0625 0.15625 0.0625 0.328125q0 0.140625 -0.078125 0.3125q-0.078125 0.15625 -0.234375 0.265625q-0.15625 0.109375 -0.4375 0.109375q-0.328125 0 -0.515625 -0.234375q-0.171875 -0.234375 -0.171875 -0.578125q0 -0.4375 0.359375 -0.96875q0.359375 -0.546875 1.078125 -0.9375q0.734375 -0.390625 1.828125 -0.390625q0.875 0 1.609375 0.28125q0.734375 0.265625 1.171875 0.875q0.453125 0.609375 0.453125 1.625q0 0.5 -0.25 1.0q-0.25 0.5 -0.8125 0.9375q-0.5625 0.4375 -1.5625 0.734375q1.53125 0.15625 2.390625 0.984375q0.875 0.8125 0.875 2.0625q0 1.078125 -0.578125 1.796875q-0.5625 0.7031288 -1.484375 1.0625038q-0.90625 0.34375 -1.96875 0.34375z" fill-rule="nonzero"/><path fill="#b4a7d6" d="m397.29398 20.087927l48.944855 0l0 59.02362l-48.944855 0z" fill-rule="evenodd"/><path stroke="#ffffff" stroke-width="1.0" stroke-linejoin="round" stroke-linecap="butt" d="m397.29398 20.087927l48.944855 0l0 59.02362l-48.944855 0z" fill-rule="evenodd"/><path fill="#000000" d="m421.61603 38.13161q-0.015625 -0.9375 -0.203125 -1.5625q-0.171875 -0.625 -0.609375 -0.9375q-0.4375 -0.3125 -1.265625 -0.296875l-1.359375 0l-0.015625 8.71875q0 0.4375 -0.015625 0.75q0 0.3125 -0.03125 0.515625q0.328125 -0.015625 0.65625 -0.03125q0.328125 -0.015625 0.671875 -0.03125l0 0.703125l-3.765625 0l0 -0.53125q0.609375 -0.03125 0.828125 -0.28125q0.21875 -0.265625 0.234375 -0.703125q0.03125 -0.4375 0.03125 -0.984375l0.015625 -8.109375l-1.65625 0.015625q-1.0 0 -1.421875 0.671875q-0.421875 0.671875 -0.421875 2.09375l-0.578125 0l0.09375 -3.375l9.328125 0l0.09375 3.375l-0.609375 0zm1.7087708 7.828125q0 -0.84375 0.265625 -1.5q0.265625 -0.65625 0.703125 -1.203125q0.453125 -0.5625 1.015625 -1.078125q0.578125 -0.515625 1.171875 -1.09375q1.03125 -1.0 1.5 -1.84375q0.46875 -0.84375 0.46875 -1.640625q0 -0.59375 -0.171875 -1.15625q-0.171875 -0.578125 -0.609375 -0.9375q-0.421875 -0.375 -1.1875 -0.375q-0.65625 0 -1.171875 0.328125q-0.515625 0.328125 -0.6875 0.796875q0.15625 0.171875 0.21875 0.359375q0.0625 0.171875 0.0625 0.359375q0 0.140625 -0.078125 0.3125q-0.0625 0.171875 -0.234375 0.3125q-0.171875 0.125 -0.46875 0.125q-0.34375 -0.015625 -0.546875 -0.265625q-0.1875 -0.265625 -0.1875 -0.625q0 -0.328125 0.203125 -0.734375q0.21875 -0.40625 0.640625 -0.765625q0.421875 -0.359375 1.046875 -0.59375q0.625 -0.234375 1.453125 -0.234375q0.640625 0 1.234375 0.15625q0.609375 0.140625 1.078125 0.484375q0.484375 0.328125 0.765625 0.890625q0.28125 0.546875 0.28125 1.359375q0 0.40625 -0.171875 0.875q-0.15625 0.453125 -0.53125 1.0q-0.375 0.53125 -0.96875 1.140625q-0.59375 0.59375 -1.453125 1.296875q-1.09375 0.890625 -1.796875 1.6875q-0.6875 0.78125 -0.796875 1.34375l2.828125 0.078125q0.78125 0.015625 1.375 0q0.609375 -0.015625 0.953125 -0.234375q0.34375 -0.234375 0.34375 -0.859375l0.484375 0l-0.109375 2.234375l-6.921875 0z" fill-rule="nonzero"/><path fill="#000000" d="m412.64938 64.95974l0 -0.53125q0.609375 -0.03125 0.828125 -0.28125q0.234375 -0.2500038 0.25 -0.6875038q0.03125 -0.4375 0.03125 -1.0l0 -6.90625q0 -0.328125 0.015625 -0.609375q0.015625 -0.296875 0.03125 -0.546875q-0.28125 0.015625 -0.578125 0.03125q-0.28125 0.015625 -0.578125 0.03125l0 -0.703125q0.90625 -0.015625 1.8125 -0.03125q0.921875 -0.015625 1.859375 0.015625q1.546875 0.015625 2.5 0.359375q0.953125 0.34375 1.390625 0.984375q0.453125 0.625 0.453125 1.515625q0.015625 0.625 -0.234375 1.28125q-0.234375 0.640625 -0.890625 1.15625q-0.640625 0.515625 -1.859375 0.765625q0.3125 0.234375 0.546875 0.59375q0.25 0.34375 0.5625 0.796875l1.078125 1.71875q0.28125 0.4375 0.53125 0.78125q0.25 0.3437538 0.578125 0.5468788q0.34375 0.1875 0.84375 0.1875l0 0.53125l-2.015625 0q-0.46875 -0.421875 -0.78125 -0.828125q-0.3125 -0.4218788 -0.640625 -0.9531288l-1.078125 -1.703125q-0.203125 -0.34375 -0.46875 -0.78125q-0.265625 -0.4375 -0.59375 -0.75q-0.265625 0.03125 -0.546875 0.03125q-0.28125 0 -0.546875 -0.03125l0 3.109375q0 0.4375 -0.015625 0.75q0 0.3125038 -0.03125 0.5156288q0.1875 -0.015625 0.375 -0.015625q0.203125 -0.015625 0.390625 -0.03125q0.1875 -0.015625 0.390625 -0.015625l0 0.703125l-3.609375 0zm3.5 -5.593754q0.875 -0.03125 1.53125 -0.28125q0.671875 -0.265625 1.046875 -0.828125q0.390625 -0.5625 0.390625 -1.46875q0 -0.609375 -0.171875 -1.0625q-0.15625 -0.46875 -0.515625 -0.765625q-0.359375 -0.296875 -0.90625 -0.453125q-0.53125 -0.15625 -1.265625 -0.15625q-0.59375 0 -0.828125 0.25q-0.234375 0.234375 -0.265625 0.65625q-0.015625 0.421875 -0.015625 1.0l0 3.078125q0.25 0.015625 0.484375 0.03125q0.234375 0.015625 0.515625 0zm10.641785 5.843754q-1.203125 0 -2.015625 -0.515625q-0.796875 -0.515625 -1.25 -1.3750038q-0.4375 -0.859375 -0.625 -1.875q-0.1875 -1.03125 -0.1875 -2.03125q0 -1.015625 0.234375 -2.046875q0.234375 -1.046875 0.734375 -1.921875q0.5 -0.875 1.28125 -1.40625q0.78125 -0.53125 1.90625 -0.53125q1.15625 0 1.9375 0.53125q0.78125 0.515625 1.234375 1.375q0.453125 0.859375 0.640625 1.890625q0.203125 1.015625 0.203125 2.03125q0 0.984375 -0.234375 2.03125q-0.21875 1.03125 -0.703125 1.90625q-0.484375 0.8750038 -1.265625 1.4062538q-0.765625 0.53125 -1.890625 0.53125zm0.109375 -0.625q0.6875 0 1.125 -0.421875q0.453125 -0.4375038 0.71875 -1.1562538q0.265625 -0.71875 0.375 -1.59375q0.109375 -0.875 0.109375 -1.75q0 -0.96875 -0.109375 -1.9375q-0.109375 -0.984375 -0.390625 -1.796875q-0.265625 -0.828125 -0.734375 -1.3125q-0.453125 -0.5 -1.15625 -0.5q-0.703125 0 -1.171875 0.4375q-0.46875 0.421875 -0.765625 1.140625q-0.28125 0.71875 -0.40625 1.609375q-0.125 0.875 -0.125 1.765625q0 0.671875 0.0625 1.421875q0.0625 0.75 0.234375 1.484375q0.171875 0.734375 0.453125 1.328125q0.28125 0.578125 0.71875 0.9375038q0.4375 0.34375 1.0625 0.34375z" fill-rule="nonzero"/><path fill="#b4a7d6" d="m446.23883 20.087927l48.944885 0l0 59.02362l-48.944885 0z" fill-rule="evenodd"/><path stroke="#ffffff" stroke-width="1.0" stroke-linejoin="round" stroke-linecap="butt" d="m446.23883 20.087927l48.944885 0l0 59.02362l-48.944885 0z" fill-rule="evenodd"/><path fill="#000000" d="m470.56088 38.13161q-0.015625 -0.9375 -0.203125 -1.5625q-0.171875 -0.625 -0.609375 -0.9375q-0.4375 -0.3125 -1.265625 -0.296875l-1.359375 0l-0.015625 8.71875q0 0.4375 -0.015625 0.75q0 0.3125 -0.03125 0.515625q0.328125 -0.015625 0.65625 -0.03125q0.328125 -0.015625 0.671875 -0.03125l0 0.703125l-3.765625 0l0 -0.53125q0.609375 -0.03125 0.828125 -0.28125q0.21875 -0.265625 0.234375 -0.703125q0.03125 -0.4375 0.03125 -0.984375l0.015625 -8.109375l-1.65625 0.015625q-1.0 0 -1.421875 0.671875q-0.421875 0.671875 -0.421875 2.09375l-0.578125 0l0.09375 -3.375l9.328125 0l0.09375 3.375l-0.609375 0zm1.7087708 7.828125q0 -0.84375 0.265625 -1.5q0.265625 -0.65625 0.703125 -1.203125q0.453125 -0.5625 1.015625 -1.078125q0.578125 -0.515625 1.171875 -1.09375q1.03125 -1.0 1.5 -1.84375q0.46875 -0.84375 0.46875 -1.640625q0 -0.59375 -0.171875 -1.15625q-0.171875 -0.578125 -0.609375 -0.9375q-0.421875 -0.375 -1.1875 -0.375q-0.65625 0 -1.171875 0.328125q-0.515625 0.328125 -0.6875 0.796875q0.15625 0.171875 0.21875 0.359375q0.0625 0.171875 0.0625 0.359375q0 0.140625 -0.078125 0.3125q-0.0625 0.171875 -0.234375 0.3125q-0.171875 0.125 -0.46875 0.125q-0.34375 -0.015625 -0.546875 -0.265625q-0.1875 -0.265625 -0.1875 -0.625q0 -0.328125 0.203125 -0.734375q0.21875 -0.40625 0.640625 -0.765625q0.421875 -0.359375 1.046875 -0.59375q0.625 -0.234375 1.453125 -0.234375q0.640625 0 1.234375 0.15625q0.609375 0.140625 1.078125 0.484375q0.484375 0.328125 0.765625 0.890625q0.28125 0.546875 0.28125 1.359375q0 0.40625 -0.171875 0.875q-0.15625 0.453125 -0.53125 1.0q-0.375 0.53125 -0.96875 1.140625q-0.59375 0.59375 -1.453125 1.296875q-1.09375 0.890625 -1.796875 1.6875q-0.6875 0.78125 -0.796875 1.34375l2.828125 0.078125q0.78125 0.015625 1.375 0q0.609375 -0.015625 0.953125 -0.234375q0.34375 -0.234375 0.34375 -0.859375l0.484375 0l-0.109375 2.234375l-6.921875 0z" fill-rule="nonzero"/><path fill="#000000" d="m463.65027 64.95974l0 -0.53125q0.609375 -0.03125 0.828125 -0.28125q0.234375 -0.2500038 0.25 -0.6875038q0.03125 -0.4375 0.03125 -1.0l0 -6.90625q0 -0.328125 0.015625 -0.609375q0.015625 -0.296875 0.03125 -0.546875q-0.28125 0.015625 -0.578125 0.03125q-0.28125 0.015625 -0.578125 0.03125l0 -0.703125q0.90625 -0.015625 1.8125 -0.03125q0.921875 -0.015625 1.859375 0.015625q1.546875 0.015625 2.5 0.359375q0.953125 0.34375 1.390625 0.984375q0.453125 0.625 0.453125 1.515625q0.015625 0.625 -0.234375 1.28125q-0.234375 0.640625 -0.890625 1.15625q-0.640625 0.515625 -1.859375 0.765625q0.3125 0.234375 0.546875 0.59375q0.25 0.34375 0.5625 0.796875l1.078125 1.71875q0.28125 0.4375 0.53125 0.78125q0.25 0.3437538 0.578125 0.5468788q0.34375 0.1875 0.84375 0.1875l0 0.53125l-2.015625 0q-0.46875 -0.421875 -0.78125 -0.828125q-0.3125 -0.4218788 -0.640625 -0.9531288l-1.078125 -1.703125q-0.203125 -0.34375 -0.46875 -0.78125q-0.265625 -0.4375 -0.59375 -0.75q-0.265625 0.03125 -0.546875 0.03125q-0.28125 0 -0.546875 -0.03125l0 3.109375q0 0.4375 -0.015625 0.75q0 0.3125038 -0.03125 0.5156288q0.1875 -0.015625 0.375 -0.015625q0.203125 -0.015625 0.390625 -0.03125q0.1875 -0.015625 0.390625 -0.015625l0 0.703125l-3.609375 0zm3.5 -5.593754q0.875 -0.03125 1.53125 -0.28125q0.671875 -0.265625 1.046875 -0.828125q0.390625 -0.5625 0.390625 -1.46875q0 -0.609375 -0.171875 -1.0625q-0.15625 -0.46875 -0.515625 -0.765625q-0.359375 -0.296875 -0.90625 -0.453125q-0.53125 -0.15625 -1.265625 -0.15625q-0.59375 0 -0.828125 0.25q-0.234375 0.234375 -0.265625 0.65625q-0.015625 0.421875 -0.015625 1.0l0 3.078125q0.25 0.015625 0.484375 0.03125q0.234375 0.015625 0.515625 0zm6.8605347 5.593754l0 -0.53125q0.5625 -0.03125 0.859375 -0.25q0.296875 -0.23437881 0.40625 -0.6250038q0.125 -0.40625 0.125 -0.953125l-0.046875 -7.546875l-1.921875 1.234375l-0.328125 -0.46875l3.125 -2.3125l0.546875 0l0.015625 9.703125q0 0.3125 -0.015625 0.609375q0 0.2812538 -0.03125 0.5000038q0.328125 -0.015625 0.65625 -0.03125q0.34375 -0.015625 0.6875 -0.03125l0 0.703125l-4.078125 0z" fill-rule="nonzero"/><path fill="#b4a7d6" d="m495.18372 20.087927l48.944885 0l0 59.02362l-48.944885 0z" fill-rule="evenodd"/><path stroke="#ffffff" stroke-width="1.0" stroke-linejoin="round" stroke-linecap="butt" d="m495.18372 20.087927l48.944885 0l0 59.02362l-48.944885 0z" fill-rule="evenodd"/><path fill="#000000" d="m519.5058 38.13161q-0.015625 -0.9375 -0.203125 -1.5625q-0.171875 -0.625 -0.609375 -0.9375q-0.4375 -0.3125 -1.265625 -0.296875l-1.359375 0l-0.015625 8.71875q0 0.4375 -0.015625 0.75q0 0.3125 -0.03125 0.515625q0.328125 -0.015625 0.65625 -0.03125q0.328125 -0.015625 0.671875 -0.03125l0 0.703125l-3.765625 0l0 -0.53125q0.609375 -0.03125 0.828125 -0.28125q0.21875 -0.265625 0.234375 -0.703125q0.03125 -0.4375 0.03125 -0.984375l0.015625 -8.109375l-1.65625 0.015625q-1.0 0 -1.4219055 0.671875q-0.421875 0.671875 -0.421875 2.09375l-0.578125 0l0.09375 -3.375l9.3281555 0l0.09375 3.375l-0.609375 0zm1.7087402 7.828125q0 -0.84375 0.265625 -1.5q0.265625 -0.65625 0.703125 -1.203125q0.453125 -0.5625 1.015625 -1.078125q0.578125 -0.515625 1.171875 -1.09375q1.03125 -1.0 1.5 -1.84375q0.46875 -0.84375 0.46875 -1.640625q0 -0.59375 -0.171875 -1.15625q-0.171875 -0.578125 -0.609375 -0.9375q-0.421875 -0.375 -1.1875 -0.375q-0.65625 0 -1.171875 0.328125q-0.515625 0.328125 -0.6875 0.796875q0.15625 0.171875 0.21875 0.359375q0.0625 0.171875 0.0625 0.359375q0 0.140625 -0.078125 0.3125q-0.0625 0.171875 -0.234375 0.3125q-0.171875 0.125 -0.46875 0.125q-0.34375 -0.015625 -0.546875 -0.265625q-0.1875 -0.265625 -0.1875 -0.625q0 -0.328125 0.203125 -0.734375q0.21875 -0.40625 0.640625 -0.765625q0.421875 -0.359375 1.046875 -0.59375q0.625 -0.234375 1.453125 -0.234375q0.640625 0 1.234375 0.15625q0.609375 0.140625 1.078125 0.484375q0.484375 0.328125 0.765625 0.890625q0.28125 0.546875 0.28125 1.359375q0 0.40625 -0.171875 0.875q-0.15625 0.453125 -0.53125 1.0q-0.375 0.53125 -0.96875 1.140625q-0.59375 0.59375 -1.453125 1.296875q-1.09375 0.890625 -1.796875 1.6875q-0.6875 0.78125 -0.796875 1.34375l2.828125 0.078125q0.78125 0.015625 1.375 0q0.609375 -0.015625 0.953125 -0.234375q0.34375 -0.234375 0.34375 -0.859375l0.484375 0l-0.109375 2.234375l-6.921875 0z" fill-rule="nonzero"/><path fill="#000000" d="m511.21115 64.95974l0 -0.53125q0.609375 -0.03125 0.8281555 -0.28125q0.234375 -0.2500038 0.25 -0.6875038q0.03125 -0.4375 0.03125 -1.0l0 -6.90625q0 -0.328125 0.015625 -0.609375q0.015625 -0.296875 0.03125 -0.546875q-0.28125 0.015625 -0.5781555 0.03125q-0.28125 0.015625 -0.578125 0.03125l0 -0.703125q0.9062805 -0.015625 1.8125305 -0.03125q0.921875 -0.015625 1.859375 0.015625q1.546875 0.015625 2.5 0.359375q0.953125 0.34375 1.390625 0.984375q0.453125 0.625 0.453125 1.515625q0.015625 0.625 -0.234375 1.28125q-0.234375 0.640625 -0.890625 1.15625q-0.640625 0.515625 -1.859375 0.765625q0.3125 0.234375 0.546875 0.59375q0.25 0.34375 0.5625 0.796875l1.078125 1.71875q0.28125 0.4375 0.53125 0.78125q0.25 0.3437538 0.578125 0.5468788q0.34375 0.1875 0.84375 0.1875l0 0.53125l-2.015625 0q-0.46875 -0.421875 -0.78125 -0.828125q-0.3125 -0.4218788 -0.640625 -0.9531288l-1.078125 -1.703125q-0.203125 -0.34375 -0.46875 -0.78125q-0.265625 -0.4375 -0.59375 -0.75q-0.265625 0.03125 -0.546875 0.03125q-0.28125 0 -0.546875 -0.03125l0 3.109375q0 0.4375 -0.015625 0.75q0 0.3125038 -0.03125 0.5156288q0.1875 -0.015625 0.375 -0.015625q0.203125 -0.015625 0.390625 -0.03125q0.1875 -0.015625 0.390625 -0.015625l0 0.703125l-3.6094055 0zm3.5000305 -5.593754q0.875 -0.03125 1.53125 -0.28125q0.671875 -0.265625 1.046875 -0.828125q0.390625 -0.5625 0.390625 -1.46875q0 -0.609375 -0.171875 -1.0625q-0.15625 -0.46875 -0.515625 -0.765625q-0.359375 -0.296875 -0.90625 -0.453125q-0.53125 -0.15625 -1.265625 -0.15625q-0.59375 0 -0.828125 0.25q-0.234375 0.234375 -0.265625 0.65625q-0.015625 0.421875 -0.015625 1.0l0 3.078125q0.25 0.015625 0.484375 0.03125q0.234375 0.015625 0.515625 0zm6.4073486 5.593754q0 -0.84375 0.265625 -1.5000038q0.265625 -0.65625 0.703125 -1.203125q0.453125 -0.5625 1.015625 -1.078125q0.578125 -0.515625 1.171875 -1.09375q1.03125 -1.0 1.5 -1.84375q0.46875 -0.84375 0.46875 -1.640625q0 -0.59375 -0.171875 -1.15625q-0.171875 -0.578125 -0.609375 -0.9375q-0.421875 -0.375 -1.1875 -0.375q-0.65625 0 -1.171875 0.328125q-0.515625 0.328125 -0.6875 0.796875q0.15625 0.171875 0.21875 0.359375q0.0625 0.171875 0.0625 0.359375q0 0.140625 -0.078125 0.3125q-0.0625 0.171875 -0.234375 0.3125q-0.171875 0.125 -0.46875 0.125q-0.34375 -0.015625 -0.546875 -0.265625q-0.1875 -0.265625 -0.1875 -0.625q0 -0.328125 0.203125 -0.734375q0.21875 -0.40625 0.640625 -0.765625q0.421875 -0.359375 1.046875 -0.59375q0.625 -0.234375 1.453125 -0.234375q0.640625 0 1.234375 0.15625q0.609375 0.140625 1.078125 0.484375q0.484375 0.328125 0.765625 0.890625q0.28125 0.546875 0.28125 1.359375q0 0.40625 -0.171875 0.875q-0.15625 0.453125 -0.53125 1.0q-0.375 0.53125 -0.96875 1.140625q-0.59375 0.59375 -1.453125 1.296875q-1.09375 0.890625 -1.796875 1.6875q-0.6875 0.78125 -0.796875 1.34375l2.828125 0.078125q0.78125 0.015625 1.375 0q0.609375 -0.015625 0.953125 -0.234375q0.34375 -0.234375 0.34375 -0.859375l0.484375 0l-0.109375 2.2343788l-6.921875 0z" fill-rule="nonzero"/><path fill="#b4a7d6" d="m544.1286 20.087927l48.944885 0l0 59.02362l-48.944885 0z" fill-rule="evenodd"/><path stroke="#ffffff" stroke-width="1.0" stroke-linejoin="round" stroke-linecap="butt" d="m544.1286 20.087927l48.944885 0l0 59.02362l-48.944885 0z" fill-rule="evenodd"/><path fill="#000000" d="m568.4507 38.13161q-0.015625 -0.9375 -0.203125 -1.5625q-0.171875 -0.625 -0.609375 -0.9375q-0.4375 -0.3125 -1.265625 -0.296875l-1.359375 0l-0.015625 8.71875q0 0.4375 -0.015625 0.75q0 0.3125 -0.03125 0.515625q0.328125 -0.015625 0.65625 -0.03125q0.328125 -0.015625 0.671875 -0.03125l0 0.703125l-3.765625 0l0 -0.53125q0.609375 -0.03125 0.828125 -0.28125q0.21875 -0.265625 0.234375 -0.703125q0.03125 -0.4375 0.03125 -0.984375l0.015625 -8.109375l-1.65625 0.015625q-1.0 0 -1.421875 0.671875q-0.421875 0.671875 -0.421875 2.09375l-0.578125 0l0.09375 -3.375l9.328125 0l0.09375 3.375l-0.609375 0zm1.7087402 7.828125q0 -0.84375 0.265625 -1.5q0.265625 -0.65625 0.703125 -1.203125q0.453125 -0.5625 1.015625 -1.078125q0.578125 -0.515625 1.171875 -1.09375q1.03125 -1.0 1.5 -1.84375q0.46875 -0.84375 0.46875 -1.640625q0 -0.59375 -0.171875 -1.15625q-0.171875 -0.578125 -0.609375 -0.9375q-0.421875 -0.375 -1.1875 -0.375q-0.65625 0 -1.171875 0.328125q-0.515625 0.328125 -0.6875 0.796875q0.15625 0.171875 0.21875 0.359375q0.0625 0.171875 0.0625 0.359375q0 0.140625 -0.078125 0.3125q-0.0625 0.171875 -0.234375 0.3125q-0.171875 0.125 -0.46875 0.125q-0.34375 -0.015625 -0.546875 -0.265625q-0.1875 -0.265625 -0.1875 -0.625q0 -0.328125 0.203125 -0.734375q0.21875 -0.40625 0.640625 -0.765625q0.421875 -0.359375 1.046875 -0.59375q0.625 -0.234375 1.453125 -0.234375q0.640625 0 1.234375 0.15625q0.609375 0.140625 1.078125 0.484375q0.484375 0.328125 0.765625 0.890625q0.28125 0.546875 0.28125 1.359375q0 0.40625 -0.171875 0.875q-0.15625 0.453125 -0.53125 1.0q-0.375 0.53125 -0.96875 1.140625q-0.59375 0.59375 -1.453125 1.296875q-1.09375 0.890625 -1.796875 1.6875q-0.6875 0.78125 -0.796875 1.34375l2.828125 0.078125q0.78125 0.015625 1.375 0q0.609375 -0.015625 0.953125 -0.234375q0.34375 -0.234375 0.34375 -0.859375l0.484375 0l-0.109375 2.234375l-6.921875 0z" fill-rule="nonzero"/><path fill="#000000" d="m559.99603 64.95974l0 -0.53125q0.609375 -0.03125 0.828125 -0.28125q0.234375 -0.2500038 0.25 -0.6875038q0.03125 -0.4375 0.03125 -1.0l0 -6.90625q0 -0.328125 0.015625 -0.609375q0.015625 -0.296875 0.03125 -0.546875q-0.28125 0.015625 -0.578125 0.03125q-0.28125 0.015625 -0.578125 0.03125l0 -0.703125q0.90625 -0.015625 1.8125 -0.03125q0.921875 -0.015625 1.859375 0.015625q1.546875 0.015625 2.5 0.359375q0.953125 0.34375 1.390625 0.984375q0.453125 0.625 0.453125 1.515625q0.015625 0.625 -0.234375 1.28125q-0.234375 0.640625 -0.890625 1.15625q-0.640625 0.515625 -1.859375 0.765625q0.3125 0.234375 0.546875 0.59375q0.25 0.34375 0.5625 0.796875l1.078125 1.71875q0.28125 0.4375 0.53125 0.78125q0.25 0.3437538 0.578125 0.5468788q0.34375 0.1875 0.84375 0.1875l0 0.53125l-2.015625 0q-0.46875 -0.421875 -0.78125 -0.828125q-0.3125 -0.4218788 -0.640625 -0.9531288l-1.078125 -1.703125q-0.203125 -0.34375 -0.46875 -0.78125q-0.265625 -0.4375 -0.59375 -0.75q-0.265625 0.03125 -0.546875 0.03125q-0.28125 0 -0.546875 -0.03125l0 3.109375q0 0.4375 -0.015625 0.75q0 0.3125038 -0.03125 0.5156288q0.1875 -0.015625 0.375 -0.015625q0.203125 -0.015625 0.390625 -0.03125q0.1875 -0.015625 0.390625 -0.015625l0 0.703125l-3.609375 0zm3.5 -5.593754q0.875 -0.03125 1.53125 -0.28125q0.671875 -0.265625 1.046875 -0.828125q0.390625 -0.5625 0.390625 -1.46875q0 -0.609375 -0.171875 -1.0625q-0.15625 -0.46875 -0.515625 -0.765625q-0.359375 -0.296875 -0.90625 -0.453125q-0.53125 -0.15625 -1.265625 -0.15625q-0.59375 0 -0.828125 0.25q-0.234375 0.234375 -0.265625 0.65625q-0.015625 0.421875 -0.015625 1.0l0 3.078125q0.25 0.015625 0.484375 0.03125q0.234375 0.015625 0.515625 0zm9.75116 5.843754q-1.15625 0 -1.90625 -0.34375q-0.75 -0.34375 -1.109375 -0.84375q-0.359375 -0.5156288 -0.359375 -0.9843788q0 -0.359375 0.1875 -0.609375q0.203125 -0.25 0.546875 -0.265625q0.296875 -0.015625 0.453125 0.109375q0.171875 0.109375 0.234375 0.296875q0.0625 0.171875 0.0625 0.3125q0 0.15625 -0.046875 0.328125q-0.046875 0.15625 -0.125 0.3125q0.15625 0.5468788 0.71875 0.7812538q0.578125 0.234375 1.234375 0.234375q1.140625 0 1.8125 -0.6093788q0.6875 -0.625 0.6875 -1.8125q0 -0.703125 -0.234375 -1.328125q-0.21875 -0.640625 -0.828125 -1.03125q-0.609375 -0.40625 -1.78125 -0.375q-0.125 0 -0.265625 0.015625q-0.140625 0 -0.3125 0.015625l0 -0.71875q0.171875 0 0.328125 0q0.15625 0 0.328125 0q0.84375 0 1.3125 -0.390625q0.484375 -0.390625 0.6875 -0.90625q0.21875 -0.53125 0.21875 -0.984375q0 -0.65625 -0.171875 -1.171875q-0.171875 -0.515625 -0.59375 -0.8125q-0.40625 -0.296875 -1.140625 -0.296875q-0.71875 0 -1.234375 0.375q-0.515625 0.375 -0.640625 0.765625q0.140625 0.171875 0.203125 0.328125q0.0625 0.15625 0.0625 0.328125q0 0.140625 -0.078125 0.3125q-0.078125 0.15625 -0.234375 0.265625q-0.15625 0.109375 -0.4375 0.109375q-0.328125 0 -0.515625 -0.234375q-0.171875 -0.234375 -0.171875 -0.578125q0 -0.4375 0.359375 -0.96875q0.359375 -0.546875 1.078125 -0.9375q0.734375 -0.390625 1.828125 -0.390625q0.875 0 1.609375 0.28125q0.734375 0.265625 1.171875 0.875q0.453125 0.609375 0.453125 1.625q0 0.5 -0.25 1.0q-0.25 0.5 -0.8125 0.9375q-0.5625 0.4375 -1.5625 0.734375q1.53125 0.15625 2.390625 0.984375q0.875 0.8125 0.875 2.0625q0 1.078125 -0.578125 1.796875q-0.5625 0.7031288 -1.484375 1.0625038q-0.90625 0.34375 -1.96875 0.34375z" fill-rule="nonzero"/><path fill="#9fc5e8" d="m628.0971 20.087927l48.944885 0l0 59.02362l-48.944885 0z" fill-rule="evenodd"/><path stroke="#ffffff" stroke-width="1.0" stroke-linejoin="round" stroke-linecap="butt" d="m628.0971 20.087927l48.944885 0l0 59.02362l-48.944885 0z" fill-rule="evenodd"/><path fill="#000000" d="m649.34717 38.13161q-0.015625 -0.9375 -0.203125 -1.5625q-0.171875 -0.625 -0.609375 -0.9375q-0.4375 -0.3125 -1.265625 -0.296875l-1.359375 0l-0.015625 8.71875q0 0.4375 -0.015625 0.75q0 0.3125 -0.03125 0.515625q0.328125 -0.015625 0.65625 -0.03125q0.328125 -0.015625 0.671875 -0.03125l0 0.703125l-3.765625 0l0 -0.53125q0.609375 -0.03125 0.828125 -0.28125q0.21875 -0.265625 0.234375 -0.703125q0.03125 -0.4375 0.03125 -0.984375l0.015625 -8.109375l-1.65625 0.015625q-1.0 0 -1.421875 0.671875q-0.421875 0.671875 -0.421875 2.09375l-0.578125 0l0.09375 -3.375l9.328125 0l0.09375 3.375l-0.609375 0zm5.05249 8.078125q-1.15625 0 -1.90625 -0.34375q-0.75 -0.34375 -1.109375 -0.84375q-0.359375 -0.515625 -0.359375 -0.984375q0 -0.359375 0.1875 -0.609375q0.203125 -0.25 0.546875 -0.265625q0.296875 -0.015625 0.453125 0.109375q0.171875 0.109375 0.234375 0.296875q0.0625 0.171875 0.0625 0.3125q0 0.15625 -0.046875 0.328125q-0.046875 0.15625 -0.125 0.3125q0.15625 0.546875 0.71875 0.78125q0.578125 0.234375 1.234375 0.234375q1.140625 0 1.8125 -0.609375q0.6875 -0.625 0.6875 -1.8125q0 -0.703125 -0.234375 -1.328125q-0.21875 -0.640625 -0.828125 -1.03125q-0.609375 -0.40625 -1.78125 -0.375q-0.125 0 -0.265625 0.015625q-0.140625 0 -0.3125 0.015625l0 -0.71875q0.171875 0 0.328125 0q0.15625 0 0.328125 0q0.84375 0 1.3125 -0.390625q0.484375 -0.390625 0.6875 -0.90625q0.21875 -0.53125 0.21875 -0.984375q0 -0.65625 -0.171875 -1.171875q-0.171875 -0.515625 -0.59375 -0.8125q-0.40625 -0.296875 -1.140625 -0.296875q-0.71875 0 -1.234375 0.375q-0.515625 0.375 -0.640625 0.765625q0.140625 0.171875 0.203125 0.328125q0.0625 0.15625 0.0625 0.328125q0 0.140625 -0.078125 0.3125q-0.078125 0.15625 -0.234375 0.265625q-0.15625 0.109375 -0.4375 0.109375q-0.328125 0 -0.515625 -0.234375q-0.171875 -0.234375 -0.171875 -0.578125q0 -0.4375 0.359375 -0.96875q0.359375 -0.546875 1.078125 -0.9375q0.734375 -0.390625 1.828125 -0.390625q0.875 0 1.609375 0.28125q0.734375 0.265625 1.171875 0.875q0.453125 0.609375 0.453125 1.625q0 0.5 -0.25 1.0q-0.25 0.5 -0.8125 0.9375q-0.5625 0.4375 -1.5625 0.734375q1.53125 0.15625 2.390625 0.984375q0.875 0.8125 0.875 2.0625q0 1.078125 -0.578125 1.796875q-0.5625 0.703125 -1.484375 1.0625q-0.90625 0.34375 -1.96875 0.34375zm6.0214233 -0.25l0 -0.53125q0.5625 -0.03125 0.859375 -0.25q0.296875 -0.234375 0.40625 -0.625q0.125 -0.40625 0.125 -0.953125l-0.046875 -7.546875l-1.921875 1.234375l-0.328125 -0.46875l3.125 -2.3125l0.546875 0l0.015625 9.703125q0 0.3125 -0.015625 0.609375q0 0.28125 -0.03125 0.5q0.328125 -0.015625 0.65625 -0.03125q0.34375 -0.015625 0.6875 -0.03125l0 0.703125l-4.078125 0z" fill-rule="nonzero"/><path fill="#000000" d="m643.4525 64.95974l0 -0.53125q0.609375 -0.03125 0.828125 -0.28125q0.234375 -0.2500038 0.25 -0.6875038q0.03125 -0.4375 0.03125 -1.0l0 -6.90625q0 -0.328125 0.015625 -0.609375q0.015625 -0.296875 0.03125 -0.546875q-0.28125 0.015625 -0.578125 0.03125q-0.28125 0.015625 -0.578125 0.03125l0 -0.703125q0.90625 -0.015625 1.8125 -0.03125q0.921875 -0.015625 1.859375 0.015625q1.546875 0.015625 2.5 0.359375q0.953125 0.34375 1.390625 0.984375q0.453125 0.625 0.453125 1.515625q0.015625 0.625 -0.234375 1.28125q-0.234375 0.640625 -0.890625 1.15625q-0.640625 0.515625 -1.859375 0.765625q0.3125 0.234375 0.546875 0.59375q0.25 0.34375 0.5625 0.796875l1.078125 1.71875q0.28125 0.4375 0.53125 0.78125q0.25 0.3437538 0.578125 0.5468788q0.34375 0.1875 0.84375 0.1875l0 0.53125l-2.015625 0q-0.46875 -0.421875 -0.78125 -0.828125q-0.3125 -0.4218788 -0.640625 -0.9531288l-1.078125 -1.703125q-0.203125 -0.34375 -0.46875 -0.78125q-0.265625 -0.4375 -0.59375 -0.75q-0.265625 0.03125 -0.546875 0.03125q-0.28125 0 -0.546875 -0.03125l0 3.109375q0 0.4375 -0.015625 0.75q0 0.3125038 -0.03125 0.5156288q0.1875 -0.015625 0.375 -0.015625q0.203125 -0.015625 0.390625 -0.03125q0.1875 -0.015625 0.390625 -0.015625l0 0.703125l-3.609375 0zm3.5 -5.593754q0.875 -0.03125 1.53125 -0.28125q0.671875 -0.265625 1.046875 -0.828125q0.390625 -0.5625 0.390625 -1.46875q0 -0.609375 -0.171875 -1.0625q-0.15625 -0.46875 -0.515625 -0.765625q-0.359375 -0.296875 -0.90625 -0.453125q-0.53125 -0.15625 -1.265625 -0.15625q-0.59375 0 -0.828125 0.25q-0.234375 0.234375 -0.265625 0.65625q-0.015625 0.421875 -0.015625 1.0l0 3.078125q0.25 0.015625 0.484375 0.03125q0.234375 0.015625 0.515625 0zm10.641785 5.843754q-1.203125 0 -2.015625 -0.515625q-0.796875 -0.515625 -1.25 -1.3750038q-0.4375 -0.859375 -0.625 -1.875q-0.1875 -1.03125 -0.1875 -2.03125q0 -1.015625 0.234375 -2.046875q0.234375 -1.046875 0.734375 -1.921875q0.5 -0.875 1.28125 -1.40625q0.78125 -0.53125 1.90625 -0.53125q1.15625 0 1.9375 0.53125q0.78125 0.515625 1.234375 1.375q0.453125 0.859375 0.640625 1.890625q0.203125 1.015625 0.203125 2.03125q0 0.984375 -0.234375 2.03125q-0.21875 1.03125 -0.703125 1.90625q-0.484375 0.8750038 -1.265625 1.4062538q-0.765625 0.53125 -1.890625 0.53125zm0.109375 -0.625q0.6875 0 1.125 -0.421875q0.453125 -0.4375038 0.71875 -1.1562538q0.265625 -0.71875 0.375 -1.59375q0.109375 -0.875 0.109375 -1.75q0 -0.96875 -0.109375 -1.9375q-0.109375 -0.984375 -0.390625 -1.796875q-0.265625 -0.828125 -0.734375 -1.3125q-0.453125 -0.5 -1.15625 -0.5q-0.703125 0 -1.171875 0.4375q-0.46875 0.421875 -0.765625 1.140625q-0.28125 0.71875 -0.40625 1.609375q-0.125 0.875 -0.125 1.765625q0 0.671875 0.0625 1.421875q0.0625 0.75 0.234375 1.484375q0.171875 0.734375 0.453125 1.328125q0.28125 0.578125 0.71875 0.9375038q0.4375 0.34375 1.0625 0.34375z" fill-rule="nonzero"/><path fill="#9fc5e8" d="m677.042 20.087927l48.944885 0l0 59.02362l-48.944885 0z" fill-rule="evenodd"/><path stroke="#ffffff" stroke-width="1.0" stroke-linejoin="round" stroke-linecap="butt" d="m677.042 20.087927l48.944885 0l0 59.02362l-48.944885 0z" fill-rule="evenodd"/><path fill="#000000" d="m698.29205 38.13161q-0.015625 -0.9375 -0.203125 -1.5625q-0.171875 -0.625 -0.609375 -0.9375q-0.4375 -0.3125 -1.265625 -0.296875l-1.359375 0l-0.015625 8.71875q0 0.4375 -0.015625 0.75q0 0.3125 -0.03125 0.515625q0.328125 -0.015625 0.65625 -0.03125q0.328125 -0.015625 0.671875 -0.03125l0 0.703125l-3.765625 0l0 -0.53125q0.609375 -0.03125 0.828125 -0.28125q0.21875 -0.265625 0.234375 -0.703125q0.03125 -0.4375 0.03125 -0.984375l0.015625 -8.109375l-1.65625 0.015625q-1.0 0 -1.421875 0.671875q-0.421875 0.671875 -0.421875 2.09375l-0.578125 0l0.09375 -3.375l9.328125 0l0.09375 3.375l-0.609375 0zm5.05249 8.078125q-1.15625 0 -1.90625 -0.34375q-0.75 -0.34375 -1.109375 -0.84375q-0.359375 -0.515625 -0.359375 -0.984375q0 -0.359375 0.1875 -0.609375q0.203125 -0.25 0.546875 -0.265625q0.296875 -0.015625 0.453125 0.109375q0.171875 0.109375 0.234375 0.296875q0.0625 0.171875 0.0625 0.3125q0 0.15625 -0.046875 0.328125q-0.046875 0.15625 -0.125 0.3125q0.15625 0.546875 0.71875 0.78125q0.578125 0.234375 1.234375 0.234375q1.140625 0 1.8125 -0.609375q0.6875 -0.625 0.6875 -1.8125q0 -0.703125 -0.234375 -1.328125q-0.21875 -0.640625 -0.828125 -1.03125q-0.609375 -0.40625 -1.78125 -0.375q-0.125 0 -0.265625 0.015625q-0.140625 0 -0.3125 0.015625l0 -0.71875q0.171875 0 0.328125 0q0.15625 0 0.328125 0q0.84375 0 1.3125 -0.390625q0.484375 -0.390625 0.6875 -0.90625q0.21875 -0.53125 0.21875 -0.984375q0 -0.65625 -0.171875 -1.171875q-0.171875 -0.515625 -0.59375 -0.8125q-0.40625 -0.296875 -1.140625 -0.296875q-0.71875 0 -1.234375 0.375q-0.515625 0.375 -0.640625 0.765625q0.140625 0.171875 0.203125 0.328125q0.0625 0.15625 0.0625 0.328125q0 0.140625 -0.078125 0.3125q-0.078125 0.15625 -0.234375 0.265625q-0.15625 0.109375 -0.4375 0.109375q-0.328125 0 -0.515625 -0.234375q-0.171875 -0.234375 -0.171875 -0.578125q0 -0.4375 0.359375 -0.96875q0.359375 -0.546875 1.078125 -0.9375q0.734375 -0.390625 1.828125 -0.390625q0.875 0 1.609375 0.28125q0.734375 0.265625 1.171875 0.875q0.453125 0.609375 0.453125 1.625q0 0.5 -0.25 1.0q-0.25 0.5 -0.8125 0.9375q-0.5625 0.4375 -1.5625 0.734375q1.53125 0.15625 2.390625 0.984375q0.875 0.8125 0.875 2.0625q0 1.078125 -0.578125 1.796875q-0.5625 0.703125 -1.484375 1.0625q-0.90625 0.34375 -1.96875 0.34375zm6.0214233 -0.25l0 -0.53125q0.5625 -0.03125 0.859375 -0.25q0.296875 -0.234375 0.40625 -0.625q0.125 -0.40625 0.125 -0.953125l-0.046875 -7.546875l-1.921875 1.234375l-0.328125 -0.46875l3.125 -2.3125l0.546875 0l0.015625 9.703125q0 0.3125 -0.015625 0.609375q0 0.28125 -0.03125 0.5q0.328125 -0.015625 0.65625 -0.03125q0.34375 -0.015625 0.6875 -0.03125l0 0.703125l-4.078125 0z" fill-rule="nonzero"/><path fill="#000000" d="m694.4534 64.95974l0 -0.53125q0.609375 -0.03125 0.828125 -0.28125q0.234375 -0.2500038 0.25 -0.6875038q0.03125 -0.4375 0.03125 -1.0l0 -6.90625q0 -0.328125 0.015625 -0.609375q0.015625 -0.296875 0.03125 -0.546875q-0.28125 0.015625 -0.578125 0.03125q-0.28125 0.015625 -0.578125 0.03125l0 -0.703125q0.90625 -0.015625 1.8125 -0.03125q0.921875 -0.015625 1.859375 0.015625q1.546875 0.015625 2.5 0.359375q0.953125 0.34375 1.390625 0.984375q0.453125 0.625 0.453125 1.515625q0.015625 0.625 -0.234375 1.28125q-0.234375 0.640625 -0.890625 1.15625q-0.640625 0.515625 -1.859375 0.765625q0.3125 0.234375 0.546875 0.59375q0.25 0.34375 0.5625 0.796875l1.078125 1.71875q0.28125 0.4375 0.53125 0.78125q0.25 0.3437538 0.578125 0.5468788q0.34375 0.1875 0.84375 0.1875l0 0.53125l-2.015625 0q-0.46875 -0.421875 -0.78125 -0.828125q-0.3125 -0.4218788 -0.640625 -0.9531288l-1.078125 -1.703125q-0.203125 -0.34375 -0.46875 -0.78125q-0.265625 -0.4375 -0.59375 -0.75q-0.265625 0.03125 -0.546875 0.03125q-0.28125 0 -0.546875 -0.03125l0 3.109375q0 0.4375 -0.015625 0.75q0 0.3125038 -0.03125 0.5156288q0.1875 -0.015625 0.375 -0.015625q0.203125 -0.015625 0.390625 -0.03125q0.1875 -0.015625 0.390625 -0.015625l0 0.703125l-3.609375 0zm3.5 -5.593754q0.875 -0.03125 1.53125 -0.28125q0.671875 -0.265625 1.046875 -0.828125q0.390625 -0.5625 0.390625 -1.46875q0 -0.609375 -0.171875 -1.0625q-0.15625 -0.46875 -0.515625 -0.765625q-0.359375 -0.296875 -0.90625 -0.453125q-0.53125 -0.15625 -1.265625 -0.15625q-0.59375 0 -0.828125 0.25q-0.234375 0.234375 -0.265625 0.65625q-0.015625 0.421875 -0.015625 1.0l0 3.078125q0.25 0.015625 0.484375 0.03125q0.234375 0.015625 0.515625 0zm6.8605347 5.593754l0 -0.53125q0.5625 -0.03125 0.859375 -0.25q0.296875 -0.23437881 0.40625 -0.6250038q0.125 -0.40625 0.125 -0.953125l-0.046875 -7.546875l-1.921875 1.234375l-0.328125 -0.46875l3.125 -2.3125l0.546875 0l0.015625 9.703125q0 0.3125 -0.015625 0.609375q0 0.2812538 -0.03125 0.5000038q0.328125 -0.015625 0.65625 -0.03125q0.34375 -0.015625 0.6875 -0.03125l0 0.703125l-4.078125 0z" fill-rule="nonzero"/><path fill="#9fc5e8" d="m725.9869 20.087927l48.944885 0l0 59.02362l-48.944885 0z" fill-rule="evenodd"/><path stroke="#ffffff" stroke-width="1.0" stroke-linejoin="round" stroke-linecap="butt" d="m725.9869 20.087927l48.944885 0l0 59.02362l-48.944885 0z" fill-rule="evenodd"/><path fill="#000000" d="m747.23694 38.13161q-0.015625 -0.9375 -0.203125 -1.5625q-0.171875 -0.625 -0.609375 -0.9375q-0.4375 -0.3125 -1.265625 -0.296875l-1.359375 0l-0.015625 8.71875q0 0.4375 -0.015625 0.75q0 0.3125 -0.03125 0.515625q0.328125 -0.015625 0.65625 -0.03125q0.328125 -0.015625 0.671875 -0.03125l0 0.703125l-3.765625 0l0 -0.53125q0.609375 -0.03125 0.828125 -0.28125q0.21875 -0.265625 0.234375 -0.703125q0.03125 -0.4375 0.03125 -0.984375l0.015625 -8.109375l-1.65625 0.015625q-1.0 0 -1.421875 0.671875q-0.421875 0.671875 -0.421875 2.09375l-0.578125 0l0.09375 -3.375l9.328125 0l0.09375 3.375l-0.609375 0zm5.05249 8.078125q-1.15625 0 -1.90625 -0.34375q-0.75 -0.34375 -1.109375 -0.84375q-0.359375 -0.515625 -0.359375 -0.984375q0 -0.359375 0.1875 -0.609375q0.203125 -0.25 0.546875 -0.265625q0.296875 -0.015625 0.453125 0.109375q0.171875 0.109375 0.234375 0.296875q0.0625 0.171875 0.0625 0.3125q0 0.15625 -0.046875 0.328125q-0.046875 0.15625 -0.125 0.3125q0.15625 0.546875 0.71875 0.78125q0.578125 0.234375 1.234375 0.234375q1.140625 0 1.8125 -0.609375q0.6875 -0.625 0.6875 -1.8125q0 -0.703125 -0.234375 -1.328125q-0.21875 -0.640625 -0.828125 -1.03125q-0.609375 -0.40625 -1.78125 -0.375q-0.125 0 -0.265625 0.015625q-0.140625 0 -0.3125 0.015625l0 -0.71875q0.171875 0 0.328125 0q0.15625 0 0.328125 0q0.84375 0 1.3125 -0.390625q0.484375 -0.390625 0.6875 -0.90625q0.21875 -0.53125 0.21875 -0.984375q0 -0.65625 -0.171875 -1.171875q-0.171875 -0.515625 -0.59375 -0.8125q-0.40625 -0.296875 -1.140625 -0.296875q-0.71875 0 -1.234375 0.375q-0.515625 0.375 -0.640625 0.765625q0.140625 0.171875 0.203125 0.328125q0.0625 0.15625 0.0625 0.328125q0 0.140625 -0.078125 0.3125q-0.078125 0.15625 -0.234375 0.265625q-0.15625 0.109375 -0.4375 0.109375q-0.328125 0 -0.515625 -0.234375q-0.171875 -0.234375 -0.171875 -0.578125q0 -0.4375 0.359375 -0.96875q0.359375 -0.546875 1.078125 -0.9375q0.734375 -0.390625 1.828125 -0.390625q0.875 0 1.609375 0.28125q0.734375 0.265625 1.171875 0.875q0.453125 0.609375 0.453125 1.625q0 0.5 -0.25 1.0q-0.25 0.5 -0.8125 0.9375q-0.5625 0.4375 -1.5625 0.734375q1.53125 0.15625 2.390625 0.984375q0.875 0.8125 0.875 2.0625q0 1.078125 -0.578125 1.796875q-0.5625 0.703125 -1.484375 1.0625q-0.90625 0.34375 -1.96875 0.34375zm6.0214233 -0.25l0 -0.53125q0.5625 -0.03125 0.859375 -0.25q0.296875 -0.234375 0.40625 -0.625q0.125 -0.40625 0.125 -0.953125l-0.046875 -7.546875l-1.921875 1.234375l-0.328125 -0.46875l3.125 -2.3125l0.546875 0l0.015625 9.703125q0 0.3125 -0.015625 0.609375q0 0.28125 -0.03125 0.5q0.328125 -0.015625 0.65625 -0.03125q0.34375 -0.015625 0.6875 -0.03125l0 0.703125l-4.078125 0z" fill-rule="nonzero"/><path fill="#000000" d="m742.0143 64.95974l0 -0.53125q0.609375 -0.03125 0.828125 -0.28125q0.234375 -0.2500038 0.25 -0.6875038q0.03125 -0.4375 0.03125 -1.0l0 -6.90625q0 -0.328125 0.015625 -0.609375q0.015625 -0.296875 0.03125 -0.546875q-0.28125 0.015625 -0.578125 0.03125q-0.28125 0.015625 -0.578125 0.03125l0 -0.703125q0.90625 -0.015625 1.8125 -0.03125q0.921875 -0.015625 1.859375 0.015625q1.546875 0.015625 2.5 0.359375q0.953125 0.34375 1.390625 0.984375q0.453125 0.625 0.453125 1.515625q0.015625 0.625 -0.234375 1.28125q-0.234375 0.640625 -0.890625 1.15625q-0.640625 0.515625 -1.859375 0.765625q0.3125 0.234375 0.546875 0.59375q0.25 0.34375 0.5625 0.796875l1.078125 1.71875q0.28125 0.4375 0.53125 0.78125q0.25 0.3437538 0.578125 0.5468788q0.34375 0.1875 0.84375 0.1875l0 0.53125l-2.015625 0q-0.46875 -0.421875 -0.78125 -0.828125q-0.3125 -0.4218788 -0.640625 -0.9531288l-1.078125 -1.703125q-0.203125 -0.34375 -0.46875 -0.78125q-0.265625 -0.4375 -0.59375 -0.75q-0.265625 0.03125 -0.546875 0.03125q-0.28125 0 -0.546875 -0.03125l0 3.109375q0 0.4375 -0.015625 0.75q0 0.3125038 -0.03125 0.5156288q0.1875 -0.015625 0.375 -0.015625q0.203125 -0.015625 0.390625 -0.03125q0.1875 -0.015625 0.390625 -0.015625l0 0.703125l-3.609375 0zm3.5 -5.593754q0.875 -0.03125 1.53125 -0.28125q0.671875 -0.265625 1.046875 -0.828125q0.390625 -0.5625 0.390625 -1.46875q0 -0.609375 -0.171875 -1.0625q-0.15625 -0.46875 -0.515625 -0.765625q-0.359375 -0.296875 -0.90625 -0.453125q-0.53125 -0.15625 -1.265625 -0.15625q-0.59375 0 -0.828125 0.25q-0.234375 0.234375 -0.265625 0.65625q-0.015625 0.421875 -0.015625 1.0l0 3.078125q0.25 0.015625 0.484375 0.03125q0.234375 0.015625 0.515625 0zm6.4074097 5.593754q0 -0.84375 0.265625 -1.5000038q0.265625 -0.65625 0.703125 -1.203125q0.453125 -0.5625 1.015625 -1.078125q0.578125 -0.515625 1.171875 -1.09375q1.03125 -1.0 1.5 -1.84375q0.46875 -0.84375 0.46875 -1.640625q0 -0.59375 -0.171875 -1.15625q-0.171875 -0.578125 -0.609375 -0.9375q-0.421875 -0.375 -1.1875 -0.375q-0.65625 0 -1.171875 0.328125q-0.515625 0.328125 -0.6875 0.796875q0.15625 0.171875 0.21875 0.359375q0.0625 0.171875 0.0625 0.359375q0 0.140625 -0.078125 0.3125q-0.0625 0.171875 -0.234375 0.3125q-0.171875 0.125 -0.46875 0.125q-0.34375 -0.015625 -0.546875 -0.265625q-0.1875 -0.265625 -0.1875 -0.625q0 -0.328125 0.203125 -0.734375q0.21875 -0.40625 0.640625 -0.765625q0.421875 -0.359375 1.046875 -0.59375q0.625 -0.234375 1.453125 -0.234375q0.640625 0 1.234375 0.15625q0.609375 0.140625 1.078125 0.484375q0.484375 0.328125 0.765625 0.890625q0.28125 0.546875 0.28125 1.359375q0 0.40625 -0.171875 0.875q-0.15625 0.453125 -0.53125 1.0q-0.375 0.53125 -0.96875 1.140625q-0.59375 0.59375 -1.453125 1.296875q-1.09375 0.890625 -1.796875 1.6875q-0.6875 0.78125 -0.796875 1.34375l2.828125 0.078125q0.78125 0.015625 1.375 0q0.609375 -0.015625 0.953125 -0.234375q0.34375 -0.234375 0.34375 -0.859375l0.484375 0l-0.109375 2.2343788l-6.921875 0z" fill-rule="nonzero"/><path fill="#9fc5e8" d="m774.93176 20.087927l48.944885 0l0 59.02362l-48.944885 0z" fill-rule="evenodd"/><path stroke="#ffffff" stroke-width="1.0" stroke-linejoin="round" stroke-linecap="butt" d="m774.93176 20.087927l48.944885 0l0 59.02362l-48.944885 0z" fill-rule="evenodd"/><path fill="#000000" d="m796.1818 38.13161q-0.015625 -0.9375 -0.203125 -1.5625q-0.171875 -0.625 -0.609375 -0.9375q-0.4375 -0.3125 -1.265625 -0.296875l-1.359375 0l-0.015625 8.71875q0 0.4375 -0.015625 0.75q0 0.3125 -0.03125 0.515625q0.328125 -0.015625 0.65625 -0.03125q0.328125 -0.015625 0.671875 -0.03125l0 0.703125l-3.765625 0l0 -0.53125q0.609375 -0.03125 0.828125 -0.28125q0.21875 -0.265625 0.234375 -0.703125q0.03125 -0.4375 0.03125 -0.984375l0.015625 -8.109375l-1.65625 0.015625q-1.0 0 -1.421875 0.671875q-0.421875 0.671875 -0.421875 2.09375l-0.578125 0l0.09375 -3.375l9.328125 0l0.09375 3.375l-0.609375 0zm5.05249 8.078125q-1.15625 0 -1.90625 -0.34375q-0.75 -0.34375 -1.109375 -0.84375q-0.359375 -0.515625 -0.359375 -0.984375q0 -0.359375 0.1875 -0.609375q0.203125 -0.25 0.546875 -0.265625q0.296875 -0.015625 0.453125 0.109375q0.171875 0.109375 0.234375 0.296875q0.0625 0.171875 0.0625 0.3125q0 0.15625 -0.046875 0.328125q-0.046875 0.15625 -0.125 0.3125q0.15625 0.546875 0.71875 0.78125q0.578125 0.234375 1.234375 0.234375q1.140625 0 1.8125 -0.609375q0.6875 -0.625 0.6875 -1.8125q0 -0.703125 -0.234375 -1.328125q-0.21875 -0.640625 -0.828125 -1.03125q-0.609375 -0.40625 -1.78125 -0.375q-0.125 0 -0.265625 0.015625q-0.140625 0 -0.3125 0.015625l0 -0.71875q0.171875 0 0.328125 0q0.15625 0 0.328125 0q0.84375 0 1.3125 -0.390625q0.484375 -0.390625 0.6875 -0.90625q0.21875 -0.53125 0.21875 -0.984375q0 -0.65625 -0.171875 -1.171875q-0.171875 -0.515625 -0.59375 -0.8125q-0.40625 -0.296875 -1.140625 -0.296875q-0.71875 0 -1.234375 0.375q-0.515625 0.375 -0.640625 0.765625q0.140625 0.171875 0.203125 0.328125q0.0625 0.15625 0.0625 0.328125q0 0.140625 -0.078125 0.3125q-0.078125 0.15625 -0.234375 0.265625q-0.15625 0.109375 -0.4375 0.109375q-0.328125 0 -0.515625 -0.234375q-0.171875 -0.234375 -0.171875 -0.578125q0 -0.4375 0.359375 -0.96875q0.359375 -0.546875 1.078125 -0.9375q0.734375 -0.390625 1.828125 -0.390625q0.875 0 1.609375 0.28125q0.734375 0.265625 1.171875 0.875q0.453125 0.609375 0.453125 1.625q0 0.5 -0.25 1.0q-0.25 0.5 -0.8125 0.9375q-0.5625 0.4375 -1.5625 0.734375q1.53125 0.15625 2.390625 0.984375q0.875 0.8125 0.875 2.0625q0 1.078125 -0.578125 1.796875q-0.5625 0.703125 -1.484375 1.0625q-0.90625 0.34375 -1.96875 0.34375zm6.0214233 -0.25l0 -0.53125q0.5625 -0.03125 0.859375 -0.25q0.296875 -0.234375 0.40625 -0.625q0.125 -0.40625 0.125 -0.953125l-0.046875 -7.546875l-1.921875 1.234375l-0.328125 -0.46875l3.125 -2.3125l0.546875 0l0.015625 9.703125q0 0.3125 -0.015625 0.609375q0 0.28125 -0.03125 0.5q0.328125 -0.015625 0.65625 -0.03125q0.34375 -0.015625 0.6875 -0.03125l0 0.703125l-4.078125 0z" fill-rule="nonzero"/><path fill="#000000" d="m790.7992 64.95974l0 -0.53125q0.609375 -0.03125 0.828125 -0.28125q0.234375 -0.2500038 0.25 -0.6875038q0.03125 -0.4375 0.03125 -1.0l0 -6.90625q0 -0.328125 0.015625 -0.609375q0.015625 -0.296875 0.03125 -0.546875q-0.28125 0.015625 -0.578125 0.03125q-0.28125 0.015625 -0.578125 0.03125l0 -0.703125q0.90625 -0.015625 1.8125 -0.03125q0.921875 -0.015625 1.859375 0.015625q1.546875 0.015625 2.5 0.359375q0.953125 0.34375 1.390625 0.984375q0.453125 0.625 0.453125 1.515625q0.015625 0.625 -0.234375 1.28125q-0.234375 0.640625 -0.890625 1.15625q-0.640625 0.515625 -1.859375 0.765625q0.3125 0.234375 0.546875 0.59375q0.25 0.34375 0.5625 0.796875l1.078125 1.71875q0.28125 0.4375 0.53125 0.78125q0.25 0.3437538 0.578125 0.5468788q0.34375 0.1875 0.84375 0.1875l0 0.53125l-2.015625 0q-0.46875 -0.421875 -0.78125 -0.828125q-0.3125 -0.4218788 -0.640625 -0.9531288l-1.078125 -1.703125q-0.203125 -0.34375 -0.46875 -0.78125q-0.265625 -0.4375 -0.59375 -0.75q-0.265625 0.03125 -0.546875 0.03125q-0.28125 0 -0.546875 -0.03125l0 3.109375q0 0.4375 -0.015625 0.75q0 0.3125038 -0.03125 0.5156288q0.1875 -0.015625 0.375 -0.015625q0.203125 -0.015625 0.390625 -0.03125q0.1875 -0.015625 0.390625 -0.015625l0 0.703125l-3.609375 0zm3.5 -5.593754q0.875 -0.03125 1.53125 -0.28125q0.671875 -0.265625 1.046875 -0.828125q0.390625 -0.5625 0.390625 -1.46875q0 -0.609375 -0.171875 -1.0625q-0.15625 -0.46875 -0.515625 -0.765625q-0.359375 -0.296875 -0.90625 -0.453125q-0.53125 -0.15625 -1.265625 -0.15625q-0.59375 0 -0.828125 0.25q-0.234375 0.234375 -0.265625 0.65625q-0.015625 0.421875 -0.015625 1.0l0 3.078125q0.25 0.015625 0.484375 0.03125q0.234375 0.015625 0.515625 0zm9.75116 5.843754q-1.15625 0 -1.90625 -0.34375q-0.75 -0.34375 -1.109375 -0.84375q-0.359375 -0.5156288 -0.359375 -0.9843788q0 -0.359375 0.1875 -0.609375q0.203125 -0.25 0.546875 -0.265625q0.296875 -0.015625 0.453125 0.109375q0.171875 0.109375 0.234375 0.296875q0.0625 0.171875 0.0625 0.3125q0 0.15625 -0.046875 0.328125q-0.046875 0.15625 -0.125 0.3125q0.15625 0.5468788 0.71875 0.7812538q0.578125 0.234375 1.234375 0.234375q1.140625 0 1.8125 -0.6093788q0.6875 -0.625 0.6875 -1.8125q0 -0.703125 -0.234375 -1.328125q-0.21875 -0.640625 -0.828125 -1.03125q-0.609375 -0.40625 -1.78125 -0.375q-0.125 0 -0.265625 0.015625q-0.140625 0 -0.3125 0.015625l0 -0.71875q0.171875 0 0.328125 0q0.15625 0 0.328125 0q0.84375 0 1.3125 -0.390625q0.484375 -0.390625 0.6875 -0.90625q0.21875 -0.53125 0.21875 -0.984375q0 -0.65625 -0.171875 -1.171875q-0.171875 -0.515625 -0.59375 -0.8125q-0.40625 -0.296875 -1.140625 -0.296875q-0.71875 0 -1.234375 0.375q-0.515625 0.375 -0.640625 0.765625q0.140625 0.171875 0.203125 0.328125q0.0625 0.15625 0.0625 0.328125q0 0.140625 -0.078125 0.3125q-0.078125 0.15625 -0.234375 0.265625q-0.15625 0.109375 -0.4375 0.109375q-0.328125 0 -0.515625 -0.234375q-0.171875 -0.234375 -0.171875 -0.578125q0 -0.4375 0.359375 -0.96875q0.359375 -0.546875 1.078125 -0.9375q0.734375 -0.390625 1.828125 -0.390625q0.875 0 1.609375 0.28125q0.734375 0.265625 1.171875 0.875q0.453125 0.609375 0.453125 1.625q0 0.5 -0.25 1.0q-0.25 0.5 -0.8125 0.9375q-0.5625 0.4375 -1.5625 0.734375q1.53125 0.15625 2.390625 0.984375q0.875 0.8125 0.875 2.0625q0 1.078125 -0.578125 1.796875q-0.5625 0.7031288 -1.484375 1.0625038q-0.90625 0.34375 -1.96875 0.34375z" fill-rule="nonzero"/><path fill="#000000" fill-opacity="0.0" d="m593.0735 20.087927l35.02362 0l0 43.716537l-35.02362 0z" fill-rule="evenodd"/><path fill="#666666" d="m605.88477 48.367443q-0.390625 0 -0.703125 -0.3125q-0.296875 -0.328125 -0.296875 -0.796875q0 -0.46875 0.3125 -0.796875q0.3125 -0.328125 0.703125 -0.328125q0.4375 0 0.71875 0.328125q0.296875 0.328125 0.296875 0.796875q0 0.46875 -0.3125 0.796875q-0.3125 0.3125 -0.71875 0.3125zm4.671875 0q-0.390625 0 -0.703125 -0.3125q-0.296875 -0.328125 -0.296875 -0.796875q0 -0.46875 0.3125 -0.796875q0.3125 -0.328125 0.703125 -0.328125q0.4375 0 0.71875 0.328125q0.296875 0.328125 0.296875 0.796875q0 0.46875 -0.3125 0.796875q-0.3125 0.3125 -0.71875 0.3125zm4.6875 0q-0.390625 0 -0.703125 -0.3125q-0.296875 -0.328125 -0.296875 -0.796875q0 -0.46875 0.3125 -0.796875q0.3125 -0.328125 0.703125 -0.328125q0.4375 0 0.71875 0.328125q0.296875 0.328125 0.296875 0.796875q0 0.46875 -0.3125 0.796875q-0.3125 0.3125 -0.71875 0.3125z" fill-rule="nonzero"/><path fill="#000000" fill-opacity="0.0" d="m1019.6562 20.887861l35.02362 0l0 43.716537l-35.02362 0z" fill-rule="evenodd"/><path fill="#000000" d="m1032.4674 49.16738q-0.390625 0 -0.703125 -0.3125q-0.296875 -0.328125 -0.296875 -0.796875q0 -0.46875 0.3125 -0.796875q0.3125 -0.328125 0.703125 -0.328125q0.4375 0 0.71875 0.328125q0.296875 0.328125 0.296875 0.796875q0 0.46875 -0.3125 0.796875q-0.3125 0.3125 -0.71875 0.3125zm4.671875 0q-0.390625 0 -0.703125 -0.3125q-0.296875 -0.328125 -0.296875 -0.796875q0 -0.46875 0.3125 -0.796875q0.3125 -0.328125 0.703125 -0.328125q0.4375 0 0.71875 0.328125q0.296875 0.328125 0.296875 0.796875q0 0.46875 -0.3125 0.796875q-0.3125 0.3125 -0.71875 0.3125zm4.6875 0q-0.390625 0 -0.703125 -0.3125q-0.296875 -0.328125 -0.296875 -0.796875q0 -0.46875 0.3125 -0.796875q0.3125 -0.328125 0.703125 -0.328125q0.4375 0 0.71875 0.328125q0.296875 0.328125 0.296875 0.796875q0 0.46875 -0.3125 0.796875q-0.3125 0.3125 -0.71875 0.3125z" fill-rule="nonzero"/><path fill="#ea9999" d="m823.87665 20.889635l48.944885 0l0 59.02362l-48.944885 0z" fill-rule="evenodd"/><path stroke="#ffffff" stroke-width="1.0" stroke-linejoin="round" stroke-linecap="butt" d="m823.87665 20.889635l48.944885 0l0 59.02362l-48.944885 0z" fill-rule="evenodd"/><path fill="#000000" d="m847.5267 38.933323q-0.015625 -0.9375 -0.203125 -1.5625q-0.171875 -0.625 -0.609375 -0.9375q-0.4375 -0.3125 -1.265625 -0.296875l-1.359375 0l-0.015625 8.71875q0 0.4375 -0.015625 0.75q0 0.3125 -0.03125 0.515625q0.328125 -0.015625 0.65625 -0.03125q0.328125 -0.015625 0.671875 -0.03125l0 0.703125l-3.765625 0l0 -0.53125q0.609375 -0.03125 0.828125 -0.28125q0.21875 -0.265625 0.234375 -0.703125q0.03125 -0.4375 0.03125 -0.984375l0.015625 -8.109375l-1.65625 0.015625q-1.0 0 -1.421875 0.671875q-0.421875 0.671875 -0.421875 2.09375l-0.578125 0l0.09375 -3.375l9.328125 0l0.09375 3.375l-0.609375 0zm5.9431763 8.078125q-1.203125 0 -2.015625 -0.515625q-0.796875 -0.515625 -1.25 -1.375q-0.4375 -0.859375 -0.625 -1.875q-0.1875 -1.03125 -0.1875 -2.03125q0 -1.015625 0.234375 -2.046875q0.234375 -1.046875 0.734375 -1.921875q0.5 -0.875 1.28125 -1.40625q0.78125 -0.53125 1.90625 -0.53125q1.15625 0 1.9375 0.53125q0.78125 0.515625 1.234375 1.375q0.453125 0.859375 0.640625 1.890625q0.203125 1.015625 0.203125 2.03125q0 0.984375 -0.234375 2.03125q-0.21875 1.03125 -0.703125 1.90625q-0.484375 0.875 -1.265625 1.40625q-0.765625 0.53125 -1.890625 0.53125zm0.109375 -0.625q0.6875 0 1.125 -0.421875q0.453125 -0.4375 0.71875 -1.15625q0.265625 -0.71875 0.375 -1.59375q0.109375 -0.875 0.109375 -1.75q0 -0.96875 -0.109375 -1.9375q-0.109375 -0.984375 -0.390625 -1.796875q-0.265625 -0.828125 -0.734375 -1.3125q-0.453125 -0.5 -1.15625 -0.5q-0.703125 0 -1.171875 0.4375q-0.46875 0.421875 -0.765625 1.140625q-0.28125 0.71875 -0.40625 1.609375q-0.125 0.875 -0.125 1.765625q0 0.671875 0.0625 1.421875q0.0625 0.75 0.234375 1.484375q0.171875 0.734375 0.453125 1.328125q0.28125 0.578125 0.71875 0.9375q0.4375 0.34375 1.0625 0.34375z" fill-rule="nonzero"/><path fill="#000000" d="m839.23206 65.761444l0 -0.53125q0.609375 -0.03125 0.828125 -0.28125q0.234375 -0.25 0.25 -0.6875q0.03125 -0.4374962 0.03125 -0.9999962l0 -6.90625q0 -0.328125 0.015625 -0.609375q0.015625 -0.296875 0.03125 -0.546875q-0.28125 0.015625 -0.578125 0.03125q-0.28125 0.015625 -0.578125 0.03125l0 -0.703125q0.90625 -0.015625 1.8125 -0.03125q0.921875 -0.015625 1.859375 0.015625q1.546875 0.015625 2.5 0.359375q0.953125 0.34375 1.390625 0.984375q0.453125 0.625 0.453125 1.515625q0.015625 0.625 -0.234375 1.28125q-0.234375 0.640625 -0.890625 1.15625q-0.640625 0.515625 -1.859375 0.765625q0.3125 0.234375 0.546875 0.59375q0.25 0.34375 0.5625 0.796875l1.078125 1.71875q0.28125 0.4374962 0.53125 0.7812462q0.25 0.34375 0.578125 0.546875q0.34375 0.1875 0.84375 0.1875l0 0.53125l-2.015625 0q-0.46875 -0.421875 -0.78125 -0.828125q-0.3125 -0.421875 -0.640625 -0.9531212l-1.078125 -1.703125q-0.203125 -0.34375 -0.46875 -0.78125q-0.265625 -0.4375 -0.59375 -0.75q-0.265625 0.03125 -0.546875 0.03125q-0.28125 0 -0.546875 -0.03125l0 3.109375q0 0.4374962 -0.015625 0.7499962q0 0.3125 -0.03125 0.515625q0.1875 -0.015625 0.375 -0.015625q0.203125 -0.015625 0.390625 -0.03125q0.1875 -0.015625 0.390625 -0.015625l0 0.703125l-3.609375 0zm3.5 -5.593746q0.875 -0.03125 1.53125 -0.28125q0.671875 -0.265625 1.046875 -0.828125q0.390625 -0.5625 0.390625 -1.46875q0 -0.609375 -0.171875 -1.0625q-0.15625 -0.46875 -0.515625 -0.765625q-0.359375 -0.296875 -0.90625 -0.453125q-0.53125 -0.15625 -1.265625 -0.15625q-0.59375 0 -0.828125 0.25q-0.234375 0.234375 -0.265625 0.65625q-0.015625 0.421875 -0.015625 1.0l0 3.078125q0.25 0.015625 0.484375 0.03125q0.234375 0.015625 0.515625 0zm10.641785 5.843746q-1.203125 0 -2.015625 -0.515625q-0.796875 -0.515625 -1.25 -1.375q-0.4375 -0.8593712 -0.625 -1.8749962q-0.1875 -1.03125 -0.1875 -2.03125q0 -1.015625 0.234375 -2.046875q0.234375 -1.046875 0.734375 -1.921875q0.5 -0.875 1.28125 -1.40625q0.78125 -0.53125 1.90625 -0.53125q1.15625 0 1.9375 0.53125q0.78125 0.515625 1.234375 1.375q0.453125 0.859375 0.640625 1.890625q0.203125 1.015625 0.203125 2.03125q0 0.984375 -0.234375 2.03125q-0.21875 1.03125 -0.703125 1.9062462q-0.484375 0.875 -1.265625 1.40625q-0.765625 0.53125 -1.890625 0.53125zm0.109375 -0.625q0.6875 0 1.125 -0.421875q0.453125 -0.4375 0.71875 -1.1562462q0.265625 -0.71875 0.375 -1.59375q0.109375 -0.875 0.109375 -1.75q0 -0.96875 -0.109375 -1.9375q-0.109375 -0.984375 -0.390625 -1.796875q-0.265625 -0.828125 -0.734375 -1.3125q-0.453125 -0.5 -1.15625 -0.5q-0.703125 0 -1.171875 0.4375q-0.46875 0.421875 -0.765625 1.140625q-0.28125 0.71875 -0.40625 1.609375q-0.125 0.875 -0.125 1.765625q0 0.671875 0.0625 1.421875q0.0625 0.75 0.234375 1.484375q0.171875 0.734375 0.453125 1.3281212q0.28125 0.578125 0.71875 0.9375q0.4375 0.34375 1.0625 0.34375z" fill-rule="nonzero"/><path fill="#ea9999" d="m872.82153 20.889635l48.944885 0l0 59.02362l-48.944885 0z" fill-rule="evenodd"/><path stroke="#ffffff" stroke-width="1.0" stroke-linejoin="round" stroke-linecap="butt" d="m872.82153 20.889635l48.944885 0l0 59.02362l-48.944885 0z" fill-rule="evenodd"/><path fill="#000000" d="m896.47156 38.933323q-0.015625 -0.9375 -0.203125 -1.5625q-0.171875 -0.625 -0.609375 -0.9375q-0.4375 -0.3125 -1.265625 -0.296875l-1.359375 0l-0.015625 8.71875q0 0.4375 -0.015625 0.75q0 0.3125 -0.03125 0.515625q0.328125 -0.015625 0.65625 -0.03125q0.328125 -0.015625 0.671875 -0.03125l0 0.703125l-3.765625 0l0 -0.53125q0.609375 -0.03125 0.828125 -0.28125q0.21875 -0.265625 0.234375 -0.703125q0.03125 -0.4375 0.03125 -0.984375l0.015625 -8.109375l-1.65625 0.015625q-1.0 0 -1.421875 0.671875q-0.421875 0.671875 -0.421875 2.09375l-0.578125 0l0.09375 -3.375l9.328125 0l0.09375 3.375l-0.609375 0zm5.9431763 8.078125q-1.203125 0 -2.015625 -0.515625q-0.796875 -0.515625 -1.25 -1.375q-0.4375 -0.859375 -0.625 -1.875q-0.1875 -1.03125 -0.1875 -2.03125q0 -1.015625 0.234375 -2.046875q0.234375 -1.046875 0.734375 -1.921875q0.5 -0.875 1.28125 -1.40625q0.78125 -0.53125 1.90625 -0.53125q1.15625 0 1.9375 0.53125q0.78125 0.515625 1.234375 1.375q0.453125 0.859375 0.640625 1.890625q0.203125 1.015625 0.203125 2.03125q0 0.984375 -0.234375 2.03125q-0.21875 1.03125 -0.703125 1.90625q-0.484375 0.875 -1.265625 1.40625q-0.765625 0.53125 -1.890625 0.53125zm0.109375 -0.625q0.6875 0 1.125 -0.421875q0.453125 -0.4375 0.71875 -1.15625q0.265625 -0.71875 0.375 -1.59375q0.109375 -0.875 0.109375 -1.75q0 -0.96875 -0.109375 -1.9375q-0.109375 -0.984375 -0.390625 -1.796875q-0.265625 -0.828125 -0.734375 -1.3125q-0.453125 -0.5 -1.15625 -0.5q-0.703125 0 -1.171875 0.4375q-0.46875 0.421875 -0.765625 1.140625q-0.28125 0.71875 -0.40625 1.609375q-0.125 0.875 -0.125 1.765625q0 0.671875 0.0625 1.421875q0.0625 0.75 0.234375 1.484375q0.171875 0.734375 0.453125 1.328125q0.28125 0.578125 0.71875 0.9375q0.4375 0.34375 1.0625 0.34375z" fill-rule="nonzero"/><path fill="#000000" d="m890.233 65.761444l0 -0.53125q0.609375 -0.03125 0.828125 -0.28125q0.234375 -0.25 0.25 -0.6875q0.03125 -0.4374962 0.03125 -0.9999962l0 -6.90625q0 -0.328125 0.015625 -0.609375q0.015625 -0.296875 0.03125 -0.546875q-0.28125 0.015625 -0.578125 0.03125q-0.28125 0.015625 -0.578125 0.03125l0 -0.703125q0.90625 -0.015625 1.8125 -0.03125q0.921875 -0.015625 1.859375 0.015625q1.546875 0.015625 2.5 0.359375q0.953125 0.34375 1.390625 0.984375q0.453125 0.625 0.453125 1.515625q0.015625 0.625 -0.234375 1.28125q-0.234375 0.640625 -0.890625 1.15625q-0.640625 0.515625 -1.859375 0.765625q0.3125 0.234375 0.546875 0.59375q0.25 0.34375 0.5625 0.796875l1.078125 1.71875q0.28125 0.4374962 0.53125 0.7812462q0.25 0.34375 0.578125 0.546875q0.34375 0.1875 0.84375 0.1875l0 0.53125l-2.015625 0q-0.46875 -0.421875 -0.78125 -0.828125q-0.3125 -0.421875 -0.640625 -0.9531212l-1.078125 -1.703125q-0.203125 -0.34375 -0.46875 -0.78125q-0.265625 -0.4375 -0.59375 -0.75q-0.265625 0.03125 -0.546875 0.03125q-0.28125 0 -0.546875 -0.03125l0 3.109375q0 0.4374962 -0.015625 0.7499962q0 0.3125 -0.03125 0.515625q0.1875 -0.015625 0.375 -0.015625q0.203125 -0.015625 0.390625 -0.03125q0.1875 -0.015625 0.390625 -0.015625l0 0.703125l-3.609375 0zm3.5 -5.593746q0.875 -0.03125 1.53125 -0.28125q0.671875 -0.265625 1.046875 -0.828125q0.390625 -0.5625 0.390625 -1.46875q0 -0.609375 -0.171875 -1.0625q-0.15625 -0.46875 -0.515625 -0.765625q-0.359375 -0.296875 -0.90625 -0.453125q-0.53125 -0.15625 -1.265625 -0.15625q-0.59375 0 -0.828125 0.25q-0.234375 0.234375 -0.265625 0.65625q-0.015625 0.421875 -0.015625 1.0l0 3.078125q0.25 0.015625 0.484375 0.03125q0.234375 0.015625 0.515625 0zm6.8604736 5.593746l0 -0.53125q0.5625 -0.03125 0.859375 -0.25q0.296875 -0.234375 0.40625 -0.625q0.125 -0.4062462 0.125 -0.9531212l-0.046875 -7.546875l-1.921875 1.234375l-0.328125 -0.46875l3.125 -2.3125l0.546875 0l0.015625 9.703121q0 0.3125 -0.015625 0.609375q0 0.28125 -0.03125 0.5q0.328125 -0.015625 0.65625 -0.03125q0.34375 -0.015625 0.6875 -0.03125l0 0.703125l-4.078125 0z" fill-rule="nonzero"/><path fill="#ea9999" d="m921.7664 20.889635l48.944885 0l0 59.02362l-48.944885 0z" fill-rule="evenodd"/><path stroke="#ffffff" stroke-width="1.0" stroke-linejoin="round" stroke-linecap="butt" d="m921.7664 20.889635l48.944885 0l0 59.02362l-48.944885 0z" fill-rule="evenodd"/><path fill="#000000" d="m945.41644 38.933323q-0.015625 -0.9375 -0.203125 -1.5625q-0.171875 -0.625 -0.609375 -0.9375q-0.4375 -0.3125 -1.265625 -0.296875l-1.359375 0l-0.015625 8.71875q0 0.4375 -0.015625 0.75q0 0.3125 -0.03125 0.515625q0.328125 -0.015625 0.65625 -0.03125q0.328125 -0.015625 0.671875 -0.03125l0 0.703125l-3.765625 0l0 -0.53125q0.609375 -0.03125 0.828125 -0.28125q0.21875 -0.265625 0.234375 -0.703125q0.03125 -0.4375 0.03125 -0.984375l0.015625 -8.109375l-1.65625 0.015625q-1.0 0 -1.421875 0.671875q-0.421875 0.671875 -0.421875 2.09375l-0.578125 0l0.09375 -3.375l9.328125 0l0.09375 3.375l-0.609375 0zm5.9431763 8.078125q-1.203125 0 -2.015625 -0.515625q-0.796875 -0.515625 -1.25 -1.375q-0.4375 -0.859375 -0.625 -1.875q-0.1875 -1.03125 -0.1875 -2.03125q0 -1.015625 0.234375 -2.046875q0.234375 -1.046875 0.734375 -1.921875q0.5 -0.875 1.28125 -1.40625q0.78125 -0.53125 1.90625 -0.53125q1.15625 0 1.9375 0.53125q0.78125 0.515625 1.234375 1.375q0.453125 0.859375 0.640625 1.890625q0.203125 1.015625 0.203125 2.03125q0 0.984375 -0.234375 2.03125q-0.21875 1.03125 -0.703125 1.90625q-0.484375 0.875 -1.265625 1.40625q-0.765625 0.53125 -1.890625 0.53125zm0.109375 -0.625q0.6875 0 1.125 -0.421875q0.453125 -0.4375 0.71875 -1.15625q0.265625 -0.71875 0.375 -1.59375q0.109375 -0.875 0.109375 -1.75q0 -0.96875 -0.109375 -1.9375q-0.109375 -0.984375 -0.390625 -1.796875q-0.265625 -0.828125 -0.734375 -1.3125q-0.453125 -0.5 -1.15625 -0.5q-0.703125 0 -1.171875 0.4375q-0.46875 0.421875 -0.765625 1.140625q-0.28125 0.71875 -0.40625 1.609375q-0.125 0.875 -0.125 1.765625q0 0.671875 0.0625 1.421875q0.0625 0.75 0.234375 1.484375q0.171875 0.734375 0.453125 1.328125q0.28125 0.578125 0.71875 0.9375q0.4375 0.34375 1.0625 0.34375z" fill-rule="nonzero"/><path fill="#000000" d="m937.7938 65.761444l0 -0.53125q0.609375 -0.03125 0.828125 -0.28125q0.234375 -0.25 0.25 -0.6875q0.03125 -0.4374962 0.03125 -0.9999962l0 -6.90625q0 -0.328125 0.015625 -0.609375q0.015625 -0.296875 0.03125 -0.546875q-0.28125 0.015625 -0.578125 0.03125q-0.28125 0.015625 -0.578125 0.03125l0 -0.703125q0.90625 -0.015625 1.8125 -0.03125q0.921875 -0.015625 1.859375 0.015625q1.546875 0.015625 2.5 0.359375q0.953125 0.34375 1.390625 0.984375q0.453125 0.625 0.453125 1.515625q0.015625 0.625 -0.234375 1.28125q-0.234375 0.640625 -0.890625 1.15625q-0.640625 0.515625 -1.859375 0.765625q0.3125 0.234375 0.546875 0.59375q0.25 0.34375 0.5625 0.796875l1.078125 1.71875q0.28125 0.4374962 0.53125 0.7812462q0.25 0.34375 0.578125 0.546875q0.34375 0.1875 0.84375 0.1875l0 0.53125l-2.015625 0q-0.46875 -0.421875 -0.78125 -0.828125q-0.3125 -0.421875 -0.640625 -0.9531212l-1.078125 -1.703125q-0.203125 -0.34375 -0.46875 -0.78125q-0.265625 -0.4375 -0.59375 -0.75q-0.265625 0.03125 -0.546875 0.03125q-0.28125 0 -0.546875 -0.03125l0 3.109375q0 0.4374962 -0.015625 0.7499962q0 0.3125 -0.03125 0.515625q0.1875 -0.015625 0.375 -0.015625q0.203125 -0.015625 0.390625 -0.03125q0.1875 -0.015625 0.390625 -0.015625l0 0.703125l-3.609375 0zm3.5 -5.593746q0.875 -0.03125 1.53125 -0.28125q0.671875 -0.265625 1.046875 -0.828125q0.390625 -0.5625 0.390625 -1.46875q0 -0.609375 -0.171875 -1.0625q-0.15625 -0.46875 -0.515625 -0.765625q-0.359375 -0.296875 -0.90625 -0.453125q-0.53125 -0.15625 -1.265625 -0.15625q-0.59375 0 -0.828125 0.25q-0.234375 0.234375 -0.265625 0.65625q-0.015625 0.421875 -0.015625 1.0l0 3.078125q0.25 0.015625 0.484375 0.03125q0.234375 0.015625 0.515625 0zm6.4074097 5.593746q0 -0.84375 0.265625 -1.5q0.265625 -0.6562462 0.703125 -1.2031212q0.453125 -0.5625 1.015625 -1.078125q0.578125 -0.515625 1.171875 -1.09375q1.03125 -1.0 1.5 -1.84375q0.46875 -0.84375 0.46875 -1.640625q0 -0.59375 -0.171875 -1.15625q-0.171875 -0.578125 -0.609375 -0.9375q-0.421875 -0.375 -1.1875 -0.375q-0.65625 0 -1.171875 0.328125q-0.515625 0.328125 -0.6875 0.796875q0.15625 0.171875 0.21875 0.359375q0.0625 0.171875 0.0625 0.359375q0 0.140625 -0.078125 0.3125q-0.0625 0.171875 -0.234375 0.3125q-0.171875 0.125 -0.46875 0.125q-0.34375 -0.015625 -0.546875 -0.265625q-0.1875 -0.265625 -0.1875 -0.625q0 -0.328125 0.203125 -0.734375q0.21875 -0.40625 0.640625 -0.765625q0.421875 -0.359375 1.046875 -0.59375q0.625 -0.234375 1.453125 -0.234375q0.640625 0 1.234375 0.15625q0.609375 0.140625 1.078125 0.484375q0.484375 0.328125 0.765625 0.890625q0.28125 0.546875 0.28125 1.359375q0 0.40625 -0.171875 0.875q-0.15625 0.453125 -0.53125 1.0q-0.375 0.53125 -0.96875 1.140625q-0.59375 0.59375 -1.453125 1.296875q-1.09375 0.890625 -1.796875 1.6875q-0.6875 0.78125 -0.796875 1.3437462l2.828125 0.078125q0.78125 0.015625 1.375 0q0.609375 -0.015625 0.953125 -0.234375q0.34375 -0.234375 0.34375 -0.8593712l0.484375 0l-0.109375 2.2343712l-6.921875 0z" fill-rule="nonzero"/><path fill="#ea9999" d="m970.7113 20.889635l48.944885 0l0 59.02362l-48.944885 0z" fill-rule="evenodd"/><path stroke="#ffffff" stroke-width="1.0" stroke-linejoin="round" stroke-linecap="butt" d="m970.7113 20.889635l48.944885 0l0 59.02362l-48.944885 0z" fill-rule="evenodd"/><path fill="#000000" d="m994.3613 38.933323q-0.015625 -0.9375 -0.203125 -1.5625q-0.171875 -0.625 -0.609375 -0.9375q-0.4375 -0.3125 -1.265625 -0.296875l-1.359375 0l-0.015625 8.71875q0 0.4375 -0.015625 0.75q0 0.3125 -0.03125 0.515625q0.328125 -0.015625 0.65625 -0.03125q0.328125 -0.015625 0.671875 -0.03125l0 0.703125l-3.765625 0l0 -0.53125q0.609375 -0.03125 0.828125 -0.28125q0.21875 -0.265625 0.234375 -0.703125q0.03125 -0.4375 0.03125 -0.984375l0.015625 -8.109375l-1.65625 0.015625q-1.0 0 -1.421875 0.671875q-0.421875 0.671875 -0.421875 2.09375l-0.578125 0l0.09375 -3.375l9.328125 0l0.09375 3.375l-0.609375 0zm5.9431763 8.078125q-1.203125 0 -2.015625 -0.515625q-0.796875 -0.515625 -1.25 -1.375q-0.4375 -0.859375 -0.625 -1.875q-0.1875 -1.03125 -0.1875 -2.03125q0 -1.015625 0.234375 -2.046875q0.234375 -1.046875 0.734375 -1.921875q0.5 -0.875 1.28125 -1.40625q0.78125 -0.53125 1.90625 -0.53125q1.15625 0 1.9375 0.53125q0.78125 0.515625 1.234375 1.375q0.453125 0.859375 0.640625 1.890625q0.203125 1.015625 0.203125 2.03125q0 0.984375 -0.234375 2.03125q-0.21875 1.03125 -0.703125 1.90625q-0.484375 0.875 -1.265625 1.40625q-0.765625 0.53125 -1.890625 0.53125zm0.109375 -0.625q0.6875 0 1.125 -0.421875q0.453125 -0.4375 0.71875 -1.15625q0.265625 -0.71875 0.375 -1.59375q0.109375 -0.875 0.109375 -1.75q0 -0.96875 -0.109375 -1.9375q-0.109375 -0.984375 -0.390625 -1.796875q-0.265625 -0.828125 -0.734375 -1.3125q-0.453125 -0.5 -1.15625 -0.5q-0.703125 0 -1.171875 0.4375q-0.46875 0.421875 -0.765625 1.140625q-0.28125 0.71875 -0.40625 1.609375q-0.125 0.875 -0.125 1.765625q0 0.671875 0.0625 1.421875q0.0625 0.75 0.234375 1.484375q0.171875 0.734375 0.453125 1.328125q0.28125 0.578125 0.71875 0.9375q0.4375 0.34375 1.0625 0.34375z" fill-rule="nonzero"/><path fill="#000000" d="m986.57874 65.761444l0 -0.53125q0.609375 -0.03125 0.828125 -0.28125q0.234375 -0.25 0.25 -0.6875q0.03125 -0.4374962 0.03125 -0.9999962l0 -6.90625q0 -0.328125 0.015625 -0.609375q0.015625 -0.296875 0.03125 -0.546875q-0.28125 0.015625 -0.578125 0.03125q-0.28125 0.015625 -0.578125 0.03125l0 -0.703125q0.90625 -0.015625 1.8125 -0.03125q0.921875 -0.015625 1.859375 0.015625q1.546875 0.015625 2.5 0.359375q0.953125 0.34375 1.390625 0.984375q0.453125 0.625 0.453125 1.515625q0.015625 0.625 -0.234375 1.28125q-0.234375 0.640625 -0.890625 1.15625q-0.640625 0.515625 -1.859375 0.765625q0.3125 0.234375 0.546875 0.59375q0.25 0.34375 0.5625 0.796875l1.078125 1.71875q0.28125 0.4374962 0.53125 0.7812462q0.25 0.34375 0.578125 0.546875q0.34375 0.1875 0.84375 0.1875l0 0.53125l-2.015625 0q-0.46875 -0.421875 -0.78125 -0.828125q-0.3125 -0.421875 -0.640625 -0.9531212l-1.078125 -1.703125q-0.203125 -0.34375 -0.46875 -0.78125q-0.265625 -0.4375 -0.59375 -0.75q-0.265625 0.03125 -0.546875 0.03125q-0.28125 0 -0.546875 -0.03125l0 3.109375q0 0.4374962 -0.015625 0.7499962q0 0.3125 -0.03125 0.515625q0.1875 -0.015625 0.375 -0.015625q0.203125 -0.015625 0.390625 -0.03125q0.1875 -0.015625 0.390625 -0.015625l0 0.703125l-3.609375 0zm3.5 -5.593746q0.875 -0.03125 1.53125 -0.28125q0.671875 -0.265625 1.046875 -0.828125q0.390625 -0.5625 0.390625 -1.46875q0 -0.609375 -0.171875 -1.0625q-0.15625 -0.46875 -0.515625 -0.765625q-0.359375 -0.296875 -0.90625 -0.453125q-0.53125 -0.15625 -1.265625 -0.15625q-0.59375 0 -0.828125 0.25q-0.234375 0.234375 -0.265625 0.65625q-0.015625 0.421875 -0.015625 1.0l0 3.078125q0.25 0.015625 0.484375 0.03125q0.234375 0.015625 0.515625 0zm9.751099 5.843746q-1.15625 0 -1.90625 -0.34375q-0.75 -0.34375 -1.109375 -0.84375q-0.359375 -0.515625 -0.359375 -0.9843712q0 -0.359375 0.1875 -0.609375q0.203125 -0.25 0.546875 -0.265625q0.296875 -0.015625 0.453125 0.109375q0.171875 0.109375 0.234375 0.296875q0.0625 0.171875 0.0625 0.3125q0 0.15625 -0.046875 0.3281212q-0.046875 0.15625 -0.125 0.3125q0.15625 0.546875 0.71875 0.78125q0.578125 0.234375 1.234375 0.234375q1.140625 0 1.8125 -0.609375q0.6875 -0.625 0.6875 -1.8124962q0 -0.703125 -0.234375 -1.328125q-0.21875 -0.640625 -0.828125 -1.03125q-0.609375 -0.40625 -1.78125 -0.375q-0.125 0 -0.265625 0.015625q-0.140625 0 -0.3125 0.015625l0 -0.71875q0.171875 0 0.328125 0q0.15625 0 0.328125 0q0.84375 0 1.3125 -0.390625q0.484375 -0.390625 0.6875 -0.90625q0.21875 -0.53125 0.21875 -0.984375q0 -0.65625 -0.171875 -1.171875q-0.171875 -0.515625 -0.59375 -0.8125q-0.40625 -0.296875 -1.140625 -0.296875q-0.71875 0 -1.234375 0.375q-0.515625 0.375 -0.640625 0.765625q0.140625 0.171875 0.203125 0.328125q0.0625 0.15625 0.0625 0.328125q0 0.140625 -0.078125 0.3125q-0.078125 0.15625 -0.234375 0.265625q-0.15625 0.109375 -0.4375 0.109375q-0.328125 0 -0.515625 -0.234375q-0.171875 -0.234375 -0.171875 -0.578125q0 -0.4375 0.359375 -0.96875q0.359375 -0.546875 1.078125 -0.9375q0.734375 -0.390625 1.828125 -0.390625q0.875 0 1.609375 0.28125q0.734375 0.265625 1.171875 0.875q0.453125 0.609375 0.453125 1.625q0 0.5 -0.25 1.0q-0.25 0.5 -0.8125 0.9375q-0.5625 0.4375 -1.5625 0.734375q1.53125 0.15625 2.390625 0.984375q0.875 0.8125 0.875 2.0625q0 1.078125 -0.578125 1.7968712q-0.5625 0.703125 -1.484375 1.0625q-0.90625 0.34375 -1.96875 0.34375z" fill-rule="nonzero"/></g></svg>